<svg viewBox="0 0 16 16" fill="none" xmlns="http://www.w3.org/2000/svg">
    <path d="M0.666748 3H15.3334V13H0.666748V3Z" fill="#4CAF50"/>
    <path d="M14 8L8 12L2 8L8 4L14 8Z" fill="#FFEB3B"/>
    <path d="M8.00008 5.66602C7.69366 5.66602 7.39025 5.72637 7.10715 5.84363C6.82406 5.96089 6.56684 6.13276 6.35017 6.34943C6.1335 6.5661 5.96162 6.82333 5.84436 7.10642C5.7271 7.38951 5.66675 7.69293 5.66675 7.99935C5.66675 8.30577 5.7271 8.60918 5.84436 8.89228C5.96162 9.17537 6.1335 9.43259 6.35017 9.64926C6.56684 9.86593 6.82406 10.0378 7.10715 10.1551C7.39025 10.2723 7.69366 10.3327 8.00008 10.3327C8.3065 10.3327 8.60992 10.2723 8.89301 10.1551C9.1761 10.0378 9.43333 9.86593 9.65 9.64926C9.86667 9.43259 10.0385 9.17537 10.1558 8.89228C10.2731 8.60918 10.3334 8.30577 10.3334 7.99935C10.3334 7.69293 10.2731 7.38951 10.1558 7.10642C10.0385 6.82333 9.86667 6.5661 9.65 6.34943C9.43333 6.13276 9.1761 5.96089 8.89301 5.84363C8.60992 5.72637 8.3065 5.66602 8.00008 5.66602Z" fill="#3F51B5"/>
    <path d="M5.93499 6.91587C5.82199 7.13053 5.74299 7.36487 5.70166 7.6122C6.45299 7.51887 8.49533 7.42487 10.213 8.7362C10.29 8.50453 10.3333 8.2572 10.3333 7.99987C10.3333 7.99987 10.3333 7.99853 10.3333 7.99787C8.68599 6.88187 6.88599 6.83653 5.93499 6.91587Z" fill="white"/>
</svg>
