<svg viewBox="0 0 16 16" fill="none" xmlns="http://www.w3.org/2000/svg">
    <path d="M0.666626 3.33325H15.3333V13.3333H0.666626V3.33325Z" fill="#F5F5F5"/>
    <path d="M3.63721 7.03784L5.08895 4.80098L5.28468 4.92801L3.83293 7.16487L3.63721 7.03784Z" fill="#263238"/>
    <path d="M2.5979 10.3154L2.82171 10.1705L4.27151 12.4086L4.04769 12.5536L2.5979 10.3154Z" fill="#263238"/>
    <path d="M11.2208 4.58643L11.4442 4.44075L12.9191 6.70228L12.6958 6.84796L11.2208 4.58643Z" fill="#263238"/>
    <path d="M3.11438 6.71436L4.56613 4.4775L4.76185 4.60452L3.3101 6.84138L3.11438 6.71436Z" fill="#263238"/>
    <path d="M11.4816 6.13892L11.6773 6.01195L12.3484 7.04672L12.1527 7.17369L11.4816 6.13892Z" fill="#263238"/>
    <path d="M12.4846 11.22L13.1561 10.1854L13.3518 10.3125L12.6803 11.347L12.4846 11.22Z" fill="#263238"/>
    <path d="M3.87842 11.1765L4.07402 11.0493L4.74645 12.0832L4.55084 12.2104L3.87842 11.1765Z" fill="#263238"/>
    <path d="M12.5197 5.47778L12.7148 5.34989L13.3908 6.38145L13.1957 6.50934L12.5197 5.47778Z" fill="#263238"/>
    <path d="M11.4569 10.5457L12.1283 9.51111L12.3241 9.63813L11.6526 10.6727L11.4569 10.5457Z" fill="#263238"/>
    <path d="M11.9791 10.8682L12.6529 9.83514L12.8763 9.98082L12.2025 11.0138L11.9791 10.8682Z" fill="#263238"/>
    <path d="M10.7164 4.92822L10.9116 4.8004L11.5873 5.83221L11.3921 5.96003L10.7164 4.92822Z" fill="#263238"/>
    <path d="M11.7012 12.4124L12.3667 11.374L12.5631 11.4999L11.8976 12.5383L11.7012 12.4124Z" fill="#263238"/>
    <path d="M3.11658 9.96143L3.34082 9.81711L4.00829 10.8542L3.78405 10.9985L3.11658 9.96143Z" fill="#263238"/>
    <path d="M11.7552 4.26245L11.9503 4.13445L12.6269 5.16565L12.4318 5.29365L11.7552 4.26245Z" fill="#263238"/>
    <path d="M10.6688 11.7295L11.3426 10.6965L11.566 10.8422L10.8922 11.8752L10.6688 11.7295Z" fill="#263238"/>
    <path d="M11.1781 12.0857L11.8458 11.0487L12.07 11.1931L11.4023 12.2301L11.1781 12.0857Z" fill="#263238"/>
    <path d="M2.58618 6.38525L4.06283 4.12483L4.28608 4.27067L2.80943 6.5311L2.58618 6.38525Z" fill="#263238"/>
    <path d="M3.61853 9.62158L3.81434 9.49468L5.26468 11.7324L5.06887 11.8594L3.61853 9.62158Z" fill="#263238"/>
    <path d="M6.66671 9.66675C7.40004 9.66675 8.00004 9.06675 8.00004 8.33341C8.00004 7.60008 8.60004 7.00008 9.33337 7.00008C10.0667 7.00008 10.6667 7.60008 10.6667 8.33341C10.6667 6.86675 9.46671 5.66675 8.00004 5.66675C6.53337 5.66675 5.33337 6.86675 5.33337 8.33341C5.33337 9.06675 5.93337 9.66675 6.66671 9.66675Z" fill="#F44336"/>
    <path d="M9.33337 7C8.60004 7 8.00004 7.6 8.00004 8.33333C8.00004 9.06667 7.40004 9.66667 6.66671 9.66667C5.93337 9.66667 5.33337 9.06667 5.33337 8.33333C5.33337 9.8 6.53337 11 8.00004 11C9.46671 11 10.6667 9.8 10.6667 8.33333C10.6667 7.6 10.0667 7 9.33337 7Z" fill="#3949AB"/>
</svg>
