<svg viewBox="0 0 16 16" fill="none" xmlns="http://www.w3.org/2000/svg">
    <path d="M0.666016 3.33325H15.3327V12.3333H0.666016V3.33325Z" fill="#ECEFF1"/>
    <path d="M0.666626 3.33325H15.3333V4.33325H0.666626V3.33325ZM0.666626 5.33325H15.3333V6.33325H0.666626V5.33325ZM0.666626 7.33325H15.3333V8.33325H0.666626V7.33325ZM0.666626 9.33325H15.3333V10.3333H0.666626V9.33325ZM0.666626 11.3333H15.3333V12.3333H0.666626V11.3333Z" fill="#F44336"/>
    <path d="M0.666626 3.33325H7.66663V8.33325H0.666626V3.33325Z" fill="#3F51B5"/>
    <path d="M1.41663 4L1.57096 4.32933L1.91663 4.382L1.66663 4.63867L1.72596 5L1.41663 4.82933L1.10729 5L1.16663 4.63867L0.916626 4.382L1.26229 4.32933L1.41663 4ZM2.74996 4L2.90429 4.32933L3.24996 4.382L2.99996 4.63867L3.05929 5L2.74996 4.82933L2.44063 5L2.49996 4.63867L2.24996 4.382L2.59563 4.32933L2.74996 4ZM4.08329 4L4.23763 4.32933L4.58329 4.382L4.33329 4.63867L4.39263 5L4.08329 4.82933L3.77396 5L3.83329 4.63867L3.58329 4.382L3.92896 4.32933L4.08329 4ZM5.41663 4L5.57096 4.32933L5.91663 4.382L5.66663 4.63867L5.72596 5L5.41663 4.82933L5.10729 5L5.16663 4.63867L4.91663 4.382L5.26229 4.32933L5.41663 4ZM6.66663 4L6.82096 4.32933L7.16663 4.382L6.91663 4.63867L6.97596 5L6.66663 4.82933L6.35729 5L6.41663 4.63867L6.16663 4.382L6.51229 4.32933L6.66663 4ZM1.41663 6.66667L1.57096 6.996L1.91663 7.04867L1.66663 7.30533L1.72596 7.66667L1.41663 7.496L1.10729 7.66667L1.16663 7.30533L0.916626 7.04867L1.26229 6.996L1.41663 6.66667ZM2.74996 6.66667L2.90429 6.996L3.24996 7.04867L2.99996 7.30533L3.05929 7.66667L2.74996 7.496L2.44063 7.66667L2.49996 7.30533L2.24996 7.04867L2.59563 6.996L2.74996 6.66667ZM4.08329 6.66667L4.23763 6.996L4.58329 7.04867L4.33329 7.30533L4.39263 7.66667L4.08329 7.496L3.77396 7.66667L3.83329 7.30533L3.58329 7.04867L3.92896 6.996L4.08329 6.66667ZM5.41663 6.66667L5.57096 6.996L5.91663 7.04867L5.66663 7.30533L5.72596 7.66667L5.41663 7.496L5.10729 7.66667L5.16663 7.30533L4.91663 7.04867L5.26229 6.996L5.41663 6.66667ZM6.66663 6.66667L6.82096 6.996L7.16663 7.04867L6.91663 7.30533L6.97596 7.66667L6.66663 7.496L6.35729 7.66667L6.41663 7.30533L6.16663 7.04867L6.51229 6.996L6.66663 6.66667ZM1.74996 5.33333L1.90429 5.66267L2.24996 5.71533L1.99996 5.972L2.05929 6.33333L1.74996 6.16267L1.44063 6.33333L1.49996 5.972L1.24996 5.71533L1.59563 5.66267L1.74996 5.33333ZM3.08329 5.33333L3.23763 5.66267L3.58329 5.71533L3.33329 5.972L3.39263 6.33333L3.08329 6.16267L2.77396 6.33333L2.83329 5.972L2.58329 5.71533L2.92896 5.66267L3.08329 5.33333ZM4.41663 5.33333L4.57096 5.66267L4.91663 5.71533L4.66663 5.972L4.72596 6.33333L4.41663 6.16267L4.10729 6.33333L4.16663 5.972L3.91663 5.71533L4.26229 5.66267L4.41663 5.33333ZM5.74996 5.33333L5.90429 5.66267L6.24996 5.71533L5.99996 5.972L6.05929 6.33333L5.74996 6.16267L5.44063 6.33333L5.49996 5.972L5.24996 5.71533L5.59563 5.66267L5.74996 5.33333ZM6.99996 5.33333L7.15429 5.66267L7.49996 5.71533L7.24996 5.972L7.30929 6.33333L6.99996 6.16267L6.69063 6.33333L6.74996 5.972L6.49996 5.71533L6.84563 5.66267L6.99996 5.33333Z" fill="white"/>
</svg>
