<svg viewBox="0 0 16 16" fill="none" xmlns="http://www.w3.org/2000/svg">
    <path d="M0.666626 3V8V13H15.3333V8V3H0.666626Z" fill="#FF3D00"/>
    <path d="M3.33329 4.49669L3.72696 5.74669H4.99996L3.96996 6.45569L4.36329 7.66669L3.33329 6.91836L2.30329 7.66669L2.69663 6.45569L1.66663 5.74669H2.93963L3.33329 4.49669ZM5.82463 3.65869L5.94263 4.03369H6.32463L6.01563 4.24569L6.13363 4.60936L5.82463 4.38469L5.51563 4.60936L5.63363 4.24569L5.32463 4.03369H5.70663L5.82463 3.65869ZM5.83329 8.00003L5.95129 8.37503H6.33329L6.02429 8.58736L6.14229 8.95103L5.83329 8.72636L5.52429 8.95103L5.64229 8.58736L5.33329 8.37503H5.71529L5.83329 8.00003ZM7.16663 5.00003L7.28463 5.37503H7.66663L7.35763 5.58736L7.47563 5.95103L7.16663 5.72636L6.85763 5.95103L6.97563 5.58736L6.66663 5.37503H7.04863L7.16663 5.00003ZM7.16663 6.66669L7.28463 7.04169H7.66663L7.35763 7.25403L7.47563 7.61769L7.16663 7.39303L6.85763 7.61769L6.97563 7.25403L6.66663 7.04169H7.04863L7.16663 6.66669Z" fill="#FFEB3B"/>
</svg>
