<svg t="1726823972943" class="icon" viewBox="0 0 1024 1024" version="1.1"
	xmlns="http://www.w3.org/2000/svg" p-id="6153" xmlns:xlink="http://www.w3.org/1999/xlink"
	width="200" height="200">
	<path
		d="M692.712 172.458h-43.443l-21.561 37.727-120.367 210.648 170.073 170.092-118.896 222.89-20.127 37.727H926.996V172.458H692.712z m-21.561 37.727h218.118v312.869L758.998 392.783l-129.346 97.015-75.265-75.265 116.764-204.348z m218.118 603.63h-287.97l122.575-229.832-67.267-67.267 98.863-74.133L889.269 576.4v237.415z"
		fill="#DBDBDB" p-id="6154"></path>
	<path
		d="M441.206 414.533L557.97 210.185l21.561-37.727H97.004v679.083H467.991l20.127-37.727 122.575-229.832-169.487-169.449zM134.731 210.185h379.796L394.16 420.833l170.073 170.092-12.488 23.409L282.47 528.92 134.731 632.33V210.185z m310.624 603.63H134.731V678.394l154.077-107.861 244.866 77.661-88.319 165.621z"
		fill="#DBDBDB" p-id="6155"></path>
	<path
		d="M361.093 370.524c0-36.463-29.559-66.022-66.022-66.022s-66.022 29.559-66.022 66.022 29.559 66.022 66.022 66.022 66.022-29.559 66.022-66.022z m-94.318 0c0-15.6 12.695-28.295 28.295-28.295 15.6 0 28.295 12.695 28.295 28.295 0 15.6-12.695 28.295-28.295 28.295-15.6 0-28.295-12.695-28.295-28.295z"
		fill="#DBDBDB" p-id="6156"></path>
</svg>