<svg width="72" height="54" viewBox="0 0 72 54" fill="none" xmlns="http://www.w3.org/2000/svg">
	<rect x="27" y="17.5" width="19" height="19" rx="5"></rect>
	<rect x="27" y="17.5" width="19" height="19" rx="5" stroke="#3478f6"></rect>
	<svg xmlns="http://www.w3.org/2000/svg" width="12" height="12" viewBox="0 0 24 24" fill="none"
		stroke="#3478f6" stroke-width="2" stroke-linecap="round" stroke-linejoin="round"
		class="lucide lucide-pipette" x="30" y="20.5">
		<path d="m2 22 1-1h3l9-9" />
		<path d="M3 21v-3l9-9" />
		<path
			d="m15 6 3.4-3.4a2.1 2.1 0 1 1 3 3L18 9l.4.4a2.1 2.1 0 1 1-3 3l-3.8-3.8a2.1 2.1 0 1 1 3-3l.4.4Z" />
	</svg>
</svg>