<?xml version="1.0" encoding="utf-8"?>
<!-- Generator: Adobe Illustrator 27.0.0, SVG Export Plug-In . SVG Version: 6.00 Build 0)  -->
<svg version="1.1" id="图层_1" xmlns="http://www.w3.org/2000/svg" xmlns:xlink="http://www.w3.org/1999/xlink" x="0px" y="0px"
	 viewBox="0 0 72 54" style="enable-background:new 0 0 72 54;" xml:space="preserve">
<style type="text/css">
	.st0{fill:none;stroke:#999999;stroke-linecap:round;}
	.st1{fill:none;stroke:#3478F6;}
	.st2{fill:#3478F6;}
	.st3{fill:none;stroke:#FFFFFF;stroke-width:0.96;stroke-linecap:round;stroke-linejoin:round;}
</style>
<path class="st0" d="M16,21h29.4 M16,25h29.4 M16,29l40,0 M16,33l40,0"/>
<path class="st1" d="M17.5,15.5h37c2.8,0,5,2.2,5,5v13c0,2.8-2.2,5-5,5h-37c-2.8,0-5-2.2-5-5v-13C12.5,17.7,14.7,15.5,17.5,15.5z"/>
<path class="st2" d="M49.6,19h4.8c0.9,0,1.6,0.7,1.6,1.6v4.8c0,0.9-0.7,1.6-1.6,1.6h-4.8c-0.9,0-1.6-0.7-1.6-1.6v-4.8
	C48,19.7,48.7,19,49.6,19z"/>
<path class="st3" d="M50,20.9H54 M52,21.4l0,3.8"/>
</svg>
