<?xml version="1.0" standalone="no"?><!DOCTYPE svg PUBLIC "-//W3C//DTD SVG 1.1//EN" "http://www.w3.org/Graphics/SVG/1.1/DTD/svg11.dtd"><svg class="icon" width="200px" height="200.00px" viewBox="0 0 1024 1024" version="1.1" xmlns="http://www.w3.org/2000/svg"><path d="M170.735161 34.133311C132.983719 34.133311 102.400273 64.85329 102.400273 102.160999v853.776497C102.400273 993.552404 132.778919 1023.999317 170.803427 1023.999317h716.560589A68.437288 68.437288 0 0 0 955.733038 955.56203V229.171047L761.787567 34.133311H170.735161z" fill="#FFFFFF" /><path d="M68.266962 85.094343v853.776498A85.094343 85.094343 0 0 0 153.736772 1023.999317h716.560589A85.503943 85.503943 0 0 0 955.733038 938.495374V212.104392a17.134922 17.134922 0 0 0-4.949331-12.049059L756.838237 5.017597A17.169055 17.169055 0 0 0 744.720912 0H153.668506A85.401543 85.401543 0 0 0 68.266962 85.094343zM588.014883 34.133311h156.706029l-12.117326-5.017597 193.945471 195.037737L921.599727 212.104392v726.356849c0 28.398914-23.005851 51.404766-51.336499 51.404766H153.736772A50.995166 50.995166 0 0 1 102.400273 938.904974V85.094343C102.400273 57.139162 125.440258 34.133311 153.668506 34.133311h434.346377z" fill="#CECECE" /><path d="M170.666894 546.132969h785.066144v341.333106H170.666894z" fill="#43B781" /><path d="M238.933515 795.13547V648.532901h47.513569c17.988255 0 29.730114 0.7168 35.191443 2.184532 8.396794 2.184532 15.428256 6.997329 21.094386 14.33599s8.499194 16.895989 8.499194 28.535448c0 9.011194-1.638399 16.554656-4.915197 22.698651s-7.406928 10.956793-12.458658 14.438391-10.137593 5.802663-15.35999 6.963195a168.686821 168.686821 0 0 1-30.685846 2.116265h-19.28532v55.295964H238.933515z m29.593581-121.787652v41.608505h16.213322c11.673592 0 19.455987-0.750933 23.415451-2.286931a19.217054 19.217054 0 0 0 12.595192-18.602655c0-5.324796-1.570132-9.727994-4.710397-13.209591s-7.099729-5.631996-11.912525-6.485329a140.799906 140.799906 0 0 0-21.299186-0.989866h-14.301857z m135.16791 121.787652h-28.091715v-106.188729h26.111983v15.086923c4.471464-7.133862 8.499194-11.844259 12.049058-14.097057a22.254918 22.254918 0 0 1 12.151459-3.413331c6.417062 0 12.561058 1.774932 18.500254 5.290663l-8.703994 24.507717a24.712517 24.712517 0 0 0-13.209591-4.607997c-3.925331 0-7.270395 1.092266-10.00106 3.242664s-4.881063 6.075729-6.451196 11.741859-2.355198 17.544522-2.355198 35.601043v32.836245z m47.752501-54.613297c0-9.318394 2.286932-18.363721 6.894929-27.101849s11.127459-15.394123 19.558387-20.00212 17.851721-6.894929 28.262381-6.894928c16.076789 0 29.218114 5.222397 39.49224 15.633056s15.394123 23.620251 15.394123 39.560507c0 16.076789-5.188263 29.38878-15.564789 39.935973-10.376526 10.581326-23.415451 15.837856-39.150908 15.837856-9.727994 0-19.012254-2.184532-27.852781-6.587729s-15.56479-10.854393-20.138653-19.353587-6.894929-18.807454-6.894929-31.027179z m28.808514 1.501866c0 10.547193 2.491732 18.602654 7.509328 24.200517s11.161593 8.396794 18.500255 8.396794 13.482658-2.798931 18.466121-8.396794 7.441062-13.721591 7.441062-24.405317c0-10.41066-2.491732-18.397854-7.441062-23.995718s-11.127459-8.396794-18.466121-8.396794-13.516791 2.798931-18.500255 8.396794-7.509328 13.687458-7.509328 24.200518z m103.662864-67.481555V648.532901h28.091715v26.009583h-28.091715z m28.091715 14.404257v102.911931c0 13.516791-0.887466 23.074118-2.662398 28.637848s-5.15413 9.932793-10.20586 13.038924-11.434659 4.710397-19.251187 4.710397c-2.798931 0-5.802663-0.238933-9.045328-0.750933a103.765264 103.765264 0 0 1-10.444793-2.252798l4.915197-23.995717c1.331199 0.273066 2.594132 0.477866 3.754664 0.648532s2.252798 0.238933 3.242665 0.238934c2.867198 0 5.222397-0.6144 7.065595-1.843199s3.037865-2.730665 3.652264-4.437331 0.887466-6.929062 0.887466-15.598923v-101.307665h28.091715z m92.364738 72.396751l27.989315 4.710397c-3.583998 10.274126-9.28426 18.090655-17.066655 23.449585s-17.476255 8.055461-29.149847 8.055461c-18.466121 0-32.119445-6.041596-40.994106-18.090655-6.997329-9.659727-10.51306-21.879452-10.51306-36.590909 0-17.612788 4.607997-31.368512 13.789857-41.335439s20.821319-14.95039 34.884244-14.95039c15.803723 0 28.262381 5.222397 37.410108 15.633057s13.516791 26.419182 13.107191 47.957301h-70.382886c0.2048 8.328528 2.457598 14.813857 6.792529 19.455987s9.727994 6.963195 16.213322 6.963195c4.403197 0 8.089595-1.194666 11.093326-3.583997s5.290663-6.348796 6.826662-11.673593z m1.604266-28.398914c-0.2048-8.123728-2.286932-14.301857-6.314662-18.534388s-8.874661-6.348796-14.609057-6.348795c-6.143996 0-11.195726 2.218665-15.189324 6.690128s-5.973329 10.547193-5.905062 18.193055h42.018105z m144.86177-12.595192l-27.716248 4.983464a19.967987 19.967987 0 0 0-6.348796-12.492792 19.182921 19.182921 0 0 0-12.834125-4.198397 21.060253 21.060253 0 0 0-16.759455 7.236262c-4.164264 4.84693-6.246396 12.902391-6.246396 24.23465 0 12.595192 2.116265 21.503986 6.348796 26.692249a20.923719 20.923719 0 0 0 17.066655 7.816528 18.978121 18.978121 0 0 0 13.107191-4.53973c3.413331-3.037865 5.802663-8.260261 7.202129-15.633056l27.613848 4.710397c-2.867198 12.663458-8.362661 22.220785-16.486389 28.706114-8.123728 6.451196-19.046387 9.69386-32.699711 9.69386-15.530656 0-27.921048-4.915197-37.137042-14.711457-9.250127-9.79626-13.858124-23.381318-13.858124-40.686906 0-17.544522 4.64213-31.197846 13.892257-40.959973 9.250127-9.762127 21.811185-14.64319 37.614908-14.64319 12.936525 0 23.210651 2.798931 30.856513 8.362661 7.577595 5.529596 13.073058 14.028791 16.383989 25.429316z m71.475152-31.402645v22.391451h-19.18292v42.803172c0 8.669861 0.170667 13.721591 0.546133 15.15519s1.194666 2.628265 2.491732 3.549864 2.867198 1.399466 4.74453 1.399466c2.594132 0 6.382929-0.887466 11.298126-2.696532l2.389331 21.811186a55.773829 55.773829 0 0 1-22.186652 4.198397c-5.05173 0-9.625594-0.853333-13.687457-2.559998s-7.065595-3.891197-8.942928-6.587729-3.208531-6.348796-3.959464-10.956793a134.724177 134.724177 0 0 1-0.887466-19.79732V711.338192h-12.902391v-22.391451h12.902391v-21.094386l28.194115-16.383989v37.512508h19.18292z" fill="#FFFFFF" /><path d="M802.064873 238.967307H938.666382a17.066655 17.066655 0 0 0 12.083192-29.149847l-204.799863-204.799863A17.066655 17.066655 0 0 0 716.799863 17.100789v136.601509a85.333276 85.333276 0 0 0 85.26501 85.265009zM750.933174 17.100789l-29.149847 12.083192 204.799863 204.799863 12.083192-29.149847h-136.601509A51.199966 51.199966 0 0 1 750.933174 153.702298V17.100789z" fill="#CECECE" /><path d="M362.223033 364.57789H303.274806v89.90714c0 12.868258-3.037865 22.596252-9.113594 29.252248s-13.721591 9.966927-22.971718 9.966926c-9.69386 0-17.476255-3.276798-23.415451-9.864527S238.933515 467.660488 238.933515 454.928763V210.090527c0-14.165324 3.242665-24.268784 9.762127-30.344513S265.523364 170.666553 279.654555 170.666553h82.534345c24.405317 0 43.178638 1.877332 56.319962 5.631996a81.442079 81.442079 0 0 1 55.26183 48.742368c4.915197 12.117325 7.372795 25.770649 7.372795 40.959972 0 32.358378-9.966927 56.866095-29.90078 73.557285s-49.5957 25.019717-89.019674 25.019716z m-15.598923-145.578569h-43.349304V316.074456h43.349304c15.15519 0 27.852781-1.604266 38.024508-4.778664s17.954121-8.362661 23.278918-15.598922 8.021328-16.691189 8.021328-28.398915c0-13.994657-4.130131-25.429316-12.356258-34.23571-9.250127-9.38666-28.228248-14.062924-56.968496-14.062924z" fill="#00AF5E" /></svg>