<?xml version="1.0" standalone="no"?><!DOCTYPE svg PUBLIC "-//W3C//DTD SVG 1.1//EN" "http://www.w3.org/Graphics/SVG/1.1/DTD/svg11.dtd"><svg class="icon" width="200px" height="200.00px" viewBox="0 0 1024 1024" version="1.1" xmlns="http://www.w3.org/2000/svg"><path d="M102.4 105.813333h819.2a68.266667 68.266667 0 0 1 68.266667 68.266667v682.666667a68.266667 68.266667 0 0 1-68.266667 68.266666H102.4a68.266667 68.266667 0 0 1-68.266667-68.266666v-682.666667a68.266667 68.266667 0 0 1 68.266667-68.266667z" fill="#FFFFFF" /><path d="M87.9616 904.533333c-29.047467 0-52.667733-22.971733-52.667733-51.370666V170.837333c0-28.296533 23.790933-51.370667 52.667733-51.370666h848.0768c29.047467 0 52.667733 22.971733 52.667733 51.370666v682.325334c0 28.296533-23.790933 51.370667-52.667733 51.370666M0 853.162667C0 900.369067 39.355733 938.666667 87.9616 938.666667h848.0768c48.401067 0 87.9616-38.4 87.9616-85.504V170.837333C1024 123.630933 984.644267 85.333333 936.0384 85.333333H87.9616C39.560533 85.333333 0 123.733333 0 170.837333v682.325334z" fill="#CECECE" /><path d="M270.779733 440.354133l-25.088 1.365334 276.036267 268.936533a17.066667 17.066667 0 0 0 24.507733-0.682667l113.698134-124.1088-23.6544 1.467734 259.652266 221.525333a17.066667 17.066667 0 0 0 22.152534-25.975467l-259.652267-221.525333a17.066667 17.066667 0 0 0-23.6544 1.467733l-113.698133 124.1088 24.507733-0.682666-276.036267-268.936534a17.066667 17.066667 0 0 0-25.088 1.365334l-135.645866 164.864a17.066667 17.066667 0 0 0 26.350933 21.7088l135.611733-164.898134z" fill="#7FC881" /><path d="M750.933333 358.4m-68.266666 0a68.266667 68.266667 0 1 0 136.533333 0 68.266667 68.266667 0 1 0-136.533333 0Z" fill="#7FC881" /></svg>