<?xml version="1.0" standalone="no"?><!DOCTYPE svg PUBLIC "-//W3C//DTD SVG 1.1//EN" "http://www.w3.org/Graphics/SVG/1.1/DTD/svg11.dtd"><svg class="icon" width="200px" height="200.00px" viewBox="0 0 1024 1024" version="1.1" xmlns="http://www.w3.org/2000/svg"><path d="M605.081538 0H170.735161C132.983719 0 102.400273 30.71998 102.400273 68.027688v853.776497C102.400273 959.419094 132.778919 989.866007 170.803427 989.866007h716.560589A68.437288 68.437288 0 0 0 955.733038 921.428719V195.037737L761.787567 0h-156.706029z" fill="#FFFFFF" /><path d="M153.668506 0A85.401543 85.401543 0 0 0 68.266962 85.094343v853.776498A85.094343 85.094343 0 0 0 153.736772 1023.999317h716.560589A85.503943 85.503943 0 0 0 955.733038 938.495374V212.104392a17.134922 17.134922 0 0 0-4.949331-12.049059L756.838237 5.017597A17.169055 17.169055 0 0 0 744.720912 0H153.668506z m591.052406 34.133311l-12.117326-5.017597 193.945471 195.037737L921.599727 212.104392v726.356849c0 28.398914-23.005851 51.404766-51.336499 51.404766H153.736772A50.995166 50.995166 0 0 1 102.400273 938.904974V85.094343C102.400273 57.139162 125.440258 34.133311 153.668506 34.133311H744.720912z" fill="#CECECE" /><path d="M741.375847 413.866391L631.466587 501.759665v-75.093283c0-18.773321-15.35999-34.133311-34.133311-34.13331h-273.066484c-18.773321 0-34.133311 15.35999-34.133311 34.13331v204.799864c0 18.773321 15.35999 34.133311 34.133311 34.13331h273.066484c18.773321 0 34.133311-15.35999 34.133311-34.13331v-75.093284l109.90926 87.893275c14.677324 11.775992 26.623982 5.973329 26.623982-12.799991v-204.799864c0-18.773321-11.946659-24.575984-26.623982-12.799991z" fill="#FFC376" /><path d="M802.064873 238.967307H938.666382a17.066655 17.066655 0 0 0 12.083192-29.149847l-204.799863-204.799863A17.066655 17.066655 0 0 0 716.799863 17.100789v136.601509a85.333276 85.333276 0 0 0 85.26501 85.265009zM750.933174 17.100789l-29.149847 12.083192 204.799863 204.799863 12.083192-29.149847h-136.601509A51.199966 51.199966 0 0 1 750.933174 153.702298V17.100789z" fill="#CECECE" /></svg>