<?xml version="1.0" standalone="no"?><!DOCTYPE svg PUBLIC "-//W3C//DTD SVG 1.1//EN" "http://www.w3.org/Graphics/SVG/1.1/DTD/svg11.dtd"><svg class="icon" width="200px" height="200.00px" viewBox="0 0 1024 1024" version="1.1" xmlns="http://www.w3.org/2000/svg"><path d="M170.496228 34.133311C132.881319 34.133311 102.400273 64.85329 102.400273 102.160999v853.776497C102.400273 993.552404 132.778919 1023.999317 170.803427 1023.999317h716.560589A68.437288 68.437288 0 0 0 955.733038 955.56203V229.171047L761.787567 34.133311H170.496228z" fill="#FFFFFF" /><path d="M68.266962 85.094343v853.776498A85.094343 85.094343 0 0 0 153.736772 1023.999317h716.560589A85.503943 85.503943 0 0 0 955.733038 938.495374V212.104392a17.134922 17.134922 0 0 0-4.949331-12.049059L756.838237 5.017597A17.169055 17.169055 0 0 0 744.720912 0H153.429572A85.26501 85.26501 0 0 0 68.266962 85.094343zM744.720912 34.133311l-12.117326-5.017597 193.945471 195.037737L921.599727 212.104392v726.356849c0 28.398914-23.005851 51.404766-51.336499 51.404766H153.736772A50.995166 50.995166 0 0 1 102.400273 938.904974V85.094343C102.400273 57.105029 125.337858 34.133311 153.429572 34.133311h591.29134z" fill="#CECECE" /><path d="M430.489654 603.511064h-58.948227v89.90714c0 12.868258-3.037865 22.596252-9.113594 29.252248s-13.721591 9.966927-22.971718 9.966926c-9.69386 0-17.476255-3.276798-23.415451-9.864527S307.200137 706.593662 307.200137 693.861937v-244.838236c0-14.165324 3.242665-24.268784 9.762126-30.344513s16.827722-9.079461 30.958913-9.079461h82.534345c24.405317 0 43.178638 1.877332 56.319962 5.631996a81.442079 81.442079 0 0 1 55.26183 48.742368c4.915197 12.117325 7.372795 25.770649 7.372795 40.959972 0 32.358378-9.966927 56.866095-29.90078 73.557285s-49.5957 25.019717-89.019674 25.019716z m-15.598923-145.578569h-43.349304v97.075135h43.349304c15.15519 0 27.852781-1.604266 38.024508-4.778663s17.954121-8.362661 23.278918-15.598923 8.021328-16.691189 8.021328-28.398915c0-13.994657-4.130131-25.429316-12.356258-34.23571-9.250127-9.38666-28.228248-14.062924-56.968496-14.062924z m374.613084 197.358801c0 16.315722-3.959464 30.31038-11.912525 41.915706s-19.69492 20.445853-35.191444 26.419182-34.406377 8.977061-56.661295 8.977061c-21.230919 0-39.423974-3.242665-54.613297-9.762127-15.15519-6.485329-26.350916-14.609057-33.587178-24.371184s-10.820259-19.524254-10.820259-29.354647a23.688518 23.688518 0 0 1 24.473584-23.620251c6.212263 0 10.990926 1.501866 14.301857 4.539731s6.485329 7.304528 9.523193 12.799991c6.075729 10.547193 13.311991 18.431988 21.777052 23.620251s19.967987 7.816528 34.542911 7.816528c11.844259 0 21.572252-2.628265 29.149847-7.918928s11.366392-11.298126 11.366392-18.090655c0-10.41066-3.925331-17.988255-11.810125-22.766918s-20.821319-9.318394-38.877841-13.653324c-20.377586-5.05173-36.932242-10.376526-49.732233-15.940256s-23.005851-12.902391-30.651713-21.981852-11.468792-20.30932-11.468793-33.587178c0-11.844259 3.549864-23.039985 10.61546-33.587177s17.510388-18.943987 31.300246-25.25865 30.446913-9.420794 49.937033-9.420794c15.325856 0 29.081581 1.604266 41.267173 4.778664s22.391452 7.441062 30.549313 12.799991 14.370124 11.263992 18.636787 17.783455 6.382929 12.868258 6.382929 19.080521c0 6.792529-2.286932 12.356258-6.826662 16.691189s-11.025059 6.485329-19.38772 6.485329c-6.075729 0-11.229859-1.740799-15.496523-5.188264s-9.147727-8.669861-14.609057-15.598923a53.486898 53.486898 0 0 0-15.803723-13.858124c-6.075729-3.481598-14.301857-5.188263-24.712517-5.188263-10.683726 0-19.558387 2.286932-26.658115 6.826662s-10.61546 10.20586-10.61546 16.998389c0 6.212263 2.594132 11.298126 7.816528 15.291723s12.219725 7.270395 21.02612 9.864527 20.957853 5.768529 36.386109 9.523193c18.329588 4.471464 33.314111 9.830393 44.95357 16.042656s20.445853 13.550924 26.419182 21.981852 9.011194 18.090655 9.011194 28.910914z" fill="#4990E2" /><path d="M802.064873 238.967307H938.666382a17.066655 17.066655 0 0 0 12.083192-29.149847l-204.799863-204.799863A17.066655 17.066655 0 0 0 716.799863 17.100789v136.601509a85.333276 85.333276 0 0 0 85.26501 85.265009zM750.933174 17.100789l-29.149847 12.083192 204.799863 204.799863 12.083192-29.149847h-136.601509A51.199966 51.199966 0 0 1 750.933174 153.702298V17.100789z" fill="#CECECE" /></svg>