<?xml version="1.0" standalone="no"?><!DOCTYPE svg PUBLIC "-//W3C//DTD SVG 1.1//EN" "http://www.w3.org/Graphics/SVG/1.1/DTD/svg11.dtd"><svg class="icon" width="200px" height="200.00px" viewBox="0 0 1024 1024" version="1.1" xmlns="http://www.w3.org/2000/svg"><path d="M170.496228 34.133311C132.881319 34.133311 102.400273 64.85329 102.400273 102.160999v853.776497C102.400273 993.552404 132.778919 1023.999317 170.803427 1023.999317h716.560589A68.437288 68.437288 0 0 0 955.733038 955.56203V229.171047L761.787567 34.133311H170.496228z" fill="#FFFFFF" /><path d="M68.266962 85.094343v853.776498A85.094343 85.094343 0 0 0 153.736772 1023.999317h716.560589A85.503943 85.503943 0 0 0 955.733038 938.495374V212.104392a17.134922 17.134922 0 0 0-4.949331-12.049059L756.838237 5.017597A17.169055 17.169055 0 0 0 744.720912 0H153.429572A85.26501 85.26501 0 0 0 68.266962 85.094343zM744.720912 34.133311l-12.117326-5.017597 193.945471 195.037737L921.599727 212.104392v726.356849c0 28.398914-23.005851 51.404766-51.336499 51.404766H153.736772A50.995166 50.995166 0 0 1 102.400273 938.904974V85.094343C102.400273 57.105029 125.337858 34.133311 153.429572 34.133311h591.29134z" fill="#CECECE" /><path d="M802.064873 238.967307H938.666382a17.066655 17.066655 0 0 0 12.083192-29.149847l-204.799863-204.799863A17.066655 17.066655 0 0 0 716.799863 17.100789v136.601509a85.333276 85.333276 0 0 0 85.26501 85.265009zM750.933174 17.100789l-29.149847 12.083192 204.799863 204.799863 12.083192-29.149847h-136.601509A51.199966 51.199966 0 0 1 750.933174 153.702298V17.100789z" fill="#CECECE" /><path d="M391.27048 636.756909l71.065553-103.799398-59.80156-92.296471c-5.631996-8.942927-9.864527-16.657056-12.663458-23.074118s-4.232531-12.595192-4.232531-18.534388c0-6.075729 2.696532-11.502926 8.123728-16.349856s12.049059-7.236262 19.831454-7.236262c8.942927 0 15.940256 2.628265 20.923719 7.918928s11.878392 15.05279 20.684786 29.354648l47.650102 77.141281 50.926899-77.141281 10.71786-16.691189c2.969598-4.64213 5.802663-8.465061 8.567461-11.468793s5.802663-5.324796 9.215993-6.826662 7.338662-2.286932 11.810126-2.286932c8.089595 0 14.711457 2.423465 19.831453 7.270396s7.679995 10.581326 7.679995 17.237321c0 9.69386-5.56373 22.835185-16.691189 39.423974l-62.600491 93.593538 67.379155 103.799397c6.075729 9.113594 10.478926 16.657056 13.209591 22.630385s4.130131 11.673592 4.130131 16.998389a26.828782 26.828782 0 0 1-14.097058 23.825051 30.924779 30.924779 0 0 1-15.15519 3.686397c-6.075729 0-11.195726-1.262932-15.394123-3.788797s-7.577595-5.66613-10.171726-9.420794-7.441062-11.059193-14.506657-21.879452l-55.910363-87.961542-59.357827 90.555673c-4.607997 7.236262-7.918928 12.287992-9.864527 15.15519s-4.300797 5.700263-7.031462 8.465061-6.007463 4.915197-9.762127 6.485329-8.157861 2.389332-13.209591 2.389332c-7.816528 0-14.267724-2.389332-19.38772-7.133862s-7.714128-11.707726-7.714128-20.821319c0-10.683726 5.25653-23.756784 15.803722-39.219174zM726.76679 894.63407c-9.89866 7.714128-19.49012 13.482658-28.740247 17.339722s-19.626654 5.768529-31.12958 5.76853c-10.51306 0-19.729054-2.082132-27.682114-6.212263s-14.062924-9.762127-18.363722-16.861855-6.451196-14.84799-6.451195-23.142385c0-11.195726 3.549864-20.753053 10.649593-28.637848s16.861855-13.209591 29.252247-15.906122c2.594132-0.6144 9.045327-1.945599 19.353587-4.061864s19.114654-4.027731 26.487449-5.76853 15.325856-3.891197 23.927451-6.382929c-0.512-10.786126-2.662398-18.739188-6.519463-23.790917s-11.810125-7.577595-23.92745-7.577595c-10.41066 0-18.227188 1.433599-23.483718 4.33493s-9.762127 7.236262-13.516791 13.038925-6.417062 9.625594-7.953061 11.468792-4.881063 2.764798-9.966927 2.764798c-4.607997 0-8.567461-1.467732-11.912526-4.43733s-5.017597-6.724262-5.017596-11.332259c0-7.202129 2.559998-14.199457 7.645861-20.991986s13.038925-12.390392 23.859184-16.793589 24.234651-6.519462 40.31144-6.519462c17.988255 0 32.153579 2.116265 42.461839 6.382929s17.578655 10.990926 21.811185 20.172786 6.382929 21.401586 6.382929 36.590909l-0.068266 24.439451c-0.034133 6.690129-0.136533 14.165324-0.238934 22.357318 0 7.714128 1.262932 15.735456 3.822931 24.063984s3.822931 13.721591 3.822931 16.110923c0 4.198397-1.979732 8.021328-5.939196 11.468792s-8.430928 5.188263-13.414391 5.188263c-4.198397 0-8.362661-1.979732-12.458659-5.939196s-8.430928-9.625594-13.004791-17.134922z m-2.730665-59.255427c-6.007463 2.184532-14.711457 4.53973-26.180249 6.963195s-19.38772 4.266664-23.790917 5.393064-8.601594 3.413331-12.595192 6.758395-6.007463 8.021328-6.007463 14.028791c0 6.212263 2.355198 11.468792 7.065596 15.837856s10.854393 6.519462 18.466121 6.519462c8.089595 0 15.56479-1.774932 22.425585-5.324796s11.878392-8.123728 15.086923-13.721591c3.686398-6.212263 5.56373-16.383989 5.56373-30.583446v-5.87093z m121.582853 82.670878a25.66825 25.66825 0 0 1-17.100789-6.075729c-4.812797-4.061864-7.202129-9.727994-7.202129-17.032522 0-6.314662 2.355198-11.605326 7.065596-15.906123a23.859184 23.859184 0 0 1 16.657055-6.451195c4.812797 0 9.147727 1.297066 13.038925 3.891197 3.891197 2.594132 6.963195 6.417062 9.147727 11.468792s3.310931 11.263992 3.310931 18.670921c0 9.89866-2.116265 19.182921-6.314662 27.818648a61.098626 61.098626 0 0 1-15.35999 20.548253c-6.041596 5.05173-11.537059 7.577595-16.418122 7.577595-3.106131 0-5.631996-1.023999-7.577595-3.071998s-2.935465-4.43733-2.935465-7.133862c0-4.095997 2.047999-7.406928 6.143996-9.89866 11.707726-6.485329 17.544522-14.609057 17.544522-24.405317z" fill="#7FC881" /></svg>