<?xml version="1.0" standalone="no"?><!DOCTYPE svg PUBLIC "-//W3C//DTD SVG 1.1//EN" "http://www.w3.org/Graphics/SVG/1.1/DTD/svg11.dtd"><svg class="icon" width="200px" height="200.00px" viewBox="0 0 1024 1024" version="1.1" xmlns="http://www.w3.org/2000/svg"><path d="M170.496228 34.133311C132.881319 34.133311 102.400273 64.85329 102.400273 102.160999v853.776497C102.400273 993.552404 132.778919 1023.999317 170.803427 1023.999317h716.560589A68.437288 68.437288 0 0 0 955.733038 955.56203V229.171047L761.787567 34.133311H170.496228z" fill="#FFFFFF" /><path d="M68.266962 85.094343v853.776498A85.094343 85.094343 0 0 0 153.736772 1023.999317h716.560589A85.503943 85.503943 0 0 0 955.733038 938.495374V212.104392a17.134922 17.134922 0 0 0-4.949331-12.049059L756.838237 5.017597A17.169055 17.169055 0 0 0 744.720912 0H153.429572A85.26501 85.26501 0 0 0 68.266962 85.094343zM744.720912 34.133311l-12.117326-5.017597 193.945471 195.037737L921.599727 212.104392v726.356849c0 28.398914-23.005851 51.404766-51.336499 51.404766H153.736772A50.995166 50.995166 0 0 1 102.400273 938.904974V85.094343C102.400273 57.105029 125.337858 34.133311 153.429572 34.133311h591.29134z" fill="#CECECE" /><path d="M682.666553 375.466416a17.066655 17.066655 0 0 0 0-34.13331H273.066826a17.066655 17.066655 0 0 0 0 34.13331h409.599727zM750.933174 511.999659a17.066655 17.066655 0 0 0 0-34.133311H273.066826a17.066655 17.066655 0 0 0 0 34.133311h477.866348zM750.933174 648.532901a17.066655 17.066655 0 0 0 0-34.133311H273.066826a17.066655 17.066655 0 0 0 0 34.133311h477.866348zM750.933174 785.066143a17.066655 17.066655 0 0 0 0-34.13331H273.066826a17.066655 17.066655 0 0 0 0 34.13331h477.866348z" fill="#CFCFCF" /><path d="M802.064873 238.967307H938.666382a17.066655 17.066655 0 0 0 12.083192-29.149847l-204.799863-204.799863A17.066655 17.066655 0 0 0 716.799863 17.100789v136.601509a85.333276 85.333276 0 0 0 85.26501 85.265009zM750.933174 17.100789l-29.149847 12.083192 204.799863 204.799863 12.083192-29.149847h-136.601509A51.199966 51.199966 0 0 1 750.933174 153.702298V17.100789z" fill="#CECECE" /></svg>