<?xml version="1.0" standalone="no"?><!DOCTYPE svg PUBLIC "-//W3C//DTD SVG 1.1//EN" "http://www.w3.org/Graphics/SVG/1.1/DTD/svg11.dtd"><svg class="icon" width="200px" height="200.00px" viewBox="0 0 1024 1024" version="1.1" xmlns="http://www.w3.org/2000/svg"><path d="M169.984228 23.483718C132.642386 23.483718 102.400273 54.510897 102.400273 92.228205v862.992492C102.400273 993.211071 132.539986 1023.999317 170.291428 1023.999317h711.167526c37.478375 0 67.891155-30.993046 67.891154-69.18822V220.603586L756.87237 23.449584H169.984228z" fill="#FFFFFF" /><path d="M68.266962 85.094343v853.776498A85.094343 85.094343 0 0 0 153.736772 1023.999317h716.560589A85.503943 85.503943 0 0 0 955.733038 938.495374V212.104392a17.134922 17.134922 0 0 0-4.949331-12.049059L756.838237 5.017597A17.169055 17.169055 0 0 0 744.720912 0H153.429572A85.26501 85.26501 0 0 0 68.266962 85.094343zM744.720912 34.133311l-12.117326-5.017597 193.945471 195.037737L921.599727 212.104392v726.356849c0 28.398914-23.005851 51.404766-51.336499 51.404766H153.736772A50.995166 50.995166 0 0 1 102.400273 938.904974V85.094343C102.400273 57.105029 125.337858 34.133311 153.429572 34.133311h591.29134z" fill="#CECECE" /><path d="M170.666894 546.132969h785.066144v341.333106H170.666894z" fill="#72BCD7" /><path d="M273.066826 785.44161V614.39959h34.54291v67.310889h67.652222V614.39959h34.54291v171.04202h-34.54291V710.655526H307.609736v74.786084H273.066826z m212.650525 0v-142.096972h-50.756233V614.39959h135.918843v28.945048h-50.6197v142.096972H485.717351z m108.680461 0V614.39959h51.677832l31.027179 116.667656 30.685846-116.667656h51.814366v171.04202h-32.085312v-134.621777l-33.962644 134.621777h-33.245845l-33.82611-134.621777v134.621777h-32.085312z m202.137465 0v-169.642554h34.54291v140.799906h85.87941v28.808514h-120.42232z" fill="#FFFFFF" /><path d="M802.064873 238.967307H938.666382a17.066655 17.066655 0 0 0 12.083192-29.149847l-204.799863-204.799863A17.066655 17.066655 0 0 0 716.799863 17.100789v136.601509a85.333276 85.333276 0 0 0 85.26501 85.265009zM750.933174 17.100789l-29.149847 12.083192 204.799863 204.799863 12.083192-29.149847h-136.601509A51.199966 51.199966 0 0 1 750.933174 153.702298V17.100789z" fill="#CECECE" /></svg>