<?xml version="1.0" standalone="no"?><!DOCTYPE svg PUBLIC "-//W3C//DTD SVG 1.1//EN" "http://www.w3.org/Graphics/SVG/1.1/DTD/svg11.dtd"><svg class="icon" width="200px" height="200.00px" viewBox="0 0 1024 1024" version="1.1" xmlns="http://www.w3.org/2000/svg"><path d="M170.496228 34.133311C132.881319 34.133311 102.400273 64.85329 102.400273 102.160999v853.776497C102.400273 993.552404 132.778919 1023.999317 170.803427 1023.999317h716.560589A68.437288 68.437288 0 0 0 955.733038 955.56203V229.171047L761.787567 34.133311H170.496228z" fill="#FFFFFF" /><path d="M68.266962 85.094343v853.776498A85.094343 85.094343 0 0 0 153.736772 1023.999317h716.560589A85.503943 85.503943 0 0 0 955.733038 938.495374V212.104392a17.134922 17.134922 0 0 0-4.949331-12.049059L756.838237 5.017597A17.169055 17.169055 0 0 0 744.720912 0H153.429572A85.26501 85.26501 0 0 0 68.266962 85.094343zM744.720912 34.133311l-12.117326-5.017597 193.945471 195.037737L921.599727 212.104392v726.356849c0 28.398914-23.005851 51.404766-51.336499 51.404766H153.736772A50.995166 50.995166 0 0 1 102.400273 938.904974V85.094343C102.400273 57.105029 125.337858 34.133311 153.429572 34.133311h591.29134z" fill="#CECECE" /><path d="M802.064873 238.967307H938.666382a17.066655 17.066655 0 0 0 12.083192-29.149847l-204.799863-204.799863A17.066655 17.066655 0 0 0 716.799863 17.100789v136.601509a85.333276 85.333276 0 0 0 85.26501 85.265009zM750.933174 17.100789l-29.149847 12.083192 204.799863 204.799863 12.083192-29.149847h-136.601509A51.199966 51.199966 0 0 1 750.933174 153.702298V17.100789z" fill="#CECECE" /><path d="M532.889586 569.377754h-58.948227v89.90714c0 12.868258-3.037865 22.596252-9.113594 29.252247s-13.721591 9.966927-22.971718 9.966927c-9.69386 0-17.476255-3.276798-23.415451-9.864527S409.600068 672.460352 409.600068 659.728627v-244.838237c0-14.165324 3.242665-24.268784 9.762127-30.344513s16.827722-9.079461 30.958913-9.079461h82.534345c24.405317 0 43.178638 1.877332 56.319962 5.631997a81.203146 81.203146 0 0 1 55.26183 48.742367c4.915197 12.117325 7.372795 25.770649 7.372795 40.959973 0 32.358378-9.966927 56.866095-29.90078 73.557284-19.89972 16.691189-49.5957 25.019717-89.019674 25.019717z m-15.598923-145.57857h-43.349304v97.075135h43.349304c15.15519 0 27.852781-1.604266 38.024508-4.778663s17.954121-8.362661 23.278918-15.598923 8.021328-16.691189 8.021328-28.398914c0-13.994657-4.130131-25.429316-12.356259-34.235711-9.250127-9.38666-28.228248-14.062924-56.968495-14.062924z" fill="#FFAF7D" /></svg>