<?xml version="1.0" standalone="no"?><!DOCTYPE svg PUBLIC "-//W3C//DTD SVG 1.1//EN" "http://www.w3.org/Graphics/SVG/1.1/DTD/svg11.dtd"><svg class="icon" width="200px" height="200.00px" viewBox="0 0 1024 1024" version="1.1" xmlns="http://www.w3.org/2000/svg"><path d="M170.496228 34.133311C132.881319 34.133311 102.400273 64.85329 102.400273 102.160999v853.776497C102.400273 993.552404 132.778919 1023.999317 170.803427 1023.999317h716.560589A68.437288 68.437288 0 0 0 955.733038 955.56203V229.171047L761.787567 34.133311H170.496228z" fill="#FFFFFF" /><path d="M68.266962 85.094343v853.776498A85.094343 85.094343 0 0 0 153.736772 1023.999317h716.560589A85.503943 85.503943 0 0 0 955.733038 938.495374V212.104392a17.134922 17.134922 0 0 0-4.949331-12.049059L756.838237 5.017597A17.169055 17.169055 0 0 0 744.720912 0H153.429572A85.26501 85.26501 0 0 0 68.266962 85.094343zM744.720912 34.133311l-12.117326-5.017597 193.945471 195.037737L921.599727 212.104392v726.356849c0 28.398914-23.005851 51.404766-51.336499 51.404766H153.736772A50.995166 50.995166 0 0 1 102.400273 938.904974V85.094343C102.400273 57.105029 125.337858 34.133311 153.429572 34.133311h591.29134z" fill="#CECECE" /><path d="M802.064873 238.967307H938.666382a17.066655 17.066655 0 0 0 12.083192-29.149847l-204.799863-204.799863A17.066655 17.066655 0 0 0 716.799863 17.100789v136.601509a85.333276 85.333276 0 0 0 85.26501 85.265009zM750.933174 17.100789l-29.149847 12.083192 204.799863 204.799863 12.083192-29.149847h-136.601509A51.199966 51.199966 0 0 1 750.933174 153.702298V17.100789z" fill="#CECECE" /><path d="M559.172235 648.464634l-51.336499-190.463873-51.985032 190.463873c-4.027731 14.43839-7.270395 24.814917-9.625593 31.095446s-6.519462 11.912525-12.458659 16.895989-13.789857 7.475195-23.620251 7.475195c-7.953061 0-14.472524-1.467732-19.59252-4.43733s-9.28426-7.133862-12.458658-12.561059-5.768529-11.844259-7.816529-19.28532-3.822931-14.33599-5.427196-20.684786L311.9788 433.083445c-3.174398-12.390392-4.778663-21.879452-4.778663-28.364781 0-8.226128 2.901331-15.15519 8.66986-20.787187S328.806522 375.466416 337.305716 375.466416c11.707726 0 19.558387 3.754664 23.620251 11.263993 4.027731 7.509328 7.577595 18.431988 10.61546 32.699711l41.608506 185.48041 46.591969-173.533751c3.481598-13.277858 6.587729-23.415451 9.318393-30.344513s7.236262-12.936525 13.448525-17.988255 14.64319-7.577595 25.326916-7.577595c10.820259 0 19.251187 2.628265 25.25865 7.918928s10.137593 11.025059 12.458658 17.237322 5.427196 16.452256 9.318394 30.754113l47.001569 173.533751 41.608505-185.48041c2.013865-9.69386 3.925331-17.271455 5.734397-22.766918s4.915197-10.41066 9.318393-14.74559 10.786126-6.451196 19.148788-6.451196 15.496523 2.764798 21.333319 8.328528 8.772261 12.526925 8.77226 20.92372c0 5.939196-1.604266 15.394123-4.778663 28.398914l-52.872498 213.845191c-3.618131 14.43839-6.621862 25.019717-8.977061 31.743979-2.389332 6.724262-6.417062 12.595192-12.117325 17.646921s-13.755724 7.577595-24.166384 7.577595c-9.830393 0-17.681055-2.457598-23.620251-7.372795s-10.035193-10.444793-12.356258-16.588789-5.529596-16.622922-9.727994-31.505046z" fill="#68B6F7" /></svg>