<?xml version="1.0" standalone="no"?><!DOCTYPE svg PUBLIC "-//W3C//DTD SVG 1.1//EN" "http://www.w3.org/Graphics/SVG/1.1/DTD/svg11.dtd"><svg class="icon" width="200px" height="200.00px" viewBox="0 0 1024 1024" version="1.1" xmlns="http://www.w3.org/2000/svg"><path d="M170.496228 34.133311C132.881319 34.133311 102.400273 64.85329 102.400273 102.160999v853.776497C102.400273 993.552404 132.778919 1023.999317 170.803427 1023.999317h716.560589A68.437288 68.437288 0 0 0 955.733038 955.56203V229.171047L761.787567 34.133311H170.496228z" fill="#FFFFFF" /><path d="M68.266962 85.094343v853.776498A85.094343 85.094343 0 0 0 153.736772 1023.999317h716.560589A85.503943 85.503943 0 0 0 955.733038 938.495374V212.104392a17.134922 17.134922 0 0 0-4.949331-12.049059L756.838237 5.017597A17.169055 17.169055 0 0 0 744.720912 0H153.429572A85.26501 85.26501 0 0 0 68.266962 85.094343zM744.720912 34.133311l-12.117326-5.017597 193.945471 195.037737L921.599727 212.104392v726.356849c0 28.398914-23.005851 51.404766-51.336499 51.404766H153.736772A50.995166 50.995166 0 0 1 102.400273 938.904974V85.094343C102.400273 57.105029 125.337858 34.133311 153.429572 34.133311h591.29134z" fill="#CECECE" /><path d="M426.666724 307.199795l-17.066656-17.066655v102.399932l17.066656-17.066656h-170.666553l17.066655 17.066656v-102.399932l-17.066655 17.066655h170.666553zM238.933515 273.066485v136.533242h204.799864V273.066485H238.933515z" fill="#CFECB5" /><path d="M597.333276 307.199795l-17.066655-17.066655v102.399932l17.066655-17.066656h-170.666552l17.066655 17.066656v-102.399932l-17.066655 17.066655h170.666552zM409.600068 273.066485v136.533242h204.799864V273.066485h-204.799864z" fill="#CFECB5" /><path d="M767.999829 307.199795l-17.066655-17.066655v102.399932l17.066655-17.066656h-170.666553l17.066656 17.066656v-102.399932l-17.066656 17.066655h170.666553zM580.266621 273.066485v136.533242h204.799864V273.066485h-204.799864zM426.666724 409.599727l-17.066656-17.066655v102.399931l17.066656-17.066655h-170.666553l17.066655 17.066655v-102.399931l-17.066655 17.066655h170.666553zM238.933515 375.466416v136.533243h204.799864v-136.533243H238.933515z" fill="#CFECB5" /><path d="M597.333276 409.599727l-17.066655-17.066655v102.399931l17.066655-17.066655h-170.666552l17.066655 17.066655v-102.399931l-17.066655 17.066655h170.666552zM409.600068 375.466416v136.533243h204.799864v-136.533243h-204.799864z" fill="#CFECB5" /><path d="M767.999829 409.599727l-17.066655-17.066655v102.399931l17.066655-17.066655h-170.666553l17.066656 17.066655v-102.399931l-17.066656 17.066655h170.666553zM580.266621 375.466416v136.533243h204.799864v-136.533243h-204.799864zM426.666724 511.999659l-17.066656-17.066656v102.399932l17.066656-17.066655h-170.666553l17.066655 17.066655v-102.399932l-17.066655 17.066656h170.666553zM238.933515 477.866348v136.533242h204.799864v-136.533242H238.933515z" fill="#CFECB5" /><path d="M597.333276 511.999659l-17.066655-17.066656v102.399932l17.066655-17.066655h-170.666552l17.066655 17.066655v-102.399932l-17.066655 17.066656h170.666552zM409.600068 477.866348v136.533242h204.799864v-136.533242h-204.799864zM761.036634 618.051855l41.028239 32.051178c7.372795 5.768529 8.669861 16.725322 2.935465 24.063984l-154.248431 197.427069a17.066655 17.066655 0 0 0 26.897049 21.026119l154.248431-197.427068a51.473032 51.473032 0 0 0-8.840528-71.987152l-41.028239-32.051179a51.234099 51.234099 0 0 0-71.953019 8.840527 17.066655 17.066655 0 0 0 26.897049 21.02612 17.066655 17.066655 0 0 1 24.063984-2.969598z m-180.42868 203.059064l128.477781-164.45429 82.636745 64.580224 13.448525 10.513059 21.026119-26.897049-13.448524-10.513059-82.636745-64.580224 6.860795-8.772261a17.066655 17.066655 0 0 0-26.897049-21.026119l-159.675627 204.390264a17.134922 17.134922 0 0 0-2.867198 5.461329 16.725322 16.725322 0 0 0-1.331199 7.953062l6.348796 90.555673a17.066655 17.066655 0 0 0 20.138653 15.598923l88.575941-16.383989a17.066655 17.066655 0 1 0-6.212262-33.587178l-88.575941 16.383989 20.138653 15.598923-6.007463-84.821277z" fill="#CFECB5" /><path d="M802.064873 238.967307H938.666382a17.066655 17.066655 0 0 0 12.083192-29.149847l-204.799863-204.799863A17.066655 17.066655 0 0 0 716.799863 17.100789v136.601509a85.333276 85.333276 0 0 0 85.26501 85.265009zM750.933174 17.100789l-29.149847 12.083192 204.799863 204.799863 12.083192-29.149847h-136.601509A51.199966 51.199966 0 0 1 750.933174 153.702298V17.100789z" fill="#CECECE" /></svg>