<?xml version="1.0" standalone="no"?><!DOCTYPE svg PUBLIC "-//W3C//DTD SVG 1.1//EN" "http://www.w3.org/Graphics/SVG/1.1/DTD/svg11.dtd"><svg class="icon" width="200px" height="200.00px" viewBox="0 0 1024 1024" version="1.1" xmlns="http://www.w3.org/2000/svg"><path d="M170.496228 34.133311C132.881319 34.133311 102.400273 64.85329 102.400273 102.160999v853.776497C102.400273 993.552404 132.778919 1023.999317 170.803427 1023.999317h716.560589A68.437288 68.437288 0 0 0 955.733038 955.56203V229.171047L761.787567 34.133311H170.496228z" fill="#FFFFFF" /><path d="M68.266962 85.094343v853.776498A85.094343 85.094343 0 0 0 153.736772 1023.999317h716.560589A85.503943 85.503943 0 0 0 955.733038 938.495374V212.104392a17.134922 17.134922 0 0 0-4.949331-12.049059L756.838237 5.017597A17.169055 17.169055 0 0 0 744.720912 0H153.429572A85.26501 85.26501 0 0 0 68.266962 85.094343zM744.720912 34.133311l-12.117326-5.017597 193.945471 195.037737L921.599727 212.104392v726.356849c0 28.398914-23.005851 51.404766-51.336499 51.404766H153.736772A50.995166 50.995166 0 0 1 102.400273 938.904974V85.094343C102.400273 57.105029 125.337858 34.133311 153.429572 34.133311h591.29134z" fill="#CECECE" /><path d="M802.064873 238.967307H938.666382a17.066655 17.066655 0 0 0 12.083192-29.149847l-204.799863-204.799863A17.066655 17.066655 0 0 0 716.799863 17.100789v136.601509a85.333276 85.333276 0 0 0 85.26501 85.265009zM750.933174 17.100789l-29.149847 12.083192 204.799863 204.799863 12.083192-29.149847h-136.601509A51.199966 51.199966 0 0 1 750.933174 153.702298V17.100789z" fill="#CECECE" /><path d="M462.916299 557.465228c11.400526-23.176518 19.148787-40.174907 25.804783-57.446361l4.710397-12.049059a15.906123 15.906123 0 0 0 0.6144-9.762127 2849.6877 2849.6877 0 0 1-6.758396-27.647981l-1.570132-6.724263a725.810716 725.810716 0 0 1-4.198397-19.524253c-8.123728-40.00424-9.625594-65.399423-4.84693-83.251145a11.673592 11.673592 0 0 1 6.587728-1.877332h7.884795c1.023999 0 4.33493 5.05173 5.222397 9.762127 0.4096 3.037865 0.375466 5.597863 0.068266 8.703994a89.668207 89.668207 0 0 1-1.570132 9.932794 139.263907 139.263907 0 0 1-1.809065 7.714128l15.394123 4.369064h16.008522c0-11.571192-0.4096-18.500254-2.389331-27.135982a67.106089 67.106089 0 0 0-3.583998-11.298126c-8.055461-18.875721-15.940256-29.525314-28.979181-31.436779a15.906123 15.906123 0 0 0-11.332259 2.628265c-6.997329 4.778663-11.127459 13.277858-12.356258 23.381317a212.957725 212.957725 0 0 0-2.491732 29.354648c0 24.814917 4.607997 55.46663 13.243725 85.128476a15.56479 15.56479 0 0 0 13.414391 11.400526 15.769589 15.769589 0 0 0 17.203188-10.92266c2.286932-6.553596 3.618131-10.649593 4.437331-14.779723l5.973329-23.756784 6.417062-25.395183-31.505045-4.573864-0.580267 12.253859c-0.477866 9.215994-1.023999 18.431988-1.672532 27.033582-0.682666 9.181861-1.399466 17.066655-2.116265 23.039984a162.576958 162.576958 0 0 1-1.535999 9.727994 247.534768 247.534768 0 0 1-1.228799 5.870929l-1.262933 5.97333a15.906123 15.906123 0 0 0 0.546133 8.191994c2.116265 6.212263 4.43733 12.356258 6.929062 18.363721 14.267724 34.133311 34.815977 64.375424 59.494361 87.449542 6.553596 6.212263 13.653324 11.537059 23.108251 17.544522 4.676264 2.969598 9.966927 6.109863 16.042656 9.625593a15.940256 15.940256 0 0 0 10.376526 1.945599l3.822931-0.546133 7.918928-1.058133a498.243935 498.243935 0 0 1 58.333828-3.857064c24.33705 0.7168 40.857573 4.369064 44.475704 8.089595 0.887466 0.921599 1.433599 2.286932 1.911465 5.563729-0.136533-3.720531-0.477866-1.945599 2.833065-5.324796l11.434659 11.161592h16.008522c0-13.107191-10.00106-23.756784-33.041044-31.334379-19.865587-6.485329-54.408497-6.690129-95.98287-1.501865a15.701323 15.701323 0 0 0-13.789857 13.209591 16.486389 16.486389 0 0 0-0.068267 5.017597c0.648533 4.778663 3.447464 9.318394 8.669861 11.946658 48.435168 24.371184 97.348202 37.171175 117.316189 27.545582a29.866647 29.866647 0 0 0 6.007462-4.061864c1.365332-1.194666 1.365332-1.194666 2.525865-2.321065a66.901289 66.901289 0 0 0 4.642131-5.017597l-12.287992-10.274126-15.66719-3.276798a379.016281 379.016281 0 0 1-1.638399 6.997329l-0.716799 2.662398c0.477866-0.4096-0.887466 0.6144-2.116265 1.058132-11.639459 2.935465-39.38984-2.491732-69.597821-13.789857a344.644037 344.644037 0 0 1-37.102908-16.486389 261.802492 261.802492 0 0 1-10.10346-5.529596 16.110923 16.110923 0 0 0-10.274127-1.979732l-9.932793 1.501865c-47.035702 7.475195-100.078867 20.582386-150.288967 36.454376l-9.38666 3.003731a16.042656 16.042656 0 0 0-8.977061 7.338662 1054.44623 1054.44623 0 0 1-17.237322 29.320514l-1.945598 3.140264-3.686398 5.87093c-26.043716 40.925839-46.079969 62.361558-59.869827 67.037822-4.198397 1.433599-7.816528 1.297066-10.854392-0.3072l-11.161593-5.734396a20.753053 20.753053 0 0 1 1.331199 0.750933c2.935465 1.706666 3.140265 2.696532 3.208531 2.355198a25.66825 25.66825 0 0 1 1.911466-5.666129c4.915197-10.581326 18.158921-25.019717 38.126908-39.697041 5.905063-4.33493 12.390392-8.669861 19.421853-12.936524 0.989866-0.477866 5.324796-2.798931 11.502926-6.17813l10.10346-5.529596 3.037865-1.672532-19.182921-25.190383c-2.116265 2.150399-5.393063 5.46133-8.772261 8.738127-4.095997 3.959464-6.997329 6.519462-7.065595 6.587729-37.819708 31.334379-67.106089 71.509286-65.877289 92.808472-0.034133 10.581326 8.840527 18.090655 18.602654 16.486389 31.539179-5.25653 68.915154-51.677832 116.770055-140.52684 7.475195-13.892257 15.223457-28.808514 23.244785-44.74877a15.974389 15.974389 0 1 0-28.569581-14.370124 1391.103073 1391.103073 0 0 1-43.827171 80.998346c-10.581326 17.885855-20.41172 33.109311-29.38878 45.56797-15.496523 21.572252-28.398914 34.918377-38.126908 39.69704a18.739188 18.739188 0 0 1-5.35893 1.809065l2.628265 15.76959h16.008523v-1.604266a17.237322 17.237322 0 0 1 2.286931-7.406928c6.690129-13.653324 27.067715-39.28744 50.2101-58.572761 1.023999-0.443733 4.403197-3.447464 9.625594-8.465061l1.058133-1.024c3.618131-3.515731 7.099729-6.997329 9.38666-9.352527a15.35999 15.35999 0 0 0 4.403197-13.994657 16.383989 16.383989 0 0 0-16.418122-13.311991 16.383989 16.383989 0 0 0-7.167996 2.116265l-12.834124 7.065595a533.162311 533.162311 0 0 1-11.912526 6.417063c-43.417571 26.316782-70.792486 56.115163-75.36635 80.691146-2.150399 13.141325 0.1024 24.575984 12.356259 30.890646l11.025059 5.631996c39.355707 20.71892 78.950347-17.681055 133.085778-112.264458 51.234099-16.349856 105.710863-29.79838 153.019631-37.034642 49.663967 27.443182 109.124194 43.110371 136.976976 35.976509 8.772261-2.935465 15.496523-8.021328 19.967987-14.13119 2.321065-4.198397 3.003731-6.143996 3.72053-8.601595l1.024-3.754664c0.819199-3.174398 1.501866-6.246396 1.945598-8.362661a18.943987 18.943987 0 0 0 0.1024-6.519462c-2.150399-11.127459-16.110923-16.964255-25.497583-9.523194a19.012254 19.012254 0 0 0-2.525865 2.457599 36.590909 36.590909 0 0 1-2.491731 2.662398c-7.202129 2.935465-33.075178-3.037865-62.293292-14.813857a346.111769 346.111769 0 0 1-26.794649-12.083192l-5.188263 30.173847c6.655996-0.853333 13.141325-1.501866 19.319454-2.047999 28.364781-2.423465 51.097566-1.604266 62.702891 2.184532 5.05173 1.672532 8.499194 3.208531 10.547193 4.43733 3.822931 11.707726 17.919988 16.554656 26.999449 8.533328a20.889586 20.889586 0 0 0 5.495463-8.840528c1.126399-3.583998 1.535999-7.509328 1.535999-11.263992-1.467732-11.707726-4.53973-19.251187-10.854393-25.702383-11.502926-11.775992-33.928511-16.759455-66.901289-17.715188-21.777052 0-45.704503 1.638399-69.70022 5.017597-13.448524-7.918928-21.708786-13.619191-28.467181-20.00212-24.200517-22.630385-44.100237-53.657564-56.627162-88.712475 0.853333-3.959464 1.160533-5.324796 1.501865-7.133862 1.604266-6.826662 3.003731-19.660787 4.266664-37.102908 0.648533-8.840527 1.228799-18.295454 1.706666-27.716248 0.3072-5.66613 0.477866-10.069327 0.580266-12.629325a14.233591 14.233591 0 0 0-0.238933-3.891198c-2.423465-13.789857-21.060253-17.237322-28.706114-6.382929a15.35999 15.35999 0 0 0-2.559999 5.700263l-0.443733 1.809066a18285.35101 18285.35101 0 0 1-10.956792 43.519971 209.783327 209.783327 0 0 0-1.194666 4.84693 93.627671 93.627671 0 0 1-3.618131 11.741858l15.223456 4.949331 15.35999-4.471464a315.801389 315.801389 0 0 1-11.161592-58.606894c-0.2048-2.286932-0.341333-4.53973-0.477867-6.758396l-0.136533-2.730665a211.831325 211.831325 0 0 1-0.170666-7.918928 168.243088 168.243088 0 0 1 2.150398-25.05385c0.3072-2.389332 0.4096-2.594132-1.262932-1.467732l-8.942928-13.073058-2.321065 15.837856c-2.525865-0.375466 0.512 3.754664 4.130131 12.219725 0.7168 1.706666 1.331199 3.720531 1.843198 5.939196 1.297066 5.631996 1.604266 10.751993 1.604266 20.070387a15.018657 15.018657 0 0 0 4.505597 11.332259c7.202129 7.133862 20.991986 6.382929 25.907183-4.369064a18.261321 18.261321 0 0 0 0.955732-2.628265l0.580267-2.184532c0.546133-2.082132 1.160533-4.778663 1.809065-7.884794 0.921599-4.505597 1.638399-8.977061 2.047999-13.243725a64.785023 64.785023 0 0 0-0.034133-14.574923C526.199457 327.338448 513.228799 307.199795 491.110414 307.199795h-7.884795c-16.964255 0-32.870378 9.79626-37.410108 25.224517-8.567461 31.846379-3.037865 73.147685 15.906123 148.684701l-2.867199 7.338661c-6.280529 16.281589-13.653324 32.494912-24.678383 54.920497-1.774932 3.583998-12.697592 25.599983-15.735456 31.846379a15.974389 15.974389 0 0 0 28.671981 14.23359c3.106131-6.417062 13.994657-28.330648 15.803722-31.982912z m2.389332 30.378647c9.864527-19.831453 17.783455-37.410108 24.883184-55.193563 10.71786 17.237322 23.313051 33.109311 37.410108 47.035702-23.995717 5.631996-46.660236 12.185592-68.164221 19.865586-13.926391 4.94933-27.374915 10.376526-40.379707 16.315723l20.71892 22.118385c3.788797-7.065595 7.611728-14.43839 12.595191-24.371184l7.065596-14.062924c2.321065-4.710397 4.64213-9.352527 5.870929-11.707725a16.008523 16.008523 0 1 0-28.535448-14.506657c-2.901331 5.700263-12.253858 24.405317-12.970658 25.838916a900.436733 900.436733 0 0 1-12.219725 23.620251 16.008523 16.008523 0 0 0 20.71892 22.152518c39.185041-17.851721 83.080478-30.924779 132.949245-40.618639a16.008523 16.008523 0 0 0 6.997328-28.159981 306.312329 306.312329 0 0 1-16.349856-13.755725 230.74118 230.74118 0 0 1-53.72583-75.127416 16.008523 16.008523 0 0 0-29.695981 1.331199 695.22727 695.22727 0 0 1-35.771709 84.889543 15.974389 15.974389 0 0 0 28.603714 14.335991z" fill="#F9665C" /></svg>