<?xml version="1.0" standalone="no"?><!DOCTYPE svg PUBLIC "-//W3C//DTD SVG 1.1//EN" "http://www.w3.org/Graphics/SVG/1.1/DTD/svg11.dtd"><svg class="icon" width="200px" height="200.00px" viewBox="0 0 1024 1024" version="1.1" xmlns="http://www.w3.org/2000/svg"><path d="M605.081538 34.133311H170.735161C132.983719 34.133311 102.400273 64.85329 102.400273 102.160999v853.776497C102.400273 993.552404 132.778919 1023.999317 170.803427 1023.999317h716.560589A68.437288 68.437288 0 0 0 955.733038 955.56203V229.171047L761.787567 34.133311h-156.706029z" fill="#FFFFFF" /><path d="M153.668506 0A85.401543 85.401543 0 0 0 68.266962 85.094343v853.776498A85.094343 85.094343 0 0 0 153.736772 1023.999317h716.560589A85.503943 85.503943 0 0 0 955.733038 938.495374V212.104392a17.134922 17.134922 0 0 0-4.949331-12.049059L756.838237 5.017597A17.169055 17.169055 0 0 0 744.720912 0H153.668506z m591.052406 34.133311l-12.117326-5.017597 193.945471 195.037737L921.599727 212.104392v726.356849c0 28.398914-23.005851 51.404766-51.336499 51.404766H153.736772A50.995166 50.995166 0 0 1 102.400273 938.904974V85.094343C102.400273 57.139162 125.440258 34.133311 153.668506 34.133311H744.720912z" fill="#CECECE" /><path d="M533.196786 662.561692l-15.15519-39.867707h-129.160447l-15.15519 40.721039c-5.939196 15.871989-10.990926 26.623982-15.15519 32.187712s-11.059193 8.328528-20.582386 8.328528c-8.089595 0-15.223457-2.969598-21.435719-8.874661S307.200137 682.427278 307.200137 674.883817c0-4.33493 0.7168-8.806394 2.150398-13.448525s3.822931-11.059193 7.133862-19.28532l81.237279-206.267596 8.328528-21.333319c3.242665-8.294394 6.724262-15.189323 10.41066-20.684786 3.686398-5.495463 8.533328-9.932793 14.506657-13.311991s13.448524-5.085863 22.254918-5.085864c8.942927 0 16.418122 1.706666 22.425585 5.085864s10.820259 7.748262 14.506657 13.107191 6.792529 11.093326 9.318394 17.237322 5.734396 14.33599 9.625594 24.575983l82.978078 204.97053c6.485329 15.598923 9.762127 26.931182 9.762126 34.030911 0 7.372795-3.071998 14.131191-9.215993 20.275187s-13.550924 9.215994-22.220786 9.215993c-5.05173 0-9.38666-0.887466-13.004791-2.696531s-6.655996-4.266664-9.113594-7.372795-5.085863-7.884795-7.918928-14.301857-5.15413-12.117325-7.167995-17.032522z m-127.419649-88.200475h94.890604l-47.889035-131.071913-47.001569 131.071913z m298.359268-77.346082v170.93962c0 11.844259-2.833065 20.787186-8.465061 26.862915s-12.799991 9.113594-21.435719 9.113594-15.701323-3.106131-21.128519-9.318394-8.123728-15.086923-8.123728-26.658115v-169.232954c0-11.707726 2.696532-20.51412 8.123728-26.419183s12.458658-8.874661 21.128519-8.87466 15.803723 2.969598 21.435719 8.87466 8.465061 14.165324 8.465061 24.712517z m-29.252247-61.098626c-8.226128 0-15.291723-2.525865-21.128519-7.577595s-8.772261-12.219725-8.772261-21.435719c0-8.362661 3.003731-15.291723 8.977061-20.684786s12.970658-8.123728 20.923719-8.123728c7.645862 0 14.43839 2.457598 20.377586 7.372795s8.874661 12.049059 8.874661 21.435719c0 9.113594-2.901331 16.213323-8.669861 21.33332s-12.629325 7.679995-20.582386 7.679994z" fill="#F6A623" /><path d="M802.064873 238.967307H938.666382a17.066655 17.066655 0 0 0 12.083192-29.149847l-204.799863-204.799863A17.066655 17.066655 0 0 0 716.799863 17.100789v136.601509a85.333276 85.333276 0 0 0 85.26501 85.265009zM750.933174 17.100789l-29.149847 12.083192 204.799863 204.799863 12.083192-29.149847h-136.601509A51.199966 51.199966 0 0 1 750.933174 153.702298V17.100789z" fill="#CECECE" /></svg>