<?xml version="1.0" standalone="no"?><!DOCTYPE svg PUBLIC "-//W3C//DTD SVG 1.1//EN" "http://www.w3.org/Graphics/SVG/1.1/DTD/svg11.dtd"><svg class="icon" width="200px" height="200.00px" viewBox="0 0 1024 1024" version="1.1" xmlns="http://www.w3.org/2000/svg"><path d="M170.735161 34.133311C132.983719 34.133311 102.400273 64.85329 102.400273 102.160999v853.776497C102.400273 993.552404 132.778919 1023.999317 170.803427 1023.999317h716.560589A68.437288 68.437288 0 0 0 955.733038 955.56203V229.171047L761.787567 34.133311H170.735161z" fill="#FFFFFF" /><path d="M68.266962 85.094343v853.776498A85.094343 85.094343 0 0 0 153.736772 1023.999317h716.560589A85.503943 85.503943 0 0 0 955.733038 938.495374V212.104392a17.134922 17.134922 0 0 0-4.949331-12.049059L756.838237 5.017597A17.169055 17.169055 0 0 0 744.720912 0H153.668506A85.401543 85.401543 0 0 0 68.266962 85.094343zM588.014883 34.133311h156.706029l-12.117326-5.017597 193.945471 195.037737L921.599727 212.104392v726.356849c0 28.398914-23.005851 51.404766-51.336499 51.404766H153.736772A50.995166 50.995166 0 0 1 102.400273 938.904974V85.094343C102.400273 57.139162 125.440258 34.133311 153.668506 34.133311h434.346377z" fill="#CECECE" /><path d="M802.064873 238.967307H938.666382a17.066655 17.066655 0 0 0 12.083192-29.149847l-204.799863-204.799863A17.066655 17.066655 0 0 0 716.799863 17.100789v136.601509a85.333276 85.333276 0 0 0 85.26501 85.265009zM750.933174 17.100789l-29.149847 12.083192 204.799863 204.799863 12.083192-29.149847h-136.601509A51.199966 51.199966 0 0 1 750.933174 153.702298V17.100789z" fill="#CECECE" /><path d="M391.27048 636.756909l71.065553-103.799398-59.80156-92.296471c-5.631996-8.942927-9.864527-16.657056-12.663458-23.074118s-4.232531-12.595192-4.232531-18.534388c0-6.075729 2.696532-11.502926 8.123728-16.349856s12.049059-7.236262 19.831454-7.236262c8.942927 0 15.940256 2.628265 20.923719 7.918928s11.878392 15.05279 20.684786 29.354648l47.650102 77.141281 50.926899-77.141281 10.71786-16.691189c2.969598-4.64213 5.802663-8.465061 8.567461-11.468793s5.802663-5.324796 9.215993-6.826662 7.338662-2.286932 11.810126-2.286932c8.089595 0 14.711457 2.423465 19.831453 7.270396s7.679995 10.581326 7.679995 17.237321c0 9.69386-5.56373 22.835185-16.691189 39.423974l-62.600491 93.593538 67.379155 103.799397c6.075729 9.113594 10.478926 16.657056 13.209591 22.630385s4.130131 11.673592 4.130131 16.998389a26.828782 26.828782 0 0 1-14.097058 23.825051 30.924779 30.924779 0 0 1-15.15519 3.686397c-6.075729 0-11.195726-1.262932-15.394123-3.788797s-7.577595-5.66613-10.171726-9.420794-7.441062-11.059193-14.506657-21.879452l-55.910363-87.961542-59.357827 90.555673c-4.607997 7.236262-7.918928 12.287992-9.864527 15.15519s-4.300797 5.700263-7.031462 8.465061-6.007463 4.915197-9.762127 6.485329-8.157861 2.389332-13.209591 2.389332c-7.816528 0-14.267724-2.389332-19.38772-7.133862s-7.714128-11.707726-7.714128-20.821319c0-10.683726 5.25653-23.756784 15.803722-39.219174z" fill="#7FC881" /></svg>