<?xml version="1.0" standalone="no"?><!DOCTYPE svg PUBLIC "-//W3C//DTD SVG 1.1//EN" "http://www.w3.org/Graphics/SVG/1.1/DTD/svg11.dtd"><svg class="icon" width="200px" height="200.00px" viewBox="0 0 1024 1024" version="1.1" xmlns="http://www.w3.org/2000/svg"><path d="M153.429572 17.066655C115.814664 17.066655 85.333618 47.786635 85.333618 85.094343v853.776498c0 37.580775 30.378646 68.027688 68.403154 68.027688h716.560589a68.437288 68.437288 0 0 0 68.403155-68.437288V212.104392L744.720912 17.066655H153.429572z" fill="#FFFFFF" /><path d="M68.266962 85.094343v853.776498A85.094343 85.094343 0 0 0 153.736772 1023.999317h716.560589A85.503943 85.503943 0 0 0 955.733038 938.495374V212.104392a17.134922 17.134922 0 0 0-4.949331-12.049059L756.838237 5.017597A17.169055 17.169055 0 0 0 744.720912 0H153.429572A85.26501 85.26501 0 0 0 68.266962 85.094343zM744.720912 34.133311l-12.117326-5.017597 193.945471 195.037737L921.599727 212.104392v726.356849c0 28.398914-23.005851 51.404766-51.336499 51.404766H153.736772A50.995166 50.995166 0 0 1 102.400273 938.904974V85.094343C102.400273 57.105029 125.337858 34.133311 153.429572 34.133311h591.29134z" fill="#CECECE" /><path d="M170.666894 546.132969h785.066144v341.333106H170.666894z" fill="#FCB564" /><path d="M289.689748 785.44161v-142.096972H238.933515V614.39959h135.918843v28.945048H324.232659v142.096972H289.689748z m91.750339 0l58.436228-89.258607L386.93555 614.39959h40.379706l34.303978 54.95463 33.587177-54.95463h40.00424l-53.213831 83.080478 58.436228 87.961542h-41.642639l-37.922108-59.153028-38.024508 59.153028h-41.403706z m216.985455 0v-142.096972h-50.756232V614.39959h135.918842v28.945048h-50.619699v142.096972h-34.542911z" fill="#FFFFFF" /><path d="M802.064873 238.967307H938.666382a17.066655 17.066655 0 0 0 12.083192-29.149847l-204.799863-204.799863A17.066655 17.066655 0 0 0 716.799863 17.100789v136.601509a85.333276 85.333276 0 0 0 85.26501 85.265009zM750.933174 17.100789l-29.149847 12.083192 204.799863 204.799863 12.083192-29.149847h-136.601509A51.199966 51.199966 0 0 1 750.933174 153.702298V17.100789z" fill="#CECECE" /></svg>