<?xml version="1.0" standalone="no"?><!DOCTYPE svg PUBLIC "-//W3C//DTD SVG 1.1//EN" "http://www.w3.org/Graphics/SVG/1.1/DTD/svg11.dtd"><svg class="icon" width="200px" height="200.00px" viewBox="0 0 1024 1024" version="1.1" xmlns="http://www.w3.org/2000/svg"><path d="M170.496228 34.133311C132.881319 34.133311 102.400273 64.85329 102.400273 102.160999v853.776497C102.400273 993.552404 132.778919 1023.999317 170.803427 1023.999317h716.560589A68.437288 68.437288 0 0 0 955.733038 955.56203V229.171047L761.787567 34.133311H170.496228z" fill="#FFFFFF" /><path d="M68.266962 85.094343v853.776498A85.094343 85.094343 0 0 0 153.736772 1023.999317h716.560589A85.503943 85.503943 0 0 0 955.733038 938.495374V212.104392a17.134922 17.134922 0 0 0-4.949331-12.049059L756.838237 5.017597A17.169055 17.169055 0 0 0 744.720912 0H153.429572A85.26501 85.26501 0 0 0 68.266962 85.094343zM744.720912 34.133311l-12.117326-5.017597 193.945471 195.037737L921.599727 212.104392v726.356849c0 28.398914-23.005851 51.404766-51.336499 51.404766H153.736772A50.995166 50.995166 0 0 1 102.400273 938.904974V85.094343C102.400273 57.105029 125.337858 34.133311 153.429572 34.133311h591.29134z" fill="#CECECE" /><path d="M699.733208 716.799522l-17.066655-17.066655v102.399932l17.066655-17.066656h-102.399932l17.066656 17.066656v-102.399932l-17.066656 17.066655h102.399932zM580.266621 682.666212v136.533242h136.533242v-136.533242h-136.533242z" fill="#D3F5EF" /><path d="M921.599727 785.066143v-34.13331H102.400273v34.13331z" fill="#D3F5EF" /><path d="M648.533242 989.866007h34.133311V34.133311h-34.133311z" fill="#D3F5EF" /><path d="M802.064873 238.967307H938.666382a17.066655 17.066655 0 0 0 12.083192-29.149847l-204.799863-204.799863A17.066655 17.066655 0 0 0 716.799863 17.100789v136.601509a85.333276 85.333276 0 0 0 85.26501 85.265009zM750.933174 17.100789l-29.149847 12.083192 204.799863 204.799863 12.083192-29.149847h-136.601509A51.199966 51.199966 0 0 1 750.933174 153.702298V17.100789z" fill="#CECECE" /><path d="M464.930165 799.094934l-15.15519-39.867707H320.614528l-15.15519 40.72104c-5.939196 15.871989-10.990926 26.623982-15.15519 32.187712s-11.059193 8.328528-20.582386 8.328527c-8.089595 0-15.223457-2.969598-21.43572-8.87466S238.933515 818.960521 238.933515 811.417059c0-4.33493 0.7168-8.806394 2.150399-13.448524s3.822931-11.059193 7.133862-19.285321l81.237279-206.267596 8.328528-21.333319c3.242665-8.294394 6.758395-15.189323 10.444793-20.650653 3.686398-5.495463 8.533328-9.932793 14.506657-13.311991s13.414391-5.119997 22.220785-5.119996c8.942927 0 16.418122 1.706666 22.425585 5.085863s10.820259 7.748262 14.506657 13.107191 6.792529 11.093326 9.318394 17.237322 5.734396 14.33599 9.625593 24.575984l82.978078 204.97053c6.485329 15.598923 9.762127 26.931182 9.762127 34.03091 0 7.372795-3.071998 14.131191-9.215994 20.275187s-13.550924 9.215994-22.220785 9.215994c-5.05173 0-9.38666-0.887466-13.004791-2.696532s-6.655996-4.266664-9.113594-7.372795-5.085863-7.884795-7.918928-14.301857-5.15413-12.117325-7.167995-17.032522z m-127.419649-88.200475h94.890604l-47.889035-131.071912-47.001569 131.071912z" fill="#00DDB9" /></svg>