<?xml version="1.0" standalone="no"?><!DOCTYPE svg PUBLIC "-//W3C//DTD SVG 1.1//EN" "http://www.w3.org/Graphics/SVG/1.1/DTD/svg11.dtd"><svg class="icon" width="200px" height="200.00px" viewBox="0 0 1024 1024" version="1.1" xmlns="http://www.w3.org/2000/svg"><path d="M136.362917 34.133311C98.748009 34.133311 68.266962 64.85329 68.266962 102.160999v853.776497C68.266962 993.552404 98.645609 1023.999317 136.670117 1023.999317h716.560589A68.437288 68.437288 0 0 0 921.599727 955.56203V229.171047L727.654256 34.133311H136.362917z" fill="#FFFFFF" /><path d="M68.266962 85.094343v853.776498A85.094343 85.094343 0 0 0 153.736772 1023.999317h716.560589A85.503943 85.503943 0 0 0 955.733038 938.495374V212.104392a17.134922 17.134922 0 0 0-4.949331-12.049059L756.838237 5.017597A17.169055 17.169055 0 0 0 744.720912 0H153.429572A85.26501 85.26501 0 0 0 68.266962 85.094343zM744.720912 34.133311l-12.117326-5.017597 193.945471 195.037737L921.599727 212.104392v726.356849c0 28.398914-23.005851 51.404766-51.336499 51.404766H153.736772A50.995166 50.995166 0 0 1 102.400273 938.904974V85.094343C102.400273 57.105029 125.337858 34.133311 153.429572 34.133311h591.29134z" fill="#CECECE" /><path d="M170.666894 546.132969h785.066144v341.333106H170.666894z" fill="#3096CD" /><path d="M257.194837 795.13547L204.800205 648.532901h32.085312l37.102908 108.509794L309.896668 648.532901h31.402646l-52.497032 146.602569h-31.607445z m96.767935-120.592986V648.532901h28.091715v26.009583h-28.091715z m0 120.592986v-106.188729h28.091715v106.188729h-28.091715z m48.469301-30.31038l28.194115-4.300797c1.194666 5.46133 3.618131 9.625594 7.304528 12.458658 3.652264 2.833065 8.806394 4.266664 15.394123 4.266664 7.270395 0 12.731725-1.331199 16.383989-3.993597a8.977061 8.977061 0 0 0 3.686398-7.509328 7.406928 7.406928 0 0 0-2.013866-5.290664c-1.399466-1.331199-4.53973-2.559998-9.38666-3.686397-22.664518-4.983463-37.034642-9.557327-43.110371-13.687458a27.340782 27.340782 0 0 1-12.595192-23.893317c0-9.215994 3.618131-16.930122 10.888526-23.210651s18.534388-9.38666 33.791978-9.386661c14.54079 0 25.326916 2.355198 32.392511 7.099729s11.946659 11.741859 14.609057 20.991986l-26.453315 4.84693a16.247456 16.247456 0 0 0-6.451196-9.48906c-3.174398-2.184532-7.679995-3.310931-13.550924-3.310931-7.406928 0-12.697592 1.023999-15.906123 3.106131a6.724262 6.724262 0 0 0-3.208531 5.700263c0 2.013865 0.921599 3.686398 2.798931 5.085863 2.525865 1.877332 11.298126 4.505597 26.248516 7.884795s25.429316 7.577595 31.334379 12.492791c5.870929 4.983463 8.806394 11.980792 8.806394 20.889586 0 9.727994-4.061864 18.090655-12.185592 25.087984s-20.172787 10.51306-36.113042 10.513059c-14.472524 0-25.907183-2.935465-34.338111-8.806394s-13.926391-13.789857-16.520522-23.859184z m125.26925-90.282606V648.532901h28.091714v26.009583h-28.091714z m0 120.592986v-106.188729h28.091714v106.188729h-28.091714z m51.848499-54.613297c0-9.318394 2.286932-18.363721 6.894928-27.101849s11.127459-15.394123 19.558387-20.00212c8.430928-4.607997 17.851721-6.894929 28.262381-6.894928 16.076789 0 29.218114 5.222397 39.492241 15.633056s15.394123 23.620251 15.394123 39.560507c0 16.076789-5.188263 29.38878-15.56479 39.935973s-23.415451 15.837856-39.150907 15.837856c-9.727994 0-19.012254-2.184532-27.852781-6.587729-8.840527-4.403197-15.56479-10.854393-20.138654-19.353587s-6.894929-18.807454-6.894928-31.027179z m28.808514 1.501866c0 10.547193 2.491732 18.602654 7.509328 24.200517a23.790917 23.790917 0 0 0 18.500254 8.396794c7.338662 0 13.482658-2.798931 18.466121-8.396794s7.441062-13.721591 7.441062-24.405317c0-10.41066-2.491732-18.397854-7.441062-23.995718s-11.127459-8.396794-18.466121-8.396794a23.790917 23.790917 0 0 0-18.500254 8.396794c-5.017597 5.597863-7.509328 13.687458-7.509328 24.200518z" fill="#FFFFFF" /><path d="M802.064873 238.967307H938.666382a17.066655 17.066655 0 0 0 12.083192-29.149847l-204.799863-204.799863A17.066655 17.066655 0 0 0 716.799863 17.100789v136.601509a85.333276 85.333276 0 0 0 85.26501 85.265009zM750.933174 17.100789l-29.149847 12.083192 204.799863 204.799863 12.083192-29.149847h-136.601509A51.199966 51.199966 0 0 1 750.933174 153.702298V17.100789z" fill="#CECECE" /><path d="M273.271626 212.923591l71.918885 212.991858 72.157819-214.493723c3.754664-11.263992 6.587729-19.114654 8.465061-23.517851s4.983463-8.362661 9.318394-11.912526 10.239993-5.324796 17.749321-5.324796a30.378646 30.378646 0 0 1 26.350916 15.086923 26.760515 26.760515 0 0 1 3.993597 13.755724c0 3.174398-0.443733 6.621862-1.297066 10.30826s-1.945599 7.304528-3.242664 10.82026-2.628265 7.167995-3.925331 10.922659l-76.902349 207.564662c-2.730665 7.953061-5.495463 15.496523-8.226127 22.630384s-5.939196 13.448524-9.523194 18.841588-8.430928 9.864527-14.404257 13.311991c-6.007463 3.481598-13.311991 5.188263-21.981852 5.188263s-16.008523-1.706666-21.981852-5.085863c-6.007463-3.379198-10.820259-7.884795-14.506657-13.448524s-6.894929-11.878392-9.625594-18.943988-5.495463-14.574924-8.226128-22.527985L213.674866 233.267044c-1.297066-3.754664-2.628265-7.441062-3.993598-11.059192s-2.525865-7.509328-3.481597-11.707726S204.800205 202.820131 204.800205 199.9188c0-7.372795 2.969598-14.097057 8.874661-20.138653S227.055123 170.666553 235.998051 170.666553c10.990926 0 18.739188 3.345064 23.278917 10.069327s9.215994 17.442122 13.994658 32.187711z" fill="#0087D0" /></svg>