<svg id="图层_1" data-name="图层 1" xmlns="http://www.w3.org/2000/svg" xmlns:xlink="http://www.w3.org/1999/xlink" viewBox="0 0 500 300"><defs><style>.cls-1{fill:url(#未命名的渐变_50);}.cls-2{fill:url(#未命名的渐变_35);}.cls-3{fill:url(#未命名的渐变_35-2);}.cls-4{fill:url(#未命名的渐变_35-3);}.cls-5{fill:#c7cce0;}.cls-6{fill:#e2e4ed;}.cls-7{fill:#fff;}</style><linearGradient id="未命名的渐变_50" x1="250" y1="284.22" x2="250" y2="191.22" gradientUnits="userSpaceOnUse"><stop offset="0" stop-color="#fff9ef" stop-opacity="0"/><stop offset="0.17" stop-color="#fef8ef" stop-opacity="0.02"/><stop offset="0.32" stop-color="#fbf5ee" stop-opacity="0.06"/><stop offset="0.46" stop-color="#f5f1ec" stop-opacity="0.14"/><stop offset="0.6" stop-color="#edebea" stop-opacity="0.26"/><stop offset="0.74" stop-color="#e3e2e7" stop-opacity="0.4"/><stop offset="0.87" stop-color="#d6d8e4" stop-opacity="0.58"/><stop offset="0.99" stop-color="#c8cde0" stop-opacity="0.79"/><stop offset="1" stop-color="#c7cce0" stop-opacity="0.8"/></linearGradient><linearGradient id="未命名的渐变_35" x1="-250.95" y1="-599.29" x2="-195.17" y2="-655.06" gradientTransform="translate(296.56 752.39)" xlink:href="#未命名的渐变_50"/><linearGradient id="未命名的渐变_35-2" x1="27.65" y1="-794.45" x2="83.43" y2="-850.22" gradientTransform="translate(352.96 1006.56)" xlink:href="#未命名的渐变_50"/><linearGradient id="未命名的渐变_35-3" x1="-50.83" y1="-898.39" x2="4.94" y2="-954.17" gradientTransform="translate(449.45 981.5)" xlink:href="#未命名的渐变_50"/></defs><title>订单缺省页</title><ellipse class="cls-1" cx="250" cy="237.72" rx="146" ry="46.5"/><rect class="cls-2" x="59.5" y="75.22" width="28" height="100" rx="14" ry="14" transform="translate(110.07 -15.3) rotate(45)"/><rect class="cls-3" x="394.5" y="134.22" width="28" height="100" rx="14" ry="14" transform="translate(249.91 -234.9) rotate(45)"/><rect class="cls-4" x="412.5" y="5.22" width="28" height="100" rx="14" ry="14" transform="translate(163.97 -285.41) rotate(45)"/><path class="cls-5" d="M301.85,68.06l-26.59,1a10.1,10.1,0,0,0,.05-1h0A10.3,10.3,0,0,0,265,57.76h-2.58a12.9,12.9,0,0,0-25.81,0H234A10.3,10.3,0,0,0,223.7,68h0a10,10,0,0,0,.44,2.91L199,71.81a5.15,5.15,0,0,0-5.16,5.11L190.06,216.8c0,2.81.71,8.53,9,8.18H304.84a5.15,5.15,0,0,0,5.16-5.11v-143A8.76,8.76,0,0,0,301.85,68.06Zm-52.35-18a7.66,7.66,0,1,1-7.74,7.66A7.7,7.7,0,0,1,249.51,50.11Z"/><path class="cls-6" d="M301,68H272.74a10.3,10.3,0,0,0-10.32-10.21h-2.58a12.9,12.9,0,0,0-25.81,0h-2.58A10.3,10.3,0,0,0,221.12,68h-26A5.15,5.15,0,0,0,190,73.08V216a5.15,5.15,0,0,0,5.16,5.11H301a5.15,5.15,0,0,0,5.16-5.11v-143A5.15,5.15,0,0,0,301,68Zm-54-17.87a7.66,7.66,0,1,1-7.74,7.66A7.7,7.7,0,0,1,246.93,50.11Z"/><rect class="cls-7" x="196.45" y="76.49" width="103.23" height="136.16" rx="4" ry="4"/><rect class="cls-5" x="215.81" y="99.52" width="64.52" height="6.38" rx="2.46" ry="2.46"/><rect class="cls-5" x="215.81" y="121.22" width="64.52" height="6.38" rx="2.46" ry="2.46"/><rect class="cls-5" x="215.81" y="142.92" width="64.52" height="6.38" rx="2.46" ry="2.46"/></svg>