<svg id="图层_1" data-name="图层 1" xmlns="http://www.w3.org/2000/svg" xmlns:xlink="http://www.w3.org/1999/xlink" viewBox="0 0 500 300"><defs><style>.cls-1{fill:url(#未命名的渐变_50);}.cls-2{fill:url(#未命名的渐变_35);}.cls-3{fill:url(#未命名的渐变_35-2);}.cls-4{fill:url(#未命名的渐变_35-3);}.cls-5{fill:#c7cce0;}.cls-6{fill:#e2e4ed;}.cls-7{fill:#fff;}</style><linearGradient id="未命名的渐变_50" x1="250" y1="284.22" x2="250" y2="191.22" gradientUnits="userSpaceOnUse"><stop offset="0" stop-color="#fff9ef" stop-opacity="0"/><stop offset="0.17" stop-color="#fef8ef" stop-opacity="0.02"/><stop offset="0.32" stop-color="#fbf5ee" stop-opacity="0.06"/><stop offset="0.46" stop-color="#f5f1ec" stop-opacity="0.14"/><stop offset="0.6" stop-color="#edebea" stop-opacity="0.26"/><stop offset="0.74" stop-color="#e3e2e7" stop-opacity="0.4"/><stop offset="0.87" stop-color="#d6d8e4" stop-opacity="0.58"/><stop offset="0.99" stop-color="#c8cde0" stop-opacity="0.79"/><stop offset="1" stop-color="#c7cce0" stop-opacity="0.8"/></linearGradient><linearGradient id="未命名的渐变_35" x1="307.01" y1="47.73" x2="362.78" y2="-8.04" gradientTransform="translate(-261.4 105.37)" xlink:href="#未命名的渐变_50"/><linearGradient id="未命名的渐变_35-2" x1="585.61" y1="-147.43" x2="641.38" y2="-203.2" gradientTransform="translate(-205 359.54)" xlink:href="#未命名的渐变_50"/><linearGradient id="未命名的渐变_35-3" x1="507.12" y1="-251.37" x2="562.89" y2="-307.15" gradientTransform="translate(-108.51 334.48)" xlink:href="#未命名的渐变_50"/></defs><title>评价缺省页</title><ellipse class="cls-1" cx="250" cy="237.72" rx="146" ry="46.5"/><rect class="cls-2" x="59.5" y="75.22" width="28" height="100" rx="14" ry="14" transform="translate(110.07 -15.3) rotate(45)"/><rect class="cls-3" x="394.5" y="134.22" width="28" height="100" rx="14" ry="14" transform="translate(249.91 -234.9) rotate(45)"/><rect class="cls-4" x="412.5" y="5.22" width="28" height="100" rx="14" ry="14" transform="translate(163.97 -285.41) rotate(45)"/><path class="cls-5" d="M304.89,230H200.21c-10.21,0-9.82-7.35-9.82-10.21l4.71-140.69a5.17,5.17,0,0,1,5.11-5.2L299.79,70C302.6,70,310,71,310,79.11V224.8A5.17,5.17,0,0,1,304.89,230Z"/><rect class="cls-6" x="190" y="70" width="114.89" height="156.1" rx="4" ry="4"/><rect class="cls-7" x="196.38" y="78.67" width="102.13" height="138.75" rx="4" ry="4"/><path class="cls-6" d="M222,165.51c-2.11,3.72.89,14,.89,14s10.27-2.52,12.38-6.24L257,135l-13.27-7.8Z"/><path class="cls-6" d="M258,117.59a7.6,7.6,0,0,0-10.46,2.86l-1.28,2.25,13.27,7.8,1.28-2.25A7.91,7.91,0,0,0,258,117.59Z"/><ellipse class="cls-6" cx="244.25" cy="175.65" rx="3.83" ry="3.9"/><ellipse class="cls-6" cx="257.02" cy="175.65" rx="3.83" ry="3.9"/><ellipse class="cls-6" cx="269.78" cy="175.65" rx="3.83" ry="3.9"/></svg>