<svg id="图层_1" data-name="图层 1" xmlns="http://www.w3.org/2000/svg" xmlns:xlink="http://www.w3.org/1999/xlink" viewBox="0 0 500 300"><defs><style>.cls-1{fill:url(#未命名的渐变_50);}.cls-2{fill:url(#未命名的渐变_35);}.cls-3{fill:url(#未命名的渐变_35-2);}.cls-4{fill:url(#未命名的渐变_35-3);}.cls-5{fill:#e2e4ed;}.cls-6{fill:url(#未命名的渐变_31);}.cls-7{fill:#c7cce0;}.cls-8{fill:url(#未命名的渐变_38);}</style><linearGradient id="未命名的渐变_50" x1="250" y1="284.22" x2="250" y2="191.22" gradientUnits="userSpaceOnUse"><stop offset="0" stop-color="#fff9ef" stop-opacity="0"/><stop offset="0.17" stop-color="#fef8ef" stop-opacity="0.02"/><stop offset="0.32" stop-color="#fbf5ee" stop-opacity="0.06"/><stop offset="0.46" stop-color="#f5f1ec" stop-opacity="0.14"/><stop offset="0.6" stop-color="#edebea" stop-opacity="0.26"/><stop offset="0.74" stop-color="#e3e2e7" stop-opacity="0.4"/><stop offset="0.87" stop-color="#d6d8e4" stop-opacity="0.58"/><stop offset="0.99" stop-color="#c8cde0" stop-opacity="0.79"/><stop offset="1" stop-color="#c7cce0" stop-opacity="0.8"/></linearGradient><linearGradient id="未命名的渐变_35" x1="794.91" y1="-154.36" x2="850.69" y2="-210.14" gradientTransform="translate(-749.3 307.47)" xlink:href="#未命名的渐变_50"/><linearGradient id="未命名的渐变_35-2" x1="1073.51" y1="-349.52" x2="1129.29" y2="-405.3" gradientTransform="translate(-692.9 561.63)" xlink:href="#未命名的渐变_50"/><linearGradient id="未命名的渐变_35-3" x1="995.02" y1="-453.47" x2="1050.8" y2="-509.24" gradientTransform="translate(-596.41 536.58)" xlink:href="#未命名的渐变_50"/><linearGradient id="未命名的渐变_31" x1="297.07" y1="109.67" x2="279.97" y2="80.05" gradientUnits="userSpaceOnUse"><stop offset="0" stop-color="#fff"/><stop offset="0" stop-color="#fafafc" stop-opacity="0.92"/><stop offset="0" stop-color="#e2e4ed" stop-opacity="0.6"/><stop offset="1" stop-color="#c7cce0"/></linearGradient><linearGradient id="未命名的渐变_38" x1="209.22" y1="188.79" x2="209.22" y2="216.5" gradientUnits="userSpaceOnUse"><stop offset="0" stop-color="#fff"/><stop offset="0.03" stop-color="#f6f7fa"/><stop offset="0.1" stop-color="#ebecf2"/><stop offset="0.2" stop-color="#e4e6ee"/><stop offset="0.48" stop-color="#e2e4ed"/><stop offset="0.7" stop-color="#dadde9"/><stop offset="1" stop-color="#c7cce0"/></linearGradient></defs><title>文章内容缺省页</title><ellipse class="cls-1" cx="250" cy="237.72" rx="146" ry="46.5"/><rect class="cls-2" x="59.5" y="75.22" width="28" height="100" rx="14" ry="14" transform="translate(110.07 -15.3) rotate(45)"/><rect class="cls-3" x="394.5" y="134.22" width="28" height="100" rx="14" ry="14" transform="translate(249.91 -234.9) rotate(45)"/><rect class="cls-4" x="412.5" y="5.22" width="28" height="100" rx="14" ry="14" transform="translate(163.97 -285.41) rotate(45)"/><path class="cls-5" d="M288.55,76.5h-104a8,8,0,0,0-8,8v124a8,8,0,0,0,8,8h84a8,8,0,0,0,8-8V89.5a13,13,0,0,1,12.5-13Z"/><path class="cls-6" d="M302.55,90.5a14,14,0,0,0-13.5-14,13,13,0,0,0-12.5,13v17h26Z"/><rect class="cls-7" x="196.55" y="105" width="60" height="3" rx="1.5" ry="1.5"/><rect class="cls-7" x="196.55" y="114.25" width="60" height="3" rx="1.5" ry="1.5"/><rect class="cls-7" x="196.55" y="123.5" width="60" height="3" rx="1.5" ry="1.5"/><rect class="cls-7" x="196.55" y="132.75" width="60" height="3" rx="1.5" ry="1.5"/><rect class="cls-7" x="196.55" y="142" width="60" height="3" rx="1.5" ry="1.5"/><rect class="cls-7" x="196.55" y="151.25" width="60" height="3" rx="1.5" ry="1.5"/><rect class="cls-7" x="196.55" y="160.5" width="60" height="3" rx="1.5" ry="1.5"/><rect class="cls-7" x="196.55" y="169.75" width="60" height="3" rx="1.5" ry="1.5"/><path class="cls-8" d="M254.89,203.5V188.79H150.55V203.5a13,13,0,0,0,13,13H267.89A13,13,0,0,1,254.89,203.5Z"/><path class="cls-7" d="M303.43,201.6c-2.74-1.23-9.78,1.55-9.78,1.55s2.44,7,5.18,8.26l28.25,12.68,4.59-9.81Z"/><path class="cls-7" d="M339.36,223.65a5.35,5.35,0,0,0-2.69-7.14l-1.66-.75-4.59,9.81,1.66.75A5.56,5.56,0,0,0,339.36,223.65Z"/></svg>