<?xml version="1.0" standalone="no"?><!DOCTYPE svg PUBLIC "-//W3C//DTD SVG 1.1//EN" "http://www.w3.org/Graphics/SVG/1.1/DTD/svg11.dtd"><svg height="300" node-id="1" sillyvg="true" template-height="300" template-width="500" version="1.1" viewBox="0 0 500 300" width="500" xmlns="http://www.w3.org/2000/svg" xmlns:xlink="http://www.w3.org/1999/xlink"><defs node-id="41"><linearGradient gradientUnits="userSpaceOnUse" id="未命名的渐变_50" node-id="5" spreadMethod="pad" x1="250" x2="250" y1="284.22" y2="191.22"><stop offset="0" stop-color="#fff9ef" stop-opacity="0"></stop><stop offset="0.17" stop-color="#fef8ef" stop-opacity="0.02"></stop><stop offset="0.32" stop-color="#fbf5ee" stop-opacity="0.06"></stop><stop offset="0.46" stop-color="#f5f1ec" stop-opacity="0.14"></stop><stop offset="0.6" stop-color="#edebea" stop-opacity="0.26"></stop><stop offset="0.74" stop-color="#e3e2e7" stop-opacity="0.4"></stop><stop offset="0.87" stop-color="#d6d8e4" stop-opacity="0.58"></stop><stop offset="0.99" stop-color="#c8cde0" stop-opacity="0.79"></stop><stop offset="1" stop-color="#c7cce0" stop-opacity="0.8"></stop></linearGradient><linearGradient gradientUnits="userSpaceOnUse" id="未命名的渐变_35" node-id="15" spreadMethod="pad" x1="151.76999" x2="207.54999" y1="-327.02997" y2="-382.80997"><stop offset="0" stop-color="#fff9ef" stop-opacity="0"></stop><stop offset="0.17" stop-color="#fef8ef" stop-opacity="0.02"></stop><stop offset="0.32" stop-color="#fbf5ee" stop-opacity="0.06"></stop><stop offset="0.46" stop-color="#f5f1ec" stop-opacity="0.14"></stop><stop offset="0.6" stop-color="#edebea" stop-opacity="0.26"></stop><stop offset="0.74" stop-color="#e3e2e7" stop-opacity="0.4"></stop><stop offset="0.87" stop-color="#d6d8e4" stop-opacity="0.58"></stop><stop offset="0.99" stop-color="#c8cde0" stop-opacity="0.79"></stop><stop offset="1" stop-color="#c7cce0" stop-opacity="0.8"></stop></linearGradient><linearGradient gradientUnits="userSpaceOnUse" id="未命名的渐变_35-2" node-id="16" spreadMethod="pad" x1="430.36996" x2="486.14996" y1="-522.19995" y2="-577.9699"><stop offset="0" stop-color="#fff9ef" stop-opacity="0"></stop><stop offset="0.17" stop-color="#fef8ef" stop-opacity="0.02"></stop><stop offset="0.32" stop-color="#fbf5ee" stop-opacity="0.06"></stop><stop offset="0.46" stop-color="#f5f1ec" stop-opacity="0.14"></stop><stop offset="0.6" stop-color="#edebea" stop-opacity="0.26"></stop><stop offset="0.74" stop-color="#e3e2e7" stop-opacity="0.4"></stop><stop offset="0.87" stop-color="#d6d8e4" stop-opacity="0.58"></stop><stop offset="0.99" stop-color="#c8cde0" stop-opacity="0.79"></stop><stop offset="1" stop-color="#c7cce0" stop-opacity="0.8"></stop></linearGradient><linearGradient gradientUnits="userSpaceOnUse" id="未命名的渐变_35-3" node-id="17" spreadMethod="pad" x1="351.88998" x2="407.65997" y1="-626.13995" y2="-681.9099"><stop offset="0" stop-color="#fff9ef" stop-opacity="0"></stop><stop offset="0.17" stop-color="#fef8ef" stop-opacity="0.02"></stop><stop offset="0.32" stop-color="#fbf5ee" stop-opacity="0.06"></stop><stop offset="0.46" stop-color="#f5f1ec" stop-opacity="0.14"></stop><stop offset="0.6" stop-color="#edebea" stop-opacity="0.26"></stop><stop offset="0.74" stop-color="#e3e2e7" stop-opacity="0.4"></stop><stop offset="0.87" stop-color="#d6d8e4" stop-opacity="0.58"></stop><stop offset="0.99" stop-color="#c8cde0" stop-opacity="0.79"></stop><stop offset="1" stop-color="#c7cce0" stop-opacity="0.8"></stop></linearGradient></defs><path d="M 396.00 237.72 C 396.00 263.40 330.63 284.22 250.00 284.22 C 169.37 284.22 104.00 263.40 104.00 237.72 C 104.00 212.04 169.37 191.22 250.00 191.22 C 330.63 191.22 396.00 212.04 396.00 237.72 Z" fill="url(#未命名的渐变_50)" fill-rule="nonzero" node-id="124" stroke="none" target-height="93" target-width="292" target-x="104" target-y="191.22"></path><g node-id="173"><path d="M 108.85 89.86 L 108.85 89.86 L 110.49 91.84 L 111.70 93.94 L 112.50 96.21 L 112.90 98.58 L 112.90 100.94 L 112.50 103.31 L 111.70 105.58 L 110.49 107.68 L 108.85 109.66 L 57.94 160.57 L 55.97 162.21 L 53.86 163.41 L 51.59 164.22 L 49.22 164.62 L 46.86 164.62 L 44.49 164.22 L 42.23 163.41 L 40.12 162.21 L 38.14 160.57 L 38.14 160.57 L 36.50 158.60 L 35.30 156.49 L 34.50 154.22 L 34.09 151.85 L 34.09 149.49 L 34.50 147.12 L 35.30 144.85 L 36.50 142.75 L 38.14 140.77 L 89.05 89.86 L 91.03 88.22 L 93.14 87.02 L 95.40 86.22 L 97.78 85.81 L 100.13 85.81 L 102.51 86.22 L 104.77 87.02 L 106.88 88.22 L 108.85 89.86 Z" fill="url(#未命名的渐变_35)" fill-rule="nonzero" group-id="1" node-id="128" stroke="none" target-height="78.81137" target-width="78.811386" target-x="34.092743" target-y="85.81056"></path></g><g node-id="174"><path d="M 443.86 148.86 L 443.86 148.86 L 445.49 150.84 L 446.70 152.94 L 447.50 155.21 L 447.91 157.58 L 447.91 159.94 L 447.50 162.31 L 446.70 164.58 L 445.49 166.68 L 443.86 168.66 L 392.94 219.57 L 390.97 221.21 L 388.86 222.41 L 386.60 223.22 L 384.22 223.62 L 381.87 223.62 L 379.49 223.22 L 377.23 222.41 L 375.12 221.21 L 373.14 219.57 L 373.14 219.57 L 371.51 217.60 L 370.30 215.49 L 369.50 213.22 L 369.09 210.85 L 369.09 208.49 L 369.50 206.12 L 370.30 203.86 L 371.51 201.75 L 373.14 199.77 L 424.06 148.86 L 426.03 147.22 L 428.14 146.02 L 430.40 145.22 L 432.78 144.81 L 435.13 144.81 L 437.51 145.22 L 439.77 146.02 L 441.88 147.22 L 443.86 148.86 Z" fill="url(#未命名的渐变_35-2)" fill-rule="nonzero" group-id="2" node-id="133" stroke="none" target-height="78.81143" target-width="78.8114" target-x="369.09418" target-y="144.81061"></path></g><g node-id="175"><path d="M 461.86 19.86 L 461.86 19.86 L 463.50 21.84 L 464.70 23.94 L 465.50 26.21 L 465.91 28.58 L 465.91 30.94 L 465.50 33.31 L 464.70 35.58 L 463.50 37.69 L 461.86 39.66 L 410.95 90.57 L 408.97 92.21 L 406.87 93.42 L 404.60 94.22 L 402.23 94.62 L 399.87 94.62 L 397.50 94.22 L 395.23 93.42 L 393.12 92.21 L 391.15 90.57 L 391.15 90.57 L 389.51 88.60 L 388.31 86.49 L 387.50 84.22 L 387.10 81.85 L 387.10 79.49 L 387.50 77.12 L 388.31 74.86 L 389.51 72.75 L 391.15 70.77 L 442.06 19.86 L 444.04 18.22 L 446.14 17.02 L 448.41 16.22 L 450.78 15.81 L 453.14 15.81 L 455.51 16.22 L 457.78 17.02 L 459.88 18.22 L 461.86 19.86 Z" fill="url(#未命名的渐变_35-3)" fill-rule="nonzero" group-id="3" node-id="138" stroke="none" target-height="78.81137" target-width="78.8114" target-x="387.09888" target-y="15.811768"></path></g><path d="M 277.23 84.78 L 288.00 84.00 L 283.30 91.67 C 297.73 96.67 312.16 106.59 323.68 118.11 L 340.00 101.76 C 322.75 84.51 300.08 75.00 277.92 70.00 L 271.76 84.88 Z" fill="#c7cce0" fill-rule="nonzero" node-id="141" stroke="none" target-height="48.11" target-width="68.23999" target-x="271.76" target-y="70"></path><path d="M 160.00 102.40 L 176.00 118.54 C 192.32 102.18 213.65 91.76 236.58 88.95 L 241.67 67.61 C 212.45 69.42 182.36 80.00 160.00 102.40 Z" fill="#c7cce0" fill-rule="nonzero" node-id="143" stroke="none" target-height="50.93" target-width="81.67" target-x="160" target-y="67.61"></path><path d="M 240.63 112.68 L 231.70 112.68 L 232.23 110.44 C 217.33 113.75 201.57 119.32 189.98 130.92 L 206.24 147.45 C 216.88 136.79 231.03 130.36 246.06 129.37 L 249.14 109.37 Z" fill="#c7cce0" fill-rule="nonzero" node-id="145" stroke="none" target-height="38.079994" target-width="59.160004" target-x="189.98" target-y="109.37"></path><path d="M 294.34 147.45 L 310.77 131.16 C 301.02 121.41 287.69 116.22 275.39 112.33 L 265.45 130.23 C 275.63 133.00 286.36 139.46 294.34 147.45 Z" fill="#c7cce0" fill-rule="nonzero" node-id="147" stroke="none" target-height="35.119995" target-width="45.319977" target-x="265.45" target-y="112.33"></path><path d="M 241.54 150.15 C 233.78 151.70 225.61 154.15 219.59 160.15 L 235.04 176.15 C 235.67 175.52 236.34 174.94 237.04 174.40 L 241.42 150.67 Z" fill="#c7cce0" fill-rule="nonzero" node-id="149" stroke="none" target-height="26" target-width="21.949997" target-x="219.59" target-y="150.15"></path><path d="M 247.20 169.57 C 253.20 168.98 260.40 172.24 264.97 176.81 L 281.12 160.12 C 274.88 153.88 265.69 152.06 257.62 150.62 L 255.32 155.62 Z" fill="#c7cce0" fill-rule="nonzero" node-id="151" stroke="none" target-height="26.190002" target-width="33.92" target-x="247.2" target-y="150.62"></path><path d="M 276.77 82.27 L 287.77 82.27 L 284.20 90.00 C 299.08 95.13 312.59 103.59 323.71 114.73 L 338.39 100.05 C 321.80 83.41 300.83 71.83 277.92 66.65 L 272.79 82.22 Z" fill="#e2e4ed" fill-rule="nonzero" node-id="153" stroke="none" target-height="48.08" target-width="65.600006" target-x="272.79" target-y="66.65"></path><path d="M 162.20 100.10 L 176.88 114.78 C 193.20 98.42 214.53 88.00 237.46 85.19 L 242.55 63.85 C 212.23 65.69 183.64 78.59 162.20 100.10 Z" fill="#e2e4ed" fill-rule="nonzero" node-id="155" stroke="none" target-height="50.93" target-width="80.350006" target-x="162.2" target-y="63.85"></path><path d="M 240.63 109.37 L 231.70 109.37 L 232.23 107.13 C 216.82 110.54 202.71 118.29 191.56 129.46 L 206.24 144.14 C 216.88 133.48 231.03 127.05 246.06 126.06 L 249.14 109.37 Z" fill="#e2e4ed" fill-rule="nonzero" node-id="157" stroke="none" target-height="37.010002" target-width="57.58" target-x="191.56" target-y="107.13"></path><path d="M 294.34 144.14 L 309.00 129.46 C 299.61 120.04 288.08 113.02 275.40 109.00 L 266.57 128.00 C 277.08 130.85 286.66 136.41 294.34 144.14 Z" fill="#e2e4ed" fill-rule="nonzero" node-id="159" stroke="none" target-height="35.14" target-width="42.429993" target-x="266.57" target-y="109"></path><path d="M 242.11 147.48 C 234.08 149.08 226.71 153.03 220.93 158.83 L 235.61 173.51 C 236.24 172.88 236.91 172.30 237.61 171.76 L 242.00 148.00 Z" fill="#e2e4ed" fill-rule="nonzero" node-id="161" stroke="none" target-height="26.029999" target-width="21.180008" target-x="220.93" target-y="147.48"></path><path d="M 248.26 167.53 C 254.45 166.92 260.59 169.12 264.98 173.53 L 279.66 158.85 C 273.68 152.85 266.00 148.84 257.66 147.35 L 255.36 152.35 Z" fill="#e2e4ed" fill-rule="nonzero" node-id="163" stroke="none" target-height="26.179993" target-width="31.40001" target-x="248.26" target-y="147.35"></path><path d="M 253.76 55.34 L 276.30 54.24 L 264.96 89.31 L 278.70 87.96 L 248.47 149.31 L 259.54 102.33 L 240.35 101.22 L 253.76 55.34 Z" fill="#c7cce0" fill-rule="nonzero" node-id="165" stroke="none" target-height="95.06999" target-width="38.350006" target-x="240.35" target-y="54.24"></path><path d="M 251.56 54.24 L 273.97 54.24 L 262.76 88.21 L 276.50 88.21 L 248.67 148.21 L 257.34 101.22 L 240.35 101.22 L 251.56 54.24 Z" fill="#e2e4ed" fill-rule="nonzero" node-id="167" stroke="none" target-height="93.97" target-width="36.149994" target-x="240.35" target-y="54.24"></path><path d="M 241.88 182.30 L 250.01 190.50 L 258.17 182.34 C 254.25 178.42 245.78 178.39 241.88 182.30 Z" fill="#c7cce0" fill-rule="nonzero" node-id="169" stroke="none" target-height="12.110001" target-width="16.290009" target-x="241.88" target-y="178.39"></path><path d="M 242.93 181.42 L 250.00 188.49 L 257.07 181.42 C 253.17 177.52 246.83 177.52 242.93 181.42 Z" fill="#e2e4ed" fill-rule="nonzero" node-id="171" stroke="none" target-height="10.973831" target-width="14.140015" target-x="242.93" target-y="177.51617"></path></svg>