<svg id="图层_1" data-name="图层 1" xmlns="http://www.w3.org/2000/svg" xmlns:xlink="http://www.w3.org/1999/xlink" viewBox="0 0 500 300"><defs><style>.cls-1{fill:url(#未命名的渐变_50);}.cls-2{fill:url(#未命名的渐变_35);}.cls-3{fill:url(#未命名的渐变_35-2);}.cls-4{fill:url(#未命名的渐变_35-3);}.cls-5{fill:url(#未命名的渐变_63);}.cls-6{fill:#c7cce0;}.cls-7{fill:url(#未命名的渐变_63-2);}.cls-8{fill:url(#未命名的渐变_63-3);}.cls-9{fill:#e2e4ed;}.cls-10{fill:url(#未命名的渐变_63-4);}</style><linearGradient id="未命名的渐变_50" x1="250" y1="284.22" x2="250" y2="191.22" gradientUnits="userSpaceOnUse"><stop offset="0" stop-color="#fff9ef" stop-opacity="0"/><stop offset="0.17" stop-color="#fef8ef" stop-opacity="0.02"/><stop offset="0.32" stop-color="#fbf5ee" stop-opacity="0.06"/><stop offset="0.46" stop-color="#f5f1ec" stop-opacity="0.14"/><stop offset="0.6" stop-color="#edebea" stop-opacity="0.26"/><stop offset="0.74" stop-color="#e3e2e7" stop-opacity="0.4"/><stop offset="0.87" stop-color="#d6d8e4" stop-opacity="0.58"/><stop offset="0.99" stop-color="#c8cde0" stop-opacity="0.79"/><stop offset="1" stop-color="#c7cce0" stop-opacity="0.8"/></linearGradient><linearGradient id="未命名的渐变_35" x1="639.68" y1="-529.13" x2="695.45" y2="-584.91" gradientTransform="translate(-594.07 682.24)" xlink:href="#未命名的渐变_50"/><linearGradient id="未命名的渐变_35-2" x1="918.28" y1="-724.29" x2="974.05" y2="-780.07" gradientTransform="translate(-537.67 936.4)" xlink:href="#未命名的渐变_50"/><linearGradient id="未命名的渐变_35-3" x1="839.79" y1="-828.24" x2="895.56" y2="-884.01" gradientTransform="translate(-441.18 911.34)" xlink:href="#未命名的渐变_50"/><linearGradient id="未命名的渐变_63" x1="133.69" y1="79.4" x2="133.69" y2="85.87" gradientUnits="userSpaceOnUse"><stop offset="0" stop-color="#fff" stop-opacity="0.5"/><stop offset="0.02" stop-color="#eeeff4" stop-opacity="0.64"/><stop offset="0.04" stop-color="#e2e4ed" stop-opacity="0.73"/><stop offset="0.14" stop-color="#e2e4ed" stop-opacity="0.81"/><stop offset="0.29" stop-color="#e2e4ed" stop-opacity="0.89"/><stop offset="0.45" stop-color="#e2e4ed" stop-opacity="0.95"/><stop offset="0.66" stop-color="#e2e4ed" stop-opacity="0.99"/><stop offset="1" stop-color="#e2e4ed"/></linearGradient><linearGradient id="未命名的渐变_63-2" x1="215.71" y1="35.99" x2="215.71" y2="40.54" xlink:href="#未命名的渐变_63"/><linearGradient id="未命名的渐变_63-3" x1="173.1" y1="63.58" x2="173.1" y2="80.48" xlink:href="#未命名的渐变_63"/><linearGradient id="未命名的渐变_63-4" x1="340.64" y1="107.79" x2="340.64" y2="119.77" gradientTransform="translate(264.66 -220.29) rotate(57.7)" xlink:href="#未命名的渐变_63"/></defs><title>收藏缺省页</title><ellipse class="cls-1" cx="250" cy="237.72" rx="146" ry="46.5"/><rect class="cls-2" x="59.5" y="75.22" width="28" height="100" rx="14" ry="14" transform="translate(110.07 -15.3) rotate(45)"/><rect class="cls-3" x="394.5" y="134.22" width="28" height="100" rx="14" ry="14" transform="translate(249.91 -234.9) rotate(45)"/><rect class="cls-4" x="412.5" y="5.22" width="28" height="100" rx="14" ry="14" transform="translate(163.97 -285.41) rotate(45)"/><path class="cls-5" d="M132.91,79.49l1.2,1a.41.41,0,0,0,.37.08l1.5-.43a.41.41,0,0,1,.49.54l-.57,1.45a.41.41,0,0,0,0,.38l.87,1.3a.41.41,0,0,1-.36.63l-1.56-.1a.41.41,0,0,0-.34.15l-1,1.23a.41.41,0,0,1-.71-.15l-.39-1.51a.41.41,0,0,0-.25-.28l-1.47-.54a.41.41,0,0,1-.08-.72l1.32-.84a.41.41,0,0,0,.19-.33l.06-1.56A.41.41,0,0,1,132.91,79.49Z"/><path class="cls-6" d="M235.7,71.82l24.69,20.49A8.33,8.33,0,0,0,268,93.92l30.88-8.72a8.33,8.33,0,0,1,10,11.1L297,126.11a8.33,8.33,0,0,0,.82,7.71l17.84,26.67a8.33,8.33,0,0,1-7.46,12.95l-32-2.06a8.33,8.33,0,0,0-7.08,3.16l-19.85,25.21a8.33,8.33,0,0,1-14.62-3.1l-7.93-31.09a8.33,8.33,0,0,0-5.19-5.76L191.39,148.7a8.33,8.33,0,0,1-1.57-14.86l27.12-17.15A8.33,8.33,0,0,0,220.8,110L222,77.91A8.33,8.33,0,0,1,235.7,71.82Z"/><path class="cls-7" d="M215.16,36.05l.85.7a.29.29,0,0,0,.26.05l1.06-.3a.29.29,0,0,1,.34.38l-.4,1a.29.29,0,0,0,0,.26l.61.91a.29.29,0,0,1-.25.44l-1.1-.07a.29.29,0,0,0-.24.11l-.68.86a.29.29,0,0,1-.5-.1l-.27-1.06a.29.29,0,0,0-.18-.2l-1-.38a.29.29,0,0,1-.06-.51l.93-.59a.29.29,0,0,0,.13-.23l0-1.1A.29.29,0,0,1,215.16,36.05Z"/><path class="cls-8" d="M171.06,63.82l3.14,2.59a1.06,1.06,0,0,0,1,.2l3.92-1.12a1.06,1.06,0,0,1,1.28,1.41l-1.5,3.79a1.06,1.06,0,0,0,.11,1l2.27,3.38a1.06,1.06,0,0,1-.94,1.65l-4.07-.25a1.06,1.06,0,0,0-.9.4l-2.51,3.21a1.06,1.06,0,0,1-1.86-.39l-1-3.95a1.06,1.06,0,0,0-.66-.73l-3.83-1.4a1.06,1.06,0,0,1-.2-1.89l3.44-2.19a1.06,1.06,0,0,0,.49-.85l.15-4.07A1.06,1.06,0,0,1,171.06,63.82Z"/><path class="cls-9" d="M232.32,71.82,257,92.31a8.33,8.33,0,0,0,7.59,1.61l30.88-8.72a8.33,8.33,0,0,1,10,11.1l-11.86,29.81a8.33,8.33,0,0,0,.82,7.71l17.84,26.67a8.33,8.33,0,0,1-7.46,12.95l-32-2.06a8.33,8.33,0,0,0-7.08,3.16l-19.85,25.21a8.33,8.33,0,0,1-14.62-3.1l-7.93-31.09a8.33,8.33,0,0,0-5.19-5.76L188,148.7a8.33,8.33,0,0,1-1.57-14.86l27.12-17.15a8.33,8.33,0,0,0,3.87-6.72l1.25-32.06A8.33,8.33,0,0,1,232.32,71.82Z"/><path class="cls-10" d="M354.68,124.11l-.36,2.87a.75.75,0,0,0,.24.65l2.15,1.92a.75.75,0,0,1-.36,1.3l-2.84.54a.75.75,0,0,0-.55.43l-1.16,2.64a.75.75,0,0,1-1.34.06L349.07,132a.75.75,0,0,0-.58-.39l-2.87-.29a.75.75,0,0,1-.47-1.26l2-2.11a.75.75,0,0,0,.19-.67l-.61-2.82a.75.75,0,0,1,1.05-.84l2.61,1.23a.75.75,0,0,0,.7,0l2.5-1.45A.75.75,0,0,1,354.68,124.11Z"/></svg>