<?xml version="1.0" standalone="no"?><!DOCTYPE svg PUBLIC "-//W3C//DTD SVG 1.1//EN" "http://www.w3.org/Graphics/SVG/1.1/DTD/svg11.dtd"><svg height="300" node-id="1" sillyvg="true" template-height="300" template-width="500" version="1.1" viewBox="0 0 500 300" width="500" xmlns="http://www.w3.org/2000/svg" xmlns:xlink="http://www.w3.org/1999/xlink"><defs node-id="54"><linearGradient gradientUnits="userSpaceOnUse" id="未命名的渐变_50" node-id="5" spreadMethod="pad" x1="250" x2="250" y1="284.22" y2="191.22"><stop offset="0" stop-color="#fff9ef" stop-opacity="0"></stop><stop offset="0.17" stop-color="#fef8ef" stop-opacity="0.02"></stop><stop offset="0.32" stop-color="#fbf5ee" stop-opacity="0.06"></stop><stop offset="0.46" stop-color="#f5f1ec" stop-opacity="0.14"></stop><stop offset="0.6" stop-color="#edebea" stop-opacity="0.26"></stop><stop offset="0.74" stop-color="#e3e2e7" stop-opacity="0.4"></stop><stop offset="0.87" stop-color="#d6d8e4" stop-opacity="0.58"></stop><stop offset="0.99" stop-color="#c8cde0" stop-opacity="0.79"></stop><stop offset="1" stop-color="#c7cce0" stop-opacity="0.8"></stop></linearGradient><linearGradient gradientUnits="userSpaceOnUse" id="未命名的渐变_35" node-id="15" spreadMethod="pad" x1="-3.4599998" x2="52.319996" y1="-701.7999" y2="-757.57996"><stop offset="0" stop-color="#fff9ef" stop-opacity="0"></stop><stop offset="0.17" stop-color="#fef8ef" stop-opacity="0.02"></stop><stop offset="0.32" stop-color="#fbf5ee" stop-opacity="0.06"></stop><stop offset="0.46" stop-color="#f5f1ec" stop-opacity="0.14"></stop><stop offset="0.6" stop-color="#edebea" stop-opacity="0.26"></stop><stop offset="0.74" stop-color="#e3e2e7" stop-opacity="0.4"></stop><stop offset="0.87" stop-color="#d6d8e4" stop-opacity="0.58"></stop><stop offset="0.99" stop-color="#c8cde0" stop-opacity="0.79"></stop><stop offset="1" stop-color="#c7cce0" stop-opacity="0.8"></stop></linearGradient><linearGradient gradientUnits="userSpaceOnUse" id="未命名的渐变_35-2" node-id="16" spreadMethod="pad" x1="275.13998" x2="330.91998" y1="-896.95996" y2="-952.7399"><stop offset="0" stop-color="#fff9ef" stop-opacity="0"></stop><stop offset="0.17" stop-color="#fef8ef" stop-opacity="0.02"></stop><stop offset="0.32" stop-color="#fbf5ee" stop-opacity="0.06"></stop><stop offset="0.46" stop-color="#f5f1ec" stop-opacity="0.14"></stop><stop offset="0.6" stop-color="#edebea" stop-opacity="0.26"></stop><stop offset="0.74" stop-color="#e3e2e7" stop-opacity="0.4"></stop><stop offset="0.87" stop-color="#d6d8e4" stop-opacity="0.58"></stop><stop offset="0.99" stop-color="#c8cde0" stop-opacity="0.79"></stop><stop offset="1" stop-color="#c7cce0" stop-opacity="0.8"></stop></linearGradient><linearGradient gradientUnits="userSpaceOnUse" id="未命名的渐变_35-3" node-id="17" spreadMethod="pad" x1="196.64998" x2="252.42998" y1="-1000.9099" y2="-1056.6799"><stop offset="0" stop-color="#fff9ef" stop-opacity="0"></stop><stop offset="0.17" stop-color="#fef8ef" stop-opacity="0.02"></stop><stop offset="0.32" stop-color="#fbf5ee" stop-opacity="0.06"></stop><stop offset="0.46" stop-color="#f5f1ec" stop-opacity="0.14"></stop><stop offset="0.6" stop-color="#edebea" stop-opacity="0.26"></stop><stop offset="0.74" stop-color="#e3e2e7" stop-opacity="0.4"></stop><stop offset="0.87" stop-color="#d6d8e4" stop-opacity="0.58"></stop><stop offset="0.99" stop-color="#c8cde0" stop-opacity="0.79"></stop><stop offset="1" stop-color="#c7cce0" stop-opacity="0.8"></stop></linearGradient><linearGradient gradientUnits="userSpaceOnUse" id="未命名的渐变_50-2" node-id="18" spreadMethod="pad" x1="241.17" x2="241.17" y1="183.5" y2="176"><stop offset="0" stop-color="#fff9ef" stop-opacity="0"></stop><stop offset="0.17" stop-color="#fef8ef" stop-opacity="0.02"></stop><stop offset="0.32" stop-color="#fbf5ee" stop-opacity="0.06"></stop><stop offset="0.46" stop-color="#f5f1ec" stop-opacity="0.14"></stop><stop offset="0.6" stop-color="#edebea" stop-opacity="0.26"></stop><stop offset="0.74" stop-color="#e3e2e7" stop-opacity="0.4"></stop><stop offset="0.87" stop-color="#d6d8e4" stop-opacity="0.58"></stop><stop offset="0.99" stop-color="#c8cde0" stop-opacity="0.79"></stop><stop offset="1" stop-color="#c7cce0" stop-opacity="0.8"></stop></linearGradient><linearGradient gradientUnits="userSpaceOnUse" id="未命名的渐变_20" node-id="19" spreadMethod="pad" x1="277.5" x2="272.5" y1="107.33" y2="98.67"><stop offset="0" stop-color="#e2e4ed" stop-opacity="0"></stop><stop offset="0.01" stop-color="#e2e4ed" stop-opacity="0.1"></stop><stop offset="0.04" stop-color="#e2e4ed" stop-opacity="0.23"></stop><stop offset="0.06" stop-color="#e2e4ed" stop-opacity="0.35"></stop><stop offset="0.09" stop-color="#e2e4ed" stop-opacity="0.44"></stop><stop offset="0.13" stop-color="#e2e4ed" stop-opacity="0.51"></stop><stop offset="0.17" stop-color="#e2e4ed" stop-opacity="0.56"></stop><stop offset="0.23" stop-color="#e2e4ed" stop-opacity="0.59"></stop><stop offset="0.39" stop-color="#e2e4ed" stop-opacity="0.6"></stop><stop offset="0.65" stop-color="#d8dbe8" stop-opacity="0.75"></stop><stop offset="1" stop-color="#c7cce0"></stop></linearGradient><linearGradient gradientUnits="userSpaceOnUse" id="未命名的渐变_20-2" node-id="31" spreadMethod="pad" x1="233.5" x2="228.5" y1="120.33" y2="111.67"><stop offset="0" stop-color="#e2e4ed" stop-opacity="0"></stop><stop offset="0.01" stop-color="#e2e4ed" stop-opacity="0.1"></stop><stop offset="0.04" stop-color="#e2e4ed" stop-opacity="0.23"></stop><stop offset="0.06" stop-color="#e2e4ed" stop-opacity="0.35"></stop><stop offset="0.09" stop-color="#e2e4ed" stop-opacity="0.44"></stop><stop offset="0.13" stop-color="#e2e4ed" stop-opacity="0.51"></stop><stop offset="0.17" stop-color="#e2e4ed" stop-opacity="0.56"></stop><stop offset="0.23" stop-color="#e2e4ed" stop-opacity="0.59"></stop><stop offset="0.39" stop-color="#e2e4ed" stop-opacity="0.6"></stop><stop offset="0.65" stop-color="#d8dbe8" stop-opacity="0.75"></stop><stop offset="1" stop-color="#c7cce0"></stop></linearGradient><linearGradient gradientUnits="userSpaceOnUse" id="未命名的渐变_20-3" node-id="32" spreadMethod="pad" x1="225.25" x2="221.75" y1="145.53" y2="139.47"><stop offset="0" stop-color="#e2e4ed" stop-opacity="0"></stop><stop offset="0.01" stop-color="#e2e4ed" stop-opacity="0.1"></stop><stop offset="0.04" stop-color="#e2e4ed" stop-opacity="0.23"></stop><stop offset="0.06" stop-color="#e2e4ed" stop-opacity="0.35"></stop><stop offset="0.09" stop-color="#e2e4ed" stop-opacity="0.44"></stop><stop offset="0.13" stop-color="#e2e4ed" stop-opacity="0.51"></stop><stop offset="0.17" stop-color="#e2e4ed" stop-opacity="0.56"></stop><stop offset="0.23" stop-color="#e2e4ed" stop-opacity="0.59"></stop><stop offset="0.39" stop-color="#e2e4ed" stop-opacity="0.6"></stop><stop offset="0.65" stop-color="#d8dbe8" stop-opacity="0.75"></stop><stop offset="1" stop-color="#c7cce0"></stop></linearGradient><linearGradient gradientUnits="userSpaceOnUse" id="未命名的渐变_20-4" node-id="33" spreadMethod="pad" x1="260.23" x2="257.75" y1="154.77" y2="150.47"><stop offset="0" stop-color="#e2e4ed" stop-opacity="0"></stop><stop offset="0.01" stop-color="#e2e4ed" stop-opacity="0.1"></stop><stop offset="0.04" stop-color="#e2e4ed" stop-opacity="0.23"></stop><stop offset="0.06" stop-color="#e2e4ed" stop-opacity="0.35"></stop><stop offset="0.09" stop-color="#e2e4ed" stop-opacity="0.44"></stop><stop offset="0.13" stop-color="#e2e4ed" stop-opacity="0.51"></stop><stop offset="0.17" stop-color="#e2e4ed" stop-opacity="0.56"></stop><stop offset="0.23" stop-color="#e2e4ed" stop-opacity="0.59"></stop><stop offset="0.39" stop-color="#e2e4ed" stop-opacity="0.6"></stop><stop offset="0.65" stop-color="#d8dbe8" stop-opacity="0.75"></stop><stop offset="1" stop-color="#c7cce0"></stop></linearGradient><linearGradient gradientUnits="userSpaceOnUse" id="未命名的渐变_20-5" node-id="34" spreadMethod="pad" x1="258.75" x2="250.25" y1="138.86" y2="124.14"><stop offset="0" stop-color="#e2e4ed" stop-opacity="0"></stop><stop offset="0.01" stop-color="#e2e4ed" stop-opacity="0.1"></stop><stop offset="0.04" stop-color="#e2e4ed" stop-opacity="0.23"></stop><stop offset="0.06" stop-color="#e2e4ed" stop-opacity="0.35"></stop><stop offset="0.09" stop-color="#e2e4ed" stop-opacity="0.44"></stop><stop offset="0.13" stop-color="#e2e4ed" stop-opacity="0.51"></stop><stop offset="0.17" stop-color="#e2e4ed" stop-opacity="0.56"></stop><stop offset="0.23" stop-color="#e2e4ed" stop-opacity="0.59"></stop><stop offset="0.39" stop-color="#e2e4ed" stop-opacity="0.6"></stop><stop offset="0.65" stop-color="#d8dbe8" stop-opacity="0.75"></stop><stop offset="1" stop-color="#c7cce0"></stop></linearGradient></defs><path d="M 396.00 237.72 C 396.00 263.40 330.63 284.22 250.00 284.22 C 169.37 284.22 104.00 263.40 104.00 237.72 C 104.00 212.04 169.37 191.22 250.00 191.22 C 330.63 191.22 396.00 212.04 396.00 237.72 Z" fill="url(#未命名的渐变_50)" fill-rule="nonzero" node-id="277" stroke="none" target-height="93" target-width="292" target-x="104" target-y="191.22"></path><g node-id="318"><path d="M 108.85 89.86 L 108.85 89.86 L 110.49 91.84 L 111.70 93.94 L 112.50 96.21 L 112.90 98.58 L 112.90 100.94 L 112.50 103.31 L 111.70 105.58 L 110.49 107.68 L 108.85 109.66 L 57.94 160.57 L 55.97 162.21 L 53.86 163.41 L 51.59 164.22 L 49.22 164.62 L 46.86 164.62 L 44.49 164.22 L 42.23 163.41 L 40.12 162.21 L 38.14 160.57 L 38.14 160.57 L 36.50 158.60 L 35.30 156.49 L 34.50 154.22 L 34.09 151.85 L 34.09 149.49 L 34.50 147.12 L 35.30 144.85 L 36.50 142.75 L 38.14 140.77 L 89.05 89.86 L 91.03 88.22 L 93.14 87.02 L 95.40 86.22 L 97.78 85.81 L 100.13 85.81 L 102.51 86.22 L 104.77 87.02 L 106.88 88.22 L 108.85 89.86 Z" fill="url(#未命名的渐变_35)" fill-rule="nonzero" group-id="1" node-id="281" stroke="none" target-height="78.81137" target-width="78.811386" target-x="34.092743" target-y="85.81056"></path></g><g node-id="319"><path d="M 443.86 148.86 L 443.86 148.86 L 445.49 150.84 L 446.70 152.94 L 447.50 155.21 L 447.91 157.58 L 447.91 159.94 L 447.50 162.31 L 446.70 164.58 L 445.49 166.68 L 443.86 168.66 L 392.94 219.57 L 390.97 221.21 L 388.86 222.41 L 386.60 223.22 L 384.22 223.62 L 381.87 223.62 L 379.49 223.22 L 377.23 222.41 L 375.12 221.21 L 373.14 219.57 L 373.14 219.57 L 371.51 217.60 L 370.30 215.49 L 369.50 213.22 L 369.09 210.85 L 369.09 208.49 L 369.50 206.12 L 370.30 203.86 L 371.51 201.75 L 373.14 199.77 L 424.06 148.86 L 426.03 147.22 L 428.14 146.02 L 430.40 145.22 L 432.78 144.81 L 435.13 144.81 L 437.51 145.22 L 439.77 146.02 L 441.88 147.22 L 443.86 148.86 Z" fill="url(#未命名的渐变_35-2)" fill-rule="nonzero" group-id="2" node-id="286" stroke="none" target-height="78.81143" target-width="78.8114" target-x="369.09418" target-y="144.81061"></path></g><g node-id="320"><path d="M 461.86 19.86 L 461.86 19.86 L 463.50 21.84 L 464.70 23.94 L 465.50 26.21 L 465.91 28.58 L 465.91 30.94 L 465.50 33.31 L 464.70 35.58 L 463.50 37.69 L 461.86 39.66 L 410.95 90.57 L 408.97 92.21 L 406.87 93.42 L 404.60 94.22 L 402.23 94.62 L 399.87 94.62 L 397.50 94.22 L 395.23 93.42 L 393.12 92.21 L 391.15 90.57 L 391.15 90.57 L 389.51 88.60 L 388.31 86.49 L 387.50 84.22 L 387.10 81.85 L 387.10 79.49 L 387.50 77.12 L 388.31 74.86 L 389.51 72.75 L 391.15 70.77 L 442.06 19.86 L 444.04 18.22 L 446.14 17.02 L 448.41 16.22 L 450.78 15.81 L 453.14 15.81 L 455.51 16.22 L 457.78 17.02 L 459.88 18.22 L 461.86 19.86 Z" fill="url(#未命名的渐变_35-3)" fill-rule="nonzero" group-id="3" node-id="291" stroke="none" target-height="78.81137" target-width="78.8114" target-x="387.09888" target-y="15.811768"></path></g><path d="M 144.63 93.23 L 173.22 87.05 L 182.67 147.42 L 195.67 145.11 L 198.73 165.26 L 185.73 167.40 L 188.73 185.85 L 162.76 190.00 L 159.76 172.07 L 116.86 178.93 L 113.31 157.52 Z M 154.00 111.84 L 134.11 158.20 L 159.63 154.00 Z" fill="#c7cce0" fill-rule="nonzero" node-id="294" stroke="none" target-height="102.95" target-width="85.42" target-x="113.31" target-y="87.05"></path><path d="M 141.51 92.48 L 169.79 87.82 L 179.67 147.82 L 192.67 145.68 L 195.51 162.92 L 182.51 165.06 L 185.51 183.51 L 162.21 187.35 L 159.21 168.90 L 116.31 176.00 L 112.83 154.86 Z M 150.74 109.48 L 130.85 155.84 L 156.37 151.64 Z" fill="#e2e4ed" fill-rule="nonzero" node-id="296" stroke="none" target-height="99.53001" target-width="82.67999" target-x="112.83" target-y="87.82"></path><path d="M 336.30 92.18 L 364.13 96.36 L 352.08 153.89 L 364.60 156.25 L 360.49 175.42 L 348.07 172.92 L 344.52 190.55 L 319.67 185.40 L 323.00 168.25 L 282.07 159.82 L 286.16 139.35 Z M 338.41 112.12 L 304.73 147.06 L 329.12 152.00 Z" fill="#c7cce0" fill-rule="nonzero" node-id="298" stroke="none" target-height="98.37" target-width="82.53" target-x="282.07" target-y="92.18"></path><path d="M 333.75 90.44 L 360.75 95.88 L 349.21 153.22 L 361.63 155.72 L 358.31 172.19 L 345.89 169.69 L 342.34 187.32 L 320.07 182.84 L 323.62 165.21 L 282.62 156.96 L 286.69 136.75 Z M 336.26 108.89 L 302.58 143.83 L 327.00 148.74 Z" fill="#e2e4ed" fill-rule="nonzero" node-id="300" stroke="none" target-height="96.880005" target-width="79.01001" target-x="282.62" target-y="90.44"></path><path d="M 261.38 179.75 C 261.38 181.82 252.33 183.50 241.17 183.50 C 230.01 183.50 220.96 181.82 220.96 179.75 C 220.96 177.68 230.01 176.00 241.17 176.00 C 252.33 176.00 261.38 177.68 261.38 179.75 Z" fill="url(#未命名的渐变_50-2)" fill-rule="nonzero" node-id="302" stroke="none" target-height="7.5" target-width="40.42" target-x="220.96" target-y="176"></path><path d="M 272.17 130.00 C 272.17 147.12 258.29 161.00 241.17 161.00 C 224.05 161.00 210.17 147.12 210.17 130.00 C 210.17 112.88 224.05 99.00 241.17 99.00 C 258.29 99.00 272.17 112.88 272.17 130.00 Z" fill="#e2e4ed" fill-rule="nonzero" node-id="304" stroke="none" target-height="62" target-width="62.000015" target-x="210.17" target-y="99"></path><path d="M 280.00 103.00 C 280.00 105.76 277.76 108.00 275.00 108.00 C 272.24 108.00 270.00 105.76 270.00 103.00 C 270.00 100.24 272.24 98.00 275.00 98.00 C 277.76 98.00 280.00 100.24 280.00 103.00 Z" fill="url(#未命名的渐变_20)" fill-rule="nonzero" node-id="306" stroke="none" target-height="10" target-width="10" target-x="270" target-y="98"></path><path d="M 236.00 116.00 C 236.00 118.76 233.76 121.00 231.00 121.00 C 228.24 121.00 226.00 118.76 226.00 116.00 C 226.00 113.24 228.24 111.00 231.00 111.00 C 233.76 111.00 236.00 113.24 236.00 116.00 Z" fill="url(#未命名的渐变_20-2)" fill-rule="nonzero" node-id="308" stroke="none" target-height="10" target-width="10" target-x="226" target-y="111"></path><path d="M 227.00 142.50 C 227.00 144.43 225.43 146.00 223.50 146.00 C 221.57 146.00 220.00 144.43 220.00 142.50 C 220.00 140.57 221.57 139.00 223.50 139.00 C 225.43 139.00 227.00 140.57 227.00 142.50 Z" fill="url(#未命名的渐变_20-3)" fill-rule="nonzero" node-id="310" stroke="none" target-height="7" target-width="7" target-x="220" target-y="139"></path><path d="M 259.50 150.00 C 257.98 150.01 256.64 151.00 256.18 152.45 C 255.72 153.90 256.26 155.48 257.50 156.36 C 259.40 155.18 261.17 153.80 262.77 152.24 C 262.25 150.89 260.95 150.00 259.50 150.00 Z" fill="url(#未命名的渐变_20-4)" fill-rule="nonzero" node-id="312" stroke="none" target-height="6.364792" target-width="7.047928" target-x="255.72206" target-y="149.99521"></path><path d="M 263.00 131.50 C 263.00 136.19 259.19 140.00 254.50 140.00 C 249.81 140.00 246.00 136.19 246.00 131.50 C 246.00 126.81 249.81 123.00 254.50 123.00 C 259.19 123.00 263.00 126.81 263.00 131.50 Z" fill="url(#未命名的渐变_20-5)" fill-rule="nonzero" node-id="314" stroke="none" target-height="17" target-width="17" target-x="246" target-y="123"></path><path d="M 272.33 121.26 C 278.06 121.13 281.71 121.91 282.18 123.70 C 283.32 127.97 265.94 136.33 243.36 142.39 C 220.78 148.45 201.54 149.89 200.36 145.62 C 199.84 143.69 203.13 140.91 208.99 137.89" fill="none" node-id="316" stroke="#c7cce0" stroke-linecap="round" stroke-width="2" target-height="28.760002" target-width="83.48001" target-x="199.84" target-y="121.13"></path></svg>