<svg xmlns="http://www.w3.org/2000/svg" width="24" height="24"><g fill="none" fill-rule="evenodd"><path d="M24 0v24H0V0zM12.594 23.258l-.012.002-.071.035-.02.004-.014-.004-.071-.036c-.01-.003-.019 0-.024.006l-.004.01-.017.428.005.02.01.013.104.074.015.004.012-.004.104-.074.012-.016.004-.017-.017-.427c-.002-.01-.009-.017-.016-.018m.264-.113-.014.002-.184.093-.01.01-.003.011.018.43.005.012.008.008.201.092c.012.004.023 0 .029-.008l.004-.014-.034-.614c-.003-.012-.01-.02-.02-.022m-.715.002a.023.023 0 0 0-.027.006l-.006.014-.034.614c0 .012.007.02.017.024l.015-.002.201-.093.01-.008.003-.011.018-.43-.003-.012-.01-.01z"/><path fill="currentColor" d="M3.293 3.293a1 1 0 0 1 1.32-.083l.094.083.707.707H19a3 3 0 0 1 2.995 2.824L22 7v10c0 .91-.405 1.724-1.044 2.274l-.151.122-.036-.036a1 1 0 0 1-1.382 1.43l-.094-.083-16-16a1 1 0 0 1 0-1.414M2.076 6.325 4 8.248V17a1 1 0 0 0 1 1h8.752l2 2H5a3 3 0 0 1-3-3V7c0-.232.026-.458.076-.675M19 6H7.414l2.01 2.01a2 2 0 0 1 1.736 1.505l.076.307 2.003 2.003A3 3 0 0 1 17 10.17V9a1 1 0 1 1 2 0v6a1 1 0 0 1-1 1h-.586l1.937 1.937A1 1 0 0 0 20 17V7a1 1 0 0 0-1-1M6.526 10.774 9.752 14H7.78l-.31 1.242a1 1 0 1 1-1.941-.485zm3.85 3.85 1.35 1.35a1 1 0 0 1-1.196-.732zM16 12a1 1 0 0 0-.117 1.993L16 14h1v-1a1 1 0 0 0-1-1"/></g></svg>