<svg xmlns="http://www.w3.org/2000/svg" width="24" height="24"><g fill="none" fill-rule="nonzero"><path d="M24 0v24H0V0h24ZM12.594 23.258l-.012.002-.071.035-.02.004-.014-.004-.071-.036c-.01-.003-.019 0-.024.006l-.004.01-.017.428.005.02.01.013.104.074.015.004.012-.004.104-.074.012-.016.004-.017-.017-.427c-.002-.01-.009-.017-.016-.018Zm.264-.113-.014.002-.184.093-.01.01-.003.011.018.43.005.012.008.008.201.092c.012.004.023 0 .029-.008l.004-.014-.034-.614c-.003-.012-.01-.02-.02-.022Zm-.715.002a.023.023 0 0 0-.027.006l-.006.014-.034.614c0 .012.007.02.017.024l.015-.002.201-.093.01-.008.003-.011.018-.43-.003-.012-.01-.01-.184-.092Z"/><path fill="currentColor" d="M8.703 16.95a1 1 0 0 0 0-1.415L6.167 13H15a1 1 0 1 0 0-2H6.167l2.536-2.536A1 1 0 0 0 7.288 7.05l-4.242 4.243a1 1 0 0 0 0 1.414l4.242 4.243a1 1 0 0 0 1.415 0ZM21 6a1 1 0 1 0-2 0v12a1 1 0 1 0 2 0V6Z"/></g></svg>