<svg xmlns="http://www.w3.org/2000/svg" width="24" height="24"><g fill="none" fill-rule="evenodd"><path d="M24 0v24H0V0zM12.593 23.258l-.011.002-.071.035-.02.004-.014-.004-.071-.035c-.01-.004-.019-.001-.024.005l-.004.01-.017.428.005.02.01.013.104.074.015.004.012-.004.104-.074.012-.016.004-.017-.017-.427c-.002-.01-.009-.017-.017-.018m.265-.113-.013.002-.185.093-.01.01-.003.011.018.43.005.012.008.007.201.093c.012.004.023 0 .029-.008l.004-.014-.034-.614c-.003-.012-.01-.02-.02-.022m-.715.002a.023.023 0 0 0-.027.006l-.006.014-.034.614c0 .012.007.02.017.024l.015-.002.201-.093.01-.008.004-.011.017-.43-.003-.012-.01-.01z"/><path fill="currentColor" d="M20.225 17.689A9.989 9.989 0 0 1 12 22C6.477 22 2 17.523 2 12S6.477 2 12 2s10 4.477 10 10a9.953 9.953 0 0 1-1.59 5.414 1 1 0 0 1-.185.275M4 12a8 8 0 1 1 15.089 3.712c-.828-.382-1.593-.741-2.3-1.075-.748-.351-1.432-.673-2.06-.96.408-.801.813-1.74 1.21-2.835A1 1 0 0 0 15 9.5h-2V9h3a1 1 0 1 0 0-2h-3V6a1 1 0 1 0-2 0v1H8a1 1 0 0 0 0 2h3v.5H9a1 1 0 1 0 0 2h4.534a19.09 19.09 0 0 1-.647 1.384C11.494 12.334 10.267 12 9 12c-1.52 0-3 1.316-3 3 0 1.82 1.632 3 3.5 3 1.02 0 2.148-.359 3.27-1.48.31-.312.62-.68.928-1.114.657.297 1.374.634 2.178 1.013.625.294 1.303.613 2.048.958A8 8 0 0 1 4 12m5 2c.827 0 1.687.194 2.797.608a5.85 5.85 0 0 1-.442.497C10.602 15.86 9.98 16 9.5 16 8.368 16 8 15.38 8 15c0-.516.52-1 1-1"/></g></svg>