<svg xmlns="http://www.w3.org/2000/svg" width="24" height="24"><g fill="none"><path d="M24 0v24H0V0zM12.593 23.258l-.011.002-.071.035-.02.004-.014-.004-.071-.035c-.01-.004-.019-.001-.024.005l-.004.01-.017.428.005.02.01.013.104.074.015.004.012-.004.104-.074.012-.016.004-.017-.017-.427c-.002-.01-.009-.017-.017-.018m.265-.113-.013.002-.185.093-.01.01-.003.011.018.43.005.012.008.007.201.093c.012.004.023 0 .029-.008l.004-.014-.034-.614c-.003-.012-.01-.02-.02-.022m-.715.002a.023.023 0 0 0-.027.006l-.006.014-.034.614c0 .012.007.02.017.024l.015-.002.201-.093.01-.008.004-.011.017-.43-.003-.012-.01-.01z"/><path fill="currentColor" d="M14 8a2 2 0 0 1 1.995 1.85L16 10v9a2 2 0 0 1-1.85 1.995L14 21H4a2 2 0 0 1-1.995-1.85L2 19v-9a2 2 0 0 1 1.85-1.995L4 8zm0 2H4v9h10zm4-7a1 1 0 1 1 0 2h-.995c.22.134.442.275.663.426 1.694 1.15 3.4 2.835 4.272 5.232a1 1 0 1 1-1.88.684c-.683-1.879-2.042-3.26-3.516-4.262-1.474-1.002-3.008-1.584-3.935-1.875-.735-.231-.801-.948-.76-1.233.04-.284.307-.972 1.095-.972z"/></g></svg>