<svg xmlns="http://www.w3.org/2000/svg" width="24" height="24"><g fill="none"><path d="M24 0v24H0V0zM12.594 23.258l-.012.002-.071.035-.02.004-.014-.004-.071-.036c-.01-.003-.019 0-.024.006l-.004.01-.017.428.005.02.01.013.104.074.015.004.012-.004.104-.074.012-.016.004-.017-.017-.427c-.002-.01-.009-.017-.016-.018m.264-.113-.014.002-.184.093-.01.01-.003.011.018.43.005.012.008.008.201.092c.012.004.023 0 .029-.008l.004-.014-.034-.614c-.003-.012-.01-.02-.02-.022m-.715.002a.023.023 0 0 0-.027.006l-.006.014-.034.614c0 .012.007.02.017.024l.015-.002.201-.093.01-.008.003-.011.018-.43-.003-.012-.01-.01z"/><path fill="currentColor" d="M20.753 4.342a1 1 0 0 1-.095 1.41l-16 14a1 1 0 1 1-1.316-1.505l16-14a1 1 0 0 1 1.41.095Zm0 6.375a1 1 0 0 1-.095 1.41l-8.714 7.626a1 1 0 1 1-1.317-1.506l8.714-7.625a1 1 0 0 1 1.412.095m-1.412 5.78a1 1 0 0 1 1.407 1.417l-.09.089-2 1.75a1 1 0 0 1-1.406-1.417l.09-.089 2-1.75ZM13.468 4.342a1 1 0 0 1-.094 1.41L4.66 13.378a1 1 0 1 1-1.317-1.506l8.714-7.625a1 1 0 0 1 1.41.095ZM5.77 4.247a1 1 0 0 1 1.406 1.417l-.089.089L4.66 7.878A1 1 0 0 1 3.252 6.46l.09-.089z"/></g></svg>