<svg xmlns="http://www.w3.org/2000/svg" width="24" height="24"><g fill="none"><path d="M24 0v24H0V0zM12.594 23.258l-.012.002-.071.035-.02.004-.014-.004-.071-.036c-.01-.003-.019 0-.024.006l-.004.01-.017.428.005.02.01.013.104.074.015.004.012-.004.104-.074.012-.016.004-.017-.017-.427c-.002-.01-.009-.017-.016-.018m.264-.113-.014.002-.184.093-.01.01-.003.011.018.43.005.012.008.008.201.092c.012.004.023 0 .029-.008l.004-.014-.034-.614c-.003-.012-.01-.02-.02-.022m-.715.002a.023.023 0 0 0-.027.006l-.006.014-.034.614c0 .012.007.02.017.024l.015-.002.201-.093.01-.008.003-.011.018-.43-.003-.012-.01-.01z"/><path fill="currentColor" d="M12 2a4.002 4.002 0 0 1 3.894 3.08A5.002 5.002 0 0 1 20 10v9a3 3 0 0 1-3 3H7a3 3 0 0 1-3-3v-9a5 5 0 0 1 4.106-4.92A4.002 4.002 0 0 1 12 2m3 5H9a3 3 0 0 0-2.995 2.824L6 10v9a1 1 0 0 0 .883.993L7 20h1v-5a2 2 0 0 1 1.85-1.995L10 13h4a2 2 0 0 1 1.995 1.85L16 15v5h1a1 1 0 0 0 .993-.883L18 19v-9a3 3 0 0 0-2.824-2.995zm-1 11h-4v2h4zm0-3h-4v1h4zm-1-6a1 1 0 1 1 0 2h-2a1 1 0 1 1 0-2zm-1-5c-.683 0-1.287.343-1.647.866L10.268 5h3.464A2 2 0 0 0 12 4"/></g></svg>