<svg xmlns="http://www.w3.org/2000/svg" width="24" height="24"><g fill="none" fill-rule="evenodd"><path d="M24 0v24H0V0zM12.594 23.258l-.012.002-.071.035-.02.004-.014-.004-.071-.036c-.01-.003-.019 0-.024.006l-.004.01-.017.428.005.02.01.013.104.074.015.004.012-.004.104-.074.012-.016.004-.017-.017-.427c-.002-.01-.009-.017-.016-.018m.264-.113-.014.002-.184.093-.01.01-.003.011.018.43.005.012.008.008.201.092c.012.004.023 0 .029-.008l.004-.014-.034-.614c-.003-.012-.01-.02-.02-.022m-.715.002a.023.023 0 0 0-.027.006l-.006.014-.034.614c0 .012.007.02.017.024l.015-.002.201-.093.01-.008.003-.011.018-.43-.003-.012-.01-.01z"/><path fill="currentColor" d="M3.905 5.707a2.774 2.774 0 0 1 4.434-3.025A2.802 2.802 0 0 1 10.179 2c.694 0 1.33.25 1.821.667A2.81 2.81 0 0 1 13.822 2c.71 0 1.35.26 1.84.682a2.774 2.774 0 0 1 4.434 3.025L16 17.173V18a4 4 0 0 1-8 0v-.827zM10 17.023V17h4v1a2 2 0 1 1-4 0zM14.653 15H9.348l-3.56-9.966a.774.774 0 1 1 1.49-.397l1.538 8.54a1 1 0 0 0 1.968-.354L9.37 4.967A.822.822 0 1 1 11 4.82V13a1 1 0 1 0 2 0V4.821a.821.821 0 1 1 1.632.137l-1.416 7.865a1 1 0 1 0 1.968.354l1.414-7.856.003-.016.12-.668a.774.774 0 1 1 1.49.397z"/></g></svg>