<svg xmlns="http://www.w3.org/2000/svg" width="24" height="24"><g fill="none"><path d="M24 0v24H0V0zM12.594 23.258l-.012.002-.071.035-.02.004-.014-.004-.071-.036c-.01-.003-.019 0-.024.006l-.004.01-.017.428.005.02.01.013.104.074.015.004.012-.004.104-.074.012-.016.004-.017-.017-.427c-.002-.01-.009-.017-.016-.018m.264-.113-.014.002-.184.093-.01.01-.003.011.018.43.005.012.008.008.201.092c.012.004.023 0 .029-.008l.004-.014-.034-.614c-.003-.012-.01-.02-.02-.022m-.715.002a.023.023 0 0 0-.027.006l-.006.014-.034.614c0 .012.007.02.017.024l.015-.002.201-.093.01-.008.003-.011.018-.43-.003-.012-.01-.01z"/><path fill="currentColor" d="M12 2c4.43 0 8 3.66 8 8.059 0 2.505-1.118 4.957-2.601 6.77-1.008 1.231-2.285 2.283-3.622 2.81l-.287.105.404.809a1 1 0 0 1-.765 1.439L13 22h-2a1 1 0 0 1-.945-1.328l.05-.12.405-.808c-1.44-.483-2.829-1.596-3.909-2.916C5.118 15.016 4 12.564 4 10.058 4 5.66 7.57 2 12 2m0 2c-3.302 0-6 2.74-6 6.059 0 1.936.882 3.954 2.149 5.503C9.449 17.15 10.943 18 12 18s2.552-.85 3.851-2.438C17.118 14.013 18 11.995 18 10.059 18 6.74 15.302 4 12 4m1.278 1.181c1.654.479 2.92 1.84 3.448 3.52a1 1 0 1 1-1.908.599c-.352-1.123-1.165-1.928-2.096-2.198a1 1 0 1 1 .556-1.92Z"/></g></svg>