<svg xmlns="http://www.w3.org/2000/svg" width="24" height="24"><g fill="none"><path d="M24 0v24H0V0zM12.593 23.258l-.011.002-.071.035-.02.004-.014-.004-.071-.035c-.01-.004-.019-.001-.024.005l-.004.01-.017.428.005.02.01.013.104.074.015.004.012-.004.104-.074.012-.016.004-.017-.017-.427c-.002-.01-.009-.017-.017-.018m.265-.113-.013.002-.185.093-.01.01-.003.011.018.43.005.012.008.007.201.093c.012.004.023 0 .029-.008l.004-.014-.034-.614c-.003-.012-.01-.02-.02-.022m-.715.002a.023.023 0 0 0-.027.006l-.006.014-.034.614c0 .012.007.02.017.024l.015-.002.201-.093.01-.008.004-.011.017-.43-.003-.012-.01-.01z"/><path fill="currentColor" d="m12.67 2.217 8.5 4.75A1.5 1.5 0 0 1 22 8.31v1.44c0 .69-.56 1.25-1.25 1.25H20v8h1a1 1 0 1 1 0 2H3a1 1 0 1 1 0-2h1v-8h-.75C2.56 11 2 10.44 2 9.75V8.31c0-.522.27-1.002.706-1.274l8.623-4.819a1.5 1.5 0 0 1 1.342 0ZM18 11H6v8h3v-6h2v6h2v-6h2v6h3zm-6-6.882-8 4.5V9h16v-.382zM12 6a1 1 0 1 1 0 2 1 1 0 0 1 0-2"/></g></svg>