<svg xmlns="http://www.w3.org/2000/svg" width="24" height="24"><g fill="none" fill-rule="evenodd"><path d="M24 0v24H0V0zM12.594 23.258l-.012.002-.071.035-.02.004-.014-.004-.071-.036c-.01-.003-.019 0-.024.006l-.004.01-.017.428.005.02.01.013.104.074.015.004.012-.004.104-.074.012-.016.004-.017-.017-.427c-.002-.01-.009-.017-.016-.018m.264-.113-.014.002-.184.093-.01.01-.003.011.018.43.005.012.008.008.201.092c.012.004.023 0 .029-.008l.004-.014-.034-.614c-.003-.012-.01-.02-.02-.022m-.715.002a.023.023 0 0 0-.027.006l-.006.014-.034.614c0 .012.007.02.017.024l.015-.002.201-.093.01-.008.003-.011.018-.43-.003-.012-.01-.01z"/><path fill="currentColor" d="m10.825 4.835 7.773 10.453 1.867 1.334a1.5 1.5 0 0 1 .189 2.28l-1.994 1.995a1.5 1.5 0 0 1-2.281-.19l-1.334-1.866-10.453-7.773a4.455 4.455 0 1 1 6.233-6.233m5.143 10.268-1.108 1.108 1.505 1.119a.999.999 0 0 1 .152.14l.064.08 1.082 1.515 1.16-1.159-1.515-1.081a1.002 1.002 0 0 1-.155-.138l-.066-.08zM5.515 5.758a2.455 2.455 0 0 0 .27 3.705l7.453 5.542 1.524-1.524L9.22 6.03a2.455 2.455 0 0 0-3.705-.271m10.192-1.122A3 3 0 1 1 19.95 8.88a3 3 0 0 1-4.243-4.243m2.828 1.414a1 1 0 1 0-1.414 1.415 1 1 0 0 0 1.415-1.415"/></g></svg>