<svg xmlns="http://www.w3.org/2000/svg" width="24" height="24"><g fill="none" fill-rule="evenodd"><path d="M24 0v24H0V0zM12.594 23.258l-.012.002-.071.035-.02.004-.014-.004-.071-.036c-.01-.003-.019 0-.024.006l-.004.01-.017.428.005.02.01.013.104.074.015.004.012-.004.104-.074.012-.016.004-.017-.017-.427c-.002-.01-.009-.017-.016-.018m.264-.113-.014.002-.184.093-.01.01-.003.011.018.43.005.012.008.008.201.092c.012.004.023 0 .029-.008l.004-.014-.034-.614c-.003-.012-.01-.02-.02-.022m-.715.002a.023.023 0 0 0-.027.006l-.006.014-.034.614c0 .012.007.02.017.024l.015-.002.201-.093.01-.008.003-.011.018-.43-.003-.012-.01-.01z"/><path fill="currentColor" d="M12 2c5.523 0 10 4.477 10 10s-4.477 10-10 10S2 17.523 2 12 6.477 2 12 2m0 2a7.963 7.963 0 0 0-4.5 1.385c.41.464.777.968 1.096 1.503l.044-.02a1 1 0 0 1 .948 1.757l-.146.075c.256.732.43 1.502.509 2.3H10a1 1 0 1 1 0 2h-.05a9.946 9.946 0 0 1-.508 2.3l.044.02a1 1 0 1 1-.846 1.812l-.044-.02a10.077 10.077 0 0 1-1.097 1.503A7.963 7.963 0 0 0 12 20a7.963 7.963 0 0 0 4.5-1.385c-.41-.465-.777-.968-1.096-1.503l-.044.02a1 1 0 0 1-.846-1.812l.043-.02a9.95 9.95 0 0 1-.508-2.3H14a1 1 0 1 1 0-2h.05a9.97 9.97 0 0 1 .507-2.3l-.043-.02a1 1 0 0 1 .846-1.813l.044.021A10.02 10.02 0 0 1 16.5 5.385 7.963 7.963 0 0 0 12 4m6 2.708a8.039 8.039 0 0 0-.773 1.032 1 1 0 0 1-.845 1.809c-.15.467-.258.953-.32 1.453a1 1 0 0 1 0 1.996c.062.5.17.986.32 1.453a1 1 0 0 1 .845 1.808c.23.365.489.71.773 1.033A7.97 7.97 0 0 0 20 12a7.97 7.97 0 0 0-2-5.292m-12 0A7.97 7.97 0 0 0 4 12a7.97 7.97 0 0 0 2 5.292 8.03 8.03 0 0 0 .773-1.033 1 1 0 0 1 .845-1.808c.15-.467.258-.953.32-1.453a1 1 0 0 1 0-1.996c-.062-.5-.17-.986-.32-1.453a1 1 0 0 1-.845-1.809A8.029 8.029 0 0 0 6 6.708"/></g></svg>