<svg xmlns="http://www.w3.org/2000/svg" width="24" height="24"><g fill="none" fill-rule="evenodd"><path d="M24 0v24H0V0zM12.594 23.258l-.012.002-.071.035-.02.004-.014-.004-.071-.036c-.01-.003-.019 0-.024.006l-.004.01-.017.428.005.02.01.013.104.074.015.004.012-.004.104-.074.012-.016.004-.017-.017-.427c-.002-.01-.009-.017-.016-.018m.264-.113-.014.002-.184.093-.01.01-.003.011.018.43.005.012.008.008.201.092c.012.004.023 0 .029-.008l.004-.014-.034-.614c-.003-.012-.01-.02-.02-.022m-.715.002a.023.023 0 0 0-.027.006l-.006.014-.034.614c0 .012.007.02.017.024l.015-.002.201-.093.01-.008.003-.011.018-.43-.003-.012-.01-.01z"/><path fill="currentColor" d="M18.5 2a3.5 3.5 0 0 1 1.796 6.505A9 9 0 1 1 3 12c0-1.24.25-2.42.704-3.495a3.5 3.5 0 1 1 4.8-4.8A8.972 8.972 0 0 1 12 2.999c1.24 0 2.42.25 3.495.704A3.498 3.498 0 0 1 18.5 2M12 5a7 7 0 1 0 0 14 7 7 0 0 0 0-14m0 7a1.5 1.5 0 0 1 1.012 2.608.5.5 0 0 0 .488.392 1 1 0 1 1 0 2 2.49 2.49 0 0 1-1.5-.5 2.49 2.49 0 0 1-1.5.5 1 1 0 1 1 0-2 .5.5 0 0 0 .488-.392A1.5 1.5 0 0 1 12 12M9 9a1 1 0 0 1 .993.883L10 10v1a1 1 0 0 1-1.993.117L8 11v-1a1 1 0 0 1 1-1m6 0a1 1 0 0 1 1 1v1a1 1 0 1 1-2 0v-1a1 1 0 0 1 1-1M5.5 4a1.5 1.5 0 0 0-.817 2.758 9.052 9.052 0 0 1 2.075-2.075A1.499 1.499 0 0 0 5.5 4m13 0a1.5 1.5 0 0 0-1.258.683 9.053 9.053 0 0 1 2.075 2.075A1.499 1.499 0 0 0 18.5 4"/></g></svg>