<svg xmlns="http://www.w3.org/2000/svg" width="24" height="24"><g fill="none"><path d="M24 0v24H0V0zM12.594 23.258l-.012.002-.071.035-.02.004-.014-.004-.071-.036c-.01-.003-.019 0-.024.006l-.004.01-.017.428.005.02.01.013.104.074.015.004.012-.004.104-.074.012-.016.004-.017-.017-.427c-.002-.01-.009-.017-.016-.018m.264-.113-.014.002-.184.093-.01.01-.003.011.018.43.005.012.008.008.201.092c.012.004.023 0 .029-.008l.004-.014-.034-.614c-.003-.012-.01-.02-.02-.022m-.715.002a.023.023 0 0 0-.027.006l-.006.014-.034.614c0 .012.007.02.017.024l.015-.002.201-.093.01-.008.003-.011.018-.43-.003-.012-.01-.01z"/><path fill="currentColor" d="M12 3a7 7 0 0 1 7 7v3.764l1.822 3.644A1.1 1.1 0 0 1 19.838 19H4.162a1.1 1.1 0 0 1-.984-1.592L5 13.764V10a7 7 0 0 1 7-7m0 2a5 5 0 0 0-5 5v3.764a2 2 0 0 1-.211.894L5.619 17h12.763l-1.17-2.342a2 2 0 0 1-.212-.894V10a5 5 0 0 0-5-5m4.88-2.63a1 1 0 0 1 1.406-.147 10.04 10.04 0 0 1 2.61 3.206 1 1 0 0 1-1.778.915 8.037 8.037 0 0 0-2.09-2.567 1 1 0 0 1-.148-1.406Zm-9.76 0a1 1 0 0 1-.148 1.407 8.038 8.038 0 0 0-2.084 2.555 1 1 0 1 1-1.776-.918 10.038 10.038 0 0 1 2.602-3.191 1 1 0 0 1 1.406.148ZM9 20h6a2 2 0 0 1-2 2h-2a2 2 0 0 1-2-2"/></g></svg>