<svg xmlns="http://www.w3.org/2000/svg" width="24" height="24"><g fill="none"><path d="M24 0v24H0V0zM12.593 23.258l-.011.002-.071.035-.02.004-.014-.004-.071-.035c-.01-.004-.019-.001-.024.005l-.004.01-.017.428.005.02.01.013.104.074.015.004.012-.004.104-.074.012-.016.004-.017-.017-.427c-.002-.01-.009-.017-.017-.018m.265-.113-.013.002-.185.093-.01.01-.003.011.018.43.005.012.008.007.201.093c.012.004.023 0 .029-.008l.004-.014-.034-.614c-.003-.012-.01-.02-.02-.022m-.715.002a.023.023 0 0 0-.027.006l-.006.014-.034.614c0 .012.007.02.017.024l.015-.002.201-.093.01-.008.004-.011.017-.43-.003-.012-.01-.01z"/><path fill="currentColor" d="M14.866 19.345a1 1 0 0 1-.366 1.366l-1.25.722a2.5 2.5 0 0 1-2.5 0L9.5 20.71a1 1 0 0 1 1-1.732l1.25.722a.5.5 0 0 0 .5 0l1.25-.722a1 1 0 0 1 1.366.366Zm4.928-8.226a1 1 0 0 1 1 1v3.515a2.5 2.5 0 0 1-1.25 2.165L16.5 19.557a1 1 0 1 1-1-1.733l3.044-1.757a.5.5 0 0 0 .25-.433v-3.515a1 1 0 0 1 1-1m-15.588 0a1 1 0 0 1 1 1v3.515a.5.5 0 0 0 .25.433L8.5 17.824a1 1 0 0 1-1 1.732L4.456 17.8a2.5 2.5 0 0 1-1.25-2.165V12.12a1 1 0 0 1 1-1Zm11.419-3.655.118.058 1.514.858a1 1 0 0 1 .5.758l.006.12-.013 1.74a1 1 0 0 1-.402.793l-.098.065-2.75 1.587v3.177a1 1 0 0 1-.397.797l-.097.066-1.5.88a1 1 0 0 1-.892.06l-.12-.06-1.5-.88a1 1 0 0 1-.487-.746L9.5 16.62v-3.177l-2.75-1.587a1 1 0 0 1-.492-.742l-.008-.117-.013-1.74a1 1 0 0 1 .406-.811l.1-.066 1.513-.858a1 1 0 0 1 .876-.055l.118.058L12 9.113l2.75-1.588a1 1 0 0 1 .875-.06Zm-.37 2.08-2.755 1.59a1 1 0 0 1-.881.059l-.12-.06-2.753-1.59-.505.287.005.58L11 12a1 1 0 0 1 .493.748l.007.118v3.181l.5.294.5-.294v-3.181a1 1 0 0 1 .401-.801L13 12l2.754-1.59.005-.58-.505-.286Zm2.367 3.659.007.067v1.402a1 1 0 0 1-.401.802l-.099.065-1.215.701a.3.3 0 0 1-.443-.193l-.007-.067v-1.403a1 1 0 0 1 .401-.8l.1-.066 1.214-.701a.3.3 0 0 1 .443.193M6.82 13.01l1.215.701a1 1 0 0 1 .5.866v1.403a.3.3 0 0 1-.45.26l-1.215-.7a1 1 0 0 1-.5-.867V13.27a.3.3 0 0 1 .45-.26m11.428-7.557 1.295.748a2.5 2.5 0 0 1 1.25 2.165v1.443a1 1 0 1 1-2 0V8.366a.5.5 0 0 0-.25-.433l-1.295-.748a1 1 0 0 1 1-1.732m-11.177.392a1 1 0 0 1-.366 1.366l-1.25.722a.5.5 0 0 0-.25.433v1.443a1 1 0 1 1-2 0V8.366A2.5 2.5 0 0 1 4.456 6.2l1.25-.722a1 1 0 0 1 1.366.366ZM12.5 5.79l1.215.701a.3.3 0 0 1 0 .52L12.5 7.71a1 1 0 0 1-1 0l-1.215-.701a.3.3 0 0 1 0-.52L11.5 5.79a1 1 0 0 1 1 0m.75-3.222 3.044 1.757a1 1 0 1 1-1 1.733L12.25 4.299a.5.5 0 0 0-.5 0L8.706 6.056a1 1 0 1 1-1-1.732l3.044-1.757a2.5 2.5 0 0 1 2.5 0Z"/></g></svg>