<svg xmlns="http://www.w3.org/2000/svg" width="24" height="24"><g fill="none" fill-rule="evenodd"><path d="M24 0v24H0V0zM12.593 23.258l-.011.002-.071.035-.02.004-.014-.004-.071-.035c-.01-.004-.019-.001-.024.005l-.004.01-.017.428.005.02.01.013.104.074.015.004.012-.004.104-.074.012-.016.004-.017-.017-.427c-.002-.01-.009-.017-.017-.018m.265-.113-.013.002-.185.093-.01.01-.003.011.018.43.005.012.008.007.201.093c.012.004.023 0 .029-.008l.004-.014-.034-.614c-.003-.012-.01-.02-.02-.022m-.715.002a.023.023 0 0 0-.027.006l-.006.014-.034.614c0 .012.007.02.017.024l.015-.002.201-.093.01-.008.004-.011.017-.43-.003-.012-.01-.01z"/><path fill="currentColor" d="M11.121 20.615a7.935 7.935 0 0 0-.853-.457c-.733-.339-1.711-.658-2.768-.658-1.279 0-2.438.468-3.18.862a1.592 1.592 0 0 1-1.514-.02A1.534 1.534 0 0 1 2 19V6.5c0-.621.295-1.263.898-1.629C3.672 4.401 5.414 3.5 7.5 3.5c1.581 0 3.145.51 4.5 1.31 1.355-.8 2.919-1.31 4.5-1.31 2.086 0 3.828.9 4.602 1.371.603.366.898 1.008.898 1.629V19c0 .633-.379 1.106-.806 1.342a1.592 1.592 0 0 1-1.515.02c-.741-.394-1.9-.862-3.179-.862-1.057 0-2.035.32-2.768.658a7.935 7.935 0 0 0-.853.457c-.284.177-.524.385-.878.385-.356 0-.595-.208-.88-.385M4 18.294V6.542c.673-.4 2-1.042 3.5-1.042 1.23 0 2.448.418 3.5 1.042v11.752c-.885-.396-2.113-.794-3.5-.794-1.381 0-2.609.395-3.5.794m9 0c.885-.396 2.113-.794 3.5-.794 1.381 0 2.609.395 3.5.794V6.542c-.673-.4-2-1.042-3.5-1.042-1.23 0-2.448.418-3.5 1.042z"/></g></svg>