<svg xmlns="http://www.w3.org/2000/svg" width="24" height="24"><g fill="none" fill-rule="evenodd"><path d="M24 0v24H0V0zM12.593 23.258l-.011.002-.071.035-.02.004-.014-.004-.071-.035c-.01-.004-.019-.001-.024.005l-.004.01-.017.428.005.02.01.013.104.074.015.004.012-.004.104-.074.012-.016.004-.017-.017-.427c-.002-.01-.009-.017-.017-.018m.265-.113-.013.002-.185.093-.01.01-.003.011.018.43.005.012.008.007.201.093c.012.004.023 0 .029-.008l.004-.014-.034-.614c-.003-.012-.01-.02-.02-.022m-.715.002a.023.023 0 0 0-.027.006l-.006.014-.034.614c0 .012.007.02.017.024l.015-.002.201-.093.01-.008.004-.011.017-.43-.003-.012-.01-.01z"/><path fill="currentColor" d="M18.417 4c.973 0 1.995.479 2.499 1.467A9.962 9.962 0 0 1 22 10c0 5.523-4.477 10-10 10S2 15.523 2 10c0-1.63.39-3.171 1.084-4.533C3.588 4.479 4.61 4 5.584 4zm0 2H5.583c-.362 0-.615.173-.717.374A7.962 7.962 0 0 0 4 10a7 7 0 0 1 7 7v.938a8.069 8.069 0 0 0 2 0V17a7 7 0 0 1 7-7 7.962 7.962 0 0 0-.866-3.626C19.03 6.173 18.778 6 18.416 6Zm1.33 6.006A5 5 0 0 0 15 17v.419a8.018 8.018 0 0 0 4.746-5.413Zm-15.493 0a8.018 8.018 0 0 0 4.49 5.304l.256.109V17a5 5 0 0 0-4.746-4.994"/></g></svg>