<svg xmlns="http://www.w3.org/2000/svg" width="24" height="24"><g fill="none" fill-rule="evenodd"><path d="M24 0v24H0V0zM12.594 23.258l-.012.002-.071.035-.02.004-.014-.004-.071-.036c-.01-.003-.019 0-.024.006l-.004.01-.017.428.005.02.01.013.104.074.015.004.012-.004.104-.074.012-.016.004-.017-.017-.427c-.002-.01-.009-.017-.016-.018m.264-.113-.014.002-.184.093-.01.01-.003.011.018.43.005.012.008.008.201.092c.012.004.023 0 .029-.008l.004-.014-.034-.614c-.003-.012-.01-.02-.02-.022m-.715.002a.023.023 0 0 0-.027.006l-.006.014-.034.614c0 .012.007.02.017.024l.015-.002.201-.093.01-.008.003-.011.018-.43-.003-.012-.01-.01z"/><path fill="currentColor" d="M17.278 2.613a1 1 0 0 1 1.89.643l-.038.11-2.61 6.42.657.175c1.05.281 1.924 1.134 2.09 2.298.142 1 .275 2.52.092 4.086-.182 1.552-.69 3.278-1.947 4.546-.462.466-1.125.54-1.573.548-.511.008-1.1-.07-1.705-.19-1.216-.242-2.674-.69-4.054-1.166l-.414-.145-.813-.294-.78-.291-.734-.283-.978-.388-.822-.335-.817-.345a1 1 0 0 1-.228-1.708c1.377-1.08 2.67-2.322 3.761-3.469l.529-.564.25-.274.472-.527.22-.252.594-.695.337-.406a3.096 3.096 0 0 1 2.981-1.087l.199.046.737.197zM10.5 13.348a43.747 43.747 0 0 1-3.479 3.444c.576.232 1.153.46 1.733.68a7.278 7.278 0 0 0 1.426-1.338 7.12 7.12 0 0 0 .488-.654l.142-.232a1 1 0 0 1 1.747.973c-.234.42-.527.814-.832 1.184a9.901 9.901 0 0 1-.792.856c.462.158.924.308 1.372.446.373-.257.81-.785 1.206-1.385.159-.24.31-.487.452-.74l.204-.384a1 1 0 0 1 1.793.887c-.229.462-.496.909-.78 1.339a10.52 10.52 0 0 1-.634.868l.421.082c.362.067.744.114 1.089.043.766-.815 1.163-1.998 1.316-3.305.036-.303.058-.606.068-.904zm2.819-2.35a1.09 1.09 0 0 0-1.116.378l-.243.293 5.398 1.446-.047-.392a16.938 16.938 0 0 0-.024-.182c-.037-.253-.216-.491-.511-.61l-.116-.038zM5.565 7.716l.064.14A3.26 3.26 0 0 0 6.866 9.22l.1.058a.068.068 0 0 1 0 .118l-.1.058A3.26 3.26 0 0 0 5.63 10.82l-.064.139a.071.071 0 0 1-.13 0l-.064-.14a3.26 3.26 0 0 0-1.237-1.364l-.1-.058a.068.068 0 0 1 0-.118l.1-.058A3.26 3.26 0 0 0 5.37 7.855l.064-.139a.071.071 0 0 1 .13 0Zm2.832-4.859c.04-.09.166-.09.206 0l.102.222a5.189 5.189 0 0 0 1.97 2.171l.157.093a.108.108 0 0 1 0 .189l-.158.092a5.189 5.189 0 0 0-1.97 2.172l-.1.222a.113.113 0 0 1-.207 0l-.102-.222a5.189 5.189 0 0 0-1.97-2.172l-.158-.092a.108.108 0 0 1 0-.189l.159-.093a5.189 5.189 0 0 0 1.97-2.171l.1-.222Z"/></g></svg>