<svg xmlns="http://www.w3.org/2000/svg" width="24" height="24"><g fill="none"><path d="M24 0v24H0V0zM12.593 23.258l-.011.002-.071.035-.02.004-.014-.004-.071-.035c-.01-.004-.019-.001-.024.005l-.004.01-.017.428.005.02.01.013.104.074.015.004.012-.004.104-.074.012-.016.004-.017-.017-.427c-.002-.01-.009-.017-.017-.018m.265-.113-.013.002-.185.093-.01.01-.003.011.018.43.005.012.008.007.201.093c.012.004.023 0 .029-.008l.004-.014-.034-.614c-.003-.012-.01-.02-.02-.022m-.715.002a.023.023 0 0 0-.027.006l-.006.014-.034.614c0 .012.007.02.017.024l.015-.002.201-.093.01-.008.004-.011.017-.43-.003-.012-.01-.01z"/><path fill="currentColor" d="M20.447 6.106a1 1 0 0 1 .447 1.341c-.353.707-1 1.326-1.652 1.76-.291.194-.62.376-.966.517.29.71.499 1.475.616 2.276H21a1 1 0 1 1 0 2h-2.012a9.996 9.996 0 0 1-.74 3.327c.572.33.963.86 1.209 1.35A5.5 5.5 0 0 1 20 21a1 1 0 0 1-1.993.117L18 21c0-.374-.101-.966-.332-1.428-.13-.26-.26-.409-.385-.489C16.03 20.844 14.177 22 12 22c-2.177 0-4.03-1.156-5.283-2.917-.126.08-.255.23-.385.49A3.514 3.514 0 0 0 6 21a1 1 0 1 1-2 0 5.5 5.5 0 0 1 .543-2.322c.246-.492.637-1.02 1.209-1.35A9.995 9.995 0 0 1 5.012 14H3a1 1 0 1 1 0-2h2.108a9.78 9.78 0 0 1 .616-2.276 5.482 5.482 0 0 1-.966-.517c-.651-.434-1.3-1.053-1.652-1.76a1 1 0 0 1 1.73-.996l.058.102c.147.293.5.674.973.99C6.353 7.867 6.781 8 7 8h10c.219 0 .647-.133 1.133-.457.415-.277.736-.603.908-.876l.065-.114a1 1 0 0 1 1.341-.447M16.208 10H7.792C7.294 11.004 7 12.202 7 13.5c0 3.309 1.837 5.773 4 6.364V13a1 1 0 1 1 2 0v6.864c2.163-.591 4-3.055 4-6.364 0-1.298-.294-2.496-.792-3.5M12 3a4.998 4.998 0 0 1 4.33 2.5L17.2 7H6.8l.869-1.5A4.998 4.998 0 0 1 12 3"/></g></svg>