<svg xmlns="http://www.w3.org/2000/svg" width="24" height="24"><g fill="none" fill-rule="evenodd"><path d="M24 0v24H0V0zM12.594 23.258l-.012.002-.071.035-.02.004-.014-.004-.071-.036c-.01-.003-.019 0-.024.006l-.004.01-.017.428.005.02.01.013.104.074.015.004.012-.004.104-.074.012-.016.004-.017-.017-.427c-.002-.01-.009-.017-.016-.018m.264-.113-.014.002-.184.093-.01.01-.003.011.018.43.005.012.008.008.201.092c.012.004.023 0 .029-.008l.004-.014-.034-.614c-.003-.012-.01-.02-.02-.022m-.715.002a.023.023 0 0 0-.027.006l-.006.014-.034.614c0 .012.007.02.017.024l.015-.002.201-.093.01-.008.003-.011.018-.43-.003-.012-.01-.01z"/><path fill="currentColor" d="M12 4a6.5 6.5 0 1 0 0 13 6.5 6.5 0 0 0 0-13m-8.5 6.5a8.5 8.5 0 1 1 13.392 6.952l-1.445 2.89A3 3 0 0 1 12.764 22h-1.528a3 3 0 0 1-2.683-1.658l-1.445-2.89A8.49 8.49 0 0 1 3.5 10.5m6.5 8.263.342.684a1 1 0 0 0 .894.553h1.528a1 1 0 0 0 .894-.553l.342-.684A8.523 8.523 0 0 1 12 19a8.524 8.524 0 0 1-2-.237"/></g></svg>