<svg xmlns="http://www.w3.org/2000/svg" width="24" height="24"><g fill="none"><path d="M24 0v24H0V0zM12.593 23.258l-.011.002-.071.035-.02.004-.014-.004-.071-.035c-.01-.004-.019-.001-.024.005l-.004.01-.017.428.005.02.01.013.104.074.015.004.012-.004.104-.074.012-.016.004-.017-.017-.427c-.002-.01-.009-.017-.017-.018m.265-.113-.013.002-.185.093-.01.01-.003.011.018.43.005.012.008.007.201.093c.012.004.023 0 .029-.008l.004-.014-.034-.614c-.003-.012-.01-.02-.02-.022m-.715.002a.023.023 0 0 0-.027.006l-.006.014-.034.614c0 .012.007.02.017.024l.015-.002.201-.093.01-.008.004-.011.017-.43-.003-.012-.01-.01z"/><path fill="currentColor" d="M18 3a3 3 0 0 1 3 3 1 1 0 0 1 .993.883L22 7v2a1 1 0 0 1-.883.993L21 10v7c0 .683-.343 1.287-.866 1.647l-.134.085v.768a1.5 1.5 0 0 1-2.993.144L17 19.5V19H7v.5a1.5 1.5 0 0 1-2.993.144L4 19.5v-.768a2 2 0 0 1-.993-1.563L3 17v-7a1 1 0 0 1-.993-.883L2 9V7a1 1 0 0 1 1-1 3 3 0 0 1 2.824-2.995L6 3zm1 10H5v4h14zM8 14a1 1 0 1 1 0 2H7a1 1 0 1 1 0-2zm9 0a1 1 0 0 1 .117 1.993L17 16h-1a1 1 0 0 1-.117-1.993L16 14zM9.382 5H6a1 1 0 0 0-1 1v5h14V6a1 1 0 0 0-1-1h-1.382l-1.724 3.447a1 1 0 1 1-1.788-.894L14.382 5h-2.764L9.894 8.447a1 1 0 0 1-1.788-.894z"/></g></svg>