<svg xmlns="http://www.w3.org/2000/svg" width="24" height="24"><g fill="none" fill-rule="evenodd"><path d="M24 0v24H0V0zM12.594 23.258l-.012.002-.071.035-.02.004-.014-.004-.071-.036c-.01-.003-.019 0-.024.006l-.004.01-.017.428.005.02.01.013.104.074.015.004.012-.004.104-.074.012-.016.004-.017-.017-.427c-.002-.01-.009-.017-.016-.018m.264-.113-.014.002-.184.093-.01.01-.003.011.018.43.005.012.008.008.201.092c.012.004.023 0 .029-.008l.004-.014-.034-.614c-.003-.012-.01-.02-.02-.022m-.715.002a.023.023 0 0 0-.027.006l-.006.014-.034.614c0 .012.007.02.017.024l.015-.002.201-.093.01-.008.003-.011.018-.43-.003-.012-.01-.01z"/><path fill="currentColor" d="M12 3a1 1 0 0 1 1 1v.055a8.958 8.958 0 0 1 4.618 1.913l.039-.04a1 1 0 0 1 1.414 1.415l-.04.04A8.957 8.957 0 0 1 20.946 12H21a1 1 0 1 1 0 2h-.055a8.958 8.958 0 0 1-1.913 4.618l.04.039a1 1 0 0 1-1.415 1.414l-.04-.04a9.01 9.01 0 0 1-1.256.843 1 1 0 0 1-.485.126H8.124a1 1 0 0 1-.485-.126 9.005 9.005 0 0 1-1.257-.842l-.039.04a1 1 0 0 1-1.414-1.415l.04-.04A8.958 8.958 0 0 1 3.054 14H3a1 1 0 1 1 0-2h.055a8.957 8.957 0 0 1 1.913-4.618l-.04-.039A1 1 0 1 1 6.344 5.93l.04.04A8.957 8.957 0 0 1 11 4.054V4a1 1 0 0 1 1-1m2.216 3.358.162.288a13.32 13.32 0 0 1 1.287 3.388l.278-.16a1 1 0 1 1 1 1.731l-.866.5a.998.998 0 0 1-.103.053A13.394 13.394 0 0 1 15.963 14h.537a1 1 0 0 1 0 2h-.843a13.309 13.309 0 0 1-1.093 3h1.044a7.003 7.003 0 0 0-1.392-12.642m-4.432 0a7.003 7.003 0 0 0-1.607 12.507l.215.135h1.044a13.326 13.326 0 0 1-.998-2.617L8.343 16H7.5a1 1 0 0 1-.117-1.993L7.5 14h.537a13.376 13.376 0 0 1-.01-1.842l-.053-.025-.051-.027-.866-.5a1 1 0 0 1 .895-1.785l.105.052.278.161a13.32 13.32 0 0 1 1.287-3.388zM12 6.596A11.235 11.235 0 0 0 10 13c0 2.572.865 4.569 1.624 5.825l.108.175h.536A11.254 11.254 0 0 0 12 6.596"/></g></svg>