<svg xmlns="http://www.w3.org/2000/svg" width="24" height="24"><g fill="none"><path d="M24 0v24H0V0zM12.594 23.258l-.012.002-.071.035-.02.004-.014-.004-.071-.036c-.01-.003-.019 0-.024.006l-.004.01-.017.428.005.02.01.013.104.074.015.004.012-.004.104-.074.012-.016.004-.017-.017-.427c-.002-.01-.009-.017-.016-.018m.264-.113-.014.002-.184.093-.01.01-.003.011.018.43.005.012.008.008.201.092c.012.004.023 0 .029-.008l.004-.014-.034-.614c-.003-.012-.01-.02-.02-.022m-.715.002a.023.023 0 0 0-.027.006l-.006.014-.034.614c0 .012.007.02.017.024l.015-.002.201-.093.01-.008.003-.011.018-.43-.003-.012-.01-.01z"/><path fill="currentColor" d="M17 12a5 5 0 1 1 0 10 5 5 0 0 1 0-10m-1-9a1 1 0 0 1 1 1v1h2a2 2 0 0 1 2 2v3h-2V7H5v12h5v2H5a2 2 0 0 1-2-2V7a2 2 0 0 1 2-2h2V4a1 1 0 0 1 2 0v1h6V4a1 1 0 0 1 1-1m1 11a3 3 0 1 0 0 6 3 3 0 0 0 0-6m0 .5a1 1 0 0 1 1 1v.5a1 1 0 1 1 0 2h-1a1 1 0 0 1-1-1v-1.5a1 1 0 0 1 1-1M8.5 14a1 1 0 0 1 .117 1.993L8.5 16H8a1 1 0 0 1-.117-1.993L8 14zm2.5-4a1 1 0 1 1 0 2H8a1 1 0 1 1 0-2z"/></g></svg>