<svg xmlns="http://www.w3.org/2000/svg" width="24" height="24"><g fill="none" fill-rule="evenodd"><path d="M24 0v24H0V0zM12.594 23.258l-.012.002-.071.035-.02.004-.014-.004-.071-.036c-.01-.003-.019 0-.024.006l-.004.01-.017.428.005.02.01.013.104.074.015.004.012-.004.104-.074.012-.016.004-.017-.017-.427c-.002-.01-.009-.017-.016-.018m.264-.113-.014.002-.184.093-.01.01-.003.011.018.43.005.012.008.008.201.092c.012.004.023 0 .029-.008l.004-.014-.034-.614c-.003-.012-.01-.02-.02-.022m-.715.002a.023.023 0 0 0-.027.006l-.006.014-.034.614c0 .012.007.02.017.024l.015-.002.201-.093.01-.008.003-.011.018-.43-.003-.012-.01-.01z"/><path fill="currentColor" d="M1.515 2.515a1 1 0 0 1 1.32-.084l.094.084L4.414 4H16a2 2 0 0 1 1.995 1.85L18 6v2.21l2.094-1.291a1.25 1.25 0 0 1 1.9.944l.006.12v8.033a1.25 1.25 0 0 1-1.8 1.123l-.106-.058L18 15.79v1.794l1.485 1.486a1 1 0 0 1-1.32 1.497l-.094-.083L1.515 3.93a1 1 0 0 1 0-1.414M2 7.247l2 2V18h8.754l2 2H4a2 2 0 0 1-2-2zM16 6H6.414L16 15.586zm4 3.326-2 1.232v2.883l2 1.232z"/></g></svg>