<svg xmlns="http://www.w3.org/2000/svg" width="24" height="24"><g fill="none" fill-rule="evenodd"><path d="M24 0v24H0V0zM12.593 23.258l-.011.002-.071.035-.02.004-.014-.004-.071-.035c-.01-.004-.019-.001-.024.005l-.004.01-.017.428.005.02.01.013.104.074.015.004.012-.004.104-.074.012-.016.004-.017-.017-.427c-.002-.01-.009-.017-.017-.018m.265-.113-.013.002-.185.093-.01.01-.003.011.018.43.005.012.008.007.201.093c.012.004.023 0 .029-.008l.004-.014-.034-.614c-.003-.012-.01-.02-.02-.022m-.715.002a.023.023 0 0 0-.027.006l-.006.014-.034.614c0 .012.007.02.017.024l.015-.002.201-.093.01-.008.004-.011.017-.43-.003-.012-.01-.01z"/><path fill="currentColor" d="M12.058 2.08a1 1 0 0 0-1.382.766 1.666 1.666 0 0 1-.216.647c-.1.165-.25.334-.514.58-.52.482-.837 1.059-.922 1.681a2.655 2.655 0 0 0 .326 1.655C9.842 8.296 10.84 9 11.903 9 13.285 9 15 8.034 15 6.194c0-.943-.422-1.829-.946-2.512-.528-.687-1.243-1.279-1.996-1.601m-.752 3.459c.31-.287.612-.6.853-.99.108.108.212.225.309.351.357.466.532.933.532 1.294 0 .197-.086.376-.28.532a1.339 1.339 0 0 1-.817.274c-.215 0-.603-.198-.805-.562a.66.66 0 0 1-.093-.41c.014-.108.073-.278.301-.49M9 10a2 2 0 0 0-2 2v8a2 2 0 0 0 2 2h6a2 2 0 0 0 2-2v-8a2 2 0 0 0-2-2zm0 2h6v8H9z"/></g></svg>