<svg xmlns="http://www.w3.org/2000/svg" width="24" height="24"><g fill="none" fill-rule="evenodd"><path d="M24 0v24H0V0zM12.594 23.258l-.012.002-.071.035-.02.004-.014-.004-.071-.036c-.01-.003-.019 0-.024.006l-.004.01-.017.428.005.02.01.013.104.074.015.004.012-.004.104-.074.012-.016.004-.017-.017-.427c-.002-.01-.009-.017-.016-.018m.264-.113-.014.002-.184.093-.01.01-.003.011.018.43.005.012.008.008.201.092c.012.004.023 0 .029-.008l.004-.014-.034-.614c-.003-.012-.01-.02-.02-.022m-.715.002a.023.023 0 0 0-.027.006l-.006.014-.034.614c0 .012.007.02.017.024l.015-.002.201-.093.01-.008.003-.011.018-.43-.003-.012-.01-.01z"/><path fill="currentColor" d="m17.522 3.38 3.098 3.098a1.5 1.5 0 0 1-.586 2.484l-2.55.85a5 5 0 0 1-1.241 5.016l-1.415 1.414a5 5 0 0 1-5.016 1.242l-.85 2.55a1.5 1.5 0 0 1-2.484.586L3.38 17.522a1.5 1.5 0 0 1 .586-2.484l2.55-.85A5 5 0 0 1 7.757 9.17l1.415-1.414a5 5 0 0 1 5.016-1.241l.85-2.55a1.5 1.5 0 0 1 2.484-.587ZM7.487 15.971l-2.121.707 1.954 1.955.707-2.122zm3.099-6.8-1.414 1.414a3 3 0 1 0 4.242 4.242l1.414-1.414a3 3 0 1 0-4.242-4.243Zm6.094-3.806-.707 2.121.54.54 2.121-.707z"/></g></svg>