<svg xmlns="http://www.w3.org/2000/svg" width="24" height="24"><g fill="none" fill-rule="evenodd"><path d="M24 0v24H0V0zM12.594 23.258l-.012.002-.071.035-.02.004-.014-.004-.071-.036c-.01-.003-.019 0-.024.006l-.004.01-.017.428.005.02.01.013.104.074.015.004.012-.004.104-.074.012-.016.004-.017-.017-.427c-.002-.01-.009-.017-.016-.018m.264-.113-.014.002-.184.093-.01.01-.003.011.018.43.005.012.008.008.201.092c.012.004.023 0 .029-.008l.004-.014-.034-.614c-.003-.012-.01-.02-.02-.022m-.715.002a.023.023 0 0 0-.027.006l-.006.014-.034.614c0 .012.007.02.017.024l.015-.002.201-.093.01-.008.003-.011.018-.43-.003-.012-.01-.01z"/><path fill="currentColor" d="M2 8a3 3 0 0 1 3-3h14a3 3 0 0 1 3 3v8a3 3 0 0 1-3 3h-2.172a3 3 0 0 1-2.12-.879l-1.83-1.828a1 1 0 0 0-.706-.293h-.344a1 1 0 0 0-.707.293L9.293 18.12a3 3 0 0 1-2.121.88H5a3 3 0 0 1-3-3zm3-1a1 1 0 0 0-1 1v8a1 1 0 0 0 1 1h2.172a1 1 0 0 0 .707-.293l1.828-1.828A3 3 0 0 1 11.828 14h.344a3 3 0 0 1 2.12.879l1.83 1.828a1 1 0 0 0 .706.293H19a1 1 0 0 0 1-1V8a1 1 0 0 0-1-1zm1 4a2 2 0 1 1 4 0 2 2 0 0 1-4 0m8 0a2 2 0 1 1 4 0 2 2 0 0 1-4 0"/></g></svg>