<svg xmlns="http://www.w3.org/2000/svg" width="24" height="24"><g fill="none"><path d="M24 0v24H0V0zM12.593 23.258l-.011.002-.071.035-.02.004-.014-.004-.071-.035c-.01-.004-.019-.001-.024.005l-.004.01-.017.428.005.02.01.013.104.074.015.004.012-.004.104-.074.012-.016.004-.017-.017-.427c-.002-.01-.009-.017-.017-.018m.265-.113-.013.002-.185.093-.01.01-.003.011.018.43.005.012.008.007.201.093c.012.004.023 0 .029-.008l.004-.014-.034-.614c-.003-.012-.01-.02-.02-.022m-.715.002a.023.023 0 0 0-.027.006l-.006.014-.034.614c0 .012.007.02.017.024l.015-.002.201-.093.01-.008.004-.011.017-.43-.003-.012-.01-.01z"/><path fill="currentColor" d="M12 3a.5.5 0 1 0 0-1 .5.5 0 0 0 0 1m0 19a.5.5 0 1 0 0-1 .5.5 0 0 0 0 1m0-16a1 1 0 1 0 0-2 1 1 0 0 0 0 2m0 14a1 1 0 1 0 0-2 1 1 0 0 0 0 2m2.75-12.763a1.5 1.5 0 1 1-1.5 2.598 1.5 1.5 0 0 1 1.5-2.598M9.5 12a1.5 1.5 0 1 1-3 0 1.5 1.5 0 0 1 3 0m8 0a1.5 1.5 0 1 1-3 0 1.5 1.5 0 0 1 3 0m-6.2 4.214a1.5 1.5 0 1 0-2.599-1.5 1.5 1.5 0 0 0 2.598 1.5Zm4-1.5a1.5 1.5 0 1 0-2.599 1.5 1.5 1.5 0 0 0 2.598-1.5ZM9.25 7.237a1.5 1.5 0 1 1 1.5 2.598 1.5 1.5 0 0 1-1.5-2.598m8.407.52a1 1 0 1 1-1.414-1.414 1 1 0 0 1 1.414 1.414m-9.9 9.9a1 1 0 1 1-1.414-1.415 1 1 0 0 1 1.414 1.415M18 12a1 1 0 1 0 2 0 1 1 0 0 0-2 0M4 12a1 1 0 1 0 2 0 1 1 0 0 0-2 0m12.243 5.657a1 1 0 1 1 1.414-1.414 1 1 0 0 1-1.414 1.414m-9.9-9.9a1 1 0 1 1 1.414-1.414 1 1 0 0 1-1.414 1.414m10.84-3.734a.5.5 0 1 1-.866-.5.5.5 0 0 1 .866.5m-9.5 16.454a.5.5 0 1 1-.866-.5.5.5 0 0 1 .866.5M19.794 7.5a.5.5 0 1 0 .866-.5.5.5 0 0 0-.866.5M3.34 17a.5.5 0 1 0 .866-.5.5.5 0 0 0-.866.5m18.16-4.5a.5.5 0 1 1 0-1 .5.5 0 0 1 0 1m-19 0a.5.5 0 1 1 0-1 .5.5 0 0 1 0 1m17.294 4a.5.5 0 1 0 .866.5.5.5 0 0 0-.866-.5M3.34 7a.5.5 0 1 0 .866.5.5.5 0 0 0-.866-.5m12.977 13.477a.5.5 0 1 1 .866-.5.5.5 0 0 1-.866.5m-9.5-16.454a.5.5 0 1 1 .866-.5.5.5 0 0 1-.866.5"/></g></svg>