<svg xmlns="http://www.w3.org/2000/svg" width="24" height="24"><g fill="none" fill-rule="evenodd"><path d="M24 0v24H0V0zM12.594 23.258l-.012.002-.071.035-.02.004-.014-.004-.071-.036c-.01-.003-.019 0-.024.006l-.004.01-.017.428.005.02.01.013.104.074.015.004.012-.004.104-.074.012-.016.004-.017-.017-.427c-.002-.01-.009-.017-.016-.018m.264-.113-.014.002-.184.093-.01.01-.003.011.018.43.005.012.008.008.201.092c.012.004.023 0 .029-.008l.004-.014-.034-.614c-.003-.012-.01-.02-.02-.022m-.715.002a.023.023 0 0 0-.027.006l-.006.014-.034.614c0 .012.007.02.017.024l.015-.002.201-.093.01-.008.003-.011.018-.43-.003-.012-.01-.01z"/><path fill="currentColor" d="M17.657 2.515a1 1 0 0 1 1 1v.414l.414-.414a1 1 0 1 1 1.414 1.414l-.414.414h.414a1 1 0 1 1 0 2h-2.057c1.304 2.243.615 5.242-1.758 6.626L5.66 20.392c-1.332.777-2.829-.72-2.052-2.052l6.423-11.01c1.384-2.373 4.384-3.062 6.626-1.758V3.515a1 1 0 0 1 1-1m-5.552 5.347a2.856 2.856 0 1 1 3.558 4.38l-2.161 1.26-.795-.795a1 1 0 1 0-1.414 1.414l.422.423-5.422 3.163 4.726-8.102.981.98a1 1 0 0 0 1.414-1.414z"/></g></svg>