<svg xmlns="http://www.w3.org/2000/svg" width="24" height="24"><g fill="none" fill-rule="evenodd"><path d="M24 0v24H0V0zM12.594 23.258l-.012.002-.071.035-.02.004-.014-.004-.071-.036c-.01-.003-.019 0-.024.006l-.004.01-.017.428.005.02.01.013.104.074.015.004.012-.004.104-.074.012-.016.004-.017-.017-.427c-.002-.01-.009-.017-.016-.018m.264-.113-.014.002-.184.093-.01.01-.003.011.018.43.005.012.008.008.201.092c.012.004.023 0 .029-.008l.004-.014-.034-.614c-.003-.012-.01-.02-.02-.022m-.715.002a.023.023 0 0 0-.027.006l-.006.014-.034.614c0 .012.007.02.017.024l.015-.002.201-.093.01-.008.003-.011.018-.43-.003-.012-.01-.01z"/><path fill="currentColor" d="m8.076 7.26.095.083 8.486 8.485a1 1 0 0 1-.246 1.595l-.116.05L5.91 21.3c-1.952.72-3.853-1.115-3.26-3.064l.05-.146L6.526 7.705a1 1 0 0 1 1.447-.516zm-.214 2.602-3.285 8.92a.5.5 0 0 0 .562.664l.08-.023 8.918-3.286zm9.245 1.742c.911.048 2.16.24 3.246.892a1 1 0 0 1-.925 1.77l-.104-.055c-.682-.41-1.554-.57-2.322-.61a7.666 7.666 0 0 0-.95.004l-.316.031a1 1 0 0 1-.281-1.98 8.587 8.587 0 0 1 1.652-.053m2.025-2.786a1 1 0 0 1 .116 1.993l-.116.007h-.708a1 1 0 0 1-.116-1.993l.116-.007zM15.95 8.05a1 1 0 0 1 .083 1.32l-.083.094-1.06 1.061a1 1 0 0 1-1.498-1.32l.083-.094 1.06-1.06a1 1 0 0 1 1.415 0m-2.587-5.266c.448 1.346.208 2.82-.072 3.85a10.11 10.11 0 0 1-.69 1.863 1 1 0 0 1-1.79-.893 8.13 8.13 0 0 0 .55-1.496c.227-.832.341-1.735.166-2.475l-.061-.216a1 1 0 1 1 1.897-.633m5.415 2.438a1 1 0 0 1 0 1.414l-.707.707a1 1 0 1 1-1.414-1.414l.707-.707a1 1 0 0 1 1.414 0"/></g></svg>