<svg xmlns="http://www.w3.org/2000/svg" width="24" height="24"><g fill="none"><path d="M24 0v24H0V0zM12.594 23.258l-.012.002-.071.035-.02.004-.014-.004-.071-.036c-.01-.003-.019 0-.024.006l-.004.01-.017.428.005.02.01.013.104.074.015.004.012-.004.104-.074.012-.016.004-.017-.017-.427c-.002-.01-.009-.017-.016-.018m.264-.113-.014.002-.184.093-.01.01-.003.011.018.43.005.012.008.008.201.092c.012.004.023 0 .029-.008l.004-.014-.034-.614c-.003-.012-.01-.02-.02-.022m-.715.002a.023.023 0 0 0-.027.006l-.006.014-.034.614c0 .012.007.02.017.024l.015-.002.201-.093.01-.008.003-.011.018-.43-.003-.012-.01-.01z"/><path fill="currentColor" d="M2.222 11.121a1 1 0 0 1 1.32-.083l.094.083 4.242 4.243a1 1 0 0 1-1.32 1.497l-.094-.083-4.242-4.242a1 1 0 0 1 0-1.415m20.556-5.656a1 1 0 0 1 .083 1.32l-.083.094-9.829 9.828a1.1 1.1 0 0 1-1.46.086l-.096-.085-4.171-4.172a1 1 0 0 1 1.32-1.498l.094.083 3.535 3.536 9.193-9.192a1 1 0 0 1 1.414 0m-5 0a1 1 0 0 1 .083 1.32l-.083.094-4.95 4.95a1 1 0 0 1-1.497-1.32l.083-.095 4.95-4.95a1 1 0 0 1 1.414 0Z"/></g></svg>