<svg xmlns="http://www.w3.org/2000/svg" width="24" height="24"><g fill="none" fill-rule="evenodd"><path d="M24 0v24H0V0zM12.593 23.258l-.011.002-.071.035-.02.004-.014-.004-.071-.035c-.01-.004-.019-.001-.024.005l-.004.01-.017.428.005.02.01.013.104.074.015.004.012-.004.104-.074.012-.016.004-.017-.017-.427c-.002-.01-.009-.017-.017-.018m.265-.113-.013.002-.185.093-.01.01-.003.011.018.43.005.012.008.007.201.093c.012.004.023 0 .029-.008l.004-.014-.034-.614c-.003-.012-.01-.02-.02-.022m-.715.002a.023.023 0 0 0-.027.006l-.006.014-.034.614c0 .012.007.02.017.024l.015-.002.201-.093.01-.008.004-.011.017-.43-.003-.012-.01-.01z"/><path fill="currentColor" d="M15 2a1 1 0 0 1 1 1v1h1a3 3 0 0 1 3 3v1h1a1 1 0 1 1 0 2h-1v4h1a1 1 0 1 1 0 2h-1v1a3 3 0 0 1-3 3h-1v1a1 1 0 1 1-2 0v-1h-4v1a1 1 0 1 1-2 0v-1H7a3 3 0 0 1-3-3v-1H3a1 1 0 1 1 0-2h1v-4H3a1 1 0 0 1 0-2h1V7a3 3 0 0 1 3-3h1V3a1 1 0 0 1 2 0v1h4V3a1 1 0 0 1 1-1m2 4H7a1 1 0 0 0-1 1v10a1 1 0 0 0 1 1h10a1 1 0 0 0 1-1V7a1 1 0 0 0-1-1m-3 2a2 2 0 0 1 1.995 1.85L16 10v4a2 2 0 0 1-1.85 1.995L14 16h-4a2 2 0 0 1-1.995-1.85L8 14v-4a2 2 0 0 1 1.85-1.995L10 8zm0 2h-4v4h4z"/></g></svg>