<svg xmlns="http://www.w3.org/2000/svg" width="24" height="24"><g fill="none" fill-rule="evenodd"><path d="M24 0v24H0V0zM12.594 23.258l-.012.002-.071.035-.02.004-.014-.004-.071-.036c-.01-.003-.019 0-.024.006l-.004.01-.017.428.005.02.01.013.104.074.015.004.012-.004.104-.074.012-.016.004-.017-.017-.427c-.002-.01-.009-.017-.016-.018m.264-.113-.014.002-.184.093-.01.01-.003.011.018.43.005.012.008.008.201.092c.012.004.023 0 .029-.008l.004-.014-.034-.614c-.003-.012-.01-.02-.02-.022m-.715.002a.023.023 0 0 0-.027.006l-.006.014-.034.614c0 .012.007.02.017.024l.015-.002.201-.093.01-.008.003-.011.018-.43-.003-.012-.01-.01z"/><path fill="currentColor" d="M12 2a1 1 0 0 1 .894.553l.804 1.607A9 9 0 1 1 3 13a9.003 9.003 0 0 1 7.302-8.84l.804-1.607A1 1 0 0 1 12 2M5.013 12.563a6.98 6.98 0 0 0 .488 3.045c.275.087.425.135.45.14 1.659.412 3.479.248 5.22-.895l.248-.17c2.35-1.679 4.853-1.941 7.112-1.38.172.042.324.085.456.127a6.982 6.982 0 0 0-.492-3.045l-.446-.141c-1.658-.412-3.478-.248-5.22.896l-.248.17c-2.349 1.678-4.852 1.94-7.112 1.38a7.76 7.76 0 0 1-.456-.127m.415-1.98c.321.104.496.159.523.166 1.659.411 3.479.247 5.22-.896l.248-.17c1.814-1.296 3.72-1.748 5.535-1.628a7.003 7.003 0 0 0-11.526 2.53m13.146 4.827-.525-.166c-1.658-.412-3.478-.248-5.22.896l-.248.17c-1.817 1.298-3.726 1.749-5.543 1.627a7.003 7.003 0 0 0 11.536-2.527"/></g></svg>