<svg xmlns="http://www.w3.org/2000/svg" width="24" height="24"><g fill="none"><path d="M24 0v24H0V0zM12.593 23.258l-.011.002-.071.035-.02.004-.014-.004-.071-.035c-.01-.004-.019-.001-.024.005l-.004.01-.017.428.005.02.01.013.104.074.015.004.012-.004.104-.074.012-.016.004-.017-.017-.427c-.002-.01-.009-.017-.017-.018m.265-.113-.013.002-.185.093-.01.01-.003.011.018.43.005.012.008.007.201.093c.012.004.023 0 .029-.008l.004-.014-.034-.614c-.003-.012-.01-.02-.02-.022m-.715.002a.023.023 0 0 0-.027.006l-.006.014-.034.614c0 .012.007.02.017.024l.015-.002.201-.093.01-.008.004-.011.017-.43-.003-.012-.01-.01z"/><path fill="currentColor" d="M15 2c.683 0 1.287.343 1.647.866l.085.134H18a2 2 0 0 1 1.995 1.85L20 5v12a5 5 0 0 1-4.783 4.995L15 22H6a2 2 0 0 1-1.995-1.85L4 20V5a2 2 0 0 1 1.85-1.995L6 3h1.268a2 2 0 0 1 1.563-.993L9 2zM7 5H6v15h9a3 3 0 0 0 3-3V5h-1a2 2 0 0 1-2 2H9a2 2 0 0 1-2-2m5 9a1 1 0 0 1 .117 1.993L12 16H9a1 1 0 0 1-.117-1.993L9 14zm3-4a1 1 0 1 1 0 2H9a1 1 0 1 1 0-2zm0-6H9v1h6z"/></g></svg>