<svg xmlns="http://www.w3.org/2000/svg" width="24" height="24"><g fill="none" fill-rule="evenodd"><path d="M24 0v24H0V0zM12.594 23.258l-.012.002-.071.035-.02.004-.014-.004-.071-.036c-.01-.003-.019 0-.024.006l-.004.01-.017.428.005.02.01.013.104.074.015.004.012-.004.104-.074.012-.016.004-.017-.017-.427c-.002-.01-.009-.017-.016-.018m.264-.113-.014.002-.184.093-.01.01-.003.011.018.43.005.012.008.008.201.092c.012.004.023 0 .029-.008l.004-.014-.034-.614c-.003-.012-.01-.02-.02-.022m-.715.002a.023.023 0 0 0-.027.006l-.006.014-.034.614c0 .012.007.02.017.024l.015-.002.201-.093.01-.008.003-.011.018-.43-.003-.012-.01-.01z"/><path fill="currentColor" d="M7.91 6.91a5.501 5.501 0 0 1 10.267.23 5.001 5.001 0 0 1 .525 9.562A5.001 5.001 0 0 1 14 20H6.36a4.36 4.36 0 0 1-1.852-8.308A5.502 5.502 0 0 1 7.911 6.91Zm2.615-.385a5.504 5.504 0 0 1 4.652 3.614 5.005 5.005 0 0 1 3.772 4.142 3 3 0 0 0-1.653-5.267 1 1 0 0 1-.88-.778 3.502 3.502 0 0 0-5.89-1.711ZM10 8.5a3.502 3.502 0 0 0-3.487 3.802 1 1 0 0 1-.746 1.053A2.362 2.362 0 0 0 6.36 18H14a3.002 3.002 0 0 0 3-3 3 3 0 0 0-2.704-2.986 1 1 0 0 1-.88-.778A3.502 3.502 0 0 0 10 8.5"/></g></svg>