<svg xmlns="http://www.w3.org/2000/svg" width="24" height="24"><g fill="none"><path d="M24 0v24H0V0zM12.593 23.258l-.011.002-.071.035-.02.004-.014-.004-.071-.035c-.01-.004-.019-.001-.024.005l-.004.01-.017.428.005.02.01.013.104.074.015.004.012-.004.104-.074.012-.016.004-.017-.017-.427c-.002-.01-.009-.017-.017-.018m.265-.113-.013.002-.185.093-.01.01-.003.011.018.43.005.012.008.007.201.093c.012.004.023 0 .029-.008l.004-.014-.034-.614c-.003-.012-.01-.02-.02-.022m-.715.002a.023.023 0 0 0-.027.006l-.006.014-.034.614c0 .012.007.02.017.024l.015-.002.201-.093.01-.008.004-.011.017-.43-.003-.012-.01-.01z"/><path fill="currentColor" d="M14.5 19a1.5 1.5 0 1 1 0 3 1.5 1.5 0 0 1 0-3m-4-2a1.5 1.5 0 1 1 0 3 1.5 1.5 0 0 1 0-3m4-2a1.5 1.5 0 1 1 0 3 1.5 1.5 0 0 1 0-3m-3-13a6.502 6.502 0 0 1 6.086 4.212A6.002 6.002 0 0 1 19.6 16.8a1 1 0 0 1-1.202-1.6 4.001 4.001 0 0 0-1.744-7.148 1.01 1.01 0 0 1-.81-.731A4.5 4.5 0 0 0 7.027 9a1.01 1.01 0 0 1-.76 1.09 3.002 3.002 0 0 0-.019 5.816 1 1 0 0 1-.498 1.936A5.002 5.002 0 0 1 5 8.416 6.5 6.5 0 0 1 11.5 2m-1 11a1.5 1.5 0 1 1 0 3 1.5 1.5 0 0 1 0-3"/></g></svg>