<svg xmlns="http://www.w3.org/2000/svg" width="24" height="24"><g fill="none"><path d="M24 0v24H0V0zM12.594 23.258l-.012.002-.071.035-.02.004-.014-.004-.071-.036c-.01-.003-.019 0-.024.006l-.004.01-.017.428.005.02.01.013.104.074.015.004.012-.004.104-.074.012-.016.004-.017-.017-.427c-.002-.01-.009-.017-.016-.018m.264-.113-.014.002-.184.093-.01.01-.003.011.018.43.005.012.008.008.201.092c.012.004.023 0 .029-.008l.004-.014-.034-.614c-.003-.012-.01-.02-.02-.022m-.715.002a.023.023 0 0 0-.027.006l-.006.014-.034.614c0 .012.007.02.017.024l.015-.002.201-.093.01-.008.003-.011.018-.43-.003-.012-.01-.01z"/><path fill="currentColor" d="M14.5 16a2.5 2.5 0 1 1-1.667 4.363 1 1 0 0 1 1.235-1.568l.099.078A.5.5 0 1 0 14.5 18H7a1 1 0 1 1 0-2zm-3-14a6.502 6.502 0 0 1 6.086 4.212A6.002 6.002 0 0 1 19.6 16.799a1 1 0 0 1-1.201-1.598 4.001 4.001 0 0 0-1.75-7.148 1 1 0 0 1-.804-.727 4.5 4.5 0 0 0-8.817 1.68 1 1 0 0 1-.754 1.082 2.999 2.999 0 0 0-1.525.928 1 1 0 1 1-1.5-1.324A5.012 5.012 0 0 1 5 8.416 6.5 6.5 0 0 1 11.5 2M11 9a3 3 0 1 1 0 6H3a1 1 0 1 1 0-2h8a1 1 0 1 0-.803-1.596l-.064.097a1 1 0 0 1-1.731-1.002A3 3 0 0 1 11 9"/></g></svg>