<svg xmlns="http://www.w3.org/2000/svg" width="24" height="24"><g fill="none" fill-rule="evenodd"><path d="M24 0v24H0V0zM12.594 23.258l-.012.002-.071.035-.02.004-.014-.004-.071-.036c-.01-.003-.019 0-.024.006l-.004.01-.017.428.005.02.01.013.104.074.015.004.012-.004.104-.074.012-.016.004-.017-.017-.427c-.002-.01-.009-.017-.016-.018m.264-.113-.014.002-.184.093-.01.01-.003.011.018.43.005.012.008.008.201.092c.012.004.023 0 .029-.008l.004-.014-.034-.614c-.003-.012-.01-.02-.02-.022m-.715.002a.023.023 0 0 0-.027.006l-.006.014-.034.614c0 .012.007.02.017.024l.015-.002.201-.093.01-.008.003-.011.018-.43-.003-.012-.01-.01z"/><path fill="currentColor" d="M12 5c2.592 0 4.986.465 6.77 1.258.89.396 1.674.893 2.247 1.496C21.596 8.36 22 9.122 22 10v4c0 .878-.404 1.639-.983 2.246-.573.603-1.356 1.1-2.247 1.496C16.986 18.535 14.592 19 12 19c-2.592 0-4.986-.465-6.77-1.258-.89-.396-1.674-.893-2.247-1.496C2.404 15.64 2 14.878 2 14v-4c0-.878.404-1.639.983-2.246.573-.603 1.356-1.1 2.247-1.496C7.014 5.465 9.408 5 12 5m8 8.08c-.375.246-.79.466-1.23.662C16.986 14.535 14.592 15 12 15c-2.592 0-4.986-.465-6.77-1.258A8.689 8.689 0 0 1 4 13.08V14c0 .227.1.518.432.868.337.354.872.719 1.61 1.047C7.516 16.57 9.622 17 12 17c2.379 0 4.484-.43 5.958-1.085.738-.328 1.273-.693 1.61-1.047.333-.35.432-.641.432-.868zM12 7c-2.379 0-4.484.43-5.958 1.085-.738.328-1.273.693-1.61 1.047C4.099 9.482 4 9.773 4 10c0 .227.1.518.432.868.337.354.872.719 1.61 1.047C7.516 12.57 9.622 13 12 13c2.379 0 4.484-.43 5.958-1.085.738-.328 1.273-.693 1.61-1.047.333-.35.432-.641.432-.868 0-.227-.1-.518-.432-.868-.337-.354-.872-.719-1.61-1.047C16.484 7.431 14.378 7 12 7"/></g></svg>