<svg xmlns="http://www.w3.org/2000/svg" width="24" height="24"><g fill="none" fill-rule="evenodd"><path d="M24 0v24H0V0zM12.594 23.258l-.012.002-.071.035-.02.004-.014-.004-.071-.036c-.01-.003-.019 0-.024.006l-.004.01-.017.428.005.02.01.013.104.074.015.004.012-.004.104-.074.012-.016.004-.017-.017-.427c-.002-.01-.009-.017-.016-.018m.264-.113-.014.002-.184.093-.01.01-.003.011.018.43.005.012.008.008.201.092c.012.004.023 0 .029-.008l.004-.014-.034-.614c-.003-.012-.01-.02-.02-.022m-.715.002a.023.023 0 0 0-.027.006l-.006.014-.034.614c0 .012.007.02.017.024l.015-.002.201-.093.01-.008.003-.011.018-.43-.003-.012-.01-.01z"/><path fill="currentColor" d="M12 2c5.523 0 10 4.477 10 10s-4.477 10-10 10S2 17.523 2 12 6.477 2 12 2M4.071 13.071a8.004 8.004 0 0 0 6.858 6.858A8.004 8.004 0 0 0 4.07 13.07m15.858 0a8.004 8.004 0 0 0-6.858 6.858 8.004 8.004 0 0 0 6.858-6.858M12 7.364A10.042 10.042 0 0 1 7.364 12 10.042 10.042 0 0 1 12 16.636 10.042 10.042 0 0 1 16.636 12 10.042 10.042 0 0 1 12 7.364m-1.071-3.293A8.005 8.005 0 0 0 4.07 10.93a8.004 8.004 0 0 0 6.86-6.86m2.142 0a8.004 8.004 0 0 0 6.858 6.858 8.004 8.004 0 0 0-6.86-6.858"/></g></svg>