<svg xmlns="http://www.w3.org/2000/svg" width="24" height="24"><g fill="none" fill-rule="evenodd"><path d="M24 0v24H0V0zM12.594 23.258l-.012.002-.071.035-.02.004-.014-.004-.071-.036c-.01-.003-.019 0-.024.006l-.004.01-.017.428.005.02.01.013.104.074.015.004.012-.004.104-.074.012-.016.004-.017-.017-.427c-.002-.01-.009-.017-.016-.018m.264-.113-.014.002-.184.093-.01.01-.003.011.018.43.005.012.008.008.201.092c.012.004.023 0 .029-.008l.004-.014-.034-.614c-.003-.012-.01-.02-.02-.022m-.715.002a.023.023 0 0 0-.027.006l-.006.014-.034.614c0 .012.007.02.017.024l.015-.002.201-.093.01-.008.003-.011.018-.43-.003-.012-.01-.01z"/><path fill="currentColor" d="M4 12a7 7 0 0 1 13.491-2.625 1 1 0 0 0 1.854-.75A9.003 9.003 0 1 0 3.27 16.61l-.78 2.649a1.008 1.008 0 0 0 1.252 1.252l2.65-.78a8.948 8.948 0 0 0 3.485 1.2 1 1 0 1 0 .248-1.985 6.95 6.95 0 0 1-2.88-1.038 1.429 1.429 0 0 0-1.171-.168l-1.152.339.339-1.152c.12-.408.047-.834-.168-1.17A6.962 6.962 0 0 1 4 12m16 4.5a3.5 3.5 0 1 0-1.627 2.957 1.26 1.26 0 0 1 .91-.175 1.26 1.26 0 0 1 .174-.91A3.48 3.48 0 0 0 20 16.5M16.5 11a5.5 5.5 0 0 1 4.821 8.148l.386 1.311a1.005 1.005 0 0 1-1.248 1.248l-1.31-.386A5.5 5.5 0 1 1 16.5 11"/></g></svg>