<svg xmlns="http://www.w3.org/2000/svg" width="24" height="24"><g fill="none" fill-rule="evenodd"><path d="M24 0v24H0V0zM12.593 23.258l-.011.002-.071.035-.02.004-.014-.004-.071-.035c-.01-.004-.019-.001-.024.005l-.004.01-.017.428.005.02.01.013.104.074.015.004.012-.004.104-.074.012-.016.004-.017-.017-.427c-.002-.01-.009-.017-.017-.018m.265-.113-.013.002-.185.093-.01.01-.003.011.018.43.005.012.008.007.201.093c.012.004.023 0 .029-.008l.004-.014-.034-.614c-.003-.012-.01-.02-.02-.022m-.715.002a.023.023 0 0 0-.027.006l-.006.014-.034.614c0 .012.007.02.017.024l.015-.002.201-.093.01-.008.004-.011.017-.43-.003-.012-.01-.01z"/><path fill="currentColor" d="M3 6.5a3.5 3.5 0 1 1 7 0V8h4V6.5a3.5 3.5 0 1 1 3.5 3.5H16v4h1.5a3.5 3.5 0 1 1-3.5 3.5V16h-4v1.5A3.5 3.5 0 1 1 6.5 14H8v-4H6.5A3.5 3.5 0 0 1 3 6.5M8 8V6.5A1.5 1.5 0 1 0 6.5 8zm2 2v4h4v-4zm-2 6H6.5A1.5 1.5 0 1 0 8 17.5zm8 0v1.5a1.5 1.5 0 1 0 1.5-1.5zm0-8h1.5A1.5 1.5 0 1 0 16 6.5z"/></g></svg>