<svg xmlns="http://www.w3.org/2000/svg" width="24" height="24"><g fill="none" fill-rule="evenodd"><path d="M24 0v24H0V0zM12.594 23.258l-.012.002-.071.035-.02.004-.014-.004-.071-.036c-.01-.003-.019 0-.024.006l-.004.01-.017.428.005.02.01.013.104.074.015.004.012-.004.104-.074.012-.016.004-.017-.017-.427c-.002-.01-.009-.017-.016-.018m.264-.113-.014.002-.184.093-.01.01-.003.011.018.43.005.012.008.008.201.092c.012.004.023 0 .029-.008l.004-.014-.034-.614c-.003-.012-.01-.02-.02-.022m-.715.002a.023.023 0 0 0-.027.006l-.006.014-.034.614c0 .012.007.02.017.024l.015-.002.201-.093.01-.008.003-.011.018-.43-.003-.012-.01-.01z"/><path fill="currentColor" d="M10.94 2.454a1.5 1.5 0 0 1 2.12 0l2.83 2.828a1.5 1.5 0 0 1 0 2.122l-2.83 2.828a1.5 1.5 0 0 1-2.12 0L8.11 7.404a1.5 1.5 0 0 1 0-2.122zM12 4.222 9.879 6.343 12 8.464l2.121-2.12zm4.596 3.889a1.5 1.5 0 0 1 2.122 0l2.828 2.828a1.5 1.5 0 0 1 0 2.122l-2.828 2.828a1.5 1.5 0 0 1-2.122 0l-2.828-2.828a1.5 1.5 0 0 1 0-2.122zm1.06 1.768-2.12 2.12 2.12 2.122L19.779 12zM5.283 8.11a1.5 1.5 0 0 1 2.122 0l2.828 2.828a1.5 1.5 0 0 1 0 2.122l-2.828 2.828a1.5 1.5 0 0 1-2.122 0l-2.828-2.828a1.5 1.5 0 0 1 0-2.122zm1.061 1.768-2.121 2.12 2.121 2.122L8.464 12zm4.596 3.889a1.5 1.5 0 0 1 2.122 0l2.828 2.828a1.5 1.5 0 0 1 0 2.121l-2.828 2.829a1.5 1.5 0 0 1-2.122 0l-2.828-2.829a1.5 1.5 0 0 1 0-2.12zM12 15.535l-2.121 2.122L12 19.778l2.121-2.121z"/></g></svg>