<svg xmlns="http://www.w3.org/2000/svg" width="24" height="24"><g fill="none"><path d="M24 0v24H0V0zM12.593 23.258l-.011.002-.071.035-.02.004-.014-.004-.071-.035c-.01-.004-.019-.001-.024.005l-.004.01-.017.428.005.02.01.013.104.074.015.004.012-.004.104-.074.012-.016.004-.017-.017-.427c-.002-.01-.009-.017-.017-.018m.265-.113-.013.002-.185.093-.01.01-.003.011.018.43.005.012.008.007.201.093c.012.004.023 0 .029-.008l.004-.014-.034-.614c-.003-.012-.01-.02-.02-.022m-.715.002a.023.023 0 0 0-.027.006l-.006.014-.034.614c0 .012.007.02.017.024l.015-.002.201-.093.01-.008.004-.011.017-.43-.003-.012-.01-.01z"/><path fill="currentColor" d="M12 2c5.523 0 10 4.477 10 10s-4.477 10-10 10S2 17.523 2 12 6.477 2 12 2m0 2a8 8 0 1 0 0 16 8 8 0 0 0 0-16m4.95 3.05c.395.396.397.98.336 1.51l-.037.283c-.16 1.12-.605 2.775-1.242 4.156-.31.672-.7 1.351-1.179 1.83-.478.477-1.156.868-1.83 1.178-1.38.637-3.035 1.082-4.155 1.242l-.282.037c-.53.06-1.118.056-1.51-.336-.357-.357-.393-.875-.351-1.365l.032-.29.019-.138c.16-1.12.605-2.775 1.242-4.156.31-.672.7-1.351 1.179-1.83.478-.478 1.157-.868 1.83-1.178 1.38-.637 3.035-1.082 4.155-1.242l.282-.037c.53-.06 1.115-.06 1.51.336Zm-1.712 1.712c-.908.155-2.323.55-3.4 1.047-.597.276-1.023.548-1.252.777-.23.229-.501.655-.777 1.252-.496 1.077-.892 2.492-1.047 3.4.908-.155 2.323-.55 3.4-1.047.597-.276 1.023-.548 1.252-.777.23-.229.502-.655.777-1.252.496-1.077.893-2.492 1.047-3.4M12 11a1 1 0 1 1 0 2 1 1 0 0 1 0-2"/></g></svg>