<svg xmlns="http://www.w3.org/2000/svg" width="24" height="24"><g fill="none" fill-rule="evenodd"><path d="M24 0v24H0V0zM12.594 23.258l-.012.002-.071.035-.02.004-.014-.004-.071-.036c-.01-.003-.019 0-.024.006l-.004.01-.017.428.005.02.01.013.104.074.015.004.012-.004.104-.074.012-.016.004-.017-.017-.427c-.002-.01-.009-.017-.016-.018m.264-.113-.014.002-.184.093-.01.01-.003.011.018.43.005.012.008.008.201.092c.012.004.023 0 .029-.008l.004-.014-.034-.614c-.003-.012-.01-.02-.02-.022m-.715.002a.023.023 0 0 0-.027.006l-.006.014-.034.614c0 .012.007.02.017.024l.015-.002.201-.093.01-.008.003-.011.018-.43-.003-.012-.01-.01z"/><path fill="currentColor" d="M16 2a1 1 0 0 1 1 1h2a2 2 0 0 1 2 2v15a2 2 0 0 1-2 2H5a2 2 0 0 1-2-2V5a2 2 0 0 1 2-2h2a1 1 0 0 1 2 0h6a1 1 0 0 1 1-1M7 5a1 1 0 0 0 2 0h6a1 1 0 1 0 2 0h2v15H5V5zm5 4a1 1 0 1 0 0 2 1 1 0 0 0 0-2m-3 1a3 3 0 1 1 6 0 3 3 0 0 1-6 0m-.051 7.316c.152-.457.44-.758.902-.968C10.353 16.12 11.065 16 12 16s1.647.12 2.149.348c.463.21.75.51.902.968a1 1 0 0 0 1.898-.632c-.348-1.043-1.06-1.742-1.973-2.157C14.103 14.13 13.065 14 12 14s-2.103.13-2.976.527c-.912.415-1.625 1.114-1.973 2.157a1 1 0 0 0 1.898.632"/></g></svg>