<svg xmlns="http://www.w3.org/2000/svg" width="24" height="24"><g fill="none" fill-rule="evenodd"><path d="M24 0v24H0V0zM12.594 23.258l-.012.002-.071.035-.02.004-.014-.004-.071-.036c-.01-.003-.019 0-.024.006l-.004.01-.017.428.005.02.01.013.104.074.015.004.012-.004.104-.074.012-.016.004-.017-.017-.427c-.002-.01-.009-.017-.016-.018m.264-.113-.014.002-.184.093-.01.01-.003.011.018.43.005.012.008.008.201.092c.012.004.023 0 .029-.008l.004-.014-.034-.614c-.003-.012-.01-.02-.02-.022m-.715.002a.023.023 0 0 0-.027.006l-.006.014-.034.614c0 .012.007.02.017.024l.015-.002.201-.093.01-.008.003-.011.018-.43-.003-.012-.01-.01z"/><path fill="currentColor" d="M6 7a5 5 0 1 1 10 0A5 5 0 0 1 6 7m5-3a3 3 0 1 0 0 6 3 3 0 0 0 0-6m0 9c2.396 0 4.575.694 6.178 1.672.8.488 1.484 1.064 1.978 1.69.486.615.844 1.351.844 2.138 0 .845-.411 1.511-1.003 1.986-.56.45-1.299.748-2.084.956-1.578.417-3.684.558-5.913.558s-4.335-.14-5.913-.558c-.785-.208-1.524-.506-2.084-.956C2.41 20.01 2 19.345 2 18.5c0-.787.358-1.523.844-2.139.494-.625 1.177-1.2 1.978-1.69C6.425 13.695 8.605 13 11 13m0 2c-2.023 0-3.843.59-5.136 1.379-.647.394-1.135.822-1.45 1.222-.324.41-.414.72-.414.899 0 .122.037.251.255.426.249.2.682.407 1.344.582C6.917 19.858 8.811 20 11 20c2.19 0 4.083-.143 5.4-.492.663-.175 1.096-.382 1.345-.582.218-.175.255-.304.255-.426 0-.18-.09-.489-.413-.899-.316-.4-.804-.828-1.451-1.222C14.843 15.589 13.023 15 11 15m10-2a1 1 0 0 1 .117 1.993L21 15h-1a1 1 0 0 1-.117-1.993L20 13zm-3-2a1 1 0 0 1 1-1h2a1 1 0 1 1 0 2h-2a1 1 0 0 1-1-1m0-4a1 1 0 1 0 0 2h3a1 1 0 1 0 0-2z"/></g></svg>