<svg xmlns="http://www.w3.org/2000/svg" width="24" height="24"><g fill="none"><path d="M24 0v24H0V0zM12.594 23.258l-.012.002-.071.035-.02.004-.014-.004-.071-.036c-.01-.003-.019 0-.024.006l-.004.01-.017.428.005.02.01.013.104.074.015.004.012-.004.104-.074.012-.016.004-.017-.017-.427c-.002-.01-.009-.017-.016-.018m.264-.113-.014.002-.184.093-.01.01-.003.011.018.43.005.012.008.008.201.092c.012.004.023 0 .029-.008l.004-.014-.034-.614c-.003-.012-.01-.02-.02-.022m-.715.002a.023.023 0 0 0-.027.006l-.006.014-.034.614c0 .012.007.02.017.024l.015-.002.201-.093.01-.008.003-.011.018-.43-.003-.012-.01-.01z"/><path fill="currentColor" d="M12 2c.632 0 1.204.201 1.593.73.235.32.366.702.399 1.081L14 4a2 2 0 0 0 2.38 1.964l.181-.043A1.124 1.124 0 0 1 18 7a2 2 0 0 0 1.85 1.995L20 9c.696 0 1.725.412 1.889 1.505.073.488.111.987.111 1.495 0 5.523-4.477 10-10 10S2 17.523 2 12 6.477 2 12 2m0 2a8 8 0 1 0 7.938 7 4.002 4.002 0 0 1-3.812-3.002C13.9 8.067 12 6.228 12 4M9.5 14a1.5 1.5 0 1 1 0 3 1.5 1.5 0 0 1 0-3m6-2a1.5 1.5 0 1 1 0 3 1.5 1.5 0 0 1 0-3m-6-4a1.5 1.5 0 1 1 0 3 1.5 1.5 0 0 1 0-3"/></g></svg>