<svg xmlns="http://www.w3.org/2000/svg" width="24" height="24" viewBox="0 0 24 24"><g fill="none" fill-rule="evenodd"><path d="M24,0 L24,24 L0,24 L0,0 L24,0 Z M12.5935,23.2578 L12.5819,23.2595 L12.5109,23.295 L12.4919,23.2987 L12.4767,23.295 L12.4057,23.2595 C12.3958,23.2564 12.387,23.259 12.3821,23.2649 L12.378,23.2758 L12.3609,23.7031 L12.3659,23.7235 L12.3769,23.7357 L12.4805,23.8097 L12.4953,23.8136 L12.5071,23.8097 L12.6107,23.7357 L12.6233,23.7197 L12.6267,23.7031 L12.6096,23.2758 C12.6076,23.2657 12.601,23.2593 12.5935,23.2578 Z M12.8584,23.1453 L12.8445,23.1473 L12.6598,23.2397 L12.6499,23.2499 L12.6472,23.2611 L12.6651,23.6906 L12.6699,23.7034 L12.6784,23.7105 L12.8793,23.8032 C12.8914,23.8069 12.9022,23.803 12.9078,23.7952 L12.9118,23.7812 L12.8777,23.1665 C12.8753,23.1546 12.8674,23.147 12.8584,23.1453 Z M12.143,23.1473 C12.1332,23.1424 12.1222,23.1453 12.1156,23.1526 L12.1099,23.1665 L12.0758,23.7812 C12.0751,23.7927 12.0828,23.8019 12.0926,23.8046 L12.1083,23.8032 L12.3092,23.7105 L12.3186,23.7024 L12.3225,23.6906 L12.3404,23.2611 L12.3372,23.2485 L12.3278,23.2397 L12.143,23.1473 Z"/><path fill="currentColor" d="M10.2071,3.79289 C10.5976,4.18342 10.5976,4.81658 10.2071,5.20711 L7.41421,8 L16,8 C17.6569,8 19,9.34315 19,11 L19,18 C19,18.5523 18.5523,19 18,19 C17.4477,19 17,18.5523 17,18 L17,11 C17,10.4477 16.5523,10 16,10 L7.41421,10 L10.2071,12.7929 C10.5976,13.1834 10.5976,13.8166 10.2071,14.2071 C9.81658,14.5976 9.18342,14.5976 8.79289,14.2071 L4.29289,9.70711 C3.90237,9.31658 3.90237,8.68342 4.29289,8.29289 L8.79289,3.79289 C9.18342,3.40237 9.81658,3.40237 10.2071,3.79289 Z"/></g></svg>