<svg xmlns="http://www.w3.org/2000/svg" width="24" height="24"><g fill="none" fill-rule="evenodd"><path d="M24 0v24H0V0zM12.594 23.258l-.012.002-.071.035-.02.004-.014-.004-.071-.036c-.01-.003-.019 0-.024.006l-.004.01-.017.428.005.02.01.013.104.074.015.004.012-.004.104-.074.012-.016.004-.017-.017-.427c-.002-.01-.009-.017-.016-.018m.264-.113-.014.002-.184.093-.01.01-.003.011.018.43.005.012.008.008.201.092c.012.004.023 0 .029-.008l.004-.014-.034-.614c-.003-.012-.01-.02-.02-.022m-.715.002a.023.023 0 0 0-.027.006l-.006.014-.034.614c0 .012.007.02.017.024l.015-.002.201-.093.01-.008.003-.011.018-.43-.003-.012-.01-.01z"/><path fill="currentColor" d="M11.5 2.134a1 1 0 0 1 1 0l2 1.155a1 1 0 0 1-1 1.732l-.5-.289V6a1 1 0 0 1-2 0V4.732l-.5.289a1 1 0 0 1-1-1.732zM7.072 5.845a1 1 0 0 1-.366 1.366l-.5.289 1.098.634a1 1 0 1 1-1 1.732l-1.098-.634v.577a1 1 0 0 1-2 0V7.5a1 1 0 0 1 .5-.865l2-1.155a1 1 0 0 1 1.366.366Zm9.856 0a1 1 0 0 1 1.366-.366l2 1.155a1 1 0 0 1 .5.866v2.31a1 1 0 0 1-2 0v-.578l-1.098.634a1 1 0 0 1-1-1.732l1.098-.634-.5-.289a1 1 0 0 1-.366-1.366M8.536 10a1 1 0 0 1 1.366-.366L12 10.845l2.098-1.211a1 1 0 0 1 1 1.732L13 12.577V15a1 1 0 1 1-2 0v-2.423l-2.098-1.211A1 1 0 0 1 8.536 10m-4.33 3.19a1 1 0 0 1 1 1v.578l1.098-.634a1 1 0 0 1 1 1.732l-1.098.634.5.289a1 1 0 1 1-1 1.732l-2-1.155a1 1 0 0 1-.5-.866v-2.31a1 1 0 0 1 1-1m15.588 0a1 1 0 0 1 1 1v2.31a1 1 0 0 1-.5.866l-2 1.155a1 1 0 1 1-1-1.732l.5-.289-1.098-.634a1 1 0 1 1 1-1.732l1.098.634v-.577a1 1 0 0 1 1-1ZM12 17a1 1 0 0 1 1 1v1.268l.5-.289a1 1 0 1 1 1 1.732l-2 1.155a1 1 0 0 1-1 0l-2-1.155a1 1 0 1 1 1-1.732l.5.289V18a1 1 0 0 1 1-1"/></g></svg>