<svg xmlns="http://www.w3.org/2000/svg" width="24" height="24"><g fill="none"><path d="M24 0v24H0V0zM12.593 23.258l-.011.002-.071.035-.02.004-.014-.004-.071-.035c-.01-.004-.019-.001-.024.005l-.004.01-.017.428.005.02.01.013.104.074.015.004.012-.004.104-.074.012-.016.004-.017-.017-.427c-.002-.01-.009-.017-.017-.018m.265-.113-.013.002-.185.093-.01.01-.003.011.018.43.005.012.008.007.201.093c.012.004.023 0 .029-.008l.004-.014-.034-.614c-.003-.012-.01-.02-.02-.022m-.715.002a.023.023 0 0 0-.027.006l-.006.014-.034.614c0 .012.007.02.017.024l.015-.002.201-.093.01-.008.004-.011.017-.43-.003-.012-.01-.01z"/><path fill="currentColor" d="M16.122 5.021A4 4 0 0 0 12.646 3l-.846.005A3.998 3.998 0 0 0 8 6.998V11H6a1 1 0 1 0 0 2h2v3c-.018.632-.163 1.251-.659 1.685-.22.204-.524.288-.788.42-1.069.535-.47 2.155.69 1.865.291-.082.56-.231.861-.28 1.34-.307 2.643-.036 3.927.368 1.685.498 3.788.65 5.416-.164a1 1 0 1 0-.894-1.788c-1.38.69-3.203.27-4.584-.164a9.842 9.842 0 0 0-2.218-.383A4.808 4.808 0 0 0 10 16v-3h3a1 1 0 1 0 0-2h-3V6.998C10.04 5.91 10.88 5 12 5l.807.006a2 2 0 0 1 1.628 1.1l.729 1.443a1 1 0 0 0 1.73-.996z"/></g></svg>