<svg xmlns="http://www.w3.org/2000/svg" width="24" height="24"><g fill="none"><path d="M24 0v24H0V0zM12.593 23.258l-.011.002-.071.035-.02.004-.014-.004-.071-.035c-.01-.004-.019-.001-.024.005l-.004.01-.017.428.005.02.01.013.104.074.015.004.012-.004.104-.074.012-.016.004-.017-.017-.427c-.002-.01-.009-.017-.017-.018m.265-.113-.013.002-.185.093-.01.01-.003.011.018.43.005.012.008.007.201.093c.012.004.023 0 .029-.008l.004-.014-.034-.614c-.003-.012-.01-.02-.02-.022m-.715.002a.023.023 0 0 0-.027.006l-.006.014-.034.614c0 .012.007.02.017.024l.015-.002.201-.093.01-.008.004-.011.017-.43-.003-.012-.01-.01z"/><path fill="currentColor" d="M12 2c5.523 0 10 4.477 10 10s-4.477 10-10 10S2 17.523 2 12 6.477 2 12 2m0 2a8 8 0 1 0 0 16 8 8 0 0 0 0-16m-1 2a1 1 0 0 1 .993.883L12 7v1.132l1.053-.526a1 1 0 0 1 .996 1.73l-.102.058-1.947.974v.764l1.053-.526a1 1 0 0 1 .996 1.73l-.102.058-1.947.974v2.377a5.93 5.93 0 0 0 .754-.363c.766-.438 1.468-1.061 1.852-1.83a1 1 0 1 1 1.788.895c-.615 1.232-1.664 2.11-2.648 2.671-.96.55-2.01.882-2.746.882a1 1 0 0 1-.993-.883L10 17v-2.632l-1.053.526a1 1 0 0 1-.996-1.73l.102-.058L10 12.132v-.764l-1.053.526a1 1 0 0 1-.996-1.73l.102-.058L10 9.132V7a1 1 0 0 1 1-1"/></g></svg>