<svg xmlns="http://www.w3.org/2000/svg" width="24" height="24"><g fill="none" fill-rule="evenodd"><path d="M24 0v24H0V0zM12.594 23.258l-.012.002-.071.035-.02.004-.014-.004-.071-.036c-.01-.003-.019 0-.024.006l-.004.01-.017.428.005.02.01.013.104.074.015.004.012-.004.104-.074.012-.016.004-.017-.017-.427c-.002-.01-.009-.017-.016-.018m.264-.113-.014.002-.184.093-.01.01-.003.011.018.43.005.012.008.008.201.092c.012.004.023 0 .029-.008l.004-.014-.034-.614c-.003-.012-.01-.02-.02-.022m-.715.002a.023.023 0 0 0-.027.006l-.006.014-.034.614c0 .012.007.02.017.024l.015-.002.201-.093.01-.008.003-.011.018-.43-.003-.012-.01-.01z"/><path fill="currentColor" d="M8.5 3a1 1 0 0 1 .916.6L11.78 9H15V4a1 1 0 1 1 2 0v5h2a1 1 0 1 1 0 2h-2v2h2a1 1 0 1 1 0 2h-2v5a1 1 0 0 1-1 1h-.5a1 1 0 0 1-.916-.6L12.22 15H9v5a1 1 0 1 1-2 0v-5H5a1 1 0 1 1 0-2h2v-2H5a1 1 0 1 1 0-2h2V4a1 1 0 0 1 1-1zM15 15h-.596L15 16.362zm-4.529-4H9v2h2.346zM15 11h-2.346l.875 2H15zM9 7.638V9h.596z"/></g></svg>