<svg xmlns="http://www.w3.org/2000/svg" width="24" height="24"><g fill="none"><path d="M24 0v24H0V0zM12.593 23.258l-.011.002-.071.035-.02.004-.014-.004-.071-.035c-.01-.004-.019-.001-.024.005l-.004.01-.017.428.005.02.01.013.104.074.015.004.012-.004.104-.074.012-.016.004-.017-.017-.427c-.002-.01-.009-.017-.017-.018m.265-.113-.013.002-.185.093-.01.01-.003.011.018.43.005.012.008.007.201.093c.012.004.023 0 .029-.008l.004-.014-.034-.614c-.003-.012-.01-.02-.02-.022m-.715.002a.023.023 0 0 0-.027.006l-.006.014-.034.614c0 .012.007.02.017.024l.015-.002.201-.093.01-.008.004-.011.017-.43-.003-.012-.01-.01z"/><path fill="currentColor" d="M12 2c5.523 0 10 4.477 10 10s-4.477 10-10 10S2 17.523 2 12 6.477 2 12 2m0 2a8 8 0 1 0 0 16 8 8 0 0 0 0-16m3.03 4.757a1 1 0 0 1 1.962.37l-.022.116-.19.757H17a1 1 0 0 1 .117 1.993L17 12h-.72l-.25 1H17a1 1 0 0 1 .117 1.993L17 15h-1.47l-.477 1.91c-.256 1.024-1.645 1.118-2.063.2l-.047-.12L12 14.162l-.943 2.828c-.334 1.003-1.726.99-2.073.043l-.037-.124L8.469 15H7a1 1 0 0 1-.117-1.993L7 13h.97l-.25-1H7a1 1 0 0 1-.117-1.993L7 10h.22l-.19-.757a1 1 0 0 1 1.905-.597l.035.111 1.167 4.669.914-2.742a1 1 0 0 1 1.855-.108l.043.108.914 2.742z"/></g></svg>