<svg xmlns="http://www.w3.org/2000/svg" width="24" height="24"><g fill="none"><path d="M24 0v24H0V0zM12.594 23.258l-.012.002-.071.035-.02.004-.014-.004-.071-.036c-.01-.003-.019 0-.024.006l-.004.01-.017.428.005.02.01.013.104.074.015.004.012-.004.104-.074.012-.016.004-.017-.017-.427c-.002-.01-.009-.017-.016-.018m.264-.113-.014.002-.184.093-.01.01-.003.011.018.43.005.012.008.008.201.092c.012.004.023 0 .029-.008l.004-.014-.034-.614c-.003-.012-.01-.02-.02-.022m-.715.002a.023.023 0 0 0-.027.006l-.006.014-.034.614c0 .012.007.02.017.024l.015-.002.201-.093.01-.008.003-.011.018-.43-.003-.012-.01-.01z"/><path fill="#122446" d="M19 3H5a2 2 0 0 0-2 2v14a2 2 0 0 0 2 2h3a1 1 0 0 0 .77-.37A1 1 0 0 0 9 19.8s-.27-1.38-.53-3-.41-2.6-.47-3.37a9.64 9.64 0 0 0 2.4-4.14c.396-1.396.598-2.84.6-4.29h2c0 1.91.4 5.88 3 8.43-.12 2.1-1 6.33-1 6.37a1 1 0 0 0 .21.83A1 1 0 0 0 16 21h3a2 2 0 0 0 2-2V5a2 2 0 0 0-2-2M5 19v-5h1c.07.81.21 1.86.42 3.16.11.68.23 1.32.32 1.84zm1.59-7H5V5h4a13.79 13.79 0 0 1-.52 3.71A7.45 7.45 0 0 1 6.59 12M19 19h-1.79c.24-1.32.6-3.45.74-5H19zm0-7h-1.58C15.34 10 15 6.62 15 5h4z"/></g></svg>