<svg xmlns="http://www.w3.org/2000/svg" width="24" height="24"><g fill="none"><path d="M24 0v24H0V0zM12.594 23.258l-.012.002-.071.035-.02.004-.014-.004-.071-.036c-.01-.003-.019 0-.024.006l-.004.01-.017.428.005.02.01.013.104.074.015.004.012-.004.104-.074.012-.016.004-.017-.017-.427c-.002-.01-.009-.017-.016-.018m.264-.113-.014.002-.184.093-.01.01-.003.011.018.43.005.012.008.008.201.092c.012.004.023 0 .029-.008l.004-.014-.034-.614c-.003-.012-.01-.02-.02-.022m-.715.002a.023.023 0 0 0-.027.006l-.006.014-.034.614c0 .012.007.02.017.024l.015-.002.201-.093.01-.008.003-.011.018-.43-.003-.012-.01-.01z"/><path fill="currentColor" d="M9 7.84h1a1 1 0 0 0-.891-.993zm6-.007-.114-.994a1 1 0 0 0-.886.994zM9 19.84l-.109.994A1 1 0 0 0 10 19.84zm6-.008h-1a1 1 0 0 0 1.114.993zM3 6v12h2V6zm16 0v12h2V6zM5 6c0 .19-.087.288-.082.282a.94.94 0 0 1 .212-.15c.294-.171.782-.362 1.464-.539C7.944 5.243 9.857 5 12 5V3c-2.275 0-4.362.257-5.908.657-.765.198-1.449.445-1.964.743a2.809 2.809 0 0 0-.721.572A1.57 1.57 0 0 0 3 6zm7-1c2.143 0 4.056.243 5.406.593.682.177 1.17.368 1.464.538a.941.941 0 0 1 .212.15C19.087 6.289 19 6.19 19 6h2c0-.44-.2-.788-.407-1.028a2.81 2.81 0 0 0-.72-.572c-.516-.298-1.2-.545-1.965-.743C16.362 3.257 14.275 3 12 3zM9.109 6.847c-1.418-.155-2.581-.413-3.363-.7-.397-.146-.643-.281-.77-.379C4.818 5.648 5 5.716 5 6H3c0 .664.441 1.113.762 1.358.352.269.806.486 1.293.665.986.363 2.322.646 3.836.812zM19 6c0-.315.208-.392.032-.26-.13.097-.381.233-.78.38-.785.291-1.95.557-3.366.72l.228 1.986c1.516-.173 2.85-.466 3.833-.83.485-.18.934-.395 1.283-.655.304-.227.77-.67.77-1.341zM8 7.84v8.32h2V7.84zm1.109 9.313A26.74 26.74 0 0 1 12 17v-2c-1.097 0-2.146.06-3.109.165zM14 7.833v8.326h2V7.833zM12 17c1.025 0 2.002.056 2.891.153l.218-1.988A28.736 28.736 0 0 0 12 15zm-4-.84v3.68h2v-3.68zm1.109 2.687c-1.418-.155-2.581-.413-3.363-.7-.397-.146-.643-.281-.77-.379-.158-.12.024-.052.024.232H3c0 .664.441 1.113.762 1.358.352.269.806.486 1.293.665.986.363 2.322.646 3.836.812zM14 16.159v3.674h2v-3.674zM19 18c0-.315.208-.392.032-.26-.13.097-.381.233-.78.38-.785.291-1.95.557-3.366.72l.228 1.986c1.516-.173 2.85-.466 3.833-.83.485-.18.934-.395 1.283-.655.304-.227.77-.67.77-1.341z"/></g></svg>