<svg xmlns="http://www.w3.org/2000/svg" width="24" height="24"><g fill="none"><path d="M24 0v24H0V0zM12.594 23.258l-.012.002-.071.035-.02.004-.014-.004-.071-.036c-.01-.003-.019 0-.024.006l-.004.01-.017.428.005.02.01.013.104.074.015.004.012-.004.104-.074.012-.016.004-.017-.017-.427c-.002-.01-.009-.017-.016-.018m.264-.113-.014.002-.184.093-.01.01-.003.011.018.43.005.012.008.008.201.092c.012.004.023 0 .029-.008l.004-.014-.034-.614c-.003-.012-.01-.02-.02-.022m-.715.002a.023.023 0 0 0-.027.006l-.006.014-.034.614c0 .012.007.02.017.024l.015-.002.201-.093.01-.008.003-.011.018-.43-.003-.012-.01-.01z"/><path fill="currentColor" d="M9 12a1 1 0 0 1 .117 1.993L9 14H4v1a1 1 0 0 0 .883.993L5 16h1.5a1.5 1.5 0 0 1 1.493 1.356L8 17.5v.5l2.133-1.6a2 2 0 0 1 1.016-.391l.184-.009H18a1 1 0 0 0 .993-.883L19 15v-3h2v3a3 3 0 0 1-2.824 2.995L18 18h-6.667L8 20.5c-.791.593-1.906.075-1.994-.879L6 19.5V18H5a3 3 0 0 1-2.995-2.824L2 15v-2a1 1 0 0 1 .883-.993L3 12zm6 0a1 1 0 0 1 .117 1.993L15 14h-2a1 1 0 0 1-.117-1.993L13 12zM7 8a1 1 0 0 1 .117 1.993L7 10H5a1 1 0 0 1-.117-1.993L5 8zm12 0 .117.007a1 1 0 0 1 0 1.986L19 10h-8a1 1 0 0 1-.117-1.993L11 8zm-1-5a3 3 0 0 1 2.995 2.824L21 6v2h-2V6a1 1 0 0 0-.883-.993L18 5H5a1 1 0 0 0-.993.883L4 6v2H2V6a3 3 0 0 1 2.824-2.995L5 3z"/></g></svg>