<svg xmlns="http://www.w3.org/2000/svg" width="24" height="24"><g fill="none"><path d="M24 0v24H0V0zM12.593 23.258l-.011.002-.071.035-.02.004-.014-.004-.071-.035c-.01-.004-.019-.001-.024.005l-.004.01-.017.428.005.02.01.013.104.074.015.004.012-.004.104-.074.012-.016.004-.017-.017-.427c-.002-.01-.009-.017-.017-.018m.265-.113-.013.002-.185.093-.01.01-.003.011.018.43.005.012.008.007.201.093c.012.004.023 0 .029-.008l.004-.014-.034-.614c-.003-.012-.01-.02-.02-.022m-.715.002a.023.023 0 0 0-.027.006l-.006.014-.034.614c0 .012.007.02.017.024l.015-.002.201-.093.01-.008.004-.011.017-.43-.003-.012-.01-.01z"/><path fill="currentColor" d="M12 2c5.523 0 10 4.477 10 10a9.972 9.972 0 0 1-2.938 7.08c-.4.4-1.05.392-1.44-.013l-.842-.873a1 1 0 1 1 1.44-1.388l.098.102a8 8 0 1 0-12.636 0l.098-.102a1 1 0 1 1 1.44 1.388l-.842.873a1.01 1.01 0 0 1-1.44.013A9.972 9.972 0 0 1 2 12C2 6.477 6.477 2 12 2m0 4a1 1 0 0 1 1 1v5.268A2 2 0 0 1 12 16a2 2 0 0 1-1-3.732V7a1 1 0 0 1 1-1"/></g></svg>