<svg xmlns="http://www.w3.org/2000/svg" width="24" height="24"><g fill="none" fill-rule="evenodd"><path d="M24 0v24H0V0zM12.593 23.258l-.011.002-.071.035-.02.004-.014-.004-.071-.035c-.01-.004-.019-.001-.024.005l-.004.01-.017.428.005.02.01.013.104.074.015.004.012-.004.104-.074.012-.016.004-.017-.017-.427c-.002-.01-.009-.017-.017-.018m.265-.113-.013.002-.185.093-.01.01-.003.011.018.43.005.012.008.007.201.093c.012.004.023 0 .029-.008l.004-.014-.034-.614c-.003-.012-.01-.02-.02-.022m-.715.002a.023.023 0 0 0-.027.006l-.006.014-.034.614c0 .012.007.02.017.024l.015-.002.201-.093.01-.008.004-.011.017-.43-.003-.012-.01-.01z"/><path fill="currentColor" d="M12 2c5.523 0 10 4.477 10 10s-4.477 10-10 10S2 17.523 2 12 6.477 2 12 2m1 2.062V5a1 1 0 0 1-1.993.117L11 5v-.938a8.005 8.005 0 0 0-6.902 6.68L4.062 11H5a1 1 0 0 1 .117 1.993L5 13h-.938a8.001 8.001 0 0 0 15.84.25l.036-.25H19a1 1 0 0 1-.117-1.993L19 11h.938a7.976 7.976 0 0 0-2.241-4.617l-2.424 4.759-.155.294-.31.61c-.37.72-.772 1.454-1.323 2.005-.972.971-2.588 1.089-3.606.07-1.019-1.018-.901-2.634.07-3.606.472-.472 1.078-.835 1.696-1.162l.919-.471.849-.444 4.203-2.135A7.976 7.976 0 0 0 13 4.062m.162 6.776-.21.112-.216.113c-.402.209-.822.426-1.172.698l-.201.17-.073.084c-.193.26-.135.554.003.692.138.138.432.196.692.003l.086-.074.168-.2c.217-.28.4-.605.571-.93l.127-.242c.075-.146.15-.29.225-.426"/></g></svg>