<svg xmlns="http://www.w3.org/2000/svg" width="24" height="24"><g fill="none"><path d="M24 0v24H0V0zM12.594 23.258l-.012.002-.071.035-.02.004-.014-.004-.071-.036c-.01-.003-.019 0-.024.006l-.004.01-.017.428.005.02.01.013.104.074.015.004.012-.004.104-.074.012-.016.004-.017-.017-.427c-.002-.01-.009-.017-.016-.018m.264-.113-.014.002-.184.093-.01.01-.003.011.018.43.005.012.008.008.201.092c.012.004.023 0 .029-.008l.004-.014-.034-.614c-.003-.012-.01-.02-.02-.022m-.715.002a.023.023 0 0 0-.027.006l-.006.014-.034.614c0 .012.007.02.017.024l.015-.002.201-.093.01-.008.003-.011.018-.43-.003-.012-.01-.01z"/><path fill="currentColor" d="M4 3a1 1 0 0 1 1 1c0 .996.427 2.063 1.086 3.077a6.005 6.005 0 0 1 1.207-1.784 1 1 0 0 1 1.414 1.414c-.659.66-.965 1.525-1.146 2.187.38.385.75.713 1.073.967A6.969 6.969 0 0 1 12 9c1.22 0 2.367.312 3.366.86.323-.253.694-.58 1.073-.966-.181-.662-.487-1.528-1.146-2.187a1 1 0 0 1 1.414-1.414 6.02 6.02 0 0 1 1.207 1.784C18.574 6.063 19 4.996 19 4a1 1 0 1 1 2 0c0 1.814-.895 3.526-1.887 4.85a14.518 14.518 0 0 1-2.11 2.254A6.977 6.977 0 0 1 19 16c0 1.792-.675 3.43-1.783 4.667a1 1 0 1 1-1.49-1.334 5 5 0 1 0-7.454 0 1 1 0 1 1-1.49 1.334A6.978 6.978 0 0 1 5 16c0-1.906.762-3.634 1.997-4.896a14.521 14.521 0 0 1-2.11-2.254C3.896 7.526 3 5.814 3 4a1 1 0 0 1 1-1"/></g></svg>