<svg xmlns="http://www.w3.org/2000/svg" width="24" height="24"><g fill="none" fill-rule="evenodd"><path d="M24 0v24H0V0zM12.594 23.258l-.012.002-.071.035-.02.004-.014-.004-.071-.036c-.01-.003-.019 0-.024.006l-.004.01-.017.428.005.02.01.013.104.074.015.004.012-.004.104-.074.012-.016.004-.017-.017-.427c-.002-.01-.009-.017-.016-.018m.264-.113-.014.002-.184.093-.01.01-.003.011.018.43.005.012.008.008.201.092c.012.004.023 0 .029-.008l.004-.014-.034-.614c-.003-.012-.01-.02-.02-.022m-.715.002a.023.023 0 0 0-.027.006l-.006.014-.034.614c0 .012.007.02.017.024l.015-.002.201-.093.01-.008.003-.011.018-.43-.003-.012-.01-.01z"/><path fill="currentColor" d="M6.802 2.02a1 1 0 0 1 .849.22l9.751 8.359a2 2 0 0 1 .235 2.799l-1.06 1.272.87.436a1 1 0 0 1 .134 1.708l-7 5a1 1 0 0 1-1.539-1.101l1.21-4.034c-2.363-.9-3.747-3.055-4.233-5.483A1 1 0 0 1 7.01 10c-.474-.703-.86-1.42-1.134-2.149-.649-1.73-.658-3.523.23-5.298a1 1 0 0 1 .696-.533m1.78 10.562c.653 1.279 1.705 2.156 3.114 2.437a1 1 0 0 1 .762 1.268l-.66 2.2 3.27-2.335c-.442-.221-.934-.406-1.047-.947a1 1 0 0 1 .21-.845l1.87-2.242L7.47 4.72c-.136.798-.032 1.6.279 2.429.49 1.309 1.504 2.69 2.958 4.144a1 1 0 0 1-1.023 1.656z"/></g></svg>