<svg xmlns="http://www.w3.org/2000/svg" width="24" height="24"><g fill="none" fill-rule="evenodd"><path d="M24 0v24H0V0zM12.594 23.258l-.012.002-.071.035-.02.004-.014-.004-.071-.036c-.01-.003-.019 0-.024.006l-.004.01-.017.428.005.02.01.013.104.074.015.004.012-.004.104-.074.012-.016.004-.017-.017-.427c-.002-.01-.009-.017-.016-.018m.264-.113-.014.002-.184.093-.01.01-.003.011.018.43.005.012.008.008.201.092c.012.004.023 0 .029-.008l.004-.014-.034-.614c-.003-.012-.01-.02-.02-.022m-.715.002a.023.023 0 0 0-.027.006l-.006.014-.034.614c0 .012.007.02.017.024l.015-.002.201-.093.01-.008.003-.011.018-.43-.003-.012-.01-.01z"/><path fill="currentColor" d="M15 4a1 1 0 1 0 0 2 1 1 0 0 0 0-2m-3 1a3 3 0 1 1 3.156 2.996l-2.32 5.304a.5.5 0 0 0 .457.7H15.6a3 3 0 0 1 2.82 1.975l1.385 3.809.643.322a1 1 0 1 1-.894 1.788l-1-.5a1 1 0 0 1-.493-.552l-1.521-4.184a1 1 0 0 0-.94-.658h-2.306c-1.802 0-3.012-1.85-2.29-3.502l1.033-2.362L10 9.118l-3.553 1.776a1 1 0 1 1-.894-1.788l3.553-1.777a2 2 0 0 1 1.788 0l1.945.973.386-.883A2.996 2.996 0 0 1 12 5m-6.182 7.913a4.5 4.5 0 1 0 7.692 4.632l1.78.91a6.5 6.5 0 1 1-11.108-6.694z"/></g></svg>