<svg xmlns="http://www.w3.org/2000/svg" width="24" height="24"><g fill="none" fill-rule="evenodd"><path d="M24 0v24H0V0zM12.594 23.258l-.012.002-.071.035-.02.004-.014-.004-.071-.036c-.01-.003-.019 0-.024.006l-.004.01-.017.428.005.02.01.013.104.074.015.004.012-.004.104-.074.012-.016.004-.017-.017-.427c-.002-.01-.009-.017-.016-.018m.264-.113-.014.002-.184.093-.01.01-.003.011.018.43.005.012.008.008.201.092c.012.004.023 0 .029-.008l.004-.014-.034-.614c-.003-.012-.01-.02-.02-.022m-.715.002a.023.023 0 0 0-.027.006l-.006.014-.034.614c0 .012.007.02.017.024l.015-.002.201-.093.01-.008.003-.011.018-.43-.003-.012-.01-.01z"/><path fill="currentColor" d="M9 4a1 1 0 0 1 1-1h4a1 1 0 1 1 0 2h-1v1.035c5.44.49 9.01 6.132 6.929 11.336A1 1 0 0 1 19 18H5a1 1 0 0 1-.928-.629C1.99 12.167 5.56 6.525 11 6.035V5h-1a1 1 0 0 1-1-1m2.77 4c-4.226 0-7.184 4.053-6.057 8h12.574c1.127-3.947-1.831-8-6.057-8zM3 20a1 1 0 0 1 1-1h16a1 1 0 1 1 0 2H4a1 1 0 0 1-1-1"/></g></svg>