<svg xmlns="http://www.w3.org/2000/svg" width="24" height="24"><g fill="none" fill-rule="evenodd"><path d="M24 0v24H0V0zM12.593 23.258l-.011.002-.071.035-.02.004-.014-.004-.071-.035c-.01-.004-.019-.001-.024.005l-.004.01-.017.428.005.02.01.013.104.074.015.004.012-.004.104-.074.012-.016.004-.017-.017-.427c-.002-.01-.009-.017-.017-.018m.265-.113-.013.002-.185.093-.01.01-.003.011.018.43.005.012.008.007.201.093c.012.004.023 0 .029-.008l.004-.014-.034-.614c-.003-.012-.01-.02-.02-.022m-.715.002a.023.023 0 0 0-.027.006l-.006.014-.034.614c0 .012.007.02.017.024l.015-.002.201-.093.01-.008.004-.011.017-.43-.003-.012-.01-.01z"/><path fill="currentColor" d="M11.5 4a4.502 4.502 0 0 1 4.344 3.32c.104.383.421.67.811.733A4.001 4.001 0 0 1 18 15.466a1 1 0 1 0 1.002 1.73 6.002 6.002 0 0 0-1.415-10.985A6.502 6.502 0 0 0 5 8.417a5 5 0 0 0 .124 9.22 1 1 0 0 0 .75-1.854 3.001 3.001 0 0 1 .394-5.692A1.01 1.01 0 0 0 7.027 9C6.74 6.38 8.851 4 11.5 4m.5 7a1 1 0 0 1 1 1v6.584l1.293-1.292a1 1 0 0 1 1.414 1.416l-2.824 2.819c-.253.252-.5.473-.883.473-.384 0-.63-.22-.883-.473l-2.824-2.82a1 1 0 0 1 1.414-1.415L11 18.584V12a1 1 0 0 1 1-1"/></g></svg>