<svg xmlns="http://www.w3.org/2000/svg" width="24" height="24"><g fill="none" fill-rule="evenodd"><path d="M24 0v24H0V0zM12.594 23.258l-.012.002-.071.035-.02.004-.014-.004-.071-.036c-.01-.003-.019 0-.024.006l-.004.01-.017.428.005.02.01.013.104.074.015.004.012-.004.104-.074.012-.016.004-.017-.017-.427c-.002-.01-.009-.017-.016-.018m.264-.113-.014.002-.184.093-.01.01-.003.011.018.43.005.012.008.008.201.092c.012.004.023 0 .029-.008l.004-.014-.034-.614c-.003-.012-.01-.02-.02-.022m-.715.002a.023.023 0 0 0-.027.006l-.006.014-.034.614c0 .012.007.02.017.024l.015-.002.201-.093.01-.008.003-.011.018-.43-.003-.012-.01-.01z"/><path fill="currentColor" d="m8.619 3.5 3.379 1.95 3.379-1.95c.478-.276 1.253-.276 1.732 0l4.242 2.45c.479.275.479.723 0 1L17.974 8.9l3.377 1.95c.479.275.479.723 0 1l-3.155 1.82V17a1 1 0 0 1-.5.866l-5.196 3a1 1 0 0 1-1 0l-5.196-3a1 1 0 0 1-.5-.866v-3.327l-3.16-1.824c-.478-.276-.478-.724 0-1L6.022 8.9 2.644 6.95c-.478-.276-.478-.724 0-1L6.887 3.5c.478-.276 1.253-.276 1.732 0m3.379 8.848-3.38 1.95c-.226.131-.518.2-.814.207v1.918L12 18.845l4.196-2.422v-1.918a1.747 1.747 0 0 1-.82-.207zM16.243 9.9l-2.51 1.45 2.51 1.449 2.51-1.45zm-8.49 0-2.511 1.45 2.51 1.449 2.511-1.45zM12 7.45 9.49 8.9 12 10.35l2.51-1.45zM7.753 5 5.242 6.45l2.51 1.449 2.511-1.45zm8.49 0-2.511 1.45 2.51 1.449 2.511-1.45z"/></g></svg>