<svg xmlns="http://www.w3.org/2000/svg" width="24" height="24"><g fill="none" fill-rule="evenodd"><path d="M24 0v24H0V0zM12.594 23.258l-.012.002-.071.035-.02.004-.014-.004-.071-.036c-.01-.003-.019 0-.024.006l-.004.01-.017.428.005.02.01.013.104.074.015.004.012-.004.104-.074.012-.016.004-.017-.017-.427c-.002-.01-.009-.017-.016-.018m.264-.113-.014.002-.184.093-.01.01-.003.011.018.43.005.012.008.008.201.092c.012.004.023 0 .029-.008l.004-.014-.034-.614c-.003-.012-.01-.02-.02-.022m-.715.002a.023.023 0 0 0-.027.006l-.006.014-.034.614c0 .012.007.02.017.024l.015-.002.201-.093.01-.008.003-.011.018-.43-.003-.012-.01-.01z"/><path fill="currentColor" d="M20.447 3.106a1 1 0 0 1 .447 1.341v.001c-.258.517-2.291 4.582-5.285 8.531-1.496 1.974-3.26 3.956-5.192 5.452C8.494 19.921 6.312 21 4 21a1 1 0 1 1 0-2c1.688 0 3.444-.796 5.192-2.15 1.74-1.348 3.383-3.178 4.824-5.08 2.88-3.798 4.846-7.73 5.09-8.217a1 1 0 0 1 1.341-.447"/></g></svg>