<svg xmlns="http://www.w3.org/2000/svg" width="24" height="24"><g fill="none"><path d="M24 0v24H0V0zM12.593 23.258l-.011.002-.071.035-.02.004-.014-.004-.071-.035c-.01-.004-.019-.001-.024.005l-.004.01-.017.428.005.02.01.013.104.074.015.004.012-.004.104-.074.012-.016.004-.017-.017-.427c-.002-.01-.009-.017-.017-.018m.265-.113-.013.002-.185.093-.01.01-.003.011.018.43.005.012.008.007.201.093c.012.004.023 0 .029-.008l.004-.014-.034-.614c-.003-.012-.01-.02-.02-.022m-.715.002a.023.023 0 0 0-.027.006l-.006.014-.034.614c0 .012.007.02.017.024l.015-.002.201-.093.01-.008.004-.011.017-.43-.003-.012-.01-.01z"/><path fill="currentColor" d="M12 3a1 1 0 0 1 .117 1.993L12 5h-1v1h2.764a2 2 0 0 1 .725.136l.17.075 3.235 1.618a2 2 0 0 1 1.1 1.628l.006.161V12h1v-1a1 1 0 0 1 1.993-.117L22 11v4a1 1 0 0 1-1.993.117L20 15v-1h-1v1.5a2 2 0 0 1-.668 1.492l-.132.108-3.333 2.5a2 2 0 0 1-1.016.391l-.184.009H5a2 2 0 0 1-1.995-1.85L3 18V8a2 2 0 0 1 1.85-1.995L5 6h4V5H8a1 1 0 0 1-.117-1.993L8 3zm1.764 5H5v10h8.667L17 15.5V9.618zM9.643 9.986a1 1 0 0 1 1.769.925l-.055.104-.59.985h1.215c.746 0 1.221.773.92 1.427l-.054.103-1.49 2.485a1 1 0 0 1-1.77-.926l.055-.104.59-.985H9.019a1.01 1.01 0 0 1-.92-1.427l.054-.103z"/></g></svg>