<svg xmlns="http://www.w3.org/2000/svg" width="24" height="24"><g fill="none" fill-rule="evenodd"><path d="M24 0v24H0V0zM12.594 23.258l-.012.002-.071.035-.02.004-.014-.004-.071-.036c-.01-.003-.019 0-.024.006l-.004.01-.017.428.005.02.01.013.104.074.015.004.012-.004.104-.074.012-.016.004-.017-.017-.427c-.002-.01-.009-.017-.016-.018m.264-.113-.014.002-.184.093-.01.01-.003.011.018.43.005.012.008.008.201.092c.012.004.023 0 .029-.008l.004-.014-.034-.614c-.003-.012-.01-.02-.02-.022m-.715.002a.023.023 0 0 0-.027.006l-.006.014-.034.614c0 .012.007.02.017.024l.015-.002.201-.093.01-.008.003-.011.018-.43-.003-.012-.01-.01z"/><path fill="currentColor" d="M18 3.172a1 1 0 0 1 1 1v3.242L19.414 7a1 1 0 1 1 1.414 1.414l-2.12 2.122a1 1 0 0 1-1.415 0l-2.121-2.122A1 1 0 1 1 16.586 7l.414.414V4.172a1 1 0 0 1 1-1M2 7a3 3 0 0 1 3-3h3.039a3 3 0 0 1 2.342 1.126l7.1 8.874H19a3 3 0 1 1 0 6h-3.039a3 3 0 0 1-2.342-1.126L6.519 10H5a3 3 0 0 1-3-3m18 10a1 1 0 0 0-1-1h-2a1 1 0 0 1-.78-.375l-7.4-9.25A1 1 0 0 0 8.039 6H5a1 1 0 1 0 0 2h1.76a1.5 1.5 0 0 1 1.171.563l7.25 9.062a1 1 0 0 0 .78.375H19a1 1 0 0 0 1-1"/></g></svg>