<svg xmlns="http://www.w3.org/2000/svg" width="24" height="24"><g fill="none"><path d="M24 0v24H0V0zM12.593 23.258l-.011.002-.071.035-.02.004-.014-.004-.071-.035c-.01-.004-.019-.001-.024.005l-.004.01-.017.428.005.02.01.013.104.074.015.004.012-.004.104-.074.012-.016.004-.017-.017-.427c-.002-.01-.009-.017-.017-.018m.265-.113-.013.002-.185.093-.01.01-.003.011.018.43.005.012.008.007.201.093c.012.004.023 0 .029-.008l.004-.014-.034-.614c-.003-.012-.01-.02-.02-.022m-.715.002a.023.023 0 0 0-.027.006l-.006.014-.034.614c0 .012.007.02.017.024l.015-.002.201-.093.01-.008.004-.011.017-.43-.003-.012-.01-.01z"/><path fill="currentColor" d="m3.713 11.163 2.678 1.804c1.006.678.334 2.247-.85 1.987l-1.064-.234a8.002 8.002 0 0 0 14.804.605 1 1 0 0 1 1.82.828c-1.987 4.37-6.896 6.793-11.687 5.509A10.003 10.003 0 0 1 2 12.08c-.007-.903.995-1.402 1.713-.918ZM13 6a1 1 0 0 1 .993.883L14 7v1h.5a2.5 2.5 0 0 1 2 4 2.5 2.5 0 0 1-1.836 3.995L14.5 16H14v1a1 1 0 0 1-1.993.117L12 17v-1h-1v1a1 1 0 0 1-1.993.117L9 17v-1H8a1 1 0 0 1-.117-1.993L8 14v-4a1 1 0 0 1-.117-1.993L8 8h1V7a1 1 0 0 1 1.993-.117L11 7v1h1V7a1 1 0 0 1 1-1m1.5 7H10v1h4.5a.5.5 0 0 0 .09-.992zm.09-10.657a10.002 10.002 0 0 1 7.414 9.581c.007.903-.995 1.402-1.713.918l-2.678-1.804c-1.006-.678-.334-2.247.85-1.987l1.064.234A8.002 8.002 0 0 0 4.723 8.68a1 1 0 1 1-1.82-.828C4.89 3.482 9.799 1.06 14.59 2.343M14.5 10H10v1h4.5a.5.5 0 0 0 0-1"/></g></svg>