<svg xmlns="http://www.w3.org/2000/svg" width="24" height="24"><g fill="none"><path d="M24 0v24H0V0zM12.594 23.258l-.012.002-.071.035-.02.004-.014-.004-.071-.036c-.01-.003-.019 0-.024.006l-.004.01-.017.428.005.02.01.013.104.074.015.004.012-.004.104-.074.012-.016.004-.017-.017-.427c-.002-.01-.009-.017-.016-.018m.264-.113-.014.002-.184.093-.01.01-.003.011.018.43.005.012.008.008.201.092c.012.004.023 0 .029-.008l.004-.014-.034-.614c-.003-.012-.01-.02-.02-.022m-.715.002a.023.023 0 0 0-.027.006l-.006.014-.034.614c0 .012.007.02.017.024l.015-.002.201-.093.01-.008.003-.011.018-.43-.003-.012-.01-.01z"/><path fill="currentColor" d="M14 3a2 2 0 0 1 2 2v3h3a2 2 0 0 1 2 2v9a2 2 0 0 1-2 2h-9a2 2 0 0 1-2-2v-3H5a2 2 0 0 1-2-2V5a2 2 0 0 1 2-2zm0 2H5v9h3v-.5a1 1 0 1 1 2 0v.5h.5a1 1 0 1 1 0 2H10v3h9v-9h-3v.5a1 1 0 1 1-2 0V10h-.5a1 1 0 1 1 0-2h.5zm1 7.5a1 1 0 0 1 .993.883L16 13.5v.5a2 2 0 0 1-1.85 1.995L14 16h-.5a1 1 0 0 1-.117-1.993L13.5 14h.5v-.5a1 1 0 0 1 1-1M10.5 8a1 1 0 0 1 .117 1.993L10.5 10H10v.5a1 1 0 0 1-1.993.117L8 10.5V10a2 2 0 0 1 1.85-1.995L10 8z"/></g></svg>