<svg xmlns="http://www.w3.org/2000/svg" width="24" height="24"><g fill="none"><path d="M24 0v24H0V0zM12.593 23.258l-.011.002-.071.035-.02.004-.014-.004-.071-.035c-.01-.004-.019-.001-.024.005l-.004.01-.017.428.005.02.01.013.104.074.015.004.012-.004.104-.074.012-.016.004-.017-.017-.427c-.002-.01-.009-.017-.017-.018m.265-.113-.013.002-.185.093-.01.01-.003.011.018.43.005.012.008.007.201.093c.012.004.023 0 .029-.008l.004-.014-.034-.614c-.003-.012-.01-.02-.02-.022m-.715.002a.023.023 0 0 0-.027.006l-.006.014-.034.614c0 .012.007.02.017.024l.015-.002.201-.093.01-.008.004-.011.017-.43-.003-.012-.01-.01z"/><path fill="currentColor" d="M12 4c2.787 0 5.263 1.257 7.026 2.813.885.781 1.614 1.658 2.128 2.531.505.857.846 1.786.846 2.656 0 .87-.34 1.799-.846 2.656-.514.873-1.243 1.75-2.128 2.531C17.263 18.743 14.786 20 12 20c-2.787 0-5.263-1.257-7.026-2.813-.885-.781-1.614-1.658-2.128-2.531C2.34 13.799 2 12.87 2 12c0-.87.34-1.799.846-2.656.514-.873 1.243-1.75 2.128-2.531C6.737 5.257 9.214 4 12 4m0 2c-2.184 0-4.208.993-5.702 2.312-.744.656-1.332 1.373-1.729 2.047C4.163 11.049 4 11.62 4 12c0 .38.163.951.569 1.641.397.674.985 1.39 1.729 2.047C7.792 17.007 9.816 18 12 18s4.208-.993 5.702-2.312c.744-.657 1.332-1.373 1.729-2.047.406-.69.569-1.261.569-1.641 0-.38-.163-.951-.569-1.641-.397-.674-.985-1.39-1.729-2.047C16.208 6.993 14.184 6 12 6m0 3c.088 0 .175.004.261.011a2 2 0 0 0 2.728 2.728A3 3 0 1 1 12 9"/></g></svg>