<svg xmlns="http://www.w3.org/2000/svg" width="24" height="24"><g fill="none" fill-rule="evenodd"><path d="M24 0v24H0V0zM12.593 23.258l-.011.002-.071.035-.02.004-.014-.004-.071-.035c-.01-.004-.019-.001-.024.005l-.004.01-.017.428.005.02.01.013.104.074.015.004.012-.004.104-.074.012-.016.004-.017-.017-.427c-.002-.01-.009-.017-.017-.018m.265-.113-.013.002-.185.093-.01.01-.003.011.018.43.005.012.008.007.201.093c.012.004.023 0 .029-.008l.004-.014-.034-.614c-.003-.012-.01-.02-.02-.022m-.715.002a.023.023 0 0 0-.027.006l-.006.014-.034.614c0 .012.007.02.017.024l.015-.002.201-.093.01-.008.004-.011.017-.43-.003-.012-.01-.01z"/><path fill="currentColor" d="M8.69 5a3.69 3.69 0 0 0-3.168 5.583A5.667 5.667 0 0 1 8.69 9.62c1.172 0 2.263.355 3.168.963a3.67 3.67 0 0 0 .522-1.893 3.675 3.675 0 0 0-1.086-2.614A3.675 3.675 0 0 0 8.69 5m1.893 7.142a3.67 3.67 0 0 0-1.893-.522 3.675 3.675 0 0 0-2.614 1.086 3.69 3.69 0 0 0 4.507 5.772 5.667 5.667 0 0 1-.963-3.168c0-1.172.355-2.263.963-3.168M12 19.939A5.69 5.69 0 0 1 4.061 12 5.69 5.69 0 0 1 12 4.061 5.69 5.69 0 0 1 19.939 12 5.69 5.69 0 0 1 12 19.939m6.478-6.522a5.666 5.666 0 0 1-3.168.963 5.667 5.667 0 0 1-3.168-.963 3.67 3.67 0 0 0-.522 1.893c0 1.022.414 1.945 1.086 2.614a3.69 3.69 0 0 0 5.772-4.507m-5.061-1.559a3.67 3.67 0 0 0 1.893.522 3.675 3.675 0 0 0 2.614-1.086 3.69 3.69 0 0 0-4.507-5.772c.608.905.963 1.996.963 3.168a5.667 5.667 0 0 1-.963 3.168"/></g></svg>