<svg xmlns="http://www.w3.org/2000/svg" width="24" height="24"><g fill="none" fill-rule="evenodd"><path d="M24 0v24H0V0zM12.593 23.258l-.011.002-.071.035-.02.004-.014-.004-.071-.035c-.01-.004-.019-.001-.024.005l-.004.01-.017.428.005.02.01.013.104.074.015.004.012-.004.104-.074.012-.016.004-.017-.017-.427c-.002-.01-.009-.017-.017-.018m.265-.113-.013.002-.185.093-.01.01-.003.011.018.43.005.012.008.007.201.093c.012.004.023 0 .029-.008l.004-.014-.034-.614c-.003-.012-.01-.02-.02-.022m-.715.002a.023.023 0 0 0-.027.006l-.006.014-.034.614c0 .012.007.02.017.024l.015-.002.201-.093.01-.008.004-.011.017-.43-.003-.012-.01-.01z"/><path fill="currentColor" d="M4.212 5.627c-.777-.359-1.68.204-1.783 1.114-.092.819-.269 2.718-.269 5.291 0 2.604.18 4.518.272 5.319.1.866.943 1.372 1.714 1.018.692-.318 2.294-1.1 4.385-2.408 1.072-.67 1.97-1.29 2.67-1.8.059 1.515.167 2.627.231 3.19.1.866.943 1.372 1.714 1.018.692-.318 2.294-1.1 4.385-2.408 2.091-1.308 3.516-2.42 4.117-2.91.67-.546.686-1.592.042-2.117-.597-.487-2.042-1.616-4.115-2.913-2.05-1.282-3.66-2.07-4.363-2.394-.777-.359-1.68.204-1.783 1.114-.063.559-.165 1.62-.224 3.054a45.405 45.405 0 0 0-2.63-1.774c-2.05-1.282-3.66-2.07-4.363-2.394M4.1 11.961c0-1.69.08-3.073.157-4.02.797.402 1.944 1.02 3.292 1.864a42.286 42.286 0 0 1 3.21 2.213 42.377 42.377 0 0 1-3.167 2.178 41.585 41.585 0 0 1-3.327 1.884 49.61 49.61 0 0 1-.165-4.12Zm9.002.41a1.42 1.42 0 0 0 0-.822 49.3 49.3 0 0 1 .155-3.608c.797.402 1.944 1.02 3.292 1.864a42.284 42.284 0 0 1 3.21 2.213 42.381 42.381 0 0 1-3.167 2.178 41.6 41.6 0 0 1-3.327 1.884 49.098 49.098 0 0 1-.163-3.71Z"/></g></svg>