<svg xmlns="http://www.w3.org/2000/svg" width="24" height="24"><g fill="none" fill-rule="evenodd"><path d="M24 0v24H0V0zM12.594 23.258l-.012.002-.071.035-.02.004-.014-.004-.071-.036c-.01-.003-.019 0-.024.006l-.004.01-.017.428.005.02.01.013.104.074.015.004.012-.004.104-.074.012-.016.004-.017-.017-.427c-.002-.01-.009-.017-.016-.018m.264-.113-.014.002-.184.093-.01.01-.003.011.018.43.005.012.008.008.201.092c.012.004.023 0 .029-.008l.004-.014-.034-.614c-.003-.012-.01-.02-.02-.022m-.715.002a.023.023 0 0 0-.027.006l-.006.014-.034.614c0 .012.007.02.017.024l.015-.002.201-.093.01-.008.003-.011.018-.43-.003-.012-.01-.01z"/><path fill="currentColor" d="M7 3a2 2 0 0 1 1.742 1.016C8.826 4.007 8.912 4 9 4h10a2 2 0 0 1 2 2v13a2 2 0 0 1-2 2H9a1.99 1.99 0 0 1-1-.268A1.99 1.99 0 0 1 7 21H5a2 2 0 0 1-2-2V5a2 2 0 0 1 2-2zm12 3H9v13h10zM7 5H5v14h2zm5 11a1 1 0 0 1 .993.883l.007.127a1 1 0 0 1-1.993.117L11 17a1 1 0 0 1 1-1m4 0a1 1 0 0 1 .993.883l.007.127a1 1 0 0 1-1.993.117L15 17a1 1 0 0 1 1-1m-4-3a1 1 0 0 1 .993.883l.007.127a1 1 0 0 1-1.993.117L11 14a1 1 0 0 1 1-1m4 0a1 1 0 0 1 .993.883l.007.127a1 1 0 0 1-1.993.117L15 14a1 1 0 0 1 1-1m.5-6a1.5 1.5 0 0 1 1.493 1.356L18 8.5v2a1.5 1.5 0 0 1-1.356 1.493L16.5 12h-5a1.5 1.5 0 0 1-1.493-1.356L10 10.5v-2a1.5 1.5 0 0 1 1.356-1.493L11.5 7zM16 9h-4v1h4z"/></g></svg>