<svg xmlns="http://www.w3.org/2000/svg" width="24" height="24"><g fill="none" fill-rule="evenodd"><path d="M24 0v24H0V0zM12.593 23.258l-.011.002-.071.035-.02.004-.014-.004-.071-.035c-.01-.004-.019-.001-.024.005l-.004.01-.017.428.005.02.01.013.104.074.015.004.012-.004.104-.074.012-.016.004-.017-.017-.427c-.002-.01-.009-.017-.017-.018m.265-.113-.013.002-.185.093-.01.01-.003.011.018.43.005.012.008.007.201.093c.012.004.023 0 .029-.008l.004-.014-.034-.614c-.003-.012-.01-.02-.02-.022m-.715.002a.023.023 0 0 0-.027.006l-.006.014-.034.614c0 .012.007.02.017.024l.015-.002.201-.093.01-.008.004-.011.017-.43-.003-.012-.01-.01z"/><path fill="currentColor" d="M9.5 1A2.5 2.5 0 0 0 7 3.5v6.962a4.734 4.734 0 0 0-.87-.584c-1.02-.518-2.01-.438-3.053-.012-.84.345-1.107 1.308-.747 2.028l2.842 5.684A8 8 0 0 0 12.326 22H13a8 8 0 0 0 8-8V6.5a2.5 2.5 0 0 0-5 0v1.55a2.51 2.51 0 0 0-2 .45 2.489 2.489 0 0 0-2-.45V3.5A2.5 2.5 0 0 0 9.5 1m6.5 9.5a.5.5 0 1 0-1 0v.5a1 1 0 1 1-2 0v-.5a.5.5 0 1 0-1 0V12a1 1 0 1 1-2 0V3.5a.5.5 0 1 0-1 0V13a1 1 0 0 1-1.78.625c-.925-1.156-1.517-1.72-1.995-1.964a1.214 1.214 0 0 0-.835-.117l2.57 5.14A6 6 0 0 0 12.326 20H13a6 6 0 0 0 6-6V6.5a.5.5 0 1 0-1 0V12a1 1 0 1 1-2 0z"/></g></svg>