<svg xmlns="http://www.w3.org/2000/svg" width="24" height="24"><g fill="none" fill-rule="evenodd"><path d="M24 0v24H0V0zM12.593 23.258l-.011.002-.071.035-.02.004-.014-.004-.071-.035c-.01-.004-.019-.001-.024.005l-.004.01-.017.428.005.02.01.013.104.074.015.004.012-.004.104-.074.012-.016.004-.017-.017-.427c-.002-.01-.009-.017-.017-.018m.265-.113-.013.002-.185.093-.01.01-.003.011.018.43.005.012.008.007.201.093c.012.004.023 0 .029-.008l.004-.014-.034-.614c-.003-.012-.01-.02-.02-.022m-.715.002a.023.023 0 0 0-.027.006l-.006.014-.034.614c0 .012.007.02.017.024l.015-.002.201-.093.01-.008.004-.011.017-.43-.003-.012-.01-.01z"/><path fill="currentColor" d="M12 4a7 7 0 0 0-7 7v2a1 1 0 1 1-2 0v-2a9 9 0 0 1 18 0v3a22.429 22.429 0 0 1-.197 2.635c-.189 1.385-.585 3.241-1.503 4.465a1 1 0 0 1-1.6-1.2c.582-.776.936-2.17 1.122-3.535A20.484 20.484 0 0 0 19 14v-3a7 7 0 0 0-7-7m0 4a3 3 0 0 0-3 3v1c0 .94-.304 2.1-.868 3.158-.567 1.063-1.449 2.118-2.685 2.736a1 1 0 1 1-.894-1.788c.764-.382 1.382-1.077 1.815-1.89C6.804 13.4 7 12.56 7 12v-1a5 5 0 0 1 10 0v1.117c0 2.924.001 6.85-3.36 9.651a1 1 0 1 1-1.28-1.536C14.954 18.07 15 15.064 15 12v-1a3 3 0 0 0-3-3m1 3.5a1 1 0 1 0-2 0c0 1.197-.121 2.702-.574 4.059-.45 1.354-1.194 2.457-2.373 3.047a1 1 0 1 0 .894 1.788c1.821-.91 2.828-2.556 3.377-4.203.547-1.643.676-3.388.676-4.691"/></g></svg>