<svg xmlns="http://www.w3.org/2000/svg" width="24" height="24"><g fill="none"><path d="M24 0v24H0V0zM12.593 23.258l-.011.002-.071.035-.02.004-.014-.004-.071-.035c-.01-.004-.019-.001-.024.005l-.004.01-.017.428.005.02.01.013.104.074.015.004.012-.004.104-.074.012-.016.004-.017-.017-.427c-.002-.01-.009-.017-.017-.018m.265-.113-.013.002-.185.093-.01.01-.003.011.018.43.005.012.008.007.201.093c.012.004.023 0 .029-.008l.004-.014-.034-.614c-.003-.012-.01-.02-.02-.022m-.715.002a.023.023 0 0 0-.027.006l-.006.014-.034.614c0 .012.007.02.017.024l.015-.002.201-.093.01-.008.004-.011.017-.43-.003-.012-.01-.01z"/><path fill="currentColor" d="M10.5 6a2.5 2.5 0 0 1 2.495 2.336L13 8.5v4.605l4.455.606a4 4 0 0 1 3.54 3.772l.005.202V18a7.974 7.974 0 0 1-.77 3.43 1 1 0 0 1-1.807-.86 5.961 5.961 0 0 0 .57-2.265L19 18v-.315a2 2 0 0 0-1.621-1.964l-.183-.027-4.431-.603a2 2 0 0 1-1.759-1.827L11 13.105V8.5a.5.5 0 0 0-.992-.09L10 8.5V17a1 1 0 0 1-1.78.625l-.332-.407-.303-.354c-.579-.657-1.001-1.02-1.36-1.203a1.192 1.192 0 0 0-.694-.137l-.141.02 2.504 5.009a1 1 0 0 1-1.73.996l-.058-.102-2.777-5.553c-.36-.72-.093-1.683.747-2.028 1.043-.427 2.034-.506 3.055.012.222.113.44.252.654.414l.215.17V8.5A2.5 2.5 0 0 1 10.5 6m0-4a6.5 6.5 0 0 1 6.255 8.272 1 1 0 1 1-1.924-.544 4.5 4.5 0 1 0-8.34.817 1 1 0 0 1-1.782.91A6.5 6.5 0 0 1 10.5 2"/></g></svg>