<svg xmlns="http://www.w3.org/2000/svg" width="24" height="24"><g fill="none" fill-rule="evenodd"><path d="M24 0v24H0V0zM12.593 23.258l-.011.002-.071.035-.02.004-.014-.004-.071-.035c-.01-.004-.019-.001-.024.005l-.004.01-.017.428.005.02.01.013.104.074.015.004.012-.004.104-.074.012-.016.004-.017-.017-.427c-.002-.01-.009-.017-.017-.018m.265-.113-.013.002-.185.093-.01.01-.003.011.018.43.005.012.008.007.201.093c.012.004.023 0 .029-.008l.004-.014-.034-.614c-.003-.012-.01-.02-.02-.022m-.715.002a.023.023 0 0 0-.027.006l-.006.014-.034.614c0 .012.007.02.017.024l.015-.002.201-.093.01-.008.004-.011.017-.43-.003-.012-.01-.01z"/><path fill="currentColor" d="M22.567 14.453a1.825 1.825 0 0 0 .113-1.828l-.042-.084a3.96 3.96 0 0 0-3.213-2.176l-3.88-.323-4.657-6.519A1.25 1.25 0 0 0 9.871 3H7.015a1.01 1.01 0 0 0-.928 1.408l2.463 5.747-2.556.284-.588-.882A1.25 1.25 0 0 0 4.366 9H2.015a1.01 1.01 0 0 0-.938 1.385l1.97 4.924a1.1 1.1 0 0 0 1.02.691h15.609c1.161 0 2.246-.58 2.89-1.547Zm-3.308-2.095a1.96 1.96 0 0 1 1.585 1.067 1.474 1.474 0 0 1-1.168.575h-15l-1.2-3h.489l.7 1.05c.209.314.576.485.951.443l4.48-.498a1.01 1.01 0 0 0 .818-1.401L8.516 5h.97l4.698 6.578c.172.24.442.394.738.419zM3 20a1 1 0 1 0 0 2h18a1 1 0 1 0 0-2z"/></g></svg>