<svg xmlns="http://www.w3.org/2000/svg" width="24" height="24"><g fill="none" fill-rule="evenodd"><path d="M24 0v24H0V0zM12.593 23.258l-.011.002-.071.035-.02.004-.014-.004-.071-.035c-.01-.004-.019-.001-.024.005l-.004.01-.017.428.005.02.01.013.104.074.015.004.012-.004.104-.074.012-.016.004-.017-.017-.427c-.002-.01-.009-.017-.017-.018m.265-.113-.013.002-.185.093-.01.01-.003.011.018.43.005.012.008.007.201.093c.012.004.023 0 .029-.008l.004-.014-.034-.614c-.003-.012-.01-.02-.02-.022m-.715.002a.023.023 0 0 0-.027.006l-.006.014-.034.614c0 .012.007.02.017.024l.015-.002.201-.093.01-.008.004-.011.017-.43-.003-.012-.01-.01z"/><path fill="currentColor" d="M12 2a1 1 0 0 1 1 1v18a1 1 0 0 1-2 0V3a1 1 0 0 1 1-1M7.864 5.207C8.279 4.045 10 4.343 10 5.577V18.9A1.1 1.1 0 0 1 8.9 20H4.142a1.1 1.1 0 0 1-1.036-1.47zM8 10.773 5.419 18H8zm6-5.196c0-1.234 1.72-1.532 2.136-.37l4.758 13.323A1.1 1.1 0 0 1 19.858 20H15.1a1.1 1.1 0 0 1-1.1-1.1zM18.58 18 16 10.773V18z"/></g></svg>