<svg xmlns="http://www.w3.org/2000/svg" width="24" height="24"><g fill="none" fill-rule="evenodd"><path d="M24 0v24H0V0zM12.594 23.258l-.012.002-.071.035-.02.004-.014-.004-.071-.036c-.01-.003-.019 0-.024.006l-.004.01-.017.428.005.02.01.013.104.074.015.004.012-.004.104-.074.012-.016.004-.017-.017-.427c-.002-.01-.009-.017-.016-.018m.264-.113-.014.002-.184.093-.01.01-.003.011.018.43.005.012.008.008.201.092c.012.004.023 0 .029-.008l.004-.014-.034-.614c-.003-.012-.01-.02-.02-.022m-.715.002a.023.023 0 0 0-.027.006l-.006.014-.034.614c0 .012.007.02.017.024l.015-.002.201-.093.01-.008.003-.011.018-.43-.003-.012-.01-.01z"/><path fill="currentColor" d="M15.31 3a5.69 5.69 0 0 1 4.629 9A5.69 5.69 0 0 1 12 19.939 5.69 5.69 0 0 1 4.061 12 5.69 5.69 0 0 1 12 4.061 5.668 5.668 0 0 1 15.31 3m3.168 10.417a5.666 5.666 0 0 1-3.168.963h-.094a3.994 3.994 0 0 1-3.534 1.608 3.67 3.67 0 0 0 1.024 1.936 3.69 3.69 0 0 0 5.772-4.507M8.012 11.682a3.67 3.67 0 0 0-1.936 1.024 3.69 3.69 0 0 0 4.507 5.772 5.667 5.667 0 0 1-.963-3.168v-.094a3.994 3.994 0 0 1-1.608-3.534M12 10a2 2 0 1 0 0 4 2 2 0 0 0 0-4m3.31-5c-.692 0-1.34.19-1.893.522.608.905.963 1.996.963 3.168v.094a3.994 3.994 0 0 1 1.608 3.534 3.678 3.678 0 0 0 1.936-1.024A3.69 3.69 0 0 0 15.31 5M8.69 5a3.69 3.69 0 0 0-3.168 5.583A5.667 5.667 0 0 1 8.69 9.62h.094a3.994 3.994 0 0 1 3.534-1.608 3.678 3.678 0 0 0-1.024-1.936A3.675 3.675 0 0 0 8.69 5"/></g></svg>