<svg xmlns="http://www.w3.org/2000/svg" width="24" height="24"><g fill="none" fill-rule="evenodd"><path d="M24 0v24H0V0zM12.594 23.258l-.012.002-.071.035-.02.004-.014-.004-.071-.036c-.01-.003-.019 0-.024.006l-.004.01-.017.428.005.02.01.013.104.074.015.004.012-.004.104-.074.012-.016.004-.017-.017-.427c-.002-.01-.009-.017-.016-.018m.264-.113-.014.002-.184.093-.01.01-.003.011.018.43.005.012.008.008.201.092c.012.004.023 0 .029-.008l.004-.014-.034-.614c-.003-.012-.01-.02-.02-.022m-.715.002a.023.023 0 0 0-.027.006l-.006.014-.034.614c0 .012.007.02.017.024l.015-.002.201-.093.01-.008.003-.011.018-.43-.003-.012-.01-.01z"/><path fill="currentColor" d="M11.5 2A6.5 6.5 0 0 0 5 8.416a5.004 5.004 0 0 0-2.961 3.96 1 1 0 1 0 1.984.248A3.004 3.004 0 0 1 6.27 10.09 1.01 1.01 0 0 0 7.027 9a4.5 4.5 0 0 1 8.817-1.679c.104.382.422.668.811.732a4.001 4.001 0 0 1 3.325 4.348 1 1 0 1 0 1.99.198 6.002 6.002 0 0 0-4.385-6.387A6.502 6.502 0 0 0 11.5 2M3 16a1 1 0 0 1 1-1h16a1 1 0 1 1 0 2H4a1 1 0 0 1-1-1m4 4a1 1 0 0 1 1-1h9a1 1 0 1 1 0 2H8a1 1 0 0 1-1-1"/></g></svg>