<svg xmlns="http://www.w3.org/2000/svg" width="24" height="24"><g fill="none" fill-rule="evenodd"><path d="M24 0v24H0V0zM12.594 23.258l-.012.002-.071.035-.02.004-.014-.004-.071-.036c-.01-.003-.019 0-.024.006l-.004.01-.017.428.005.02.01.013.104.074.015.004.012-.004.104-.074.012-.016.004-.017-.017-.427c-.002-.01-.009-.017-.016-.018m.264-.113-.014.002-.184.093-.01.01-.003.011.018.43.005.012.008.008.201.092c.012.004.023 0 .029-.008l.004-.014-.034-.614c-.003-.012-.01-.02-.02-.022m-.715.002a.023.023 0 0 0-.027.006l-.006.014-.034.614c0 .012.007.02.017.024l.015-.002.201-.093.01-.008.003-.011.018-.43-.003-.012-.01-.01z"/><path fill="currentColor" d="M12 4c5.015 0 9.244 3.356 10.57 7.942a1 1 0 0 1-.4 1.106l-.102.06-7.891 4.082.283.146a1 1 0 0 1-.813 1.824l-.106-.048-1.54-.796-1.541.796a1 1 0 0 1-1.02-1.717l.1-.06.284-.145-7.892-4.082a1 1 0 0 1-.501-1.166C2.756 7.356 6.985 4 12.001 4Zm0 9c-1.18 0-2.2.681-2.69 1.672L12 16.064l2.691-1.392A3.001 3.001 0 0 0 12.001 13Zm0-7a9.004 9.004 0 0 0-8.386 5.726l3.919 2.027A4.999 4.999 0 0 1 12 11a4.999 4.999 0 0 1 4.468 2.753l3.919-2.027A9.004 9.004 0 0 0 12 6"/></g></svg>