<svg xmlns="http://www.w3.org/2000/svg" width="24" height="24"><g fill="none" fill-rule="evenodd"><path d="M24 0v24H0V0zM12.594 23.258l-.012.002-.071.035-.02.004-.014-.004-.071-.036c-.01-.003-.019 0-.024.006l-.004.01-.017.428.005.02.01.013.104.074.015.004.012-.004.104-.074.012-.016.004-.017-.017-.427c-.002-.01-.009-.017-.016-.018m.264-.113-.014.002-.184.093-.01.01-.003.011.018.43.005.012.008.008.201.092c.012.004.023 0 .029-.008l.004-.014-.034-.614c-.003-.012-.01-.02-.02-.022m-.715.002a.023.023 0 0 0-.027.006l-.006.014-.034.614c0 .012.007.02.017.024l.015-.002.201-.093.01-.008.003-.011.018-.43-.003-.012-.01-.01z"/><path fill="currentColor" d="M12 2c5.523 0 10 4.477 10 10s-4.477 10-10 10S2 17.523 2 12 6.477 2 12 2m1.254 13.427h-2.508L9.582 17.03l.92 2.83a8.042 8.042 0 0 0 2.996 0l.92-2.83zm-5.507 2.427h-1.2a8.056 8.056 0 0 0 1.571 1.143zm9.706 0h-1.2l-.371 1.143a8.022 8.022 0 0 0 1.57-1.143Zm-10.983-6.6-2.408 1.75a7.947 7.947 0 0 0 .926 2.85h2.976l1.164-1.602-.775-2.386zm11.06 0-1.883.612-.775 2.385 1.164 1.603h2.976a7.946 7.946 0 0 0 .926-2.851zM12 10.236l-1.678 1.219.641 1.972h2.074l.64-1.972zM4.747 8.621a7.94 7.94 0 0 0-.6 1.85l.971-.707zm14.506 0-.371 1.143.972.706a7.937 7.937 0 0 0-.6-1.85ZM8.593 4.76a8.023 8.023 0 0 0-2.425 1.764l.92 2.828 1.884.612L11 8.49V6.51zm6.815 0L13 6.51v1.98l2.028 1.474 1.885-.612.919-2.828a8.022 8.022 0 0 0-2.424-1.764M12 4c-.22 0-.436.009-.65.026l-.321.032.971.706.971-.706A8.082 8.082 0 0 0 12 4"/></g></svg>