<svg xmlns="http://www.w3.org/2000/svg" width="24" height="24"><g fill="none" fill-rule="evenodd"><path d="M24 0v24H0V0zM12.594 23.258l-.012.002-.071.035-.02.004-.014-.004-.071-.036c-.01-.003-.019 0-.024.006l-.004.01-.017.428.005.02.01.013.104.074.015.004.012-.004.104-.074.012-.016.004-.017-.017-.427c-.002-.01-.009-.017-.016-.018m.264-.113-.014.002-.184.093-.01.01-.003.011.018.43.005.012.008.008.201.092c.012.004.023 0 .029-.008l.004-.014-.034-.614c-.003-.012-.01-.02-.02-.022m-.715.002a.023.023 0 0 0-.027.006l-.006.014-.034.614c0 .012.007.02.017.024l.015-.002.201-.093.01-.008.003-.011.018-.43-.003-.012-.01-.01z"/><path fill="currentColor" d="M18.41 3.287a1 1 0 0 1-.233 1.395l-2.101 1.501a1.965 1.965 0 0 0-.762 2.089l3.343-3.343a1 1 0 1 1 1.414 1.414l-3.343 3.343a1.965 1.965 0 0 0 2.089-.762l1.501-2.101a1 1 0 0 1 1.627 1.162l-1.5 2.102a3.967 3.967 0 0 1-5.234 1.116l-1.736 1.736 4.803 4.804a1 1 0 0 1-1.414 1.414l-4.803-4.803-4.718 4.717a1 1 0 1 1-1.414-1.414l4.717-4.718-1.56-1.56-1.414 1.414a1 1 0 0 1-1.414 0l-2.205-2.204a5 5 0 0 1-.936-5.772c.188-.376.403-.715.859-.79a1 1 0 0 1 .867.28L9.79 9.255l.004.003 2.268 2.268 1.736-1.736a3.967 3.967 0 0 1 1.116-5.233l2.102-1.501a1 1 0 0 1 1.395.232Zm-13.816 3.6a3 3 0 0 0 .874 2.288l1.497 1.497.707-.707-3.078-3.079Z"/></g></svg>