<svg xmlns="http://www.w3.org/2000/svg" width="24" height="24"><g fill="none" fill-rule="evenodd"><path d="M24 0v24H0V0zM12.594 23.258l-.012.002-.071.035-.02.004-.014-.004-.071-.036c-.01-.003-.019 0-.024.006l-.004.01-.017.428.005.02.01.013.104.074.015.004.012-.004.104-.074.012-.016.004-.017-.017-.427c-.002-.01-.009-.017-.016-.018m.264-.113-.014.002-.184.093-.01.01-.003.011.018.43.005.012.008.008.201.092c.012.004.023 0 .029-.008l.004-.014-.034-.614c-.003-.012-.01-.02-.02-.022m-.715.002a.023.023 0 0 0-.027.006l-.006.014-.034.614c0 .012.007.02.017.024l.015-.002.201-.093.01-.008.003-.011.018-.43-.003-.012-.01-.01z"/><path fill="currentColor" d="M14 2a2 2 0 0 1 2 2h1a2 2 0 0 1 2 2v3.003a2 2 0 0 1 1.885 2.196l-.71 7.1A3 3 0 0 1 17.19 21H6.81a3 3 0 0 1-2.985-2.701l-.71-7.1A2 2 0 0 1 5 9.003V5a2 2 0 0 1 2-2h1a2 2 0 0 1 2 2h1V4a2 2 0 0 1 2-2zm-7.24 9H5.105l.71 7.1.019.115a1 1 0 0 0 .86.778L6.81 19h10.38l.117-.007a1 1 0 0 0 .86-.778l.018-.116.71-7.099H17.24l-.019.01a.27.27 0 0 0-.081.088A5.997 5.997 0 0 1 12 14a5.997 5.997 0 0 1-5.14-2.902.27.27 0 0 0-.08-.089zM14 4h-1v7.874l.262-.077c.173-.057.34-.126.501-.205l.237-.127zm-3 3h-1v4.465l.237.127c.161.079.328.148.5.205l.263.077zm6-1h-1v3.425l.145-.101c.199-.128.423-.225.668-.278L17 9.014zM8 5H7v4.014c.319.038.607.15.855.31L8 9.425z"/></g></svg>