<svg xmlns="http://www.w3.org/2000/svg" width="24" height="24"><g fill="none"><path d="M24 0v24H0V0zM12.593 23.258l-.011.002-.071.035-.02.004-.014-.004-.071-.035c-.01-.004-.019-.001-.024.005l-.004.01-.017.428.005.02.01.013.104.074.015.004.012-.004.104-.074.012-.016.004-.017-.017-.427c-.002-.01-.009-.017-.017-.018m.265-.113-.013.002-.185.093-.01.01-.003.011.018.43.005.012.008.007.201.093c.012.004.023 0 .029-.008l.004-.014-.034-.614c-.003-.012-.01-.02-.02-.022m-.715.002a.023.023 0 0 0-.027.006l-.006.014-.034.614c0 .012.007.02.017.024l.015-.002.201-.093.01-.008.004-.011.017-.43-.003-.012-.01-.01z"/><path fill="currentColor" d="M10.625 10.22a1 1 0 0 1 .156 1.405l-.233.291a2.16 2.16 0 0 0 .036 2.743l.123.134a4.16 4.16 0 0 1 .307 5.54l-.233.292a1 1 0 1 1-1.562-1.25l.233-.291a2.16 2.16 0 0 0-.036-2.743l-.123-.134a4.16 4.16 0 0 1-.307-5.54l.233-.292a1 1 0 0 1 1.406-.156Zm2.594.155a1 1 0 0 1 1.634 1.147l-.072.103-.233.291a2.16 2.16 0 0 0 .036 2.743l.123.134a4.16 4.16 0 0 1 .439 5.367l-.132.173-.233.292a1 1 0 0 1-1.634-1.147l.072-.103.233-.291a2.16 2.16 0 0 0-.036-2.743l-.123-.134a4.16 4.16 0 0 1-.439-5.367l.132-.173zM12 4c3.228 0 5.535.478 7.083.993l.403.14.366.142c.058.023.115.046.17.07l.312.136c.05.022.097.045.143.067l.26.128c.041.02.08.041.118.061.895.477 1.127 1.496.828 2.293l-2.746 7.321a1 1 0 0 1-1.872-.702l2.707-7.22-.21-.101-.242-.11-.277-.113-.312-.118-.17-.06-.365-.118-.402-.118a9.462 9.462 0 0 0-.215-.058l-.459-.113a16.88 16.88 0 0 0-.244-.054l-.516-.102C15.196 6.15 13.754 6 11.999 6c-2.159 0-3.844.228-5.118.52l-.459.113a9.462 9.462 0 0 0-.215.058l-.402.118-.366.119-.33.118-.151.059-.277.114-.243.109-.21.1 2.708 7.22a1 1 0 1 1-1.872.703l-2.746-7.32c-.299-.798-.067-1.817.828-2.294l.243-.124c.043-.022.088-.043.134-.065l.295-.135c.104-.045.214-.092.33-.138l.367-.141.403-.141C6.466 4.478 8.773 4 12 4"/></g></svg>