<svg xmlns="http://www.w3.org/2000/svg" width="24" height="24"><g fill="none" fill-rule="evenodd"><path d="M24 0v24H0V0zM12.593 23.258l-.011.002-.071.035-.02.004-.014-.004-.071-.035c-.01-.004-.019-.001-.024.005l-.004.01-.017.428.005.02.01.013.104.074.015.004.012-.004.104-.074.012-.016.004-.017-.017-.427c-.002-.01-.009-.017-.017-.018m.265-.113-.013.002-.185.093-.01.01-.003.011.018.43.005.012.008.007.201.093c.012.004.023 0 .029-.008l.004-.014-.034-.614c-.003-.012-.01-.02-.02-.022m-.715.002a.023.023 0 0 0-.027.006l-.006.014-.034.614c0 .012.007.02.017.024l.015-.002.201-.093.01-.008.004-.011.017-.43-.003-.012-.01-.01z"/><path fill="currentColor" d="M6.78 4.625a1 1 0 1 0-1.56-1.25l-.538.672a3.82 3.82 0 0 0-.836 2.538l-1.217.487a1 1 0 1 0 .742 1.857l1.074-.43c.095.149.202.292.32.43.547.638.587 1.565.102 2.247l-2.238.896a1 1 0 1 0 .742 1.857l.426-.17a3.823 3.823 0 0 0 .835 2.511l-2.003.802a1 1 0 1 0 .742 1.857l1.643-.657c-.064.152-.15.298-.258.432l-.537.671a1 1 0 0 0 1.562 1.25l.537-.672a3.82 3.82 0 0 0 .836-2.537l1.217-.488a1 1 0 1 0-.742-1.856l-1.074.43a3.848 3.848 0 0 0-.32-.43 1.827 1.827 0 0 1-.102-2.248l2.238-.896a1 1 0 1 0-.742-1.856l-.426.17a3.823 3.823 0 0 0-.835-2.512l2.003-.801a1 1 0 1 0-.742-1.857l-1.643.657a1.81 1.81 0 0 1 .258-.433l.537-.671Zm3.451 2.804c.33-3.195 3.634-4.694 6.381-3.473l.225.1a8.694 8.694 0 0 1 0 15.889l-.225.1c-2.747 1.22-6.05-.28-6.38-3.474A44.561 44.561 0 0 1 10 12c0-1.73.097-3.269.231-4.57ZM15.8 5.783c-1.696-.753-3.41.21-3.58 1.852A42.582 42.582 0 0 0 12 12c0 1.656.093 3.126.22 4.365.17 1.642 1.884 2.606 3.58 1.852l.225-.1a6.694 6.694 0 0 0 0-12.234z"/></g></svg>