<svg xmlns="http://www.w3.org/2000/svg" width="24" height="24"><g fill="none" fill-rule="nonzero"><path d="M24 0v24H0V0h24ZM12.593 23.258l-.011.002-.071.035-.02.004-.014-.004-.071-.035c-.01-.004-.019-.001-.024.005l-.004.01-.017.428.005.02.01.013.104.074.015.004.012-.004.104-.074.012-.016.004-.017-.017-.427c-.002-.01-.009-.017-.017-.018Zm.265-.113-.013.002-.185.093-.01.01-.003.011.018.43.005.012.008.007.201.093c.012.004.023 0 .029-.008l.004-.014-.034-.614c-.003-.012-.01-.02-.02-.022Zm-.715.002a.023.023 0 0 0-.027.006l-.006.014-.034.614c0 .012.007.02.017.024l.015-.002.201-.093.01-.008.004-.011.017-.43-.003-.012-.01-.01-.184-.092Z"/><path fill="currentColor" d="M9.793 12.793a1 1 0 0 1 1.497 1.32l-.083.094L6.414 19H9a1 1 0 0 1 .117 1.993L9 21H4a1 1 0 0 1-.993-.883L3 20v-5a1 1 0 0 1 1.993-.117L5 15v2.586l4.793-4.793ZM20 3a1 1 0 0 1 .993.883L21 4v5a1 1 0 0 1-1.993.117L19 9V6.414l-4.793 4.793a1 1 0 0 1-1.497-1.32l.083-.094L17.586 5H15a1 1 0 0 1-.117-1.993L15 3h5Z"/></g></svg>