<svg xmlns="http://www.w3.org/2000/svg" width="24" height="24"><g fill="none" fill-rule="evenodd"><path d="M24 0v24H0V0zM12.593 23.258l-.011.002-.071.035-.02.004-.014-.004-.071-.035c-.01-.004-.019-.001-.024.005l-.004.01-.017.428.005.02.01.013.104.074.015.004.012-.004.104-.074.012-.016.004-.017-.017-.427c-.002-.01-.009-.017-.017-.018m.265-.113-.013.002-.185.093-.01.01-.003.011.018.43.005.012.008.007.201.093c.012.004.023 0 .029-.008l.004-.014-.034-.614c-.003-.012-.01-.02-.02-.022m-.715.002a.023.023 0 0 0-.027.006l-.006.014-.034.614c0 .012.007.02.017.024l.015-.002.201-.093.01-.008.004-.011.017-.43-.003-.012-.01-.01z"/><path fill="currentColor" d="M17 4c.763 0 1.394.434 1.856.89.481.473.922 1.109 1.314 1.81.787 1.406 1.472 3.243 1.925 5.058.45 1.801.699 3.682.54 5.161C22.475 18.404 21.71 20 20 20c-1.476 0-2.652-.76-3.614-1.531l-.351-.289-.492-.415-.444-.368C14.08 16.572 13.175 16 12 16c-1.175 0-2.08.572-3.099 1.397l-.444.368-.492.415-.35.289C6.651 19.24 5.475 20 4 20c-1.711 0-2.476-1.596-2.635-3.081-.158-1.48.09-3.36.54-5.161.453-1.815 1.138-3.652 1.925-5.059.392-.7.833-1.336 1.314-1.81C5.606 4.434 6.237 4 7 4c.515 0 1.018.123 1.513.27l.592.181c.099.03.197.06.295.087.865.248 1.75.462 2.6.462.85 0 1.735-.214 2.6-.462l.885-.267C15.983 4.124 16.49 4 17 4m0 2c-.383 0-.783.116-1.171.243l-.458.151a7.268 7.268 0 0 1-.221.068c-.885.252-2 .538-3.15.538s-2.265-.286-3.15-.538l-.22-.068-.459-.151C7.783 6.115 7.383 6 7 6c-.418.078-.793.585-1.076 1.055l-.158.275-.19.346c-.682 1.218-1.31 2.88-1.73 4.567-.395 1.576-.587 3.086-.514 4.21l.026.293.02.176.03.208c.069.401.218.87.592.87.812 0 1.49-.404 2.333-1.074l.403-.328.76-.636.344-.28C8.904 14.839 10.235 14 12 14c1.765 0 3.096.84 4.16 1.682l.345.28.76.636.402.328C18.51 17.596 19.187 18 20 18c.34 0 .494-.387.571-.759l.038-.218.037-.317c.123-1.146-.067-2.765-.491-4.463-.386-1.546-.946-3.072-1.562-4.254l-.359-.66-.158-.273C17.793 6.585 17.418 6.078 17 6M8.5 8a2.5 2.5 0 1 1 0 5 2.5 2.5 0 0 1 0-5m7 0a1 1 0 0 1 .993.883L16.5 9v.5h.5a1 1 0 0 1 .117 1.993L17 11.5h-.5v.5a1 1 0 0 1-1.993.117L14.5 12v-.5H14a1 1 0 0 1-.117-1.993L14 9.5h.5V9a1 1 0 0 1 1-1m-7 2a.5.5 0 1 0 0 1 .5.5 0 0 0 0-1"/></g></svg>