<svg xmlns="http://www.w3.org/2000/svg" width="24" height="24"><g fill="none" fill-rule="evenodd"><path d="M24 0v24H0V0zM12.594 23.258l-.012.002-.071.035-.02.004-.014-.004-.071-.036c-.01-.003-.019 0-.024.006l-.004.01-.017.428.005.02.01.013.104.074.015.004.012-.004.104-.074.012-.016.004-.017-.017-.427c-.002-.01-.009-.017-.016-.018m.264-.113-.014.002-.184.093-.01.01-.003.011.018.43.005.012.008.008.201.092c.012.004.023 0 .029-.008l.004-.014-.034-.614c-.003-.012-.01-.02-.02-.022m-.715.002a.023.023 0 0 0-.027.006l-.006.014-.034.614c0 .012.007.02.017.024l.015-.002.201-.093.01-.008.003-.011.018-.43-.003-.012-.01-.01z"/><path fill="currentColor" d="M19 4a3 3 0 0 1 2.995 2.824L22 7v10a3 3 0 0 1-2.824 2.995L19 20H5a3 3 0 0 1-2.995-2.824L2 17V7a3 3 0 0 1 2.824-2.995L5 4zm0 2H5a1 1 0 0 0-.993.883L4 7v10a1 1 0 0 0 .883.993L5 18h14a1 1 0 0 0 .993-.883L20 17V7a1 1 0 0 0-.883-.993zm-6.646 2.992a2.6 2.6 0 0 1 3.4-1.033l.152.08.593.344a2.714 2.714 0 0 1 .994 3.708 3.285 3.285 0 0 1-2.91 1.642l-.205-.01.968 1.677a1 1 0 0 1-1.668 1.098l-.064-.098L12 13.605 10.386 16.4a1 1 0 0 1-1.784-.895l.052-.105.968-1.677a3.286 3.286 0 0 1-3.115-1.632 2.714 2.714 0 0 1 .842-3.614l.152-.094.594-.343a2.6 2.6 0 0 1 3.46.806l.091.146.354.612zm1.732 1-.7 1.212.619.357a1.286 1.286 0 0 0 1.756-.47.714.714 0 0 0-.262-.976l-.594-.343a.6.6 0 0 0-.82.22m-4.172 0a.6.6 0 0 0-.731-.262l-.088.042-.594.343a.714.714 0 0 0-.262.976 1.286 1.286 0 0 0 1.64.53l.117-.06.618-.357z"/></g></svg>