<svg xmlns="http://www.w3.org/2000/svg" width="24" height="24"><g fill="none" fill-rule="evenodd"><path d="M24 0v24H0V0zM12.593 23.258l-.011.002-.071.035-.02.004-.014-.004-.071-.035c-.01-.004-.019-.001-.024.005l-.004.01-.017.428.005.02.01.013.104.074.015.004.012-.004.104-.074.012-.016.004-.017-.017-.427c-.002-.01-.009-.017-.017-.018m.265-.113-.013.002-.185.093-.01.01-.003.011.018.43.005.012.008.007.201.093c.012.004.023 0 .029-.008l.004-.014-.034-.614c-.003-.012-.01-.02-.02-.022m-.715.002a.023.023 0 0 0-.027.006l-.006.014-.034.614c0 .012.007.02.017.024l.015-.002.201-.093.01-.008.004-.011.017-.43-.003-.012-.01-.01z"/><path fill="currentColor" d="M12.793 3.172a1 1 0 0 1 1.497 1.32l-.083.094-.414.414H16a3 3 0 0 1 2.995 2.824L19 8v7.17A3.001 3.001 0 0 1 18 21a3 3 0 0 1-1.172-5.762L17 15.17V8a1 1 0 0 0-.883-.993L16 7h-2.207l.414.414a1 1 0 0 1-1.32 1.498l-.094-.084-2.121-2.12a1 1 0 0 1-.084-1.321l.084-.094 2.12-2.121ZM6 3a3 3 0 0 1 1.172 5.762L7 8.83v6.342A3.001 3.001 0 0 1 6 21a3 3 0 0 1-1.172-5.762L5 15.17V8.829A3.001 3.001 0 0 1 6 3m12 14a1 1 0 1 0 0 2 1 1 0 0 0 0-2M6 17a1 1 0 1 0 0 2 1 1 0 0 0 0-2M6 5a1 1 0 1 0 0 2 1 1 0 0 0 0-2"/></g></svg>