<svg xmlns="http://www.w3.org/2000/svg" width="24" height="24"><g fill="none"><path d="M24 0v24H0V0zM12.594 23.258l-.012.002-.071.035-.02.004-.014-.004-.071-.036c-.01-.003-.019 0-.024.006l-.004.01-.017.428.005.02.01.013.104.074.015.004.012-.004.104-.074.012-.016.004-.017-.017-.427c-.002-.01-.009-.017-.016-.018m.264-.113-.014.002-.184.093-.01.01-.003.011.018.43.005.012.008.008.201.092c.012.004.023 0 .029-.008l.004-.014-.034-.614c-.003-.012-.01-.02-.02-.022m-.715.002a.023.023 0 0 0-.027.006l-.006.014-.034.614c0 .012.007.02.017.024l.015-.002.201-.093.01-.008.003-.011.018-.43-.003-.012-.01-.01z"/><path fill="currentColor" d="M12 2c5.523 0 10 4.477 10 10s-4.477 10-10 10S2 17.523 2 12 6.477 2 12 2m0 2a8 8 0 1 0 0 16 8 8 0 0 0 0-16M9.243 6.212a5.77 5.77 0 0 1 1.17.553A7.12 7.12 0 0 1 12 6.588c.548 0 1.08.061 1.586.177a5.773 5.773 0 0 1 1.17-.553l.284-.092c.393-.117.83-.193 1.197-.01.17.085.312.218.414.378.208.326.283.746.329 1.123.042.346.057.799-.033 1.27.447.635.72 1.387.72 2.207 0 1.845-1.315 3.262-3.005 3.976.038.147.065.299.078.455l.01.246-.029 2.745a1 1 0 1 1-2-.02l.029-2.74a.743.743 0 0 0-.168-.468l-.068-.073c-.604-.57-.296-1.561.493-1.719 1.74-.347 2.66-1.446 2.66-2.402 0-.447-.182-.897-.557-1.306a1.006 1.006 0 0 1-.23-.94l.04-.123c.053-.127.082-.285.09-.456a3.336 3.336 0 0 0-.62.375 1.02 1.02 0 0 1-.913.167A5.028 5.028 0 0 0 12 8.588c-.53 0-1.029.079-1.479.217a1.02 1.02 0 0 1-.913-.166 3.336 3.336 0 0 0-.621-.376c.006.129.024.25.055.356l.036.101c.149.361.075.776-.189 1.063-.375.409-.556.858-.556 1.305 0 .956.92 2.055 2.66 2.402.751.15 1.067 1.057.573 1.635l-.08.084a.745.745 0 0 0-.229.44l-.007.116-.029 2.745a1 1 0 1 1-2-.02l.005-.457c-.388-.001-.735-.07-1.046-.202a2.595 2.595 0 0 1-.985-.757 1.689 1.689 0 0 1-.13-.188l-.141-.234c-.123-.2-.26-.392-.411-.44a.75.75 0 1 1 .474-1.423c.437.145.715.458.894.69.16.208.298.433.466.635.137.164.265.271.419.336.106.045.256.084.476.083l.008-.784c0-.237.03-.466.088-.685-1.69-.714-3.005-2.131-3.005-3.976 0-.82.272-1.57.718-2.205a4.156 4.156 0 0 1-.033-1.271c.046-.377.12-.798.329-1.124.102-.16.244-.292.414-.378.366-.183.804-.107 1.197.01z"/></g></svg>