<svg xmlns="http://www.w3.org/2000/svg" width="24" height="24"><g fill="none"><path d="M24 0v24H0V0zM12.594 23.258l-.012.002-.071.035-.02.004-.014-.004-.071-.036c-.01-.003-.019 0-.024.006l-.004.01-.017.428.005.02.01.013.104.074.015.004.012-.004.104-.074.012-.016.004-.017-.017-.427c-.002-.01-.009-.017-.016-.018m.264-.113-.014.002-.184.093-.01.01-.003.011.018.43.005.012.008.008.201.092c.012.004.023 0 .029-.008l.004-.014-.034-.614c-.003-.012-.01-.02-.02-.022m-.715.002a.023.023 0 0 0-.027.006l-.006.014-.034.614c0 .012.007.02.017.024l.015-.002.201-.093.01-.008.003-.011.018-.43-.003-.012-.01-.01z"/><path fill="currentColor" d="M4.455 9.333a8.004 8.004 0 0 1 15.09 0 1 1 0 0 0 1.886-.666C20.058 4.784 16.356 2 12 2 7.643 2 3.94 4.784 2.568 8.667a1 1 0 1 0 1.886.666Zm0 5.334a1 1 0 1 0-1.886.666C3.942 19.216 7.644 22 12 22c4.356 0 8.058-2.784 9.43-6.667a1 1 0 1 0-1.885-.666 8.004 8.004 0 0 1-15.09 0M13.5 12a1.5 1.5 0 1 1-3 0 1.5 1.5 0 0 1 3 0M2 12a1 1 0 0 1 1-1h5a1 1 0 1 1 0 2H3a1 1 0 0 1-1-1m13 0a1 1 0 0 1 1-1h5a1 1 0 1 1 0 2h-5a1 1 0 0 1-1-1"/></g></svg>