<svg xmlns="http://www.w3.org/2000/svg" width="24" height="24"><g fill="none"><path d="M24 0v24H0V0zM12.594 23.258l-.012.002-.071.035-.02.004-.014-.004-.071-.036c-.01-.003-.019 0-.024.006l-.004.01-.017.428.005.02.01.013.104.074.015.004.012-.004.104-.074.012-.016.004-.017-.017-.427c-.002-.01-.009-.017-.016-.018m.264-.113-.014.002-.184.093-.01.01-.003.011.018.43.005.012.008.008.201.092c.012.004.023 0 .029-.008l.004-.014-.034-.614c-.003-.012-.01-.02-.02-.022m-.715.002a.023.023 0 0 0-.027.006l-.006.014-.034.614c0 .012.007.02.017.024l.015-.002.201-.093.01-.008.003-.011.018-.43-.003-.012-.01-.01z"/><path fill="currentColor" d="M6.356 3.235a1 1 0 0 1 1.168-.087c3.456 2.127 5.35 4.818 6.36 7.78.25.733.445 1.48.596 2.236 1.029-1.73 2.673-3.102 5.149-4.092a1 1 0 0 1 1.329 1.215l-.181.604C19.417 15.419 19 16.806 19 20a1 1 0 1 1-2 0c0-3.055.38-4.7 1.37-8.042-1.122.744-1.861 1.608-2.357 2.565C15.248 15.997 15 17.805 15 20a1 1 0 1 1-2 0c0-2.992-.13-5.847-1.009-8.427-.59-1.729-1.522-3.351-3.018-4.802C9.99 10.631 10 14.355 10 19.745V20a1 1 0 1 1-2 0c0-2.29-.01-4.371-.577-6.13-.326-1.013-.84-1.92-1.683-2.674C6.66 14.349 7 16.683 7 20a1 1 0 1 1-2 0c0-3.864-.472-6.255-1.949-10.684a1 1 0 0 1 1.32-1.244c1.395.557 2.455 1.301 3.255 2.18a24.109 24.109 0 0 0-1.554-5.88 1 1 0 0 1 .284-1.137"/></g></svg>