<svg xmlns="http://www.w3.org/2000/svg" width="24" height="24"><g fill="none" fill-rule="evenodd"><path d="M24 0v24H0V0zM12.593 23.258l-.011.002-.071.035-.02.004-.014-.004-.071-.035c-.01-.004-.019-.001-.024.005l-.004.01-.017.428.005.02.01.013.104.074.015.004.012-.004.104-.074.012-.016.004-.017-.017-.427c-.002-.01-.009-.017-.017-.018m.265-.113-.013.002-.185.093-.01.01-.003.011.018.43.005.012.008.007.201.093c.012.004.023 0 .029-.008l.004-.014-.034-.614c-.003-.012-.01-.02-.02-.022m-.715.002a.023.023 0 0 0-.027.006l-.006.014-.034.614c0 .012.007.02.017.024l.015-.002.201-.093.01-.008.004-.011.017-.43-.003-.012-.01-.01z"/><path fill="currentColor" d="M12 3a9 9 0 0 1 9 9v6a3 3 0 0 1-3 3h-1.382a2 2 0 0 1-1.735-1.006C13.947 20.635 12.916 21 12 21c-.916 0-1.947-.366-2.883-1.006A2 2 0 0 1 7.382 21H6a3 3 0 0 1-3-3v-6a9 9 0 0 1 9-9m0 2a7 7 0 0 0-7 7v6a1 1 0 0 0 1 1h1.382l.209-.418C6.661 17.429 6 15.88 6 14c0-.79.133-1.574.373-2.312a1 1 0 0 1 .983-.69 4.537 4.537 0 0 0 3.826-1.91 1 1 0 0 1 1.636 0 4.536 4.536 0 0 0 3.826 1.91 1 1 0 0 1 .983.69c.24.738.373 1.521.373 2.312 0 1.88-.661 3.429-1.591 4.582l.209.418H18a1 1 0 0 0 1-1v-6a7 7 0 0 0-7-7m0 6.19a6.48 6.48 0 0 1-3.898 1.782A5.34 5.34 0 0 0 8 14c0 1.618.657 2.872 1.506 3.727.88.887 1.89 1.273 2.494 1.273.605 0 1.613-.386 2.494-1.273C15.343 16.872 16 15.618 16 14a5.33 5.33 0 0 0-.102-1.027A6.48 6.48 0 0 1 12 11.19"/></g></svg>