<svg xmlns="http://www.w3.org/2000/svg" width="24" height="24"><g fill="none" fill-rule="evenodd"><path d="M24 0v24H0V0zM12.594 23.258l-.012.002-.071.035-.02.004-.014-.004-.071-.036c-.01-.003-.019 0-.024.006l-.004.01-.017.428.005.02.01.013.104.074.015.004.012-.004.104-.074.012-.016.004-.017-.017-.427c-.002-.01-.009-.017-.016-.018m.264-.113-.014.002-.184.093-.01.01-.003.011.018.43.005.012.008.008.201.092c.012.004.023 0 .029-.008l.004-.014-.034-.614c-.003-.012-.01-.02-.02-.022m-.715.002a.023.023 0 0 0-.027.006l-.006.014-.034.614c0 .012.007.02.017.024l.015-.002.201-.093.01-.008.003-.011.018-.43-.003-.012-.01-.01z"/><path fill="currentColor" d="m11.253 11.79.226.05 3.716.928c1.171.293 1.76 1.528 1.39 2.64l.32-.22.646-.462c.325-.23.657-.448 1.002-.62 1.536-.768 3.334.291 3.442 1.971l.005.16v.055c0 .697-.3 1.357-.82 1.814l-.147.12-3.07 2.302c-.299.224-.636.39-.994.49l-.218.052-3.21.642a5 5 0 0 1-2.964-.314l-.252-.117-2.35-1.175a1 1 0 0 0-.331-.1L7.528 20h-.796a2 2 0 0 1-1.563.993L5 21H4a2 2 0 0 1-1.995-1.85L2 19v-4a2 2 0 0 1 1.85-1.994L4 13h1c.484 0 .928.172 1.274.459l.125.112 1.99-1.243a4 4 0 0 1 2.636-.575zm-1.804 2.234L7 15.554V18h.528a3 3 0 0 1 1.342.317l2.35 1.175a3 3 0 0 0 1.93.258l3.209-.642a.998.998 0 0 0 .404-.18l3.07-2.303c.128-.096.167-.237.167-.389a.382.382 0 0 0-.513-.359l-2.428 1.62a3 3 0 0 1-1.665.503H12v-2h1.559a1 1 0 0 0 .948-.684l.203-.608-3.716-.928a2 2 0 0 0-1.545.244M5 15H4v4h1zM16 3.47c1.03-.644 2.212-.593 3.166-.037 1.112.648 1.866 1.942 1.833 3.422-.041 1.835-1.41 3.344-3.438 4.6l-.398.239c-.358.212-.74.418-1.163.418-.423 0-.805-.206-1.163-.418l-.398-.24C12.41 10.198 11.042 8.69 11 6.854c-.033-1.48.721-2.774 1.833-3.422.954-.556 2.135-.607 3.166.037Zm2.159 1.691c-.379-.22-.83-.246-1.278.136l-.206.19a1.084 1.084 0 0 1-1.35 0l-.206-.19c-.449-.382-.9-.357-1.278-.136-.461.269-.858.87-.84 1.65.017.778.618 1.78 2.468 2.929l.238.144.293.171.293-.17C18.33 8.673 18.981 7.62 19 6.808c.018-.779-.379-1.38-.84-1.649Z"/></g></svg>