<svg xmlns="http://www.w3.org/2000/svg" width="24" height="24"><g fill="none" fill-rule="evenodd"><path d="M24 0v24H0V0zM12.593 23.258l-.011.002-.071.035-.02.004-.014-.004-.071-.035c-.01-.004-.019-.001-.024.005l-.004.01-.017.428.005.02.01.013.104.074.015.004.012-.004.104-.074.012-.016.004-.017-.017-.427c-.002-.01-.009-.017-.017-.018m.265-.113-.013.002-.185.093-.01.01-.003.011.018.43.005.012.008.007.201.093c.012.004.023 0 .029-.008l.004-.014-.034-.614c-.003-.012-.01-.02-.02-.022m-.715.002a.023.023 0 0 0-.027.006l-.006.014-.034.614c0 .012.007.02.017.024l.015-.002.201-.093.01-.008.004-.011.017-.43-.003-.012-.01-.01z"/><path fill="currentColor" fill-rule="nonzero" d="M12 2c5.517 0 10 4.445 10 9.943 0 1.362-.169 2.341-.426 3.133-.611 1.882-1.874 3.465-3.302 4.8-.982.918-2.439.778-3.314-.092-1.242-1.235-1.582-3.152-.235-4.49l.92-.915a2.5 2.5 0 0 1 3.472-.05c.277.26.414.57.557.13.181-.56.328-1.327.328-2.516C20 7.562 16.424 4 12 4c-4.424 0-8 3.562-8 7.943 0 1.19.147 1.955.328 2.516.143.44.28.13.557-.13a2.5 2.5 0 0 1 3.472.05l.92.915c1.347 1.338 1.007 3.255-.235 4.49-.875.87-2.332 1.01-3.314.093-1.438-1.344-2.687-2.908-3.302-4.8C2.17 14.283 2 13.304 2 11.942 2 6.445 6.483 2 12 2m5.052 13.798c-.578.574-1.79 1.467-.92 2.333.192.19.491.548.774.284.638-.596 1.263-1.27 1.683-1.837-.33-.31-1.026-1.287-1.537-.78m-10.104 0c-.51-.507-1.207.47-1.537.78.42.567 1.045 1.24 1.683 1.837.282.264.582-.093.774-.284.87-.866-.342-1.759-.92-2.333"/></g></svg>