<svg xmlns="http://www.w3.org/2000/svg" width="24" height="24"><g fill="none" fill-rule="evenodd"><path d="M24 0v24H0V0zM12.594 23.258l-.012.002-.071.035-.02.004-.014-.004-.071-.036c-.01-.003-.019 0-.024.006l-.004.01-.017.428.005.02.01.013.104.074.015.004.012-.004.104-.074.012-.016.004-.017-.017-.427c-.002-.01-.009-.017-.016-.018m.264-.113-.014.002-.184.093-.01.01-.003.011.018.43.005.012.008.008.201.092c.012.004.023 0 .029-.008l.004-.014-.034-.614c-.003-.012-.01-.02-.02-.022m-.715.002a.023.023 0 0 0-.027.006l-.006.014-.034.614c0 .012.007.02.017.024l.015-.002.201-.093.01-.008.003-.011.018-.43-.003-.012-.01-.01z"/><path fill="currentColor" d="M5 10a8 8 0 1 1 13 6.245V20.5a1.5 1.5 0 0 1-1.5 1.5h-5a1.5 1.5 0 0 1-1.5-1.5V19H8.766a3 3 0 0 1-2.977-2.628l-.14-1.123-.747-.149a1.5 1.5 0 0 1-1.09-2.048l1.19-2.858A8.157 8.157 0 0 1 5 10m8-6a6 6 0 0 0-5.996 6.226c.008.21-.027.43-.115.64l-.997 2.393.502.1a1.5 1.5 0 0 1 1.194 1.285l.185 1.48a1 1 0 0 0 .993.876H10.5a1.5 1.5 0 0 1 1.5 1.5V20h4v-3.994c0-.497.244-.937.609-1.212A6 6 0 0 0 13 4"/></g></svg>