<svg xmlns="http://www.w3.org/2000/svg" width="24" height="24"><g fill="none"><path d="M24 0v24H0V0zM12.593 23.258l-.011.002-.071.035-.02.004-.014-.004-.071-.035c-.01-.004-.019-.001-.024.005l-.004.01-.017.428.005.02.01.013.104.074.015.004.012-.004.104-.074.012-.016.004-.017-.017-.427c-.002-.01-.009-.017-.017-.018m.265-.113-.013.002-.185.093-.01.01-.003.011.018.43.005.012.008.007.201.093c.012.004.023 0 .029-.008l.004-.014-.034-.614c-.003-.012-.01-.02-.02-.022m-.715.002a.023.023 0 0 0-.027.006l-.006.014-.034.614c0 .012.007.02.017.024l.015-.002.201-.093.01-.008.004-.011.017-.43-.003-.012-.01-.01z"/><path fill="currentColor" d="M13 3a1 1 0 0 1 .993.883L14 4v16a1 1 0 0 1-1.993.117L12 20v-7H5v7a1 1 0 0 1-1.993.117L3 20V4a1 1 0 0 1 1.993-.117L5 4v7h7V4a1 1 0 0 1 1-1m5.371 9.5a2.633 2.633 0 0 1 2.07 4.25c.359.457.559 1.026.559 1.617A2.633 2.633 0 0 1 18.37 21c-1.052 0-2.039-.35-2.484-1.398-.241-.569-.229-1.25.436-1.533a1 1 0 0 1 1.26.426l.052.104c.138.326.278.387.541.398l.195.003a.633.633 0 0 0 .629-.633c0-.373-.285-.578-.614-.612l-.1-.005a1 1 0 0 1-.117-1.993l.117-.007c.37 0 .714-.207.714-.617a.633.633 0 0 0-.629-.633l-.194.003c-.234.01-.371.06-.496.299l-.046.099a1 1 0 0 1-1.311.53c-.679-.288-.668-.81-.563-1.189l.05-.152.076-.192c.445-1.048 1.433-1.398 2.484-1.398Z"/></g></svg>