<svg xmlns="http://www.w3.org/2000/svg" width="24" height="24"><g fill="none" fill-rule="evenodd"><path d="M24 0v24H0V0zM12.594 23.258l-.012.002-.071.035-.02.004-.014-.004-.071-.036c-.01-.003-.019 0-.024.006l-.004.01-.017.428.005.02.01.013.104.074.015.004.012-.004.104-.074.012-.016.004-.017-.017-.427c-.002-.01-.009-.017-.016-.018m.264-.113-.014.002-.184.093-.01.01-.003.011.018.43.005.012.008.008.201.092c.012.004.023 0 .029-.008l.004-.014-.034-.614c-.003-.012-.01-.02-.02-.022m-.715.002a.023.023 0 0 0-.027.006l-.006.014-.034.614c0 .012.007.02.017.024l.015-.002.201-.093.01-.008.003-.011.018-.43-.003-.012-.01-.01z"/><path fill="currentColor" d="M12 4.339c2.072-1.686 4.534-1.68 6.494-.538 2.095 1.221 3.569 3.7 3.504 6.592-.079 3.52-2.752 6.634-7.323 9.424l-.721.431c-.201.119-.424.246-.642.356-.405.206-.85.396-1.312.396-.463 0-.907-.19-1.313-.396a10.26 10.26 0 0 1-.433-.235l-.573-.338c-4.788-2.844-7.598-6.029-7.679-9.638-.065-2.892 1.409-5.37 3.504-6.592C7.466 2.66 9.928 2.653 12 4.34m-5.487 1.19c-1.444.842-2.56 2.629-2.511 4.82.056 2.511 2.04 5.194 6.7 7.963.302.179.604.363.891.509.336.17.478.17.814 0 .191-.097.39-.212.59-.33l.301-.18c2.351-1.396 4.02-2.77 5.106-4.113a4.267 4.267 0 0 1-2.949-1.251l-1.19-1.19-.762.762a4.044 4.044 0 0 1-5.719 0 2.826 2.826 0 0 1 0-3.997l2.771-2.773c-1.356-.996-2.83-.925-4.042-.22m6.498.58-.191.186c-.031.043-.066.084-.105.122l-3.517 3.52a.826.826 0 0 0 0 1.168 2.044 2.044 0 0 0 2.89 0l.866-.866a1.854 1.854 0 0 1 2.622 0l1.293 1.294a2.275 2.275 0 0 0 2.88.278c.157-.493.239-.981.25-1.463.049-2.19-1.068-3.977-2.512-4.818-1.342-.782-3.007-.785-4.476.578"/></g></svg>