<svg xmlns="http://www.w3.org/2000/svg" width="24" height="24"><g fill="none" fill-rule="evenodd"><path d="M24 0v24H0V0zM12.594 23.258l-.012.002-.071.035-.02.004-.014-.004-.071-.036c-.01-.003-.019 0-.024.006l-.004.01-.017.428.005.02.01.013.104.074.015.004.012-.004.104-.074.012-.016.004-.017-.017-.427c-.002-.01-.009-.017-.016-.018m.264-.113-.014.002-.184.093-.01.01-.003.011.018.43.005.012.008.008.201.092c.012.004.023 0 .029-.008l.004-.014-.034-.614c-.003-.012-.01-.02-.02-.022m-.715.002a.023.023 0 0 0-.027.006l-.006.014-.034.614c0 .012.007.02.017.024l.015-.002.201-.093.01-.008.003-.011.018-.43-.003-.012-.01-.01z"/><path fill="currentColor" d="M11 2.423a2 2 0 0 1 2 0l2.464 1.422a2 2 0 0 1 1 1.732v2.846a2 2 0 0 1-1 1.732L13 11.577a2 2 0 0 1-2 0l-2.464-1.422a2 2 0 0 1-1-1.732V5.577a2 2 0 0 1 1-1.732zm1 1.732L9.536 5.577v2.846L12 9.845l2.464-1.422V5.577zm-6.33 7.768a2 2 0 0 1 2 0l2.464 1.422a2 2 0 0 1 1 1.732v2.846a2 2 0 0 1-1 1.732L7.67 21.077a2 2 0 0 1-2 0l-2.464-1.422a2 2 0 0 1-1-1.732v-2.846a2 2 0 0 1 1-1.732zm10.66 0a2 2 0 0 1 2 0l2.464 1.422a2 2 0 0 1 1 1.732v2.846a2 2 0 0 1-1 1.732l-2.464 1.422a2 2 0 0 1-2 0l-2.464-1.422a2 2 0 0 1-1-1.732v-2.846a2 2 0 0 1 1-1.732zm-9.66 1.732-2.464 1.422v2.846l2.464 1.422 2.464-1.422v-2.846zm10.66 0-2.464 1.422v2.846l2.464 1.422 2.464-1.422v-2.846z"/></g></svg>