<svg xmlns="http://www.w3.org/2000/svg" width="24" height="24"><g fill="none"><path d="M24 0v24H0V0zM12.593 23.258l-.011.002-.071.035-.02.004-.014-.004-.071-.035c-.01-.004-.019-.001-.024.005l-.004.01-.017.428.005.02.01.013.104.074.015.004.012-.004.104-.074.012-.016.004-.017-.017-.427c-.002-.01-.009-.017-.017-.018m.265-.113-.013.002-.185.093-.01.01-.003.011.018.43.005.012.008.007.201.093c.012.004.023 0 .029-.008l.004-.014-.034-.614c-.003-.012-.01-.02-.02-.022m-.715.002a.023.023 0 0 0-.027.006l-.006.014-.034.614c0 .012.007.02.017.024l.015-.002.201-.093.01-.008.004-.011.017-.43-.003-.012-.01-.01z"/><path fill="currentColor" d="M3.34 7C6.101 2.217 12.217.58 17 3.34a10.003 10.003 0 0 1 4.682 11.173c-.217.832-1.222 1.074-1.808.531l-.084-.087-2.252-2.587c-.685-.787.008-1.972.997-1.81l.11.023 1.282.335a8 8 0 1 0-2.06 6.524 1 1 0 1 1 1.468 1.358C16.233 22.151 11.123 23.04 7 20.66 2.217 17.9.58 11.783 3.34 7M12 6a1 1 0 0 1 .993.883L13 7v4.586l2.707 2.707a1 1 0 0 1-1.32 1.497l-.094-.083-3-3a1 1 0 0 1-.284-.576L11 12V7a1 1 0 0 1 1-1"/></g></svg>