<svg xmlns="http://www.w3.org/2000/svg" width="24" height="24"><g fill="none" fill-rule="evenodd"><path d="M24 0v24H0V0zM12.594 23.258l-.012.002-.071.035-.02.004-.014-.004-.071-.036c-.01-.003-.019 0-.024.006l-.004.01-.017.428.005.02.01.013.104.074.015.004.012-.004.104-.074.012-.016.004-.017-.017-.427c-.002-.01-.009-.017-.016-.018m.264-.113-.014.002-.184.093-.01.01-.003.011.018.43.005.012.008.008.201.092c.012.004.023 0 .029-.008l.004-.014-.034-.614c-.003-.012-.01-.02-.02-.022m-.715.002a.023.023 0 0 0-.027.006l-.006.014-.034.614c0 .012.007.02.017.024l.015-.002.201-.093.01-.008.003-.011.018-.43-.003-.012-.01-.01z"/><path fill="currentColor" d="M14.5 3a6.5 6.5 0 0 1 6.496 6.267L21 9.5v6a6.5 6.5 0 0 1-6.267 6.496L14.5 22h-5a6.5 6.5 0 0 1-6.496-6.267L3 15.5v-6a6.5 6.5 0 0 1 6.267-6.496L9.5 3zm3.931 4.308c-.092.095-.188.18-.284.256-.428.338-.987.599-1.588.799C15.346 8.767 13.734 9 12 9s-3.346-.233-4.559-.637c-.601-.2-1.16-.461-1.588-.8a2.813 2.813 0 0 1-.284-.255 4.474 4.474 0 0 0-.561 1.929L5 9.5v6a4.5 4.5 0 0 0 4.288 4.495L9.5 20h5a4.5 4.5 0 0 0 4.495-4.288L19 15.5v-6a4.48 4.48 0 0 0-.569-2.192M12 5c-1.58 0-2.968.215-3.926.534-.477.16-.795.327-.975.466.18.14.498.307.975.466C9.032 6.786 10.42 7 12 7s2.967-.215 3.926-.534c.477-.16.795-.327.975-.466-.18-.14-.498-.307-.975-.466C14.967 5.214 13.58 5 12 5"/></g></svg>