<svg xmlns="http://www.w3.org/2000/svg" width="24" height="24"><g fill="none" fill-rule="evenodd"><path d="M24 0v24H0V0zM12.594 23.258l-.012.002-.071.035-.02.004-.014-.004-.071-.036c-.01-.003-.019 0-.024.006l-.004.01-.017.428.005.02.01.013.104.074.015.004.012-.004.104-.074.012-.016.004-.017-.017-.427c-.002-.01-.009-.017-.016-.018m.264-.113-.014.002-.184.093-.01.01-.003.011.018.43.005.012.008.008.201.092c.012.004.023 0 .029-.008l.004-.014-.034-.614c-.003-.012-.01-.02-.02-.022m-.715.002a.023.023 0 0 0-.027.006l-.006.014-.034.614c0 .012.007.02.017.024l.015-.002.201-.093.01-.008.003-.011.018-.43-.003-.012-.01-.01z"/><path fill="currentColor" d="M10.671 2.843a2 2 0 0 1 2.658 0l3.934 3.497.25-1.504a1 1 0 1 1 1.973.328L19.03 7.91l2.635 2.343a1 1 0 0 1-1.328 1.494l-.464-.412-.787 7.864A2 2 0 0 1 17.095 21H6.905a2 2 0 0 1-1.99-1.801l-.786-7.864-.465.412a1 1 0 0 1-1.328-1.494zM5.957 9.71c.019.062.031.125.038.191l.91 9.1h10.19l.91-9.1c.007-.066.02-.13.038-.19L12 4.337z"/></g></svg>