<svg xmlns="http://www.w3.org/2000/svg" width="24" height="24"><g fill="none"><path d="M24 0v24H0V0zM12.593 23.258l-.011.002-.071.035-.02.004-.014-.004-.071-.035c-.01-.004-.019-.001-.024.005l-.004.01-.017.428.005.02.01.013.104.074.015.004.012-.004.104-.074.012-.016.004-.017-.017-.427c-.002-.01-.009-.017-.017-.018m.265-.113-.013.002-.185.093-.01.01-.003.011.018.43.005.012.008.007.201.093c.012.004.023 0 .029-.008l.004-.014-.034-.614c-.003-.012-.01-.02-.02-.022m-.715.002a.023.023 0 0 0-.027.006l-.006.014-.034.614c0 .012.007.02.017.024l.015-.002.201-.093.01-.008.004-.011.017-.43-.003-.012-.01-.01z"/><path fill="currentColor" d="M18 3a3 3 0 0 1 2.995 2.824L21 6v12a3 3 0 0 1-2.824 2.995L18 21H6a3 3 0 0 1-2.995-2.824L3 18V6a3 3 0 0 1 2.824-2.995L6 3zm-2.707 13.708A2.99 2.99 0 0 1 14 17H5v1a1 1 0 0 0 1 1h11.586zM18 5h-1v9c0 .386-.073.755-.206 1.094l-.086.2L19 17.585V6a1 1 0 0 0-.883-.993zm-3 0H6a1 1 0 0 0-.993.883L5 6v9h9a1 1 0 0 0 .993-.883L15 14zM9 7a1 1 0 0 1 .993.883L10 8v.631l1.445-.963a1 1 0 0 1 1.203 1.594l-.093.07-1.377.918 1.377.918a1 1 0 0 1-1.009 1.723l-.1-.059L10 11.868V12a1 1 0 0 1-1.993.117L8 12V8a1 1 0 0 1 1-1"/></g></svg>