<svg xmlns="http://www.w3.org/2000/svg" width="24" height="24"><g fill="none" fill-rule="evenodd"><path d="M24 0v24H0V0zM12.594 23.258l-.012.002-.071.035-.02.004-.014-.004-.071-.036c-.01-.003-.019 0-.024.006l-.004.01-.017.428.005.02.01.013.104.074.015.004.012-.004.104-.074.012-.016.004-.017-.017-.427c-.002-.01-.009-.017-.016-.018m.264-.113-.014.002-.184.093-.01.01-.003.011.018.43.005.012.008.008.201.092c.012.004.023 0 .029-.008l.004-.014-.034-.614c-.003-.012-.01-.02-.02-.022m-.715.002a.023.023 0 0 0-.027.006l-.006.014-.034.614c0 .012.007.02.017.024l.015-.002.201-.093.01-.008.003-.011.018-.43-.003-.012-.01-.01z"/><path fill="currentColor" d="M12 2a5 5 0 0 1 4.645 3.147 4.502 4.502 0 0 1 3.31 4.995 1.73 1.73 0 0 1-.193.531l-.067.12-5.967 10.23c-.745 1.276-2.549 1.321-3.369.137l-.087-.137-5.967-10.23c-.111-.19-.228-.432-.26-.651a4.502 4.502 0 0 1 3.31-4.995A5 5 0 0 1 12 2m4.758 9.858c-1.268.34-2.911.642-4.758.642a18.43 18.43 0 0 1-4.46-.564l-.298-.078L12 20.015zM15.5 7A2.5 2.5 0 0 0 13 9.5v.967c1.68-.11 3.116-.474 4.11-.8l.398-.136.34-.126.147-.058A2.5 2.5 0 0 0 15.5 7m-7 0a2.5 2.5 0 0 0-2.495 2.347l.31.12.37.132c.995.34 2.516.75 4.315.868V9.5A2.5 2.5 0 0 0 8.5 7M12 4c-.956 0-1.81.448-2.359 1.146.942.246 1.764.79 2.359 1.525a4.502 4.502 0 0 1 2.359-1.525A2.996 2.996 0 0 0 12 4"/></g></svg>