<svg xmlns="http://www.w3.org/2000/svg" width="24" height="24"><g fill="none"><path d="M24 0v24H0V0zM12.593 23.258l-.011.002-.071.035-.02.004-.014-.004-.071-.035c-.01-.004-.019-.001-.024.005l-.004.01-.017.428.005.02.01.013.104.074.015.004.012-.004.104-.074.012-.016.004-.017-.017-.427c-.002-.01-.009-.017-.017-.018m.265-.113-.013.002-.185.093-.01.01-.003.011.018.43.005.012.008.007.201.093c.012.004.023 0 .029-.008l.004-.014-.034-.614c-.003-.012-.01-.02-.02-.022m-.715.002a.023.023 0 0 0-.027.006l-.006.014-.034.614c0 .012.007.02.017.024l.015-.002.201-.093.01-.008.004-.011.017-.43-.003-.012-.01-.01z"/><path fill="currentColor" d="M12 3c5.344 0 10 3.643 10 8.5S17.344 20 12 20c-.525 0-1.042-.034-1.546-.1l-2.9 1.932a1 1 0 0 1-1.535-1.028l.445-2.221C3.828 17.09 2 14.517 2 11.5 2 6.643 6.656 3 12 3m0 2c-4.597 0-8 3.073-8 6.5 0 2.335 1.544 4.475 4.017 5.635a1 1 0 0 1 .556 1.101l-.119.593 1.211-.808a1 1 0 0 1 .72-.154c.52.087 1.06.133 1.615.133 4.597 0 8-3.073 8-6.5S16.597 5 12 5m-2 2a1 1 0 0 1 1 1v4.485l.009-.117a.997.997 0 0 1 .21-.493l2-2.5a1 1 0 0 1 1.562 1.25l-1.5 1.875 1.5 1.875a1 1 0 1 1-1.562 1.25l-2-2.5a.998.998 0 0 1-.219-.61V15a1 1 0 1 1-2 0V8a1 1 0 0 1 1-1"/></g></svg>