<svg xmlns="http://www.w3.org/2000/svg" width="24" height="24"><g fill="none" fill-rule="evenodd"><path d="M24 0v24H0V0zM12.593 23.258l-.011.002-.071.035-.02.004-.014-.004-.071-.035c-.01-.004-.019-.001-.024.005l-.004.01-.017.428.005.02.01.013.104.074.015.004.012-.004.104-.074.012-.016.004-.017-.017-.427c-.002-.01-.009-.017-.017-.018m.265-.113-.013.002-.185.093-.01.01-.003.011.018.43.005.012.008.007.201.093c.012.004.023 0 .029-.008l.004-.014-.034-.614c-.003-.012-.01-.02-.02-.022m-.715.002a.023.023 0 0 0-.027.006l-.006.014-.034.614c0 .012.007.02.017.024l.015-.002.201-.093.01-.008.004-.011.017-.43-.003-.012-.01-.01z"/><path fill="currentColor" d="M11.852 5.782a4.5 4.5 0 1 1 1.388 7.31 2.102 2.102 0 0 0-.837-.178H11.04c-.69 0-1.25.56-1.25 1.25v1.578H8.213c-.69 0-1.25.56-1.25 1.25v1.578H4.72v-1.414l5.356-5.355c.544-.544.68-1.296.55-1.931a4.495 4.495 0 0 1 1.226-4.088m7.778-1.414A6.5 6.5 0 0 0 8.666 10.27a.21.21 0 0 1-.006.118l-5.5 5.5a1.5 1.5 0 0 0-.44 1.061v2.611c0 .558.452 1.01 1.01 1.01h3.983c.69 0 1.25-.56 1.25-1.25v-1.578h1.578c.69 0 1.25-.56 1.25-1.25v-1.578h.61c.002 0 .016.002.042.013a6.502 6.502 0 0 0 7.187-10.56Zm-4.95 4.95a1.5 1.5 0 1 0 2.122-2.122 1.5 1.5 0 0 0-2.122 2.121Z"/></g></svg>