<svg xmlns="http://www.w3.org/2000/svg" width="24" height="24"><g fill="none" fill-rule="evenodd"><path d="M24 0v24H0V0zM12.594 23.258l-.012.002-.071.035-.02.004-.014-.004-.071-.036c-.01-.003-.019 0-.024.006l-.004.01-.017.428.005.02.01.013.104.074.015.004.012-.004.104-.074.012-.016.004-.017-.017-.427c-.002-.01-.009-.017-.016-.018m.264-.113-.014.002-.184.093-.01.01-.003.011.018.43.005.012.008.008.201.092c.012.004.023 0 .029-.008l.004-.014-.034-.614c-.003-.012-.01-.02-.02-.022m-.715.002a.023.023 0 0 0-.027.006l-.006.014-.034.614c0 .012.007.02.017.024l.015-.002.201-.093.01-.008.003-.011.018-.43-.003-.012-.01-.01z"/><path fill="currentColor" d="M4 12a8 8 0 1 1 16 0 8 8 0 0 1-16 0m8-10C6.477 2 2 6.477 2 12s4.477 10 10 10 10-4.477 10-10S17.523 2 12 2m-1.5 8.5a1.5 1.5 0 1 1 2.355 1.233 1 1 0 0 0-.416.985L12.82 15h-1.64l.38-2.282a1 1 0 0 0-.415-.985A1.497 1.497 0 0 1 10.5 10.5M12 7a3.5 3.5 0 0 0-2.505 5.945l-.481 2.89A1 1 0 0 0 10 17h4a1 1 0 0 0 .986-1.164l-.481-2.891A3.5 3.5 0 0 0 12 7"/></g></svg>