<svg xmlns="http://www.w3.org/2000/svg" width="24" height="24"><g fill="none" fill-rule="evenodd"><path d="M24 0v24H0V0zM12.594 23.258l-.012.002-.071.035-.02.004-.014-.004-.071-.036c-.01-.003-.019 0-.024.006l-.004.01-.017.428.005.02.01.013.104.074.015.004.012-.004.104-.074.012-.016.004-.017-.017-.427c-.002-.01-.009-.017-.016-.018m.264-.113-.014.002-.184.093-.01.01-.003.011.018.43.005.012.008.008.201.092c.012.004.023 0 .029-.008l.004-.014-.034-.614c-.003-.012-.01-.02-.02-.022m-.715.002a.023.023 0 0 0-.027.006l-.006.014-.034.614c0 .012.007.02.017.024l.015-.002.201-.093.01-.008.003-.011.018-.43-.003-.012-.01-.01z"/><path fill="currentColor" d="M12.01 2.378a2.5 2.5 0 0 1 2.985 2.29l.005.161v.551c1.503-.3 2.9.792 2.995 2.288l.005.161v.55c1.503-.3 2.9.793 2.995 2.289l.005.162v6.53a3 3 0 0 1-2.239 2.902l-.173.04-6.598 1.32a2.5 2.5 0 0 1-2.985-2.29L9 19.17v-.55l-.01.002a2.5 2.5 0 0 1-2.985-2.29L6 16.17v-.55l-.01.002a2.5 2.5 0 0 1-2.985-2.29L3 13.17V6.64a3 3 0 0 1 2.238-2.902l.174-.04zm6.392 7.961-6.598 1.32a1 1 0 0 0-.804.98v6.531a.5.5 0 0 0 .598.49l6.598-1.32a1 1 0 0 0 .804-.98v-6.53a.5.5 0 0 0-.598-.49m-3-3L8.804 8.66a1 1 0 0 0-.804.98v6.531a.5.5 0 0 0 .598.49L9 16.58v-3.94a3 3 0 0 1 2.412-2.942L16 8.78v-.95a.5.5 0 0 0-.598-.49m-3-3L5.804 5.66a1 1 0 0 0-.804.98v6.531a.5.5 0 0 0 .598.49L6 13.58V9.64a3 3 0 0 1 2.412-2.942L13 5.78v-.95a.5.5 0 0 0-.598-.49"/></g></svg>