<svg xmlns="http://www.w3.org/2000/svg" width="24" height="24"><g fill="none" fill-rule="evenodd"><path d="M24 0v24H0V0zM12.593 23.258l-.011.002-.071.035-.02.004-.014-.004-.071-.035c-.01-.004-.019-.001-.024.005l-.004.01-.017.428.005.02.01.013.104.074.015.004.012-.004.104-.074.012-.016.004-.017-.017-.427c-.002-.01-.009-.017-.017-.018m.265-.113-.013.002-.185.093-.01.01-.003.011.018.43.005.012.008.007.201.093c.012.004.023 0 .029-.008l.004-.014-.034-.614c-.003-.012-.01-.02-.02-.022m-.715.002a.023.023 0 0 0-.027.006l-.006.014-.034.614c0 .012.007.02.017.024l.015-.002.201-.093.01-.008.004-.011.017-.43-.003-.012-.01-.01z"/><path fill="currentColor" d="M6.828 15.172a1 1 0 0 1 0 1.414L6.414 17h11.172l-.414-.414a1 1 0 1 1 1.414-1.414l2.121 2.12a1 1 0 0 1 0 1.415l-2.121 2.121a1 1 0 0 1-1.414-1.414l.414-.414H6.414l.414.414a1 1 0 1 1-1.414 1.414l-2.121-2.12a1 1 0 0 1 0-1.415l2.121-2.121a1 1 0 0 1 1.414 0M15 3a1 1 0 0 1 .993.883L16 4v3.337a3.5 3.5 0 1 1-.18 6.235.999.999 0 0 1-1.813-.455L14 13V4a1 1 0 0 1 1-1M8 3a1.73 1.73 0 0 1 1.552.965l.061.139 3.319 8.534a1 1 0 0 1-1.815.83l-.049-.106L10.149 11H5.851l-.919 2.362a1 1 0 0 1-1.9-.613l.036-.111 3.319-8.534A1.73 1.73 0 0 1 8 3m9.5 6a1.5 1.5 0 1 0 0 3 1.5 1.5 0 0 0 0-3M8 5.473 6.629 9h2.743z"/></g></svg>