<svg xmlns="http://www.w3.org/2000/svg" width="24" height="24"><g fill="none" fill-rule="evenodd"><path d="M24 0v24H0V0zM12.593 23.258l-.011.002-.071.035-.02.004-.014-.004-.071-.035c-.01-.004-.019-.001-.024.005l-.004.01-.017.428.005.02.01.013.104.074.015.004.012-.004.104-.074.012-.016.004-.017-.017-.427c-.002-.01-.009-.017-.017-.018m.265-.113-.013.002-.185.093-.01.01-.003.011.018.43.005.012.008.007.201.093c.012.004.023 0 .029-.008l.004-.014-.034-.614c-.003-.012-.01-.02-.02-.022m-.715.002a.023.023 0 0 0-.027.006l-.006.014-.034.614c0 .012.007.02.017.024l.015-.002.201-.093.01-.008.004-.011.017-.43-.003-.012-.01-.01z"/><path fill="currentColor" d="M12 2c5.523 0 10 4.477 10 10s-4.477 10-10 10S2 17.523 2 12 6.477 2 12 2m2.313 14.434A4.978 4.978 0 0 1 12 17a4.981 4.981 0 0 1-2.079-.451l-.234-.115-2.183 2.184A7.963 7.963 0 0 0 12 20a7.963 7.963 0 0 0 4.237-1.213l.26-.17zm-8.93-8.93A7.963 7.963 0 0 0 4 12c0 1.667.51 3.215 1.382 4.496l2.184-2.183A4.978 4.978 0 0 1 7 12c0-.835.204-1.621.566-2.313L5.382 7.504Zm13.235 0-2.184 2.183c.362.692.566 1.479.566 2.313 0 .835-.204 1.621-.566 2.313l2.184 2.183A7.962 7.962 0 0 0 20 12c0-1.667-.51-3.215-1.382-4.496M12 9a3 3 0 1 0 0 6 3 3 0 0 0 0-6m0-5a7.962 7.962 0 0 0-4.237 1.213l-.26.17 2.184 2.183A4.978 4.978 0 0 1 12 7c.742 0 1.446.162 2.079.451l.234.115 2.183-2.184A7.963 7.963 0 0 0 12 4"/></g></svg>