<svg xmlns="http://www.w3.org/2000/svg" width="24" height="24"><g fill="none" fill-rule="evenodd"><path d="M24 0v24H0V0zM12.593 23.258l-.011.002-.071.035-.02.004-.014-.004-.071-.035c-.01-.004-.019-.001-.024.005l-.004.01-.017.428.005.02.01.013.104.074.015.004.012-.004.104-.074.012-.016.004-.017-.017-.427c-.002-.01-.009-.017-.017-.018m.265-.113-.013.002-.185.093-.01.01-.003.011.018.43.005.012.008.007.201.093c.012.004.023 0 .029-.008l.004-.014-.034-.614c-.003-.012-.01-.02-.02-.022m-.715.002a.023.023 0 0 0-.027.006l-.006.014-.034.614c0 .012.007.02.017.024l.015-.002.201-.093.01-.008.004-.011.017-.43-.003-.012-.01-.01z"/><path fill="currentColor" d="M12 19a1 1 0 0 1 .993.883L13 20v1a1 1 0 0 1-1.993.117L11 21v-1a1 1 0 0 1 1-1m-4.95-2.05a1 1 0 0 1 0 1.414l-.707.707a1 1 0 1 1-1.414-1.414l.707-.707a1 1 0 0 1 1.414 0m11.314 0 .707.707a1 1 0 0 1-1.414 1.414l-.707-.707a1 1 0 0 1 1.414-1.414M12.617 2a2 2 0 0 1 1.985 1.752l.38 3.04a6 6 0 1 1-5.964 0l.38-3.04A2 2 0 0 1 11.383 2zM12 8a4 4 0 1 0 0 8 4 4 0 0 0 0-8m-8 3a1 1 0 1 1 0 2H3a1 1 0 1 1 0-2zm17 0a1 1 0 1 1 0 2h-1a1 1 0 1 1 0-2zm-1.929-6.07a1 1 0 0 1 0 1.414l-.707.707a1 1 0 1 1-1.414-1.414l.707-.707a1 1 0 0 1 1.414 0m-12.728 0 .707.707A1 1 0 0 1 5.636 7.05l-.707-.707A1 1 0 0 1 6.343 4.93M12.617 4h-1.234l-.25 2h1.734z"/></g></svg>