<svg xmlns="http://www.w3.org/2000/svg" width="24" height="24"><g fill="none" fill-rule="evenodd"><path d="M24 0v24H0V0zM12.593 23.258l-.011.002-.071.035-.02.004-.014-.004-.071-.035c-.01-.004-.019-.001-.024.005l-.004.01-.017.428.005.02.01.013.104.074.015.004.012-.004.104-.074.012-.016.004-.017-.017-.427c-.002-.01-.009-.017-.017-.018m.265-.113-.013.002-.185.093-.01.01-.003.011.018.43.005.012.008.007.201.093c.012.004.023 0 .029-.008l.004-.014-.034-.614c-.003-.012-.01-.02-.02-.022m-.715.002a.023.023 0 0 0-.027.006l-.006.014-.034.614c0 .012.007.02.017.024l.015-.002.201-.093.01-.008.004-.011.017-.43-.003-.012-.01-.01z"/><path fill="currentColor" d="M4 11.5C4 8.073 7.403 5 12 5c4.597 0 8 3.073 8 6.5 0 1.685-.914 3.313-2.551 4.817-1.37 1.258-3.181 2.364-5.164 3.262a2.8 2.8 0 0 0-.458-1.201c-.363-.515-.92-.867-1.655-.996C6.435 16.73 4 14.4 4 11.5M12 3C6.656 3 2 6.643 2 11.5c0 4.24 3.549 7.106 7.828 7.852.367.064.459.286.493.635.047.466-.055.964.153 1.4.249.522.863.755 1.397.541 2.571-1.028 5.063-2.423 6.93-4.138C20.664 16.08 22 13.957 22 11.5 22 6.643 17.344 3 12 3m.268 6.36A1 1 0 0 0 10.5 10v3a1 1 0 0 0 2 0v-.238l.732.878A1 1 0 0 0 15 13v-3a1 1 0 1 0-2 0v.238zM7 10a1 1 0 0 0-2 0v3a1 1 0 0 0 1 1h1a1 1 0 1 0 0-2zm2-1a1 1 0 0 1 1 1v3a1 1 0 0 1-2 0v-3a1 1 0 0 1 1-1m9 2h-.134a.995.995 0 0 1 0 1H18a1 1 0 1 1 0 2h-1.5a1 1 0 0 1-1-1v-3a1 1 0 0 1 1-1H18a1 1 0 1 1 0 2"/></g></svg>