<svg xmlns="http://www.w3.org/2000/svg" width="24" height="24"><g fill="none"><path d="M24 0v24H0V0zM12.593 23.258l-.011.002-.071.035-.02.004-.014-.004-.071-.035c-.01-.004-.019-.001-.024.005l-.004.01-.017.428.005.02.01.013.104.074.015.004.012-.004.104-.074.012-.016.004-.017-.017-.427c-.002-.01-.009-.017-.017-.018m.265-.113-.013.002-.185.093-.01.01-.003.011.018.43.005.012.008.007.201.093c.012.004.023 0 .029-.008l.004-.014-.034-.614c-.003-.012-.01-.02-.02-.022m-.715.002a.023.023 0 0 0-.027.006l-.006.014-.034.614c0 .012.007.02.017.024l.015-.002.201-.093.01-.008.004-.011.017-.43-.003-.012-.01-.01z"/><path fill="currentColor" d="M5.436 16.72a1.466 1.466 0 0 1 1.22 2.275 1.466 1.466 0 0 1-1.22 2.275c-.65 0-1.163-.278-1.427-.901a.65.65 0 1 1 1.196-.508.179.179 0 0 0 .165.109c.109 0 .23-.03.23-.167 0-.1-.073-.143-.156-.154l-.051-.004a.65.65 0 0 1-.096-1.293l.096-.007c.102 0 .207-.037.207-.158 0-.137-.12-.167-.23-.167a.179.179 0 0 0-.164.11.65.65 0 1 1-1.197-.509c.264-.622.777-.9 1.427-.9ZM20 18a1 1 0 1 1 0 2H9a1 1 0 1 1 0-2zM6.08 9.945a1.552 1.552 0 0 1 .43 2.442l-.554.593h.47a.65.65 0 1 1 0 1.3H4.573a.655.655 0 0 1-.655-.654c0-.207.029-.399.177-.557L5.559 11.5c.11-.117.082-.321-.06-.392-.136-.068-.249.01-.275.142l-.006.059a.65.65 0 0 1-.65.65c-.39 0-.65-.327-.65-.697a1.482 1.482 0 0 1 2.163-1.317ZM20 11a1 1 0 0 1 .117 1.993L20 13H9a1 1 0 0 1-.117-1.993L9 11zM6.15 3.39v3.24a.65.65 0 1 1-1.3 0V4.522a.65.65 0 0 1-.46-1.183l.742-.495a.655.655 0 0 1 1.018.545ZM20 4a1 1 0 0 1 .117 1.993L20 6H9a1 1 0 0 1-.117-1.993L9 4z"/></g></svg>