<svg xmlns="http://www.w3.org/2000/svg" width="24" height="24"><g fill="none"><path d="M24 0v24H0V0zM12.593 23.258l-.011.002-.071.035-.02.004-.014-.004-.071-.035c-.01-.004-.019-.001-.024.005l-.004.01-.017.428.005.02.01.013.104.074.015.004.012-.004.104-.074.012-.016.004-.017-.017-.427c-.002-.01-.009-.017-.017-.018m.265-.113-.013.002-.185.093-.01.01-.003.011.018.43.005.012.008.007.201.093c.012.004.023 0 .029-.008l.004-.014-.034-.614c-.003-.012-.01-.02-.02-.022m-.715.002a.023.023 0 0 0-.027.006l-.006.014-.034.614c0 .012.007.02.017.024l.015-.002.201-.093.01-.008.004-.011.017-.43-.003-.012-.01-.01z"/><path fill="currentColor" d="M4 4a1 1 0 0 0 0 2h8a1 1 0 1 0 0-2zm16.837 1.606c.132-.257-.062-.556-.38-.583l-.565-.042-.464-.026-.527-.02-.585-.011h-.61l-.555.01-.504.018-.65.036-.51.04c-.296.026-.461.298-.332.552l.15.289.19.346.228.398c.04.07.084.142.129.217l.288.467.322.496.31.455c.05.072.1.141.148.208l.274.375.242.318.206.261c.183.226.53.235.704.02l.326-.415.263-.35.292-.408c.153-.217.314-.454.48-.71l.156-.243.282-.457.244-.416.108-.19.188-.345zm0 10c.132-.258-.062-.556-.38-.583l-.565-.043-.464-.025-.527-.02-.585-.011h-.61l-.555.01-.504.018-.448.023-.558.04a22.24 22.24 0 0 0-.154.012c-.296.027-.461.299-.332.553l.15.288.19.346.228.399c.04.07.084.142.129.217l.288.467.16.248c.109.17.216.33.32.482l.3.429.274.375.242.318.206.26c.183.227.53.236.704.021l.326-.415.263-.35.292-.408c.153-.217.314-.455.48-.71l.301-.476.264-.437c.081-.14.156-.27.225-.394l.188-.344zM3 12a1 1 0 0 1 1-1h8a1 1 0 1 1 0 2H4a1 1 0 0 1-1-1m1 6a1 1 0 1 0 0 2h8a1 1 0 1 0 0-2z"/></g></svg>