<svg xmlns="http://www.w3.org/2000/svg" width="24" height="24"><g fill="none" fill-rule="evenodd"><path d="M24 0v24H0V0zM12.594 23.258l-.012.002-.071.035-.02.004-.014-.004-.071-.036c-.01-.003-.019 0-.024.006l-.004.01-.017.428.005.02.01.013.104.074.015.004.012-.004.104-.074.012-.016.004-.017-.017-.427c-.002-.01-.009-.017-.016-.018m.264-.113-.014.002-.184.093-.01.01-.003.011.018.43.005.012.008.008.201.092c.012.004.023 0 .029-.008l.004-.014-.034-.614c-.003-.012-.01-.02-.02-.022m-.715.002a.023.023 0 0 0-.027.006l-.006.014-.034.614c0 .012.007.02.017.024l.015-.002.201-.093.01-.008.003-.011.018-.43-.003-.012-.01-.01z"/><path fill="currentColor" d="M16.95 2.586a1 1 0 0 1 0 1.414l-3 3H19a2 2 0 0 1 2 2v10a2 2 0 0 1-2 2H5a2 2 0 0 1-2-2V9a2 2 0 0 1 2-2h3.636L7.05 5.414A1 1 0 0 1 8.465 4l2.474 2.475a.5.5 0 0 0 .707 0l3.89-3.89a1 1 0 0 1 1.414 0M19 9H5v10h14zM8.98 11.547a1.232 1.232 0 0 1 1.72-.994c.417.182 1.211.551 2.2 1.123.992.572 1.708 1.075 2.075 1.346.668.494.67 1.489 0 1.984A22.37 22.37 0 0 1 12.9 16.35c-.997.576-1.785.943-2.2 1.124a1.231 1.231 0 0 1-1.72-.993 22.52 22.52 0 0 1-.128-2.467c0-1.14.078-2.014.128-2.467m1.902 1.306a22.546 22.546 0 0 0 0 2.32 23.017 23.017 0 0 0 2.008-1.16 22.572 22.572 0 0 0-2.008-1.16"/></g></svg>