<svg xmlns="http://www.w3.org/2000/svg" width="24" height="24"><g fill="none"><path d="M24 0v24H0V0zM12.593 23.258l-.011.002-.071.035-.02.004-.014-.004-.071-.035c-.01-.004-.019-.001-.024.005l-.004.01-.017.428.005.02.01.013.104.074.015.004.012-.004.104-.074.012-.016.004-.017-.017-.427c-.002-.01-.009-.017-.017-.018m.265-.113-.013.002-.185.093-.01.01-.003.011.018.43.005.012.008.007.201.093c.012.004.023 0 .029-.008l.004-.014-.034-.614c-.003-.012-.01-.02-.02-.022m-.715.002a.023.023 0 0 0-.027.006l-.006.014-.034.614c0 .012.007.02.017.024l.015-.002.201-.093.01-.008.004-.011.017-.43-.003-.012-.01-.01z"/><path fill="currentColor" d="M12.191 19.998a1 1 0 1 1 .047 2L12 22l-.238-.003a1 1 0 1 1 .047-2L12 20zm5.347-.833a1 1 0 0 1-.332 1.375 9.996 9.996 0 0 1-.412.238 1 1 0 0 1-.96-1.755 7.8 7.8 0 0 0 .33-.19 1 1 0 0 1 1.374.332m-9.701-.332c.108.066.218.13.33.19a1 1 0 0 1-.961 1.755 9.806 9.806 0 0 1-.412-.238 1 1 0 1 1 1.043-1.707M12 6a6 6 0 1 1 0 12 6 6 0 0 1 0-12m8.38 9.437a1 1 0 0 1 .398 1.357c-.076.14-.156.277-.238.412a1 1 0 0 1-1.707-1.043c.066-.108.13-.218.19-.33a1 1 0 0 1 1.358-.396Zm-15.403.397a7.8 7.8 0 0 0 .19.33 1 1 0 1 1-1.707 1.042 9.974 9.974 0 0 1-.238-.412 1 1 0 0 1 1.755-.96M12 8a4 4 0 1 0 0 8 4 4 0 0 0 0-8m0 2a2 2 0 1 1 0 4 2 2 0 0 1 0-4m-8.974.785a1 1 0 0 1 .976 1.024L4 12c0 .064 0 .128.002.191a1 1 0 0 1-2 .047L2 12c0-.08 0-.16.003-.238a1 1 0 0 1 1.023-.977m17.948 0a1 1 0 0 1 1.023.977L22 12l-.003.238a1 1 0 1 1-2-.047L20 12l-.002-.191a1 1 0 0 1 .976-1.024m-.434-3.991c.082.135.162.273.238.412a1 1 0 1 1-1.755.96 7.987 7.987 0 0 0-.19-.33 1 1 0 1 1 1.707-1.042M4.835 6.462a1 1 0 0 1 .332 1.375c-.066.108-.13.218-.19.33a1 1 0 1 1-1.755-.961c.076-.14.156-.277.238-.412a1 1 0 0 1 1.375-.332m11.959-3.24c.14.076.277.156.412.238a1 1 0 0 1-1.043 1.707 7.979 7.979 0 0 0-.33-.19 1 1 0 1 1 .961-1.755m-8.23.397a1 1 0 0 1-.398 1.358 7.986 7.986 0 0 0-.33.19A1 1 0 0 1 6.795 3.46c.135-.082.273-.162.412-.238a1 1 0 0 1 1.357.397m3.674-1.616a1 1 0 0 1-.047 2L12 4l-.191.002a1 1 0 0 1-.047-2L12 2z"/></g></svg>