<svg xmlns="http://www.w3.org/2000/svg" width="24" height="24"><g fill="none" fill-rule="evenodd"><path d="M24 0v24H0V0zM12.594 23.258l-.012.002-.071.035-.02.004-.014-.004-.071-.036c-.01-.003-.019 0-.024.006l-.004.01-.017.428.005.02.01.013.104.074.015.004.012-.004.104-.074.012-.016.004-.017-.017-.427c-.002-.01-.009-.017-.016-.018m.264-.113-.014.002-.184.093-.01.01-.003.011.018.43.005.012.008.008.201.092c.012.004.023 0 .029-.008l.004-.014-.034-.614c-.003-.012-.01-.02-.02-.022m-.715.002a.023.023 0 0 0-.027.006l-.006.014-.034.614c0 .012.007.02.017.024l.015-.002.201-.093.01-.008.003-.011.018-.43-.003-.012-.01-.01z"/><path fill="currentColor" d="m8.464 4.222 12.021 12.02a1.01 1.01 0 0 1 0 1.415l-2.828 2.828a1 1 0 0 1-1.414 0L4.222 8.465a2 2 0 0 1 0-2.829l1.414-1.414a2 2 0 0 1 2.828 0M5 11.5c.444 0 .758.269.95.632l.053.112a3.867 3.867 0 0 0 1.385 1.672l.21.128c.358.202.62.525.62.955 0 .38-.203.68-.5.882l-.115.072a3.776 3.776 0 0 0-1.49 1.573l-.105.22c-.187.422-.512.754-1.008.754-.452 0-.761-.274-.954-.641l-.054-.113a3.831 3.831 0 0 0-1.384-1.664l-.206-.126c-.359-.202-.621-.526-.621-.957 0-.383.208-.68.505-.883l.116-.072a3.76 3.76 0 0 0 1.482-1.565l.113-.236C4.18 11.826 4.51 11.5 5 11.5m5.586-2.328-1.414 1.414 7.778 7.778 1.414-1.414zm6.845-1.77c.238-.481.8-.513 1.082-.097l.056.096c.216.435.574.804 1.043 1.04.494.246.501.87.004 1.116a2.345 2.345 0 0 0-.954.872l-.09.164c-.24.486-.804.518-1.085.102l-.056-.096a2.32 2.32 0 0 0-.872-.945l-.17-.094c-.466-.232-.497-.79-.097-1.063l.092-.054a2.33 2.33 0 0 0 .957-.878l.09-.164ZM7.051 5.635 5.635 7.05l2.121 2.122 1.415-1.415L7.05 5.636ZM13.5 2c.294 0 .51.167.654.399l.06.11c.238.477.618.894 1.11 1.187l.196.107c.275.137.48.373.48.697 0 .283-.157.5-.38.64l-.105.06c-.52.26-.932.654-1.205 1.115l-.1.183c-.14.284-.374.502-.71.502-.294 0-.51-.167-.654-.399l-.06-.11a2.882 2.882 0 0 0-1.11-1.187l-.196-.107c-.275-.137-.48-.374-.48-.698 0-.282.157-.499.38-.64l.105-.058c.52-.262.932-.654 1.205-1.116l.1-.183c.14-.284.374-.502.71-.502"/></g></svg>