<svg xmlns="http://www.w3.org/2000/svg" width="24" height="24"><g fill="none" fill-rule="evenodd"><path d="M24 0v24H0V0zM12.594 23.258l-.012.002-.071.035-.02.004-.014-.004-.071-.036c-.01-.003-.019 0-.024.006l-.004.01-.017.428.005.02.01.013.104.074.015.004.012-.004.104-.074.012-.016.004-.017-.017-.427c-.002-.01-.009-.017-.016-.018m.264-.113-.014.002-.184.093-.01.01-.003.011.018.43.005.012.008.008.201.092c.012.004.023 0 .029-.008l.004-.014-.034-.614c-.003-.012-.01-.02-.02-.022m-.715.002a.023.023 0 0 0-.027.006l-.006.014-.034.614c0 .012.007.02.017.024l.015-.002.201-.093.01-.008.003-.011.018-.43-.003-.012-.01-.01z"/><path fill="currentColor" d="M19.556 4.343a8 8 0 0 1 0 11.314L13.9 21.314a2 2 0 0 1-2.828 0L8.95 19.192a2 2 0 0 1 0-2.828l5.657-5.657a1 1 0 0 0-1.415-1.414L7.536 14.95a2 2 0 0 1-2.829 0l-2.121-2.122a2 2 0 0 1 0-2.828l5.657-5.657a8 8 0 0 1 11.313 0m-7.07 11.314-2.122 2.121 2.121 2.122 2.122-2.122zm-2.83-9.9L7.537 7.88 9.655 10l2.122-2.121a3 3 0 1 1 4.243 4.242l-2.122 2.122 2.122 2.121 2.121-2.121a6 6 0 1 0-8.485-8.486M6.122 9.293 4 11.414l2.121 2.122 2.122-2.122L6.12 9.293Z"/></g></svg>