<svg xmlns="http://www.w3.org/2000/svg" width="24" height="24"><g fill="none" fill-rule="evenodd"><path d="M24 0v24H0V0zM12.594 23.258l-.012.002-.071.035-.02.004-.014-.004-.071-.036c-.01-.003-.019 0-.024.006l-.004.01-.017.428.005.02.01.013.104.074.015.004.012-.004.104-.074.012-.016.004-.017-.017-.427c-.002-.01-.009-.017-.016-.018m.264-.113-.014.002-.184.093-.01.01-.003.011.018.43.005.012.008.008.201.092c.012.004.023 0 .029-.008l.004-.014-.034-.614c-.003-.012-.01-.02-.02-.022m-.715.002a.023.023 0 0 0-.027.006l-.006.014-.034.614c0 .012.007.02.017.024l.015-.002.201-.093.01-.008.003-.011.018-.43-.003-.012-.01-.01z"/><path fill="currentColor" d="M19 14a1 1 0 0 1 .898.56l.048.117.13.378a3 3 0 0 0 1.684 1.8l.185.07.378.129a1 1 0 0 1 .118 1.844l-.118.048-.378.13a3 3 0 0 0-1.8 1.684l-.07.185-.129.378a1 1 0 0 1-1.844.118l-.048-.118-.13-.378a3 3 0 0 0-1.684-1.8l-.185-.07-.378-.129a1 1 0 0 1-.118-1.844l.118-.048.378-.13a3 3 0 0 0 1.8-1.684l.07-.185.129-.378A1 1 0 0 1 19 14m1-10a2 2 0 0 1 1.995 1.85L22 6v5a1 1 0 0 1-1.993.117L20 11V8.635l-7.04 5.867a1.5 1.5 0 0 1-1.797.092l-.123-.092L4 8.635V18h8a1 1 0 0 1 .117 1.993L12 20H4a2 2 0 0 1-1.995-1.85L2 18V6a2 2 0 0 1 1.85-1.995L4 4zm-1 13.196a5.008 5.008 0 0 1-.804.804c.298.236.567.506.804.804.236-.298.506-.567.804-.804a5.008 5.008 0 0 1-.804-.804M20 6H4v.032l8 6.666 8-6.666z"/></g></svg>