<svg xmlns="http://www.w3.org/2000/svg" width="24" height="24"><g fill="none" fill-rule="evenodd"><path d="M24 0v24H0V0zM12.593 23.258l-.011.002-.071.035-.02.004-.014-.004-.071-.035c-.01-.004-.019-.001-.024.005l-.004.01-.017.428.005.02.01.013.104.074.015.004.012-.004.104-.074.012-.016.004-.017-.017-.427c-.002-.01-.009-.017-.017-.018m.265-.113-.013.002-.185.093-.01.01-.003.011.018.43.005.012.008.007.201.093c.012.004.023 0 .029-.008l.004-.014-.034-.614c-.003-.012-.01-.02-.02-.022m-.715.002a.023.023 0 0 0-.027.006l-.006.014-.034.614c0 .012.007.02.017.024l.015-.002.201-.093.01-.008.004-.011.017-.43-.003-.012-.01-.01z"/><path fill="currentColor" d="M10 4.5a1 1 0 0 1 .803.404l.063.096h4.268a1 1 0 0 1 .745-.493L16 4.5h3a1 1 0 0 1 .803.404l.063.096H21a2 2 0 0 1 1.995 1.85L23 7v1a2 2 0 0 1-1.85 1.995L21 10v8a1 1 0 0 1 .117 1.993L21 20H4a1 1 0 0 1-.117-1.993L4 18h.544a6.737 6.737 0 0 0 1.442-3.71L6 14V9.936a10.218 10.218 0 0 1-1.787-.353c-.697-.209-1.478-.545-2.1-1.105C1.46 7.892 1 7.07 1 6a1 1 0 0 1 .883-.993L2 5h4.134a1 1 0 0 1 .745-.493L7 4.5zm5 5.5h-3v8h1.544A6.733 6.733 0 0 0 15 14zm4 5h-2.064a8.3 8.3 0 0 1-.836 2.69l-.164.31H19zm-9 0H7.936a8.393 8.393 0 0 1-1 3H10zm9-5h-2v3h2zm-9 0H8v3h2zm-.866-3.5H7.866a1 1 0 0 1-.745.493L7 7H3.46c.84.745 2.196.962 3.307.995L7 8h14V7h-2a.999.999 0 0 1-.803-.404l-.063-.096h-1.268a1 1 0 0 1-.745.493L16 7h-6a.999.999 0 0 1-.803-.404z"/></g></svg>