<svg xmlns="http://www.w3.org/2000/svg" width="24" height="24"><g fill="none"><path d="M24 0v24H0V0zM12.594 23.258l-.012.002-.071.035-.02.004-.014-.004-.071-.036c-.01-.003-.019 0-.024.006l-.004.01-.017.428.005.02.01.013.104.074.015.004.012-.004.104-.074.012-.016.004-.017-.017-.427c-.002-.01-.009-.017-.016-.018m.264-.113-.014.002-.184.093-.01.01-.003.011.018.43.005.012.008.008.201.092c.012.004.023 0 .029-.008l.004-.014-.034-.614c-.003-.012-.01-.02-.02-.022m-.715.002a.023.023 0 0 0-.027.006l-.006.014-.034.614c0 .012.007.02.017.024l.015-.002.201-.093.01-.008.003-.011.018-.43-.003-.012-.01-.01z"/><path fill="currentColor" d="M20 5a2 2 0 0 1 1.995 1.85L22 7v10a2 2 0 0 1-1.85 1.995L20 19H4a2 2 0 0 1-1.995-1.85L2 17V7a2 2 0 0 1 1.85-1.995L4 5zm0 2H4v10h16zM6.833 9a1 1 0 0 1 .81.413l.064.101.793 1.427.793-1.427a1 1 0 0 1 .754-.507l.12-.007H11a1 1 0 0 1 .993.883L12 10v4a1 1 0 0 1-1.993.117L10 14v-1.64l-.626 1.126a1 1 0 0 1-1.684.1l-.064-.1L7 12.359V14a1 1 0 0 1-1.993.117L5 14v-4a1 1 0 0 1 .883-.993L6 9zM16 9a1 1 0 0 1 1 1v1.634a1 1 0 0 1 1.207 1.573l-1.5 1.5a1 1 0 0 1-1.414 0l-1.5-1.5A1 1 0 0 1 15 11.634V10a1 1 0 0 1 1-1"/></g></svg>