<svg xmlns="http://www.w3.org/2000/svg" width="24" height="24"><g fill="none"><path d="M24 0v24H0V0zM12.593 23.258l-.011.002-.071.035-.02.004-.014-.004-.071-.035c-.01-.004-.019-.001-.024.005l-.004.01-.017.428.005.02.01.013.104.074.015.004.012-.004.104-.074.012-.016.004-.017-.017-.427c-.002-.01-.009-.017-.017-.018m.265-.113-.013.002-.185.093-.01.01-.003.011.018.43.005.012.008.007.201.093c.012.004.023 0 .029-.008l.004-.014-.034-.614c-.003-.012-.01-.02-.02-.022m-.715.002a.023.023 0 0 0-.027.006l-.006.014-.034.614c0 .012.007.02.017.024l.015-.002.201-.093.01-.008.004-.011.017-.43-.003-.012-.01-.01z"/><path fill="currentColor" d="M19 3a3 3 0 0 1 2.995 2.824L22 6v10a3 3 0 0 1-2.824 2.995L19 19h-3.697l-2.61 1.74a1.25 1.25 0 0 1-1.257.075l-.13-.075L8.698 19H5a3 3 0 0 1-2.995-2.824L2 16V6a3 3 0 0 1 2.824-2.995L5 3zm0 2H5a1 1 0 0 0-.993.883L4 6v10a1 1 0 0 0 .883.993L5 17h3.697a2 2 0 0 1 .965.248l.145.088L12 18.798l2.193-1.462a2 2 0 0 1 .941-.329l.169-.007H19a1 1 0 0 0 .993-.883L20 16V6a1 1 0 0 0-.883-.993zM8.5 10a1.5 1.5 0 1 1 0 3 1.5 1.5 0 0 1 0-3m7 0a1.5 1.5 0 1 1 0 3 1.5 1.5 0 0 1 0-3"/></g></svg>