<svg xmlns="http://www.w3.org/2000/svg" width="24" height="24"><g fill="none" fill-rule="evenodd"><path d="M24 0v24H0V0zM12.594 23.258l-.012.002-.071.035-.02.004-.014-.004-.071-.036c-.01-.003-.019 0-.024.006l-.004.01-.017.428.005.02.01.013.104.074.015.004.012-.004.104-.074.012-.016.004-.017-.017-.427c-.002-.01-.009-.017-.016-.018m.264-.113-.014.002-.184.093-.01.01-.003.011.018.43.005.012.008.008.201.092c.012.004.023 0 .029-.008l.004-.014-.034-.614c-.003-.012-.01-.02-.02-.022m-.715.002a.023.023 0 0 0-.027.006l-.006.014-.034.614c0 .012.007.02.017.024l.015-.002.201-.093.01-.008.003-.011.018-.43-.003-.012-.01-.01z"/><path fill="currentColor" d="M19.946 1.677a1 1 0 0 0-1.893 0l-.129.378a3 3 0 0 1-1.87 1.87l-.377.129a1 1 0 0 0 0 1.892l.378.13a3 3 0 0 1 1.87 1.869l.128.378a1 1 0 0 0 1.893 0l.13-.378a3 3 0 0 1 1.869-1.87l.378-.129a1 1 0 0 0 0-1.892l-.378-.13a3 3 0 0 1-1.87-1.869zM18.196 5c.298-.236.567-.506.804-.804.236.298.506.568.804.804a5.006 5.006 0 0 0-.804.804A5.002 5.002 0 0 0 18.196 5M12 2a5 5 0 0 0-5 5v5a5 5 0 0 0 10 0v-2a1 1 0 1 0-2 0v2a3 3 0 0 1-6 0V7a3 3 0 0 1 3.75-2.906 1 1 0 1 0 .5-1.936C12.848 2.055 12.43 2 12 2m1 17.938a8.004 8.004 0 0 0 6.919-6.796 1 1 0 0 0-1.98-.284 6.002 6.002 0 0 1-11.878 0 1 1 0 0 0-1.98.284A8.004 8.004 0 0 0 11 19.938V21a1 1 0 1 0 2 0z"/></g></svg>