<svg xmlns="http://www.w3.org/2000/svg" width="24" height="24"><g fill="none" fill-rule="evenodd"><path d="M24 0v24H0V0zM12.594 23.258l-.012.002-.071.035-.02.004-.014-.004-.071-.036c-.01-.003-.019 0-.024.006l-.004.01-.017.428.005.02.01.013.104.074.015.004.012-.004.104-.074.012-.016.004-.017-.017-.427c-.002-.01-.009-.017-.016-.018m.264-.113-.014.002-.184.093-.01.01-.003.011.018.43.005.012.008.008.201.092c.012.004.023 0 .029-.008l.004-.014-.034-.614c-.003-.012-.01-.02-.02-.022m-.715.002a.023.023 0 0 0-.027.006l-.006.014-.034.614c0 .012.007.02.017.024l.015-.002.201-.093.01-.008.003-.011.018-.43-.003-.012-.01-.01z"/><path fill="currentColor" d="M17.5 3a4.5 4.5 0 0 1 1.163 8.848 7 7 0 1 1-13.326 0A4.502 4.502 0 0 1 6.5 3a4.5 4.5 0 0 1 4.48 4.074 7.058 7.058 0 0 1 2.04 0A4.5 4.5 0 0 1 17.5 3M12 9a5 5 0 1 0 0 10 5 5 0 0 0 0-10M6.5 5a2.5 2.5 0 0 0-.238 4.989 7.03 7.03 0 0 1 2.732-2.312A2.5 2.5 0 0 0 6.5 5m11 0a2.5 2.5 0 0 0-2.494 2.677 7.03 7.03 0 0 1 2.732 2.312A2.5 2.5 0 0 0 17.5 5"/></g></svg>