<svg xmlns="http://www.w3.org/2000/svg" width="24" height="24"><g fill="none"><path d="M24 0v24H0V0zM12.593 23.258l-.011.002-.071.035-.02.004-.014-.004-.071-.035c-.01-.004-.019-.001-.024.005l-.004.01-.017.428.005.02.01.013.104.074.015.004.012-.004.104-.074.012-.016.004-.017-.017-.427c-.002-.01-.009-.017-.017-.018m.265-.113-.013.002-.185.093-.01.01-.003.011.018.43.005.012.008.007.201.093c.012.004.023 0 .029-.008l.004-.014-.034-.614c-.003-.012-.01-.02-.02-.022m-.715.002a.023.023 0 0 0-.027.006l-.006.014-.034.614c0 .012.007.02.017.024l.015-.002.201-.093.01-.008.004-.011.017-.43-.003-.012-.01-.01z"/><path fill="currentColor" d="M3.868 4.368a7 7 0 0 1 11.74 6.656l-.069.256 3.4 4.372a2.7 2.7 0 0 1 .387 2.632c.1.03.222.046.372.016l.118-.031a1 1 0 0 1 .632 1.897 2.765 2.765 0 0 1-2.546-.389 2.7 2.7 0 0 1-2.586-.22l-.164-.117-4.372-3.401a7 7 0 0 1-6.911-11.67ZM14.577 13.3a7.045 7.045 0 0 1-1.777 1.777l3.58 2.784a.7.7 0 0 0 .98-.981zM12.92 6.459l-.203.336a20.002 20.002 0 0 1-2.84 3.584 20.002 20.002 0 0 1-3.583 2.839l-.336.203a5.001 5.001 0 0 0 6.962-6.962m-1.498-1.41a5.002 5.002 0 0 0-6.874 6.874l.324-.183a18.004 18.004 0 0 0 3.592-2.775 18.003 18.003 0 0 0 2.552-3.223l.116-.19.203-.347z"/></g></svg>