<svg xmlns="http://www.w3.org/2000/svg" width="24" height="24"><g fill="none" fill-rule="evenodd"><path d="M24 0v24H0V0zM12.594 23.258l-.012.002-.071.035-.02.004-.014-.004-.071-.036c-.01-.003-.019 0-.024.006l-.004.01-.017.428.005.02.01.013.104.074.015.004.012-.004.104-.074.012-.016.004-.017-.017-.427c-.002-.01-.009-.017-.016-.018m.264-.113-.014.002-.184.093-.01.01-.003.011.018.43.005.012.008.008.201.092c.012.004.023 0 .029-.008l.004-.014-.034-.614c-.003-.012-.01-.02-.02-.022m-.715.002a.023.023 0 0 0-.027.006l-.006.014-.034.614c0 .012.007.02.017.024l.015-.002.201-.093.01-.008.003-.011.018-.43-.003-.012-.01-.01z"/><path fill="currentColor" d="M14 2a3 3 0 0 1 .054 6l-.218.653A4.507 4.507 0 0 1 15.89 11.5h1.319a2.5 2.5 0 1 1 0 2h-1.32a4.487 4.487 0 0 1-1.006 1.968l.704.704a2.5 2.5 0 1 1-1.414 1.414l-.934-.934A4.485 4.485 0 0 1 11.5 17a4.481 4.481 0 0 1-1.982-.46l-.871 1.046a3 3 0 1 1-1.478-1.35l.794-.954A4.48 4.48 0 0 1 7 12.5c0-.735.176-1.428.488-2.041l-.868-.724A2.5 2.5 0 1 1 7.9 8.2l.87.724a4.48 4.48 0 0 1 3.169-.902l.218-.654A3 3 0 0 1 14 2M6 18a1 1 0 1 0 0 2 1 1 0 0 0 0-2m10.5 0a.5.5 0 1 0 0 1 .5.5 0 0 0 0-1m-5-8a2.5 2.5 0 1 0 0 5 2.5 2.5 0 0 0 0-5m8 2a.5.5 0 1 0 0 1 .5.5 0 0 0 0-1m-14-5a.5.5 0 1 0 0 1 .5.5 0 0 0 0-1M14 4a1 1 0 1 0 0 2 1 1 0 0 0 0-2"/></g></svg>