<svg xmlns="http://www.w3.org/2000/svg" width="24" height="24"><g fill="none" fill-rule="evenodd"><path d="M24 0v24H0V0zM12.593 23.258l-.011.002-.071.035-.02.004-.014-.004-.071-.035c-.01-.004-.019-.001-.024.005l-.004.01-.017.428.005.02.01.013.104.074.015.004.012-.004.104-.074.012-.016.004-.017-.017-.427c-.002-.01-.009-.017-.017-.018m.265-.113-.013.002-.185.093-.01.01-.003.011.018.43.005.012.008.007.201.093c.012.004.023 0 .029-.008l.004-.014-.034-.614c-.003-.012-.01-.02-.02-.022m-.715.002a.023.023 0 0 0-.027.006l-.006.014-.034.614c0 .012.007.02.017.024l.015-.002.201-.093.01-.008.004-.011.017-.43-.003-.012-.01-.01z"/><path fill="currentColor" d="M12 2c5.523 0 10 4.477 10 10s-4.477 10-10 10S2 17.523 2 12 6.477 2 12 2m-2 13.464v4.284A8 8 0 0 0 12 20c1.458 0 2.824-.39 4.001-1.071l-6-3.465ZM8 12l-3.71 2.142a8.016 8.016 0 0 0 3.457 4.635L8 18.93zm12 0-6 3.464 3.708 2.141a7.973 7.973 0 0 0 2.286-5.295zm-8.01-2.316-2 1.168.01 2.315 2.01 1.149 2-1.168-.01-2.315zM6.291 6.395A7.974 7.974 0 0 0 4 12l6-3.464zM16 5.07V12l3.71-2.142A8.018 8.018 0 0 0 16 5.07M12 4c-1.458 0-2.824.39-4.001 1.071L14 8.536V4.252A8.015 8.015 0 0 0 12 4"/></g></svg>