<svg xmlns="http://www.w3.org/2000/svg" width="24" height="24"><g fill="none" fill-rule="evenodd"><path d="M24 0v24H0V0zM12.594 23.258l-.012.002-.071.035-.02.004-.014-.004-.071-.036c-.01-.003-.019 0-.024.006l-.004.01-.017.428.005.02.01.013.104.074.015.004.012-.004.104-.074.012-.016.004-.017-.017-.427c-.002-.01-.009-.017-.016-.018m.264-.113-.014.002-.184.093-.01.01-.003.011.018.43.005.012.008.008.201.092c.012.004.023 0 .029-.008l.004-.014-.034-.614c-.003-.012-.01-.02-.02-.022m-.715.002a.023.023 0 0 0-.027.006l-.006.014-.034.614c0 .012.007.02.017.024l.015-.002.201-.093.01-.008.003-.011.018-.43-.003-.012-.01-.01z"/><path fill="currentColor" d="M19.66 4.216C20.867 4.022 22 4.944 22 6.2v9.6c0 1.256-1.132 2.178-2.34 1.985a48.519 48.519 0 0 0-6.66-.612v1.362c.713.049 1.38.14 1.914.229.442.073.884.157 1.32.264.526.13.868.685.736 1.215a1 1 0 0 1-1.212.727 16.1 16.1 0 0 0-1.172-.233A16.24 16.24 0 0 0 12 20.5c-.924 0-1.865.116-2.586.236-.392.066-.785.139-1.171.234a1 1 0 0 1-.486-1.94 17.23 17.23 0 0 1 1.329-.266c.534-.09 1.2-.18 1.914-.229v-1.362a48.52 48.52 0 0 0-6.66.612C3.133 17.978 2 17.055 2 15.8V6.2c0-1.256 1.132-2.178 2.34-1.984 5.174.829 10.146.829 15.32 0m.323 1.974h-.007a49.483 49.483 0 0 1-15.952 0h-.011a.028.028 0 0 0-.01.006L4 6.2V15.8l.003.004a.029.029 0 0 0 .01.005l.004.001h.007a49.482 49.482 0 0 1 15.952 0H19.987a.029.029 0 0 0 .01-.006l.003-.003V6.2l-.003-.004a.028.028 0 0 0-.01-.005z"/></g></svg>