<svg xmlns="http://www.w3.org/2000/svg" width="24" height="24"><g fill="none" fill-rule="evenodd"><path d="M24 0v24H0V0zM12.594 23.258l-.012.002-.071.035-.02.004-.014-.004-.071-.036c-.01-.003-.019 0-.024.006l-.004.01-.017.428.005.02.01.013.104.074.015.004.012-.004.104-.074.012-.016.004-.017-.017-.427c-.002-.01-.009-.017-.016-.018m.264-.113-.014.002-.184.093-.01.01-.003.011.018.43.005.012.008.008.201.092c.012.004.023 0 .029-.008l.004-.014-.034-.614c-.003-.012-.01-.02-.02-.022m-.715.002a.023.023 0 0 0-.027.006l-.006.014-.034.614c0 .012.007.02.017.024l.015-.002.201-.093.01-.008.003-.011.018-.43-.003-.012-.01-.01z"/><path fill="currentColor" d="M12 2.657c2.506 0 4.892 1.295 6.845 3.639a31.594 31.594 0 0 1 1.978 2.677c1 1.5.851 3.207.004 4.467-.836 1.244-2.349 2.056-4.074 1.907a78.906 78.906 0 0 0-2.377-.172l.857 3A3 3 0 0 1 12.348 22h-.697a3 3 0 0 1-2.884-3.824l.857-3.001c-.78.043-1.585.103-2.377.172-1.725.15-3.238-.663-4.074-1.907-.847-1.26-.996-2.968.004-4.467a31.607 31.607 0 0 1 1.978-2.677C7.108 3.952 9.495 2.657 12 2.657m1.31 16.068-1.035-3.624h-.55l-1.035 3.624a1 1 0 0 0 .846 1.268l.115.007h.697a1 1 0 0 0 .987-1.162zM12 4.857c-1.693 0-3.505.867-5.155 2.847a29.431 29.431 0 0 0-1.838 2.49c-.465.697-.4 1.437-.008 2.019.402.598 1.152 1.02 2.058.942 1.666-.144 3.435-.255 4.943-.255 1.508 0 3.277.111 4.943.255.906.079 1.656-.344 2.058-.942.391-.582.457-1.322-.008-2.02-.12-.18-.242-.36-.366-.538a4 4 0 0 1-5.497-4.67A5.099 5.099 0 0 0 12 4.857m3.012.924a2 2 0 0 0 2.358 2.185l-.215-.262c-.693-.831-1.414-1.466-2.143-1.923"/></g></svg>