<svg xmlns="http://www.w3.org/2000/svg" width="24" height="24"><g fill="none" fill-rule="evenodd"><path d="M24 0v24H0V0zM12.594 23.258l-.012.002-.071.035-.02.004-.014-.004-.071-.036c-.01-.003-.019 0-.024.006l-.004.01-.017.428.005.02.01.013.104.074.015.004.012-.004.104-.074.012-.016.004-.017-.017-.427c-.002-.01-.009-.017-.016-.018m.264-.113-.014.002-.184.093-.01.01-.003.011.018.43.005.012.008.008.201.092c.012.004.023 0 .029-.008l.004-.014-.034-.614c-.003-.012-.01-.02-.02-.022m-.715.002a.023.023 0 0 0-.027.006l-.006.014-.034.614c0 .012.007.02.017.024l.015-.002.201-.093.01-.008.003-.011.018-.43-.003-.012-.01-.01z"/><path fill="currentColor" d="M19.026 2.27a1.5 1.5 0 0 1 1.968 1.292l.006.132v3.585a2 2 0 0 1-1.218 1.84l-.15.057L15 10.721V17.5l-.005.212a4.5 4.5 0 1 1-2.214-4.092l.219.138V6.44a3 3 0 0 1 1.88-2.782l.171-.064zM10.5 15a2.5 2.5 0 1 0 2.495 2.664L13 17.5a2.5 2.5 0 0 0-2.5-2.5M7 1a1 1 0 0 1 .946.677l.13.378a3 3 0 0 0 1.869 1.87l.378.129a1 1 0 0 1 0 1.892l-.378.13a3 3 0 0 0-1.87 1.869l-.129.378a1 1 0 0 1-1.892 0l-.13-.378a3 3 0 0 0-1.869-1.87l-.378-.129a1 1 0 0 1 0-1.892l.378-.13a3 3 0 0 0 1.87-1.869l.129-.378A1 1 0 0 1 7 1m12 3.387-3.316 1.106a1 1 0 0 0-.677.832L15 6.441v2.171l4-1.333zm-12-.19A5.004 5.004 0 0 1 6.196 5c.298.236.568.506.804.804.236-.298.506-.568.804-.804A5.004 5.004 0 0 1 7 4.196"/></g></svg>