<svg xmlns="http://www.w3.org/2000/svg" width="24" height="24"><g fill="none" fill-rule="evenodd"><path d="M24 0v24H0V0zM12.594 23.258l-.012.002-.071.035-.02.004-.014-.004-.071-.036c-.01-.003-.019 0-.024.006l-.004.01-.017.428.005.02.01.013.104.074.015.004.012-.004.104-.074.012-.016.004-.017-.017-.427c-.002-.01-.009-.017-.016-.018m.264-.113-.014.002-.184.093-.01.01-.003.011.018.43.005.012.008.008.201.092c.012.004.023 0 .029-.008l.004-.014-.034-.614c-.003-.012-.01-.02-.02-.022m-.715.002a.023.023 0 0 0-.027.006l-.006.014-.034.614c0 .012.007.02.017.024l.015-.002.201-.093.01-.008.003-.011.018-.43-.003-.012-.01-.01z"/><path fill="currentColor" d="M3 6a3 3 0 0 1 3-3h12a3 3 0 0 1 3 3v12a3 3 0 0 1-3 3H6a3 3 0 0 1-3-3zm9 13h6a1 1 0 0 0 1-1V6a1 1 0 0 0-1-1h-2.535c.34.588.535 1.271.535 2v10a1 1 0 0 1-1.707.707l-3.5-3.5a1 1 0 0 1 1.414-1.414L14 14.586V7a2 2 0 0 0-2-2H6a1 1 0 0 0-1 1v12a1 1 0 0 0 1 1h2.535A3.981 3.981 0 0 1 8 17V7a1 1 0 0 1 1.707-.707l3.5 3.5a1 1 0 0 1-1.414 1.414L10 9.414V17a2 2 0 0 0 2 2"/></g></svg>