<svg xmlns="http://www.w3.org/2000/svg" width="24" height="24"><g fill="none" fill-rule="evenodd"><path d="M24 0v24H0V0zM12.594 23.258l-.012.002-.071.035-.02.004-.014-.004-.071-.036c-.01-.003-.019 0-.024.006l-.004.01-.017.428.005.02.01.013.104.074.015.004.012-.004.104-.074.012-.016.004-.017-.017-.427c-.002-.01-.009-.017-.016-.018m.264-.113-.014.002-.184.093-.01.01-.003.011.018.43.005.012.008.008.201.092c.012.004.023 0 .029-.008l.004-.014-.034-.614c-.003-.012-.01-.02-.02-.022m-.715.002a.023.023 0 0 0-.027.006l-.006.014-.034.614c0 .012.007.02.017.024l.015-.002.201-.093.01-.008.003-.011.018-.43-.003-.012-.01-.01z"/><path fill="currentColor" d="M12.25 4.299a.5.5 0 0 0-.5 0L6.206 7.5l1.813 1.047 5.798-3.343zm3.568 2.06L10.02 9.702l1.73.999a.5.5 0 0 0 .5 0L17.794 7.5l-1.976-1.14Zm2.976 2.873-5.544 3.201a2.25 2.25 0 0 1-.25.126v6.709l5.544-3.201a.5.5 0 0 0 .25-.433zM11 19.268v-6.709a2.5 2.5 0 0 1-.25-.126L5.206 9.232v6.402a.5.5 0 0 0 .25.433zm-.25-16.701a2.5 2.5 0 0 1 2.5 0l6.294 3.634a2.5 2.5 0 0 1 1.25 2.165v7.268a2.5 2.5 0 0 1-1.25 2.165l-6.294 3.634a2.5 2.5 0 0 1-2.5 0l-6.294-3.634a2.5 2.5 0 0 1-1.25-2.165V8.366a2.5 2.5 0 0 1 1.25-2.165z"/></g></svg>