<svg xmlns="http://www.w3.org/2000/svg" width="24" height="24"><g fill="none"><path d="M24 0v24H0V0zM12.593 23.258l-.011.002-.071.035-.02.004-.014-.004-.071-.035c-.01-.004-.019-.001-.024.005l-.004.01-.017.428.005.02.01.013.104.074.015.004.012-.004.104-.074.012-.016.004-.017-.017-.427c-.002-.01-.009-.017-.017-.018m.265-.113-.013.002-.185.093-.01.01-.003.011.018.43.005.012.008.007.201.093c.012.004.023 0 .029-.008l.004-.014-.034-.614c-.003-.012-.01-.02-.02-.022m-.715.002a.023.023 0 0 0-.027.006l-.006.014-.034.614c0 .012.007.02.017.024l.015-.002.201-.093.01-.008.004-.011.017-.43-.003-.012-.01-.01z"/><path fill="currentColor" d="m11.197 2.749.138.073 7.794 4.5a2 2 0 0 1 .805 2.593l-.073.139-6 10.392a2 2 0 0 1-2.593.805l-.139-.073-7.794-4.5a2 2 0 0 1-.805-2.594l.073-.138 4.5-7.794-1.732-1a1 1 0 0 1 .896-1.785l.104.053 1.732 1 .5-.866a2 2 0 0 1 2.445-.87zM16.428 12H6.036l-1.7 2.946 7.793 4.5L16.43 12Zm3.875-.77L20.5 11l.076.087.198.235.177.22.197.258.204.284c.338.489.648 1.04.648 1.416a1.5 1.5 0 0 1-3 0c0-.452.446-1.155.852-1.7l.197-.258zm-9.968-6.676-.5.866.866.5a1 1 0 1 1-1 1.732l-.866-.5L7.191 10h10.392l.546-.946z"/></g></svg>