<svg xmlns="http://www.w3.org/2000/svg" width="24" height="24"><g fill="none" fill-rule="evenodd"><path d="M24 0v24H0V0zM12.594 23.258l-.012.002-.071.035-.02.004-.014-.004-.071-.036c-.01-.003-.019 0-.024.006l-.004.01-.017.428.005.02.01.013.104.074.015.004.012-.004.104-.074.012-.016.004-.017-.017-.427c-.002-.01-.009-.017-.016-.018m.264-.113-.014.002-.184.093-.01.01-.003.011.018.43.005.012.008.008.201.092c.012.004.023 0 .029-.008l.004-.014-.034-.614c-.003-.012-.01-.02-.02-.022m-.715.002a.023.023 0 0 0-.027.006l-.006.014-.034.614c0 .012.007.02.017.024l.015-.002.201-.093.01-.008.003-.011.018-.43-.003-.012-.01-.01z"/><path fill="currentColor" d="M20.626 2.483a1.094 1.094 0 0 1 1.39 1.39l-.165.471-.187.504-.237.607-.184.452-.205.482-.11.25-.233.513c-.679 1.455-1.612 3.156-2.728 4.33-1.065 1.12-2.673 2.153-3.96 2.886a4.995 4.995 0 0 1-1.36 4.557c-2.27 2.27-4.807 2.27-6.694 1.71a9.068 9.068 0 0 1-2.864-1.43l-.28-.223-.585-.495a.394.394 0 0 1 .027-.624l.332-.237c.728-.53 1.479-1.182 1.658-2.08.033-.166.055-.334.073-.502l.05-.507a5.6 5.6 0 0 1 .074-.504c.138-.689.43-1.471 1.137-2.18a4.996 4.996 0 0 1 4.557-1.36c.733-1.287 1.765-2.895 2.886-3.96 1.174-1.116 2.875-2.05 4.33-2.728l.513-.233.494-.215.69-.285.415-.163.696-.26zm-9.394 10.785a3 3 0 0 0-4.242 0c-.353.352-.506.734-.591 1.157a5.591 5.591 0 0 0-.073.504l-.025.253c-.024.253-.049.507-.099.757-.18.904-.709 1.65-1.15 2.148a7.29 7.29 0 0 0 1.471.63c1.384.412 3.09.412 4.71-1.207a3 3 0 0 0 0-4.242m1.479-3.165c-.259.395-.505.798-.732 1.19a5.028 5.028 0 0 1 1.228 1.228c.391-.227.795-.473 1.19-.732l-.03-.067a3.31 3.31 0 0 0-.66-.93 3.351 3.351 0 0 0-.817-.603zm6.71-5.025c-.383.159-.799.34-1.229.54-1.408.657-2.866 1.48-3.796 2.364-.157.15-.314.315-.47.493.362.2.782.49 1.195.904.414.413.703.833.904 1.195.178-.156.344-.313.493-.47.884-.93 1.707-2.388 2.364-3.797.2-.43.38-.846.54-1.229M6 1a1 1 0 0 1 .898.56l.048.117.13.378a3 3 0 0 0 1.684 1.8l.185.07.378.129a1 1 0 0 1 .117 1.844l-.117.048-.378.13a3 3 0 0 0-1.8 1.684l-.07.185-.129.378a1 1 0 0 1-1.844.117l-.048-.117-.13-.378a3 3 0 0 0-1.684-1.8l-.185-.07-.378-.129a1 1 0 0 1-.117-1.844l.117-.048.378-.13a3 3 0 0 0 1.8-1.684l.07-.185.129-.378A1 1 0 0 1 6 1m0 3.196A5.004 5.004 0 0 1 5.196 5c.298.236.568.506.804.804.236-.298.506-.568.804-.804A5.004 5.004 0 0 1 6 4.196"/></g></svg>