<svg xmlns="http://www.w3.org/2000/svg" width="24" height="24"><g fill="none" fill-rule="evenodd"><path d="M24 0v24H0V0zM12.593 23.258l-.011.002-.071.035-.02.004-.014-.004-.071-.035c-.01-.004-.019-.001-.024.005l-.004.01-.017.428.005.02.01.013.104.074.015.004.012-.004.104-.074.012-.016.004-.017-.017-.427c-.002-.01-.009-.017-.017-.018m.265-.113-.013.002-.185.093-.01.01-.003.011.018.43.005.012.008.007.201.093c.012.004.023 0 .029-.008l.004-.014-.034-.614c-.003-.012-.01-.02-.02-.022m-.715.002a.023.023 0 0 0-.027.006l-.006.014-.034.614c0 .012.007.02.017.024l.015-.002.201-.093.01-.008.004-.011.017-.43-.003-.012-.01-.01z"/><path fill="currentColor" d="M15.993 3c.404 0 .753.238.915.582l.042.106c.308.917 1.265 1.309 2.042 1.312.719.003 1.12.684.974 1.258-.317 1.251-.983 1.976-1.662 2.363a3.059 3.059 0 0 1-.304.151V11h.559a1.5 1.5 0 0 1 1.488 1.314L20.883 19H21a1 1 0 1 1 0 2h-6.922A1.078 1.078 0 0 1 13 19.922V18a1 1 0 1 0-2 0v1.922C11 20.517 10.517 21 9.922 21H3a1 1 0 0 1 0-2h.117l.836-6.686A1.5 1.5 0 0 1 5.441 11H6V8.772a3.028 3.028 0 0 1-.304-.151c-.679-.387-1.345-1.112-1.662-2.363-.146-.574.255-1.255.974-1.258.729-.003 1.615-.348 1.977-1.146l.065-.166c.134-.4.512-.688.957-.688zm2.124 10H5.883l-.75 6H9v-1a3 3 0 1 1 6 0v1h3.867zM16 9H8v2h8zm-.646-4H8.646C8.125 5.921 7.3 6.458 6.49 6.74a.978.978 0 0 0 .534.26h9.954a.978.978 0 0 0 .534-.26c-.81-.282-1.636-.819-2.157-1.74Z"/></g></svg>