<svg xmlns="http://www.w3.org/2000/svg" width="24" height="24"><g fill="none" fill-rule="evenodd"><path d="M24 0v24H0V0zM12.594 23.258l-.012.002-.071.035-.02.004-.014-.004-.071-.036c-.01-.003-.019 0-.024.006l-.004.01-.017.428.005.02.01.013.104.074.015.004.012-.004.104-.074.012-.016.004-.017-.017-.427c-.002-.01-.009-.017-.016-.018m.264-.113-.014.002-.184.093-.01.01-.003.011.018.43.005.012.008.008.201.092c.012.004.023 0 .029-.008l.004-.014-.034-.614c-.003-.012-.01-.02-.02-.022m-.715.002a.023.023 0 0 0-.027.006l-.006.014-.034.614c0 .012.007.02.017.024l.015-.002.201-.093.01-.008.003-.011.018-.43-.003-.012-.01-.01z"/><path fill="currentColor" d="M3.656 14.036a.994.994 0 0 1-.125-.287A7.21 7.21 0 0 1 3 11a9 9 0 0 1 18 0 7.21 7.21 0 0 1-.531 2.749.994.994 0 0 1-.125.287c-.848 1.846-2.385 3.169-3.814 4.062a16.45 16.45 0 0 1-2.7 1.344c.107.16.17.352.17.558v1a1 1 0 0 1-1 1h-2a1 1 0 0 1-1-1v-1c0-.206.063-.398.17-.558a16.45 16.45 0 0 1-2.7-1.344c-1.43-.893-2.967-2.216-3.814-4.062M12 4a7 7 0 0 0-6.99 6.62A3.484 3.484 0 0 1 7 10c.98 0 1.865.402 2.5 1.05A3.49 3.49 0 0 1 12 10c.98 0 1.865.402 2.5 1.05A3.49 3.49 0 0 1 17 10c.74 0 1.425.23 1.99.62A7 7 0 0 0 12 4m3.47 12.402c1.243-.777 2.383-1.797 3.015-3.117a1.5 1.5 0 0 0-2.985.215 1 1 0 1 1-2 0 1.5 1.5 0 0 0-3 0 1 1 0 1 1-2 0 1.5 1.5 0 0 0-2.985-.215c.632 1.32 1.772 2.34 3.015 3.117.927.58 1.863.99 2.571 1.255.353.133.645.227.846.288l.053.017.053-.017c.201-.06.493-.155.846-.288a14.588 14.588 0 0 0 2.571-1.255"/></g></svg>