<svg xmlns="http://www.w3.org/2000/svg" width="24" height="24"><g fill="none"><path d="M24 0v24H0V0zM12.593 23.258l-.011.002-.071.035-.02.004-.014-.004-.071-.035c-.01-.004-.019-.001-.024.005l-.004.01-.017.428.005.02.01.013.104.074.015.004.012-.004.104-.074.012-.016.004-.017-.017-.427c-.002-.01-.009-.017-.017-.018m.265-.113-.013.002-.185.093-.01.01-.003.011.018.43.005.012.008.007.201.093c.012.004.023 0 .029-.008l.004-.014-.034-.614c-.003-.012-.01-.02-.02-.022m-.715.002a.023.023 0 0 0-.027.006l-.006.014-.034.614c0 .012.007.02.017.024l.015-.002.201-.093.01-.008.004-.011.017-.43-.003-.012-.01-.01z"/><path fill="currentColor" d="M3.293 16.293a1 1 0 0 1 1.497 1.32l-.083.094-1 1a1 1 0 0 1-1.497-1.32l.083-.094zm5.483-9.158a5.25 5.25 0 0 1 2.724 4.603v.524a5.25 5.25 0 0 1-2.724 4.602c-1.487.816-3.445-.005-3.63-1.845l-.057-.65a30.988 30.988 0 0 1 0-4.737l.058-.651C5.33 7.14 7.289 6.32 8.776 7.135M7.136 9.18l-.053.605a28.99 28.99 0 0 0 0 4.43l.054.605c.034.342.404.44.677.291A3.25 3.25 0 0 0 9.5 12.262v-.524a3.25 3.25 0 0 0-1.686-2.85c-.273-.149-.643-.05-.677.292ZM3 11a1 1 0 1 1 0 2H2a1 1 0 1 1 0-2zm.707-5.707 1 1a1 1 0 0 1-1.414 1.414l-1-1a1 1 0 0 1 1.414-1.414m18 0a1 1 0 0 0-1.414 0l-1 1a1 1 0 0 0 1.414 1.414l1-1a1 1 0 0 0 0-1.414M18.853 8.98c-.184-1.84-2.143-2.661-3.629-1.846a5.25 5.25 0 0 0-2.724 4.603v.524a5.25 5.25 0 0 0 2.724 4.602c1.486.816 3.445-.005 3.63-1.845l.057-.65a30.997 30.997 0 0 0 0-4.737zm-1.99.199.054.605a28.991 28.991 0 0 1 0 4.43l-.054.605c-.034.342-.404.44-.677.291a3.25 3.25 0 0 1-1.686-2.849v-.524a3.25 3.25 0 0 1 1.686-2.85c.273-.149.643-.05.677.292m2.43 8.527a1 1 0 0 1 1.414-1.414l1 1a1 1 0 0 1-1.414 1.414zM23 12a1 1 0 0 0-1-1h-1a1 1 0 1 0 0 2h1a1 1 0 0 0 1-1"/></g></svg>