<svg xmlns="http://www.w3.org/2000/svg" width="24" height="24"><g fill="none"><path d="M24 0v24H0V0zM12.593 23.258l-.011.002-.071.035-.02.004-.014-.004-.071-.035c-.01-.004-.019-.001-.024.005l-.004.01-.017.428.005.02.01.013.104.074.015.004.012-.004.104-.074.012-.016.004-.017-.017-.427c-.002-.01-.009-.017-.017-.018m.265-.113-.013.002-.185.093-.01.01-.003.011.018.43.005.012.008.007.201.093c.012.004.023 0 .029-.008l.004-.014-.034-.614c-.003-.012-.01-.02-.02-.022m-.715.002a.023.023 0 0 0-.027.006l-.006.014-.034.614c0 .012.007.02.017.024l.015-.002.201-.093.01-.008.004-.011.017-.43-.003-.012-.01-.01z"/><path fill="currentColor" d="M12.138 4.538a2 2 0 0 1 2.031.328l.126.115 4.724 4.724a2 2 0 0 1 .5 1.997l-.057.16-2.365 5.913a1.999 1.999 0 0 1-1.605 1.24l-5.079.635c-.13.015-.268.034-.41.056l-.444.072-.232.042-.723.14-.495.106-.745.167-.955.228-1.552.396-.646.174a1.01 1.01 0 0 1-1.265-1.134l.034-.146.295-1.112.264-1.048.228-.955.167-.745.105-.496.141-.722.08-.457.064-.428.66-5.28a1.999 1.999 0 0 1 1.09-1.536l.151-.069zm.742 1.857L6.968 8.76l-.584 4.672-.048.396a26.886 26.886 0 0 1-.385 2.192l-.171.786 3.288-3.288a2 2 0 1 1 1.414 1.414L7.194 18.22l.392-.087.784-.165a27.455 27.455 0 0 1 1.473-.26l5.397-.676 2.365-5.912zm2.363-3.294a1 1 0 0 1 1.32-.084l.094.084 4.242 4.242a1 1 0 0 1-1.32 1.498l-.094-.084-4.242-4.242a1 1 0 0 1 0-1.414"/></g></svg>