<svg xmlns="http://www.w3.org/2000/svg" width="24" height="24"><g fill="none" fill-rule="evenodd"><path d="M24 0v24H0V0zM12.593 23.258l-.011.002-.071.035-.02.004-.014-.004-.071-.035c-.01-.004-.019-.001-.024.005l-.004.01-.017.428.005.02.01.013.104.074.015.004.012-.004.104-.074.012-.016.004-.017-.017-.427c-.002-.01-.009-.017-.017-.018m.265-.113-.013.002-.185.093-.01.01-.003.011.018.43.005.012.008.007.201.093c.012.004.023 0 .029-.008l.004-.014-.034-.614c-.003-.012-.01-.02-.02-.022m-.715.002a.023.023 0 0 0-.027.006l-.006.014-.034.614c0 .012.007.02.017.024l.015-.002.201-.093.01-.008.004-.011.017-.43-.003-.012-.01-.01z"/><path fill="currentColor" d="M16.243 3.515a3 3 0 0 1 4.377 4.098l-.135.144-.707.707.707.708a2 2 0 0 1 .117 2.7l-.117.128-4.242 4.243a1 1 0 0 1-1.498-1.32l.083-.095 4.243-4.242-.707-.707-9.878 9.878a1.1 1.1 0 0 1-.437.268l-.125.033-3.491.698a1.01 1.01 0 0 1-1.206-1.072l.017-.117.698-3.49a1.1 1.1 0 0 1 .215-.466l.086-.097zm-9.9 12.728-.493.493-.354 1.767 1.768-.353.493-.493-1.414-1.415Zm9.193-9.193-7.779 7.778 1.415 1.415 7.778-7.779zm3.534-2.12a1 1 0 0 0-1.32-.083l-.094.083-.707.707 1.414 1.414.707-.707.083-.094a1 1 0 0 0-.083-1.32"/></g></svg>