<svg xmlns="http://www.w3.org/2000/svg" width="24" height="24"><g fill="none" fill-rule="evenodd"><path d="M24 0v24H0V0zM12.594 23.258l-.012.002-.071.035-.02.004-.014-.004-.071-.036c-.01-.003-.019 0-.024.006l-.004.01-.017.428.005.02.01.013.104.074.015.004.012-.004.104-.074.012-.016.004-.017-.017-.427c-.002-.01-.009-.017-.016-.018m.264-.113-.014.002-.184.093-.01.01-.003.011.018.43.005.012.008.008.201.092c.012.004.023 0 .029-.008l.004-.014-.034-.614c-.003-.012-.01-.02-.02-.022m-.715.002a.023.023 0 0 0-.027.006l-.006.014-.034.614c0 .012.007.02.017.024l.015-.002.201-.093.01-.008.003-.011.018-.43-.003-.012-.01-.01z"/><path fill="currentColor" d="M18.293 17.293a1 1 0 0 1 1.498 1.32l-.084.094-1.5 1.5a3.121 3.121 0 0 1-4.414 0 1.122 1.122 0 0 0-1.488-.087l-.098.087-.5.5a1 1 0 0 1-1.497-1.32l.083-.094.5-.5a3.121 3.121 0 0 1 4.414 0 1.122 1.122 0 0 0 1.488.087l.098-.087zm-1.81-13.31a2.5 2.5 0 0 1 3.657 3.405l-.122.131L8.443 19.094a1.5 1.5 0 0 1-.506.333l-.145.05-2.837.807a1.001 1.001 0 0 1-1.261-1.13l.024-.107.807-2.838a1.5 1.5 0 0 1 .28-.537l.102-.113zm2.12 1.415a.5.5 0 0 0-.637-.058l-.07.058L6.414 16.88l-.28.988.987-.28L18.604 6.104a.5.5 0 0 0 0-.707"/></g></svg>