<svg xmlns="http://www.w3.org/2000/svg" width="24" height="24"><g fill="none" fill-rule="evenodd"><path d="M24 0v24H0V0zM12.593 23.258l-.011.002-.071.035-.02.004-.014-.004-.071-.035c-.01-.004-.019-.001-.024.005l-.004.01-.017.428.005.02.01.013.104.074.015.004.012-.004.104-.074.012-.016.004-.017-.017-.427c-.002-.01-.009-.017-.017-.018m.265-.113-.013.002-.185.093-.01.01-.003.011.018.43.005.012.008.007.201.093c.012.004.023 0 .029-.008l.004-.014-.034-.614c-.003-.012-.01-.02-.02-.022m-.715.002a.023.023 0 0 0-.027.006l-.006.014-.034.614c0 .012.007.02.017.024l.015-.002.201-.093.01-.008.004-.011.017-.43-.003-.012-.01-.01z"/><path fill="currentColor" d="M8.172 15.829c3.845 3.845 7.408 4.266 8.454 4.305 1.264.046 2.554-.986 3.112-2.043-.89-1.044-2.049-1.854-3.318-2.732-.749.748-1.672 2.138-2.901 1.64-.699-.281-2.425-1.076-3.933-2.585C8.077 12.906 7.283 11.18 7 10.482c-.498-1.231.896-2.156 1.645-2.905-.878-1.29-1.674-2.479-2.716-3.324-1.072.56-2.11 1.84-2.063 3.121.039 1.046.46 4.609 4.306 8.455m8.38 6.304c-1.44-.053-5.521-.617-9.795-4.89-4.273-4.274-4.836-8.354-4.89-9.795-.08-2.196 1.602-4.329 3.545-5.162a1.47 1.47 0 0 1 1.445.159c1.608 1.173 2.717 2.95 3.67 4.342A1.504 1.504 0 0 1 10.35 8.7l-1.356 1.357C9.309 10.752 9.95 11.95 11 13c1.05 1.05 2.248 1.691 2.944 2.006l1.355-1.356a1.503 1.503 0 0 1 1.918-.171c1.42.984 3.088 2.077 4.304 3.634a1.47 1.47 0 0 1 .189 1.485c-.837 1.953-2.955 3.616-5.158 3.535"/></g></svg>