<svg xmlns="http://www.w3.org/2000/svg" width="24" height="24"><g fill="none" fill-rule="evenodd"><path d="M24 0v24H0V0zM12.594 23.258l-.012.002-.071.035-.02.004-.014-.004-.071-.036c-.01-.003-.019 0-.024.006l-.004.01-.017.428.005.02.01.013.104.074.015.004.012-.004.104-.074.012-.016.004-.017-.017-.427c-.002-.01-.009-.017-.016-.018m.264-.113-.014.002-.184.093-.01.01-.003.011.018.43.005.012.008.008.201.092c.012.004.023 0 .029-.008l.004-.014-.034-.614c-.003-.012-.01-.02-.02-.022m-.715.002a.023.023 0 0 0-.027.006l-.006.014-.034.614c0 .012.007.02.017.024l.015-.002.201-.093.01-.008.003-.011.018-.43-.003-.012-.01-.01z"/><path fill="currentColor" d="M20 3a2 2 0 0 1 2 2v14a2 2 0 0 1-2 2H4a2 2 0 0 1-2-2v-6a1 1 0 1 1 2 0v2.1l4.995-4.994a1.25 1.25 0 0 1 1.768 0l4.065 4.066 1.238-1.238a1.25 1.25 0 0 1 1.768 0L20 15.101V5h-8a1 1 0 1 1 0-2zM9.879 12.05 4 17.93V19h16v-1.071l-3.05-3.05-.707.707.207.207a1 1 0 0 1-1.414 1.414zM5 2a1 1 0 0 1 .898.56l.048.117.13.378a3 3 0 0 0 1.684 1.8l.185.07.378.129a1 1 0 0 1 .117 1.844l-.117.048-.378.13a3 3 0 0 0-1.8 1.684l-.07.185-.129.378a1 1 0 0 1-1.844.117l-.048-.117-.13-.378a3 3 0 0 0-1.684-1.8l-.185-.07-.378-.129a1 1 0 0 1-.117-1.844l.117-.048.378-.13a3 3 0 0 0 1.8-1.684l.07-.185.129-.378A1 1 0 0 1 5 2m10.5 5a1.5 1.5 0 1 1 0 3 1.5 1.5 0 0 1 0-3M5 5.196A5.004 5.004 0 0 1 4.196 6c.298.236.568.506.804.804.236-.298.506-.568.804-.804A5.004 5.004 0 0 1 5 5.196"/></g></svg>