<svg xmlns="http://www.w3.org/2000/svg" width="24" height="24"><g fill="none"><path d="M24 0v24H0V0zM12.593 23.258l-.011.002-.071.035-.02.004-.014-.004-.071-.035c-.01-.004-.019-.001-.024.005l-.004.01-.017.428.005.02.01.013.104.074.015.004.012-.004.104-.074.012-.016.004-.017-.017-.427c-.002-.01-.009-.017-.017-.018m.265-.113-.013.002-.185.093-.01.01-.003.011.018.43.005.012.008.007.201.093c.012.004.023 0 .029-.008l.004-.014-.034-.614c-.003-.012-.01-.02-.02-.022m-.715.002a.023.023 0 0 0-.027.006l-.006.014-.034.614c0 .012.007.02.017.024l.015-.002.201-.093.01-.008.004-.011.017-.43-.003-.012-.01-.01z"/><path fill="currentColor" d="M20 3a2 2 0 0 1 1.995 1.85L22 5v14a2 2 0 0 1-1.85 1.995L20 21H4a2 2 0 0 1-1.995-1.85L2 19V5a2 2 0 0 1 1.85-1.995L4 3zM9.879 12.05l-5.657 5.657a1.002 1.002 0 0 1-.222.168V19h16v-1.125a1 1 0 0 1-.222-.168L16.95 14.88l-.707.707.207.207a1 1 0 0 1-1.415 1.414L9.88 12.05ZM20 5H4v10.1l4.995-4.994a1.25 1.25 0 0 1 1.666-.091l.101.09 4.066 4.067 1.238-1.238a1.25 1.25 0 0 1 1.666-.091l.102.091L20 15.101zm-4.5 2a1.5 1.5 0 1 1 0 3 1.5 1.5 0 0 1 0-3"/></g></svg>