<svg xmlns="http://www.w3.org/2000/svg" width="24" height="24"><g fill="none" fill-rule="evenodd"><path d="M24 0v24H0V0zM12.593 23.258l-.011.002-.071.035-.02.004-.014-.004-.071-.035c-.01-.004-.019-.001-.024.005l-.004.01-.017.428.005.02.01.013.104.074.015.004.012-.004.104-.074.012-.016.004-.017-.017-.427c-.002-.01-.009-.017-.017-.018m.265-.113-.013.002-.185.093-.01.01-.003.011.018.43.005.012.008.007.201.093c.012.004.023 0 .029-.008l.004-.014-.034-.614c-.003-.012-.01-.02-.02-.022m-.715.002a.023.023 0 0 0-.027.006l-.006.014-.034.614c0 .012.007.02.017.024l.015-.002.201-.093.01-.008.004-.011.017-.43-.003-.012-.01-.01z"/><path fill="currentColor" d="M16.735 2.835a2 2 0 0 0-2.615-.186l-2.913 2.185a9 9 0 0 1-4.127 1.71l-2.177.31c-.73.105-1.265.891-.913 1.662.331.723 1.385 2.629 4.36 5.72l-4.178 4.178a1 1 0 1 0 1.414 1.414l4.178-4.178c3.091 2.975 4.997 4.029 5.72 4.36.77.352 1.557-.183 1.661-.913l.311-2.177a9 9 0 0 1 1.71-4.127L21.35 9.88a2 2 0 0 0-.186-2.615zM15.32 4.25l4.43 4.43-2.184 2.914a11 11 0 0 0-2.09 5.044l-.143 1.001c-.98-.624-2.603-1.837-4.869-4.103C8.2 11.27 6.986 9.648 6.362 8.668l1-.143a11 11 0 0 0 5.045-2.09z"/></g></svg>