<svg xmlns="http://www.w3.org/2000/svg" width="24" height="24"><g fill="none" fill-rule="evenodd"><path d="M24 0v24H0V0zM12.594 23.258l-.012.002-.071.035-.02.004-.014-.004-.071-.036c-.01-.003-.019 0-.024.006l-.004.01-.017.428.005.02.01.013.104.074.015.004.012-.004.104-.074.012-.016.004-.017-.017-.427c-.002-.01-.009-.017-.016-.018m.264-.113-.014.002-.184.093-.01.01-.003.011.018.43.005.012.008.008.201.092c.012.004.023 0 .029-.008l.004-.014-.034-.614c-.003-.012-.01-.02-.02-.022m-.715.002a.023.023 0 0 0-.027.006l-.006.014-.034.614c0 .012.007.02.017.024l.015-.002.201-.093.01-.008.003-.011.018-.43-.003-.012-.01-.01z"/><path fill="currentColor" d="M16 3.34a8 8 0 0 1 2.37 11.769 3.501 3.501 0 0 1-.87 6.89 3.5 3.5 0 0 1-3.465-3.994 7.99 7.99 0 0 1-4.177-.027l-1.626 2.816a1 1 0 0 1-1.366.366l-1.732-1a1 1 0 0 1-.366-1.366l1.626-2.816A8 8 0 0 1 16 3.34M17.5 17a1.5 1.5 0 1 0 0 3 1.5 1.5 0 0 0 0-3m-8.83-1.727-.01.146a3 3 0 0 1-.396 1.32 3 3 0 0 1 .756-.868l.189-.136.122-.08-.662-.382ZM15 5.072a6 6 0 0 0-8.184 8.22 1 1 0 0 1 1.336-.617l.116.057 3.464 2a1 1 0 0 1 .241 1.537A6 6 0 0 0 15 5.072"/></g></svg>