<svg xmlns="http://www.w3.org/2000/svg" width="24" height="24"><g fill="none" fill-rule="evenodd"><path d="M24 0v24H0V0zM12.593 23.258l-.011.002-.071.035-.02.004-.014-.004-.071-.035c-.01-.004-.019-.001-.024.005l-.004.01-.017.428.005.02.01.013.104.074.015.004.012-.004.104-.074.012-.016.004-.017-.017-.427c-.002-.01-.009-.017-.017-.018m.265-.113-.013.002-.185.093-.01.01-.003.011.018.43.005.012.008.007.201.093c.012.004.023 0 .029-.008l.004-.014-.034-.614c-.003-.012-.01-.02-.02-.022m-.715.002a.023.023 0 0 0-.027.006l-.006.014-.034.614c0 .012.007.02.017.024l.015-.002.201-.093.01-.008.004-.011.017-.43-.003-.012-.01-.01z"/><path fill="currentColor" d="M12 2C6.477 2 2 6.477 2 12s4.477 10 10 10 10-4.477 10-10S17.523 2 12 2M4 12a8 8 0 1 1 6.077 7.767l.718-3.374c.687.596 1.54.823 2.359.808.898-.017 1.8-.32 2.555-.795.752-.473 1.424-1.16 1.792-2.007A6 6 0 1 0 6.5 14.4a1 1 0 1 0 1.832-.8A4 4 0 1 1 16 12c0 1.095-.41 2.117-1.357 2.713-.488.308-1.039.48-1.526.488-.477.01-.842-.134-1.095-.399-.248-.26-.521-.762-.521-1.702 0-.6.229-1.1.503-2.392a1 1 0 1 0-1.956-.416l-1.86 8.743A7.998 7.998 0 0 1 4 12"/></g></svg>