<svg xmlns="http://www.w3.org/2000/svg" width="24" height="24"><g fill="none" fill-rule="evenodd"><path d="M24 0v24H0V0zM12.593 23.258l-.011.002-.071.035-.02.004-.014-.004-.071-.035c-.01-.004-.019-.001-.024.005l-.004.01-.017.428.005.02.01.013.104.074.015.004.012-.004.104-.074.012-.016.004-.017-.017-.427c-.002-.01-.009-.017-.017-.018m.265-.113-.013.002-.185.093-.01.01-.003.011.018.43.005.012.008.007.201.093c.012.004.023 0 .029-.008l.004-.014-.034-.614c-.003-.012-.01-.02-.02-.022m-.715.002a.023.023 0 0 0-.027.006l-.006.014-.034.614c0 .012.007.02.017.024l.015-.002.201-.093.01-.008.004-.011.017-.43-.003-.012-.01-.01z"/><path fill="currentColor" d="M10.5 4a1.472 1.472 0 0 0-1.317 2.13l.163.325A1.067 1.067 0 0 1 8.39 8H5a1 1 0 0 0-1 1v1.194c1.82-.109 3.5 1.331 3.5 3.306S5.82 16.915 4 16.806V19a1 1 0 0 0 1 1h2.194c-.109-1.82 1.331-3.5 3.306-3.5s3.415 1.68 3.306 3.5H15a1 1 0 0 0 1-1v-3.39c0-.794.835-1.31 1.545-.956l.324.163a1.472 1.472 0 1 0 0-2.634l-.324.163A1.067 1.067 0 0 1 16 11.39V9a1 1 0 0 0-1-1h-2.39c-.794 0-1.31-.835-.956-1.545l.163-.325A1.472 1.472 0 0 0 10.5 4M7.064 6c-.316-2.017 1.23-4 3.436-4 2.205 0 3.752 1.983 3.436 4H15a3 3 0 0 1 3 3v1.064c2.017-.316 4 1.23 4 3.436 0 2.205-1.983 3.752-4 3.436V19a3 3 0 0 1-3 3h-2.407a1.061 1.061 0 0 1-.976-1.48l.085-.197a1.308 1.308 0 1 0-2.404 0l.085.198c.3.7-.214 1.479-.976 1.479H5a3 3 0 0 1-3-3v-3.407c0-.762.779-1.276 1.48-.976l.197.085a1.308 1.308 0 1 0 0-2.404l-.198.085c-.7.3-1.479-.214-1.479-.976V9a3 3 0 0 1 3-3z"/></g></svg>