<svg xmlns="http://www.w3.org/2000/svg" width="24" height="24"><g fill="none" fill-rule="evenodd"><path d="M24 0v24H0V0zM12.593 23.258l-.011.002-.071.035-.02.004-.014-.004-.071-.035c-.01-.004-.019-.001-.024.005l-.004.01-.017.428.005.02.01.013.104.074.015.004.012-.004.104-.074.012-.016.004-.017-.017-.427c-.002-.01-.009-.017-.017-.018m.265-.113-.013.002-.185.093-.01.01-.003.011.018.43.005.012.008.007.201.093c.012.004.023 0 .029-.008l.004-.014-.034-.614c-.003-.012-.01-.02-.02-.022m-.715.002a.023.023 0 0 0-.027.006l-.006.014-.034.614c0 .012.007.02.017.024l.015-.002.201-.093.01-.008.004-.011.017-.43-.003-.012-.01-.01z"/><path fill="currentColor" d="M12 2c-.84 0-1.65.202-2.282.582C9.105 2.949 8.5 3.597 8.5 4.5s.605 1.55 1.218 1.918C10.35 6.798 11.16 7 12 7c.84 0 1.65-.202 2.282-.582.613-.367 1.218-1.015 1.218-1.918s-.605-1.55-1.218-1.918C13.65 2.202 12.841 2 12 2m-1.253 2.297c-.157.094-.216.167-.238.203.022.036.081.11.238.203.272.164.713.297 1.253.297.54 0 .981-.133 1.253-.297.157-.094.216-.167.238-.203-.022-.036-.081-.11-.238-.203C12.981 4.133 12.54 4 12 4c-.54 0-.981.133-1.253.297M12 17c-.84 0-1.65.202-2.282.582-.613.367-1.218 1.014-1.218 1.918 0 .904.605 1.55 1.218 1.918.632.38 1.442.582 2.282.582.84 0 1.65-.202 2.282-.582.613-.367 1.218-1.014 1.218-1.918 0-.904-.605-1.55-1.218-1.918C13.65 17.202 12.841 17 12 17m-1.253 2.297c-.157.094-.216.167-.238.203.022.036.081.11.238.203.272.163.713.297 1.253.297.54 0 .981-.134 1.253-.297.157-.094.216-.167.238-.203-.022-.036-.081-.11-.238-.203C12.981 19.134 12.54 19 12 19c-.54 0-.981.134-1.253.297M3.34 7c-.42.728-.65 1.53-.637 2.267.012.715.27 1.562 1.052 2.014.782.452 1.645.251 2.27-.096.645-.357 1.225-.957 1.645-1.685.42-.728.65-1.53.637-2.267-.012-.715-.27-1.562-1.052-2.014-.782-.452-1.645-.251-2.27.095C4.34 5.672 3.76 6.272 3.34 7m1.362 2.234c.003.182.037.27.057.307.043 0 .136-.016.295-.104.278-.154.614-.47.884-.937.27-.468.375-.916.37-1.234-.004-.182-.037-.27-.058-.307-.042 0-.135.015-.294.104-.278.154-.614.469-.884.937-.27.468-.375.916-.37 1.234M16.33 14.5c-.42.728-.65 1.53-.637 2.267.012.715.27 1.562 1.052 2.014.783.452 1.646.251 2.27-.095.645-.358 1.225-.958 1.645-1.686.42-.728.65-1.53.638-2.267-.012-.715-.27-1.562-1.053-2.014-.782-.452-1.645-.251-2.27.095-.645.358-1.225.958-1.645 1.686m1.363 2.234c.003.182.036.27.057.307.042 0 .135-.015.295-.104.277-.154.613-.47.883-.937.27-.468.375-.916.37-1.234-.003-.182-.037-.27-.057-.307-.042 0-.135.015-.295.104-.278.154-.614.469-.884.937-.27.468-.375.916-.37 1.234ZM4.985 18.686C4.34 18.328 3.76 17.728 3.34 17c-.42-.728-.65-1.53-.637-2.267.012-.715.27-1.562 1.052-2.014.782-.452 1.645-.251 2.27.096.645.358 1.225.957 1.645 1.685.42.728.65 1.53.637 2.268-.012.714-.27 1.561-1.052 2.013-.782.452-1.645.252-2.27-.095M6.25 17.04c-.042 0-.135-.015-.294-.104-.278-.154-.614-.469-.884-.937-.27-.468-.375-.916-.37-1.234.003-.182.037-.27.057-.307.043 0 .136.016.295.104.278.154.614.47.884.937.27.468.375.916.37 1.234-.004.182-.037.27-.058.307m11.725-5.855c-.645-.358-1.225-.958-1.645-1.686-.42-.728-.65-1.53-.637-2.267.012-.715.27-1.562 1.052-2.014.783-.452 1.646-.251 2.27.096.645.358 1.225.957 1.645 1.685.42.728.65 1.53.638 2.268-.012.714-.27 1.561-1.053 2.013-.782.452-1.645.252-2.27-.095m1.266-1.645c-.042 0-.135-.015-.295-.104-.278-.154-.614-.469-.884-.937-.27-.468-.375-.916-.37-1.234.004-.182.037-.27.058-.307.042 0 .135.016.295.104.277.154.613.47.883.937.27.468.375.916.37 1.234-.003.182-.037.27-.057.307"/></g></svg>