<svg xmlns="http://www.w3.org/2000/svg" width="24" height="24"><g fill="none"><path d="M24 0v24H0V0zM12.594 23.258l-.012.002-.071.035-.02.004-.014-.004-.071-.036c-.01-.003-.019 0-.024.006l-.004.01-.017.428.005.02.01.013.104.074.015.004.012-.004.104-.074.012-.016.004-.017-.017-.427c-.002-.01-.009-.017-.016-.018m.264-.113-.014.002-.184.093-.01.01-.003.011.018.43.005.012.008.008.201.092c.012.004.023 0 .029-.008l.004-.014-.034-.614c-.003-.012-.01-.02-.02-.022m-.715.002a.023.023 0 0 0-.027.006l-.006.014-.034.614c0 .012.007.02.017.024l.015-.002.201-.093.01-.008.003-.011.018-.43-.003-.012-.01-.01z"/><path fill="currentColor" d="M5.902 7.438a1 1 0 0 0-.498.926l.067 1.116a1 1 0 0 0 .28.635l.868.898-2.79-.4a1 1 0 0 0-1.107.731l-.183.683a1 1 0 0 0 .415 1.094l6.912 4.563.804 1.782a2 2 0 0 0 2.823.91l5.902-3.408a2 2 0 0 0 .65-2.862l-1.702-2.486a4.502 4.502 0 0 0-4.994-7.294l-.06-.087a1 1 0 0 0-1.325-.301zm6.26-1.305 6.233 9.103-5.902 3.408-1.002-2.22.029-.044-.07-.046-2.636-5.843a1.001 1.001 0 0 0-.193-.284L7.445 8.99l-.008-.13 4.725-2.728Zm2.355-.102a2.501 2.501 0 0 1 2.757 3.735l-.099.148zm-6.192 8.24-1.92-1.268 1.441.206z"/></g></svg>