<svg xmlns="http://www.w3.org/2000/svg" width="24" height="24"><g fill="none" fill-rule="evenodd"><path d="M24 0v24H0V0zM12.594 23.258l-.012.002-.071.035-.02.004-.014-.004-.071-.036c-.01-.003-.019 0-.024.006l-.004.01-.017.428.005.02.01.013.104.074.015.004.012-.004.104-.074.012-.016.004-.017-.017-.427c-.002-.01-.009-.017-.016-.018m.264-.113-.014.002-.184.093-.01.01-.003.011.018.43.005.012.008.008.201.092c.012.004.023 0 .029-.008l.004-.014-.034-.614c-.003-.012-.01-.02-.02-.022m-.715.002a.023.023 0 0 0-.027.006l-.006.014-.034.614c0 .012.007.02.017.024l.015-.002.201-.093.01-.008.003-.011.018-.43-.003-.012-.01-.01z"/><path fill="currentColor" d="M5 5a2 2 0 0 1 2-2h4.5a4.5 4.5 0 1 1 0 9h-.086L15 15.586l2.293-2.293a1 1 0 0 1 1.414 1.414L16.414 17l2.293 2.293a1 1 0 0 1-1.414 1.414L15 18.414l-2.293 2.293a1 1 0 0 1-1.414-1.414L13.586 17l-5-5H7v5a1 1 0 1 1-2 0zm2 5h4.5a2.5 2.5 0 0 0 0-5H7z"/></g></svg>