<svg xmlns="http://www.w3.org/2000/svg" width="24" height="24"><g fill="none"><path d="M24 0v24H0V0zM12.593 23.258l-.011.002-.071.035-.02.004-.014-.004-.071-.035c-.01-.004-.019-.001-.024.005l-.004.01-.017.428.005.02.01.013.104.074.015.004.012-.004.104-.074.012-.016.004-.017-.017-.427c-.002-.01-.009-.017-.017-.018m.265-.113-.013.002-.185.093-.01.01-.003.011.018.43.005.012.008.007.201.093c.012.004.023 0 .029-.008l.004-.014-.034-.614c-.003-.012-.01-.02-.02-.022m-.715.002a.023.023 0 0 0-.027.006l-.006.014-.034.614c0 .012.007.02.017.024l.015-.002.201-.093.01-.008.004-.011.017-.43-.003-.012-.01-.01z"/><path fill="currentColor" d="M16.9 3a1.1 1.1 0 0 1 1.094.98L18 4.1V7h1a3 3 0 0 1 2.995 2.824L22 10v7a2 2 0 0 1-1.85 1.995L20 19h-2v1.9a1.1 1.1 0 0 1-.98 1.094L16.9 22H7.1a1.1 1.1 0 0 1-1.094-.98L6 20.9V19H4a2 2 0 0 1-1.995-1.85L2 17v-7a3 3 0 0 1 2.824-2.995L5 7h1V4.1a1.1 1.1 0 0 1 .98-1.094L7.1 3zM16 16H8v4h8zm3-7H5a1 1 0 0 0-.993.883L4 10v7h2v-1.9a1.1 1.1 0 0 1 .98-1.094L7.1 14h9.8a1.1 1.1 0 0 1 1.094.98l.006.12V17h2v-7a1 1 0 0 0-1-1m-2 1a1 1 0 0 1 .117 1.993L17 12h-2a1 1 0 0 1-.117-1.993L15 10zm-1-5H8v2h8z"/></g></svg>