<svg xmlns="http://www.w3.org/2000/svg" width="24" height="24"><g fill="none" fill-rule="evenodd"><path d="M24 0v24H0V0zM12.594 23.258l-.012.002-.071.035-.02.004-.014-.004-.071-.036c-.01-.003-.019 0-.024.006l-.004.01-.017.428.005.02.01.013.104.074.015.004.012-.004.104-.074.012-.016.004-.017-.017-.427c-.002-.01-.009-.017-.016-.018m.264-.113-.014.002-.184.093-.01.01-.003.011.018.43.005.012.008.008.201.092c.012.004.023 0 .029-.008l.004-.014-.034-.614c-.003-.012-.01-.02-.02-.022m-.715.002a.023.023 0 0 0-.027.006l-.006.014-.034.614c0 .012.007.02.017.024l.015-.002.201-.093.01-.008.003-.011.018-.43-.003-.012-.01-.01z"/><path fill="currentColor" d="M12 2c.762 0 1.506.085 2.221.248a1 1 0 1 1-.442 1.95 8 8 0 1 0 6.023 9.58 1 1 0 1 1 1.95.443C20.742 18.675 16.76 22 12 22 6.477 22 2 17.523 2 12S6.477 2 12 2m3.949 11.184a1 1 0 0 1-.633 1.265c-.409.136-.853.326-1.313.557-.243.121-.48.249-.71.378l-.334.196c-.194.116-.333.205-.404.252a1 1 0 0 1-1.11-1.664l.358-.226.127-.077c.368-.22.765-.441 1.178-.648.54-.27 1.068-.496 1.576-.666a1 1 0 0 1 1.265.633M9.5 9a1.5 1.5 0 1 1 0 3 1.5 1.5 0 0 1 0-3m5-2a1.5 1.5 0 1 1 0 3 1.5 1.5 0 0 1 0-3m5 1a1 1 0 1 1 0 2 1 1 0 0 1 0-2m0-6a2.5 2.5 0 0 1 1.546 4.464l-.568.47c-.327.262-.666.488-.978.488-.625 0-.86-.49-.86-.844s.211-.734.385-.948c.254-.313.565-.564.784-.737A.5.5 0 1 0 19 4.5a1 1 0 1 1-2 0A2.5 2.5 0 0 1 19.5 2"/></g></svg>