<svg xmlns="http://www.w3.org/2000/svg" width="24" height="24"><g fill="none"><path d="M24 0v24H0V0zM12.593 23.258l-.011.002-.071.035-.02.004-.014-.004-.071-.035c-.01-.004-.019-.001-.024.005l-.004.01-.017.428.005.02.01.013.104.074.015.004.012-.004.104-.074.012-.016.004-.017-.017-.427c-.002-.01-.009-.017-.017-.018m.265-.113-.013.002-.185.093-.01.01-.003.011.018.43.005.012.008.007.201.093c.012.004.023 0 .029-.008l.004-.014-.034-.614c-.003-.012-.01-.02-.02-.022m-.715.002a.023.023 0 0 0-.027.006l-.006.014-.034.614c0 .012.007.02.017.024l.015-.002.201-.093.01-.008.004-.011.017-.43-.003-.012-.01-.01z"/><path fill="currentColor" d="M11 3a2 2 0 0 1 1.995 1.85L13 5v6a2 2 0 0 1-1.85 1.995L11 13H5a2 2 0 0 1-1.995-1.85L3 11V5a2 2 0 0 1 1.85-1.995L5 3zm0 2H5v6h6zM8.5 7a.5.5 0 0 1 .492.41L9 7.5v1a.5.5 0 0 1-.41.492L8.5 9h-1a.5.5 0 0 1-.492-.41L7 8.5v-1a.5.5 0 0 1 .41-.492L7.5 7zM21 5a2 2 0 0 0-2-2h-2a2 2 0 0 0-2 2v2a2 2 0 0 0 2 2h2a2 2 0 0 0 2-2zm-4 0h2v2h-2zM7 15a2 2 0 0 1 2 2v2a2 2 0 0 1-2 2H5a2 2 0 0 1-2-2v-2a2 2 0 0 1 2-2zm0 2H5v2h2zm14 0a2 2 0 0 0-2-2h-2a2 2 0 0 0-2 2v2a2 2 0 0 0 2 2h2a2 2 0 0 0 2-2zm-4 0h2v2h-2zm-2-5a1 1 0 0 1 1-1h4a1 1 0 1 1 0 2h-4a1 1 0 0 1-1-1m-2 4a1 1 0 1 0-2 0v4a1 1 0 1 0 2 0z"/></g></svg>