<svg xmlns="http://www.w3.org/2000/svg" width="24" height="24"><g fill="none"><path d="M24 0v24H0V0zM12.594 23.258l-.012.002-.071.035-.02.004-.014-.004-.071-.036c-.01-.003-.019 0-.024.006l-.004.01-.017.428.005.02.01.013.104.074.015.004.012-.004.104-.074.012-.016.004-.017-.017-.427c-.002-.01-.009-.017-.016-.018m.264-.113-.014.002-.184.093-.01.01-.003.011.018.43.005.012.008.008.201.092c.012.004.023 0 .029-.008l.004-.014-.034-.614c-.003-.012-.01-.02-.02-.022m-.715.002a.023.023 0 0 0-.027.006l-.006.014-.034.614c0 .012.007.02.017.024l.015-.002.201-.093.01-.008.003-.011.018-.43-.003-.012-.01-.01z"/><path fill="currentColor" d="M16 2a3 3 0 0 1 2.995 2.824L19 5v14a3 3 0 0 1-2.824 2.995L16 22H8a3 3 0 0 1-2.995-2.824L5 19V5a3 3 0 0 1 2.824-2.995L8 2zm0 2H8a1 1 0 0 0-.993.883L7 5v14a1 1 0 0 0 .883.993L8 20h8a1 1 0 0 0 .993-.883L17 19V5a1 1 0 0 0-1-1m-2 12a1 1 0 0 1 .117 1.993L14 18h-.5a1 1 0 0 1-.117-1.993L13.5 16zm-3.5 0a1 1 0 1 1 0 2H10a1 1 0 1 1 0-2zm3.5-3a1 1 0 0 1 .117 1.993L14 15h-.5a1 1 0 0 1-.117-1.993L13.5 13zm-3.5 0a1 1 0 1 1 0 2H10a1 1 0 1 1 0-2zM12 5a3.5 3.5 0 1 1 0 7 3.5 3.5 0 0 1 0-7m0 2a1.5 1.5 0 1 0 0 3 1.5 1.5 0 0 0 0-3"/></g></svg>