<svg xmlns="http://www.w3.org/2000/svg" width="24" height="24"><g fill="none"><path d="M24 0v24H0V0zM12.594 23.258l-.012.002-.071.035-.02.004-.014-.004-.071-.036c-.01-.003-.019 0-.024.006l-.004.01-.017.428.005.02.01.013.104.074.015.004.012-.004.104-.074.012-.016.004-.017-.017-.427c-.002-.01-.009-.017-.016-.018m.264-.113-.014.002-.184.093-.01.01-.003.011.018.43.005.012.008.008.201.092c.012.004.023 0 .029-.008l.004-.014-.034-.614c-.003-.012-.01-.02-.02-.022m-.715.002a.023.023 0 0 0-.027.006l-.006.014-.034.614c0 .012.007.02.017.024l.015-.002.201-.093.01-.008.003-.011.018-.43-.003-.012-.01-.01z"/><path fill="currentColor" d="M18.541 1a1 1 0 0 1 .952.884L20 6.209a1 1 0 0 1-1.771.745A8 8 0 1 0 20 11.996a1 1 0 1 1 2 .002c-.007 4.567-3.16 8.686-7.804 9.733-5.388 1.214-10.74-2.17-11.954-7.557C1.028 8.786 4.412 3.434 9.8 2.22a9.967 9.967 0 0 1 7.394 1.211l.327-1.628a1 1 0 0 1 1.021-.802M9.472 7.619A1 1 0 0 1 10 8.5v7a1 1 0 0 1-2 0v-5.134a1 1 0 0 1-1.054-1.698l1.5-1a1 1 0 0 1 1.026-.05M14 7.5a3 3 0 0 1 2.995 2.824L17 10.5v3a3 3 0 0 1-5.995.176L11 13.5v-3a3 3 0 0 1 3-3m0 2a1 1 0 0 0-.993.884L13 10.5v3a1 1 0 0 0 1.993.117L15 13.5v-3a1 1 0 0 0-1-1"/></g></svg>