<svg xmlns="http://www.w3.org/2000/svg" width="24" height="24"><g fill="none"><path d="M24 0v24H0V0zM12.594 23.258l-.012.002-.071.035-.02.004-.014-.004-.071-.036c-.01-.003-.019 0-.024.006l-.004.01-.017.428.005.02.01.013.104.074.015.004.012-.004.104-.074.012-.016.004-.017-.017-.427c-.002-.01-.009-.017-.016-.018m.264-.113-.014.002-.184.093-.01.01-.003.011.018.43.005.012.008.008.201.092c.012.004.023 0 .029-.008l.004-.014-.034-.614c-.003-.012-.01-.02-.02-.022m-.715.002a.023.023 0 0 0-.027.006l-.006.014-.034.614c0 .012.007.02.017.024l.015-.002.201-.093.01-.008.003-.011.018-.43-.003-.012-.01-.01z"/><path fill="currentColor" d="m17.207 1.793 2.483 2.483c.636.636.186 1.724-.714 1.724H6a2 2 0 0 0-2 2v8a2 2 0 0 0 2 2h12a2 2 0 0 0 2-2v-5a1 1 0 1 1 2 0v5a4 4 0 0 1-4 4H6a4 4 0 0 1-4-4V8a4 4 0 0 1 4-4h10.132l-.526-1.053a1 1 0 0 1 1.601-1.154M15.763 7.5a1 1 0 1 1 0 2h-2.5v.696a4.23 4.23 0 0 1 .75-.071c1.896 0 3.188 1.459 3.188 3.188a3.188 3.188 0 0 1-6.11 1.275 1 1 0 0 1 1.78-.905l.053.104a1.188 1.188 0 0 0 2.277-.475c0-.687-.46-1.187-1.188-1.187a2.95 2.95 0 0 0-.887.167l-.18.065-.239.101a1 1 0 0 1-1.444-.896V9a1.5 1.5 0 0 1 1.5-1.5zm-7.318.168a1 1 0 0 1 1.548.71L10 8.5v7a1 1 0 0 1-1.993.117L8 15.5v-5.134a1 1 0 0 1-1.148-1.628l.093-.07z"/></g></svg>