<svg xmlns="http://www.w3.org/2000/svg" width="24" height="24"><g fill="none"><path d="M24 0v24H0V0zM12.593 23.258l-.011.002-.071.035-.02.004-.014-.004-.071-.035c-.01-.004-.019-.001-.024.005l-.004.01-.017.428.005.02.01.013.104.074.015.004.012-.004.104-.074.012-.016.004-.017-.017-.427c-.002-.01-.009-.017-.017-.018m.265-.113-.013.002-.185.093-.01.01-.003.011.018.43.005.012.008.007.201.093c.012.004.023 0 .029-.008l.004-.014-.034-.614c-.003-.012-.01-.02-.02-.022m-.715.002a.023.023 0 0 0-.027.006l-.006.014-.034.614c0 .012.007.02.017.024l.015-.002.201-.093.01-.008.004-.011.017-.43-.003-.012-.01-.01z"/><path fill="currentColor" d="M6 13a4 4 0 1 1 0 8 4 4 0 0 1 0-8m12 0a4 4 0 1 1 0 8 4 4 0 0 1 0-8m-3.962-5.376L16.414 10H18a1 1 0 1 1 0 2h-1.793a1.5 1.5 0 0 1-1.06-.44l-1.193-1.191-2.632 2.303 1.317 1.537a1.5 1.5 0 0 1 .361.976V19a1 1 0 1 1-2 0v-3.63l-2.437-2.843a1.5 1.5 0 0 1 .151-2.105l3.275-2.867a1.5 1.5 0 0 1 2.049.069M6 15a2 2 0 1 0 0 4 2 2 0 0 0 0-4m12 0a2 2 0 1 0 0 4 2 2 0 0 0 0-4M16 3a2 2 0 1 1 0 4 2 2 0 0 1 0-4"/></g></svg>