<svg xmlns="http://www.w3.org/2000/svg" width="24" height="24"><g fill="none"><path d="M24 0v24H0V0zM12.593 23.258l-.011.002-.071.035-.02.004-.014-.004-.071-.035c-.01-.004-.019-.001-.024.005l-.004.01-.017.428.005.02.01.013.104.074.015.004.012-.004.104-.074.012-.016.004-.017-.017-.427c-.002-.01-.009-.017-.017-.018m.265-.113-.013.002-.185.093-.01.01-.003.011.018.43.005.012.008.007.201.093c.012.004.023 0 .029-.008l.004-.014-.034-.614c-.003-.012-.01-.02-.02-.022m-.715.002a.023.023 0 0 0-.027.006l-.006.014-.034.614c0 .012.007.02.017.024l.015-.002.201-.093.01-.008.004-.011.017-.43-.003-.012-.01-.01z"/><path fill="currentColor" d="m18.42 2.797.386.056c.6.095 1.272.254 1.685.667.414.414.573 1.086.668 1.686l.056.385c.126.91.159 2.103-.056 3.427-.424 2.613-1.815 5.73-5.308 8.145a4.61 4.61 0 0 0-.017.537l.017.543c.01.362.004.723-.096 1.07-.19.66-.867 1.095-1.5 1.407l-.31.147-.4.176-.273.11c-.707.27-1.56.459-2.118-.1-.253-.253-.37-.597-.464-.941l-.046-.172c-.16-.607-.341-1.21-.567-1.794a3.04 3.04 0 0 1-.198.218c-.545.544-1.284.818-2.023 1.03l-.491.135-.49.13-.478.12-.432.1-.517.11-.323.063a1.009 1.009 0 0 1-1.177-1.177l.111-.551.129-.578.124-.51.225-.845c.223-.82.494-1.665 1.1-2.27l.099-.095-.763-.274-.767-.264c-.449-.148-.921-.304-1.247-.63-.596-.596-.343-1.526-.046-2.257l.166-.387.137-.301c.317-.674.767-1.45 1.483-1.656.347-.1.707-.106 1.07-.097l.543.018c.18.003.36 0 .537-.017 2.414-3.493 5.532-4.884 8.145-5.308a11.693 11.693 0 0 1 3.426-.056m-3.106 2.03c-2.198.357-4.869 1.534-6.953 4.669-.253.38-.68.561-1.115.63-.246.04-.494.05-.743.05l-.747-.011c-.124 0-.249 0-.373.006-.304.404-.516.884-.675 1.361l1.5.545.617.233c1.128.442 2.22.977 3.06 1.817 1.415 1.415 2.134 3.266 2.654 5.157.456-.16.914-.364 1.302-.655l.006-.373-.011-.746c0-.248.01-.496.05-.744.068-.435.25-.862.63-1.115 3.135-2.084 4.312-4.755 4.669-6.953.18-1.11.15-2.102.049-2.833a5.378 5.378 0 0 0-.193-.895 5.375 5.375 0 0 0-.895-.192 9.697 9.697 0 0 0-2.832.05ZM7.05 15.535c-.35.423-.513.978-.644 1.528l-.108.468-.055.226.694-.163c.55-.13 1.106-.295 1.528-.645a1 1 0 1 0-1.415-1.414m5.657-7.07a2 2 0 1 1 2.829 2.828 2 2 0 0 1-2.829-2.829Z"/></g></svg>