<svg xmlns="http://www.w3.org/2000/svg" width="24" height="24"><g fill="none"><path d="M24 0v24H0V0zM12.594 23.258l-.012.002-.071.035-.02.004-.014-.004-.071-.036c-.01-.003-.019 0-.024.006l-.004.01-.017.428.005.02.01.013.104.074.015.004.012-.004.104-.074.012-.016.004-.017-.017-.427c-.002-.01-.009-.017-.016-.018m.264-.113-.014.002-.184.093-.01.01-.003.011.018.43.005.012.008.008.201.092c.012.004.023 0 .029-.008l.004-.014-.034-.614c-.003-.012-.01-.02-.02-.022m-.715.002a.023.023 0 0 0-.027.006l-.006.014-.034.614c0 .012.007.02.017.024l.015-.002.201-.093.01-.008.003-.011.018-.43-.003-.012-.01-.01z"/><path fill="currentColor" d="m7.433 7.271 1.58 1.106a.998.998 0 0 1 .29 1.455L8.17 11.45a1 1 0 0 1-1.803-.75 8.595 8.595 0 0 0-1.387.52c-.422.208-.692.408-.844.571-.188.201-.09.352.074.497l.116.095c.33.26.87.539 1.626.79C7.454 13.674 9.592 14 12 14s4.546-.327 6.048-.827c.756-.252 1.296-.53 1.626-.79l.124-.101c.157-.135.258-.275.088-.468-.13-.148-.365-.333-.74-.53-.751-.396-1.887-.75-3.31-.985a1 1 0 1 1 .327-1.974c1.541.256 2.906.657 3.914 1.189C21.002 10 22 10.803 22 12c0 .852-.519 1.505-1.088 1.953-.581.458-1.36.826-2.232 1.117-1.755.585-4.117.93-6.68.93-2.563 0-4.925-.345-6.68-.93-.873-.29-1.651-.66-2.232-1.117C2.518 13.505 2 12.853 2 12c0-.636.295-1.168.674-1.575.374-.4.873-.729 1.422-1 .565-.278 1.232-.52 1.974-.72A1 1 0 0 1 7.433 7.27ZM12 4a1 1 0 0 1 1 1v8h-2V5a1 1 0 0 1 1-1m-1 15v-2h2v2a1 1 0 1 1-2 0"/></g></svg>