<svg xmlns="http://www.w3.org/2000/svg" width="24" height="24"><g fill="none" fill-rule="evenodd"><path d="M24 0v24H0V0zM12.594 23.258l-.012.002-.071.035-.02.004-.014-.004-.071-.036c-.01-.003-.019 0-.024.006l-.004.01-.017.428.005.02.01.013.104.074.015.004.012-.004.104-.074.012-.016.004-.017-.017-.427c-.002-.01-.009-.017-.016-.018m.264-.113-.014.002-.184.093-.01.01-.003.011.018.43.005.012.008.008.201.092c.012.004.023 0 .029-.008l.004-.014-.034-.614c-.003-.012-.01-.02-.02-.022m-.715.002a.023.023 0 0 0-.027.006l-.006.014-.034.614c0 .012.007.02.017.024l.015-.002.201-.093.01-.008.003-.011.018-.43-.003-.012-.01-.01z"/><path fill="currentColor" d="M13 3a1 1 0 1 0-2 0v1.062A7.96 7.96 0 0 0 7.094 5.68l-.75-.75a1 1 0 0 0-1.415 1.413l.751.751A7.96 7.96 0 0 0 4.062 11H3a1 1 0 1 0 0 2h1.062a7.96 7.96 0 0 0 1.618 3.906l-.751.751a1 1 0 1 0 1.414 1.414l.751-.751A7.96 7.96 0 0 0 11 19.938V21a1 1 0 1 0 2 0v-1.062a7.96 7.96 0 0 0 3.906-1.618l.751.751a1 1 0 0 0 1.414-1.414l-.751-.751A7.96 7.96 0 0 0 19.938 13H21a1 1 0 1 0 0-2h-1.062a7.96 7.96 0 0 0-1.618-3.906l.751-.75a1 1 0 0 0-1.414-1.415l-.751.751A7.96 7.96 0 0 0 13 4.062zm2.477 4.11A5.968 5.968 0 0 0 13 6.082v2.043c.367.094.714.24 1.032.428l1.445-1.445Zm-2.073 3.466.01.01.01.01a2 2 0 1 1-2.85.002l.012-.012.012-.012c.36-.355.856-.574 1.402-.574.547 0 1.043.22 1.404.576m2.042-.608 1.445-1.444A5.967 5.967 0 0 1 17.917 11h-2.043a3.977 3.977 0 0 0-.428-1.032m-6.922 6.923A5.967 5.967 0 0 0 11 17.917v-2.043a3.977 3.977 0 0 1-1.032-.428zm.03-2.859A3.976 3.976 0 0 1 8.126 13H6.083a5.968 5.968 0 0 0 1.026 2.477zM6.083 11h2.043a3.96 3.96 0 0 1 .428-1.032L7.109 8.524A5.968 5.968 0 0 0 6.083 11m11.834 2h-2.043c-.095.367-.24.714-.428 1.032l1.445 1.445A5.968 5.968 0 0 0 17.917 13m-3.885 2.446a3.977 3.977 0 0 1-1.032.428v2.043a5.967 5.967 0 0 0 2.476-1.026zM9.968 8.554 8.523 7.109A5.968 5.968 0 0 1 11 6.083v2.043a3.96 3.96 0 0 0-1.032.428"/></g></svg>