<svg xmlns="http://www.w3.org/2000/svg" width="24" height="24"><g fill="none" fill-rule="evenodd"><path d="M24 0v24H0V0zM12.593 23.258l-.011.002-.071.035-.02.004-.014-.004-.071-.035c-.01-.004-.019-.001-.024.005l-.004.01-.017.428.005.02.01.013.104.074.015.004.012-.004.104-.074.012-.016.004-.017-.017-.427c-.002-.01-.009-.017-.017-.018m.265-.113-.013.002-.185.093-.01.01-.003.011.018.43.005.012.008.007.201.093c.012.004.023 0 .029-.008l.004-.014-.034-.614c-.003-.012-.01-.02-.02-.022m-.715.002a.023.023 0 0 0-.027.006l-.006.014-.034.614c0 .012.007.02.017.024l.015-.002.201-.093.01-.008.004-.011.017-.43-.003-.012-.01-.01z"/><path fill="currentColor" d="M20 3a2 2 0 0 1 2 2v13a2 2 0 0 1-2 2h-1a1 1 0 1 1-2 0H7a1 1 0 1 1-2 0H4a2 2 0 0 1-2-2V5a2 2 0 0 1 2-2zm0 2H4v13h16zm-8 2a1 1 0 0 1 1 1v.126a4.002 4.002 0 0 1 2.855 4.945l.109.063a1 1 0 1 1-1 1.732l-.11-.063A3.988 3.988 0 0 1 12 16a3.988 3.988 0 0 1-2.854-1.197l-.11.063a1 1 0 1 1-1-1.732l.109-.063A4.004 4.004 0 0 1 11 8.126V8a1 1 0 0 1 1-1m0 3a2 2 0 0 0-1.818 2.836l.094.178a1.999 1.999 0 0 0 3.359.138l.11-.174A2 2 0 0 0 12 10"/></g></svg>