<svg xmlns="http://www.w3.org/2000/svg" width="24" height="24"><g fill="none"><path d="M24 0v24H0V0zM12.593 23.258l-.011.002-.071.035-.02.004-.014-.004-.071-.035c-.01-.004-.019-.001-.024.005l-.004.01-.017.428.005.02.01.013.104.074.015.004.012-.004.104-.074.012-.016.004-.017-.017-.427c-.002-.01-.009-.017-.017-.018m.265-.113-.013.002-.185.093-.01.01-.003.011.018.43.005.012.008.007.201.093c.012.004.023 0 .029-.008l.004-.014-.034-.614c-.003-.012-.01-.02-.02-.022m-.715.002a.023.023 0 0 0-.027.006l-.006.014-.034.614c0 .012.007.02.017.024l.015-.002.201-.093.01-.008.004-.011.017-.43-.003-.012-.01-.01z"/><path fill="currentColor" d="M11.298 2.195a2 2 0 0 1 1.232-.055l.172.055 7 2.625a2 2 0 0 1 1.291 1.708l.007.165v5.363a9 9 0 0 1-4.709 7.911l-.266.139-3.354 1.677a1.5 1.5 0 0 1-1.198.062l-.144-.062-3.354-1.677a9 9 0 0 1-4.97-7.75l-.005-.3V6.693a2 2 0 0 1 1.145-1.808l.153-.065zM12 4.068 5 6.693v5.363a7 7 0 0 0 3.635 6.138l.235.123L12 19.882l3.13-1.565a7 7 0 0 0 3.865-5.997l.005-.264V6.693zm3.433 4.561a1 1 0 0 1 1.497 1.32l-.083.094-5.234 5.235a1.1 1.1 0 0 1-1.46.085l-.096-.085-2.404-2.404a1 1 0 0 1 1.32-1.498l.094.083 1.768 1.768z"/></g></svg>