<svg xmlns="http://www.w3.org/2000/svg" width="24" height="24"><g fill="none" fill-rule="evenodd"><path d="M24 0v24H0V0zM12.593 23.258l-.011.002-.071.035-.02.004-.014-.004-.071-.035c-.01-.004-.019-.001-.024.005l-.004.01-.017.428.005.02.01.013.104.074.015.004.012-.004.104-.074.012-.016.004-.017-.017-.427c-.002-.01-.009-.017-.017-.018m.265-.113-.013.002-.185.093-.01.01-.003.011.018.43.005.012.008.007.201.093c.012.004.023 0 .029-.008l.004-.014-.034-.614c-.003-.012-.01-.02-.02-.022m-.715.002a.023.023 0 0 0-.027.006l-.006.014-.034.614c0 .012.007.02.017.024l.015-.002.201-.093.01-.008.004-.011.017-.43-.003-.012-.01-.01z"/><path fill="currentColor" d="M14.594 2.897a4 4 0 0 0-5.189 0l-.376.32a2 2 0 0 1-1.138.472l-.493.04a4 4 0 0 0-3.67 3.669l-.039.493a2 2 0 0 1-.471 1.138l-.321.376a4 4 0 0 0 0 5.19l.32.376a2 2 0 0 1 .472 1.138l.04.493a4 4 0 0 0 3.669 3.67l.493.039a2 2 0 0 1 1.138.471l.376.32a4 4 0 0 0 5.19 0l.376-.32a2 2 0 0 1 1.138-.471l.493-.04a4 4 0 0 0 3.67-3.669l.038-.493a2 2 0 0 1 .472-1.138l.32-.377a4 4 0 0 0 0-5.189l-.32-.376a2 2 0 0 1-.472-1.138l-.039-.493a4 4 0 0 0-3.669-3.67l-.493-.039a2 2 0 0 1-1.138-.471zM10.703 4.42a2 2 0 0 1 2.594 0l.377.321a4 4 0 0 0 2.276.943l.493.04a2 2 0 0 1 1.834 1.834l.04.493a4 4 0 0 0 .943 2.276l.32.377a2 2 0 0 1 0 2.594l-.32.377a4 4 0 0 0-.943 2.276l-.04.493a2 2 0 0 1-1.834 1.834l-.493.04a4 4 0 0 0-2.276.943l-.377.32a2 2 0 0 1-2.594 0l-.377-.32a4 4 0 0 0-2.276-.943l-.493-.04a2 2 0 0 1-1.835-1.834l-.04-.493a4 4 0 0 0-.942-2.276l-.32-.377a2 2 0 0 1 0-2.594l.32-.377a4 4 0 0 0 .943-2.276l.04-.493a2 2 0 0 1 1.834-1.835l.493-.039a4 4 0 0 0 2.276-.943zm5.004 5.288a1 1 0 1 0-1.414-1.414l-6 6a1 1 0 1 0 1.414 1.414zM11 9.5a1.5 1.5 0 1 1-3 0 1.5 1.5 0 0 1 3 0m3.5 6.5a1.5 1.5 0 1 0 0-3 1.5 1.5 0 0 0 0 3"/></g></svg>