<svg xmlns="http://www.w3.org/2000/svg" width="24" height="24"><g fill="none" fill-rule="evenodd"><path d="M24 0v24H0V0zM12.593 23.258l-.011.002-.071.035-.02.004-.014-.004-.071-.035c-.01-.004-.019-.001-.024.005l-.004.01-.017.428.005.02.01.013.104.074.015.004.012-.004.104-.074.012-.016.004-.017-.017-.427c-.002-.01-.009-.017-.017-.018m.265-.113-.013.002-.185.093-.01.01-.003.011.018.43.005.012.008.007.201.093c.012.004.023 0 .029-.008l.004-.014-.034-.614c-.003-.012-.01-.02-.02-.022m-.715.002a.023.023 0 0 0-.027.006l-.006.014-.034.614c0 .012.007.02.017.024l.015-.002.201-.093.01-.008.004-.011.017-.43-.003-.012-.01-.01z"/><path fill="currentColor" d="M5 9a7 7 0 0 1 14 0v1.035c1.696.243 3 1.702 3 3.465v.25a3.25 3.25 0 0 1-3.332 3.248c-.74 2.12-2.622 3.549-4.653 3.911-.47.172-1.026.091-1.515.091a1.5 1.5 0 0 1 0-3h1a1.5 1.5 0 0 1 1.207.609C16.003 17.992 17 16.689 17 15V9A5 5 0 0 0 7 9v6.25A1.75 1.75 0 0 1 5.25 17 3.25 3.25 0 0 1 2 13.75v-.25a3.5 3.5 0 0 1 3-3.465zm0 3.085A1.5 1.5 0 0 0 4 13.5v.25c0 .605.43 1.11 1 1.225zm14 0v2.89c.57-.116 1-.62 1-1.225v-.25a1.5 1.5 0 0 0-1-1.415"/></g></svg>