<svg xmlns="http://www.w3.org/2000/svg" width="24" height="24"><g fill="none" fill-rule="evenodd"><path d="M24 0v24H0V0zM12.593 23.258l-.011.002-.071.035-.02.004-.014-.004-.071-.035c-.01-.004-.019-.001-.024.005l-.004.01-.017.428.005.02.01.013.104.074.015.004.012-.004.104-.074.012-.016.004-.017-.017-.427c-.002-.01-.009-.017-.017-.018m.265-.113-.013.002-.185.093-.01.01-.003.011.018.43.005.012.008.007.201.093c.012.004.023 0 .029-.008l.004-.014-.034-.614c-.003-.012-.01-.02-.02-.022m-.715.002a.023.023 0 0 0-.027.006l-.006.014-.034.614c0 .012.007.02.017.024l.015-.002.201-.093.01-.008.004-.011.017-.43-.003-.012-.01-.01z"/><path fill="currentColor" d="M10.75 2.567a2.5 2.5 0 0 1 2.332-.089l.168.089L19.544 6.2a2.5 2.5 0 0 1 1.244 1.987l.006.178v7.268a2.5 2.5 0 0 1-1.099 2.07l-.15.095-6.295 3.634a2.5 2.5 0 0 1-2.332.089l-.168-.09L4.456 17.8a2.5 2.5 0 0 1-1.244-1.987l-.006-.178V8.366a2.5 2.5 0 0 1 1.1-2.07l.15-.095zm1.5 1.732a.5.5 0 0 0-.42-.037l-.08.037-6.294 3.634a.5.5 0 0 0-.242.345l-.008.088v7.268a.5.5 0 0 0 .178.382l.072.05 6.294 3.635a.5.5 0 0 0 .42.037l.08-.037 6.294-3.634a.5.5 0 0 0 .243-.345l.007-.088V8.366a.5.5 0 0 0-.177-.382l-.073-.051zM12 8a4 4 0 1 1 0 8 4 4 0 0 1 0-8m0 2a2 2 0 1 0 0 4 2 2 0 0 0 0-4"/></g></svg>