<svg xmlns="http://www.w3.org/2000/svg" width="24" height="24"><g fill="none"><path d="M24 0v24H0V0zM12.593 23.258l-.011.002-.071.035-.02.004-.014-.004-.071-.035c-.01-.004-.019-.001-.024.005l-.004.01-.017.428.005.02.01.013.104.074.015.004.012-.004.104-.074.012-.016.004-.017-.017-.427c-.002-.01-.009-.017-.017-.018m.265-.113-.013.002-.185.093-.01.01-.003.011.018.43.005.012.008.007.201.093c.012.004.023 0 .029-.008l.004-.014-.034-.614c-.003-.012-.01-.02-.02-.022m-.715.002a.023.023 0 0 0-.027.006l-.006.014-.034.614c0 .012.007.02.017.024l.015-.002.201-.093.01-.008.004-.011.017-.43-.003-.012-.01-.01z"/><path fill="currentColor" d="M10.114 4.491c.076-.795.906-1.45 1.743-.972 1.74 1.019 3.382 2.18 4.97 3.421 1.96 1.548 3.533 3.007 4.647 4.172.483.507.438 1.308-.024 1.792a42.072 42.072 0 0 1-3.495 3.228c-1.938 1.587-3.945 3.125-6.13 4.358-.741.418-1.544-.06-1.687-.801l-.017-.113-.227-3.574c-1.816.038-3.574.662-4.98 1.823l-.265.222-.128.104-.247.192c-.04.03-.08.06-.12.088l-.23.16a4.72 4.72 0 0 1-.218.135l-.206.111C2.534 19.314 2 18.892 2 17c0-4.404 3.245-8.323 7.632-8.917l.259-.031zm1.909 1.474-.192 3.472a.5.5 0 0 1-.447.47l-1.361.142c-3.065.366-5.497 2.762-5.948 5.894a9.952 9.952 0 0 1 5.135-1.912l.397-.023 1.704-.036a.5.5 0 0 1 .51.472l.197 3.596c1.603-1.021 3.131-2.196 4.664-3.45a43.717 43.717 0 0 0 2.857-2.595l-.258-.256-.556-.533a48.15 48.15 0 0 0-3.134-2.693 46.172 46.172 0 0 0-3.568-2.548"/></g></svg>