<svg xmlns="http://www.w3.org/2000/svg" width="24" height="24"><g fill="none"><path d="M24 0v24H0V0zM12.593 23.258l-.011.002-.071.035-.02.004-.014-.004-.071-.035c-.01-.004-.019-.001-.024.005l-.004.01-.017.428.005.02.01.013.104.074.015.004.012-.004.104-.074.012-.016.004-.017-.017-.427c-.002-.01-.009-.017-.017-.018m.265-.113-.013.002-.185.093-.01.01-.003.011.018.43.005.012.008.007.201.093c.012.004.023 0 .029-.008l.004-.014-.034-.614c-.003-.012-.01-.02-.02-.022m-.715.002a.023.023 0 0 0-.027.006l-.006.014-.034.614c0 .012.007.02.017.024l.015-.002.201-.093.01-.008.004-.011.017-.43-.003-.012-.01-.01z"/><path fill="currentColor" d="M9 3a1 1 0 0 1 .117 1.993L9 5H5v14h14v-9a1 1 0 0 1 1.993-.117L21 10v9a2 2 0 0 1-1.85 1.995L19 21H5a2 2 0 0 1-1.995-1.85L3 19V5a2 2 0 0 1 1.85-1.995L5 3zm10.513 0c.622 0 .984.468 1.075.856.091.389-.025.971-.585 1.247l-.414.211-.164.088-.363.201-.405.236-.439.27c-.682.43-1.46.976-2.242 1.637-1.654 1.399-3.258 3.261-4.027 5.57a1 1 0 0 1-1.898-.632c.928-2.784 2.823-4.933 4.634-6.465.431-.365.862-.698 1.278-1l.31-.219H14a1 1 0 0 1-.117-1.993L14 3z"/></g></svg>