<svg xmlns="http://www.w3.org/2000/svg" width="24" height="24"><g fill="none"><path d="M24 0v24H0V0zM12.593 23.258l-.011.002-.071.035-.02.004-.014-.004-.071-.035c-.01-.004-.019-.001-.024.005l-.004.01-.017.428.005.02.01.013.104.074.015.004.012-.004.104-.074.012-.016.004-.017-.017-.427c-.002-.01-.009-.017-.017-.018m.265-.113-.013.002-.185.093-.01.01-.003.011.018.43.005.012.008.007.201.093c.012.004.023 0 .029-.008l.004-.014-.034-.614c-.003-.012-.01-.02-.02-.022m-.715.002a.023.023 0 0 0-.027.006l-.006.014-.034.614c0 .012.007.02.017.024l.015-.002.201-.093.01-.008.004-.011.017-.43-.003-.012-.01-.01z"/><path fill="currentColor" d="M8.024 3.001 15.847 3c.13 0 .258.002.384.029l.124.036a2.002 2.002 0 0 1 1.488 2.056l-.016.162-.158 1.104 1.059.264a3 3 0 0 1 2.267 2.732l.005.179V18a3 3 0 0 1-2.824 2.995L18 21H6a3 3 0 0 1-2.995-2.824L3 18V9.562A3 3 0 0 1 5.1 6.7l.172-.049 1.059-.264-.158-1.104A2.001 2.001 0 0 1 7.497 3.11l.148-.045c.123-.047.25-.06.379-.064m9.36 5.376-.296 2.078a1.5 1.5 0 0 1-2.156 1.13L13 10.617V19h5a1 1 0 0 0 1-1V9.562a1 1 0 0 0-.758-.97l-.857-.215Zm-10.769 0-.858.214a1 1 0 0 0-.75.857L5 9.562V18a1 1 0 0 0 .883.993L6 19h5v-8.382l-1.932.966a1.5 1.5 0 0 1-2.132-1l-.024-.13zM17 14a1 1 0 0 1 0 2h-1a1 1 0 1 1 0-2zm-1.29-8.036L13.553 8.66l1.652.826.503-3.52Zm-7.42 0 .504 3.521 1.652-.826-2.155-2.695ZM13.92 5h-3.84L12 7.4z"/></g></svg>