<svg xmlns="http://www.w3.org/2000/svg" width="24" height="24"><g fill="none" fill-rule="evenodd"><path d="M24 0v24H0V0zM12.594 23.258l-.012.002-.071.035-.02.004-.014-.004-.071-.036c-.01-.003-.019 0-.024.006l-.004.01-.017.428.005.02.01.013.104.074.015.004.012-.004.104-.074.012-.016.004-.017-.017-.427c-.002-.01-.009-.017-.016-.018m.264-.113-.014.002-.184.093-.01.01-.003.011.018.43.005.012.008.008.201.092c.012.004.023 0 .029-.008l.004-.014-.034-.614c-.003-.012-.01-.02-.02-.022m-.715.002a.023.023 0 0 0-.027.006l-.006.014-.034.614c0 .012.007.02.017.024l.015-.002.201-.093.01-.008.003-.011.018-.43-.003-.012-.01-.01z"/><path fill="currentColor" d="M12.41 3.653a4.304 4.304 0 0 1 5.571-.66l.18.128.323.242a3.79 3.79 0 0 1 1.51 2.809l.006.223V21a1 1 0 0 1-1.993.117L18 21V6.395a1.79 1.79 0 0 0-.586-1.325l-.13-.107-.323-.242a2.304 2.304 0 0 0-2.584-.123l-.153.103.758.438a4 4 0 0 1 1.566 5.277l-.102.187-.5.866a1 1 0 0 1-1.261.418l-.105-.052-8.66-5a1 1 0 0 1-.418-1.262l.052-.104.5-.866a4 4 0 0 1 5.277-1.566l.187.102zM6.75 15.397a1 1 0 0 1 .366 1.366l-.5.866a1 1 0 1 1-1.732-1l.5-.866a1 1 0 0 1 1.366-.366m2.232.134a1 1 0 0 1 1.785.896l-.053.104-.5.866a1 1 0 0 1-1.784-.896l.052-.104zm-3.83-3.366a1 1 0 0 1 .366 1.366l-.5.866a1 1 0 0 1-1.732-1l.5-.866a1 1 0 0 1 1.366-.366m3.598-.232a1 1 0 0 1 .366 1.366l-.5.866a1 1 0 1 1-1.732-1l.5-.866a1 1 0 0 1 1.366-.366m2.232.134a1 1 0 0 1 1.785.895l-.053.105-.5.866a1 1 0 0 1-1.784-.896l.052-.104zM7.152 8.7a1 1 0 0 1 .366 1.366l-.5.866a1 1 0 0 1-1.732-1l.5-.866A1 1 0 0 1 7.152 8.7m.634-3.098 6.928 4a2 2 0 0 0-.732-2.732l-3.464-2a2 2 0 0 0-2.732.732"/></g></svg>