<svg xmlns="http://www.w3.org/2000/svg" width="24" height="24"><g fill="none" fill-rule="evenodd"><path d="M24 0v24H0V0zM12.594 23.258l-.012.002-.071.035-.02.004-.014-.004-.071-.036c-.01-.003-.019 0-.024.006l-.004.01-.017.428.005.02.01.013.104.074.015.004.012-.004.104-.074.012-.016.004-.017-.017-.427c-.002-.01-.009-.017-.016-.018m.264-.113-.014.002-.184.093-.01.01-.003.011.018.43.005.012.008.008.201.092c.012.004.023 0 .029-.008l.004-.014-.034-.614c-.003-.012-.01-.02-.02-.022m-.715.002a.023.023 0 0 0-.027.006l-.006.014-.034.614c0 .012.007.02.017.024l.015-.002.201-.093.01-.008.003-.011.018-.43-.003-.012-.01-.01z"/><path fill="currentColor" d="M16.239 4.79c-.595.127-1.456.478-2.55 1.085-2.034 1.127-4.763 3.294-7.949 6.798a1 1 0 1 1-1.48-1.346c3.276-3.603 6.172-5.934 8.458-7.202 1.16-.643 2.225-1.104 3.107-1.29.778-.166 1.942-.211 2.541.768.271.443.313.948.265 1.404-.048.461-.197.965-.417 1.499-.44 1.069-1.232 2.42-2.397 4.07-1.362 1.93-2.103 3.241-2.437 4.09a3.86 3.86 0 0 0-.163.5c.105-.022.23-.056.378-.105.555-.185 1.235-.525 1.89-.918.64-.384 1.22-.662 1.722-.74.263-.04.609-.043.946.126.369.185.576.497.673.793.143.439.078.913-.024 1.352-.165.713-.443 1.395-.621 2.104.109-.046.232-.103.372-.172a1 1 0 0 1 .894 1.788c-.65.325-1.265.552-1.81.55a1.567 1.567 0 0 1-.934-.29 1.468 1.468 0 0 1-.54-.798c-.136-.481-.049-1.007.033-1.372.13-.592.337-1.162.514-1.74-.804.457-1.6.92-2.483 1.215a4.314 4.314 0 0 1-1.16.237c-.374.015-.873-.04-1.29-.38-.452-.366-.603-.892-.602-1.376 0-.463.134-.971.344-1.506.423-1.076 1.276-2.544 2.664-4.51 1.13-1.6 1.824-2.811 2.181-3.68.13-.316.264-.66.283-1.006-.083 0-.213.011-.408.053Z"/></g></svg>