<svg xmlns="http://www.w3.org/2000/svg" width="24" height="24"><g fill="none" fill-rule="evenodd"><path d="M24 0v24H0V0zM12.594 23.258l-.012.002-.071.035-.02.004-.014-.004-.071-.036c-.01-.003-.019 0-.024.006l-.004.01-.017.428.005.02.01.013.104.074.015.004.012-.004.104-.074.012-.016.004-.017-.017-.427c-.002-.01-.009-.017-.016-.018m.264-.113-.014.002-.184.093-.01.01-.003.011.018.43.005.012.008.008.201.092c.012.004.023 0 .029-.008l.004-.014-.034-.614c-.003-.012-.01-.02-.02-.022m-.715.002a.023.023 0 0 0-.027.006l-.006.014-.034.614c0 .012.007.02.017.024l.015-.002.201-.093.01-.008.003-.011.018-.43-.003-.012-.01-.01z"/><path fill="currentColor" d="m12.354 5.99-.708.707a.5.5 0 1 1-.707-.707l.707-.707a.5.5 0 0 1 .708.707M9.525 4.575a2.5 2.5 0 0 0-.318 3.147L7.722 9.207a2.5 2.5 0 0 0-3.147.318l-.707.707a2.5 2.5 0 0 0-.264 3.225 5.002 5.002 0 0 0 6.94 6.94 2.5 2.5 0 0 0 3.224-.265l.707-.708a2.5 2.5 0 0 0 .318-3.146l1.485-1.485a2.502 2.502 0 0 0 3.147-.318l.707-.707a2.5 2.5 0 0 0 .264-3.225 5.002 5.002 0 0 0-6.939-6.939 2.5 2.5 0 0 0-3.225.264zm2.829 12.728a.5.5 0 1 1 .707.707l-.707.707a.5.5 0 0 1-.708-.707zm.707-2.121 2.121-2.12a2.5 2.5 0 0 1 .389-1.734l-2.9-2.899a2.5 2.5 0 0 1-1.731.39l-2.122 2.12a2.5 2.5 0 0 1-.389 1.733l2.9 2.899a2.5 2.5 0 0 1 1.732-.39Zm-3.147 1.803-2.899-2.9a2.5 2.5 0 0 1-1.686.396 3 3 0 0 0 4.19 4.191 2.5 2.5 0 0 1 .395-1.687m7.071-7.071a2.5 2.5 0 0 1 1.687-.395 3 3 0 0 0-4.19-4.19 2.5 2.5 0 0 1-.396 1.686zm.318 2.44.707-.708a.5.5 0 0 1 .708.707l-.707.707a.5.5 0 1 1-.708-.707Zm-11.313 0a.5.5 0 1 1-.707-.708l.707-.707a.5.5 0 1 1 .707.707z"/></g></svg>