<svg xmlns="http://www.w3.org/2000/svg" width="24" height="24"><g fill="none" fill-rule="evenodd"><path d="M24 0v24H0V0zM12.594 23.258l-.012.002-.071.035-.02.004-.014-.004-.071-.036c-.01-.003-.019 0-.024.006l-.004.01-.017.428.005.02.01.013.104.074.015.004.012-.004.104-.074.012-.016.004-.017-.017-.427c-.002-.01-.009-.017-.016-.018m.264-.113-.014.002-.184.093-.01.01-.003.011.018.43.005.012.008.008.201.092c.012.004.023 0 .029-.008l.004-.014-.034-.614c-.003-.012-.01-.02-.02-.022m-.715.002a.023.023 0 0 0-.027.006l-.006.014-.034.614c0 .012.007.02.017.024l.015-.002.201-.093.01-.008.003-.011.018-.43-.003-.012-.01-.01z"/><path fill="currentColor" d="M12 2a9 9 0 0 1 5.5 16.125c-.34.262-.5.59-.5.875a2 2 0 0 1-2 2H9a2 2 0 0 1-2-2c0-.284-.16-.613-.5-.875A9 9 0 0 1 12 2m0 2a7 7 0 0 0-4.48 12.378l.204.164C8.433 17.091 9 17.96 9 19h.75v-1a1 1 0 1 1 2 0v1h.5v-1a1 1 0 1 1 2 0v1H15c0-.971.494-1.793 1.137-2.344l.14-.114A7 7 0 0 0 12 4M8.5 9a2.5 2.5 0 1 1 0 5 2.5 2.5 0 0 1 0-5m7 0a2.5 2.5 0 1 1 0 5 2.5 2.5 0 0 1 0-5m-7 2a.5.5 0 1 0 0 1 .5.5 0 0 0 0-1m7 0a.5.5 0 1 0 0 1 .5.5 0 0 0 0-1"/></g></svg>