<svg xmlns="http://www.w3.org/2000/svg" width="24" height="24"><g fill="none" fill-rule="evenodd"><path d="M24 0v24H0V0zM12.594 23.258l-.012.002-.071.035-.02.004-.014-.004-.071-.036c-.01-.003-.019 0-.024.006l-.004.01-.017.428.005.02.01.013.104.074.015.004.012-.004.104-.074.012-.016.004-.017-.017-.427c-.002-.01-.009-.017-.016-.018m.264-.113-.014.002-.184.093-.01.01-.003.011.018.43.005.012.008.008.201.092c.012.004.023 0 .029-.008l.004-.014-.034-.614c-.003-.012-.01-.02-.02-.022m-.715.002a.023.023 0 0 0-.027.006l-.006.014-.034.614c0 .012.007.02.017.024l.015-.002.201-.093.01-.008.003-.011.018-.43-.003-.012-.01-.01z"/><path fill="currentColor" d="M15.15 4.649c1.232-.52 2.801-.78 4.912-.647a1 1 0 0 1 .935 1.072l-.016.122-1.679 8.392a3 3 0 0 1-1.876 2.216l-.179.062.534 2.134H21a1 1 0 0 1 .117 1.993L21 20H6.657a5 5 0 0 1-3.344-1.282l-.192-.183-.828-.828a1 1 0 0 1 1.32-1.497l.094.083.829.828a3 3 0 0 0 1.923.872l.198.007h.562l.515-2.06c-1.335-.203-2.76-.93-3.622-2.188-1.102-1.611-1.106-3.814.556-6.307A1 1 0 0 1 6.3 7.4c.599.798 1.055 1.174 1.395 1.362l.149.074C8.19 8.991 8.494 9 9 9c.88 0 1.409-.255 1.857-.624.303-.249.57-.538.825-.837l.507-.603c.084-.1.17-.198.257-.295.646-.714 1.464-1.469 2.704-1.992m.07 11.35H9.78L9.28 18h6.44zm3.566-10.03c-1.264.023-2.173.233-2.858.522-.87.368-1.458.894-1.999 1.492l-.25.284-.492.576c-.329.382-.668.755-1.06 1.078-.733.603-1.629 1.02-2.858 1.073L8.962 11l-.317-.003c-.45-.01-1.007-.064-1.614-.333-.45-.2-.894-.503-1.346-.934-.575 1.354-.335 2.29.078 2.893.559.816 1.617 1.312 2.552 1.371L8.5 14h7.86a1 1 0 0 0 .951-.69l.03-.114z"/></g></svg>