<svg xmlns="http://www.w3.org/2000/svg" width="24" height="24"><g fill="none"><path d="M24 0v24H0V0zM12.594 23.258l-.012.002-.071.035-.02.004-.014-.004-.071-.036c-.01-.003-.019 0-.024.006l-.004.01-.017.428.005.02.01.013.104.074.015.004.012-.004.104-.074.012-.016.004-.017-.017-.427c-.002-.01-.009-.017-.016-.018m.264-.113-.014.002-.184.093-.01.01-.003.011.018.43.005.012.008.008.201.092c.012.004.023 0 .029-.008l.004-.014-.034-.614c-.003-.012-.01-.02-.02-.022m-.715.002a.023.023 0 0 0-.027.006l-.006.014-.034.614c0 .012.007.02.017.024l.015-.002.201-.093.01-.008.003-.011.018-.43-.003-.012-.01-.01z"/><path fill="currentColor" d="M12 2a5 5 0 0 1 4.33 7.5c.427.337.814.722 1.152 1.147l.197.26 1.614-1.614a1 1 0 0 1 1.497 1.32l-.083.094-2 2-.07.064a7 7 0 1 1-13.275 0l-.07-.064-2-2a1 1 0 0 1 1.32-1.497l.095.083 1.614 1.614A7.042 7.042 0 0 1 7.669 9.5 5 5 0 0 1 12 2m0 2a3 3 0 0 0-2.18 5.062 1 1 0 0 1-.24 1.562 5 5 0 1 0 4.841 0 1 1 0 0 1-.242-1.562A3 3 0 0 0 12 4m0 12a1 1 0 1 1 0 2 1 1 0 0 1 0-2m0-3a1 1 0 1 1 0 2 1 1 0 0 1 0-2m1.207-6.207a1 1 0 0 1 .083 1.32l-.083.094-.5.5a1 1 0 0 1-1.497-1.32l.083-.094.5-.5a1 1 0 0 1 1.414 0"/></g></svg>