<svg xmlns="http://www.w3.org/2000/svg" width="24" height="24"><g fill="none"><path d="M24 0v24H0V0zM12.594 23.258l-.012.002-.071.035-.02.004-.014-.004-.071-.036c-.01-.003-.019 0-.024.006l-.004.01-.017.428.005.02.01.013.104.074.015.004.012-.004.104-.074.012-.016.004-.017-.017-.427c-.002-.01-.009-.017-.016-.018m.264-.113-.014.002-.184.093-.01.01-.003.011.018.43.005.012.008.008.201.092c.012.004.023 0 .029-.008l.004-.014-.034-.614c-.003-.012-.01-.02-.02-.022m-.715.002a.023.023 0 0 0-.027.006l-.006.014-.034.614c0 .012.007.02.017.024l.015-.002.201-.093.01-.008.003-.011.018-.43-.003-.012-.01-.01z"/><path fill="currentColor" d="M19.149 9.02a1 1 0 0 1 .781 1.179A3.5 3.5 0 0 1 16.5 13H3a1 1 0 1 1 0-2h13.5a1.5 1.5 0 0 0 1.436-1.064l.034-.135a1 1 0 0 1 1.179-.781M9 3a3 3 0 1 1 0 6H5a1 1 0 0 1 0-2h4a1 1 0 1 0-.803-1.596l-.064.097a1 1 0 1 1-1.731-1.002A3 3 0 0 1 9 3m7.002 0a1 1 0 0 1 1 1v.268l.232-.134a1 1 0 0 1 1 1.732L18.002 6l.232.134a1 1 0 1 1-1 1.732l-.232-.134V8a1 1 0 0 1-2 0v-.268l-.232.134a1 1 0 1 1-1-1.732L14.002 6l-.232-.134a1 1 0 0 1 1-1.732l.232.134V4a1 1 0 0 1 1-1M6 15a1 1 0 1 0 0 2h6.5a.5.5 0 1 1-.262.926l-.071-.053a1 1 0 1 0-1.334 1.49A2.5 2.5 0 1 0 12.5 15zm13-1a1 1 0 0 1 1 1v.268l.232-.134a1 1 0 1 1 1 1.732L21 17l.232.134a1 1 0 0 1-1 1.732L20 18.732V19a1 1 0 1 1-2 0v-.268l-.232.134a1 1 0 1 1-1-1.732L17 17l-.232-.134a1 1 0 1 1 1-1.732l.232.134V15a1 1 0 0 1 1-1"/></g></svg>