<svg xmlns="http://www.w3.org/2000/svg" width="24" height="24"><g fill="none" fill-rule="evenodd"><path d="M24 0v24H0V0zM12.593 23.258l-.011.002-.071.035-.02.004-.014-.004-.071-.035c-.01-.004-.019-.001-.024.005l-.004.01-.017.428.005.02.01.013.104.074.015.004.012-.004.104-.074.012-.016.004-.017-.017-.427c-.002-.01-.009-.017-.017-.018m.265-.113-.013.002-.185.093-.01.01-.003.011.018.43.005.012.008.007.201.093c.012.004.023 0 .029-.008l.004-.014-.034-.614c-.003-.012-.01-.02-.02-.022m-.715.002a.023.023 0 0 0-.027.006l-.006.014-.034.614c0 .012.007.02.017.024l.015-.002.201-.093.01-.008.004-.011.017-.43-.003-.012-.01-.01z"/><path fill="currentColor" d="M17 2a2 2 0 0 1 2 2v7.343a5 5 0 0 1-1.465 3.536l-5 5a5 5 0 0 1-7.07 0l-.344-.344a5 5 0 0 1 0-7.07l3.586-3.586A1 1 0 0 0 9 8.172V4a2 2 0 0 1 2-2zm0 5h-6v1.172a3 3 0 0 1-.879 2.12L6.535 13.88a3 3 0 0 0 0 4.242l.344.344a3 3 0 0 0 4.242 0l2.707-2.708A5.002 5.002 0 0 1 17 8.1zm0 3.17a3.001 3.001 0 0 0-1.708 4.124l.83-.83a3 3 0 0 0 .878-2.12zM17 4h-6v1h6z"/></g></svg>