<svg xmlns="http://www.w3.org/2000/svg" width="24" height="24"><g fill="none"><path d="M24 0v24H0V0zM12.594 23.258l-.012.002-.071.035-.02.004-.014-.004-.071-.036c-.01-.003-.019 0-.024.006l-.004.01-.017.428.005.02.01.013.104.074.015.004.012-.004.104-.074.012-.016.004-.017-.017-.427c-.002-.01-.009-.017-.016-.018m.264-.113-.014.002-.184.093-.01.01-.003.011.018.43.005.012.008.008.201.092c.012.004.023 0 .029-.008l.004-.014-.034-.614c-.003-.012-.01-.02-.02-.022m-.715.002a.023.023 0 0 0-.027.006l-.006.014-.034.614c0 .012.007.02.017.024l.015-.002.201-.093.01-.008.003-.011.018-.43-.003-.012-.01-.01z"/><path fill="currentColor" d="M3.707 8.293 4.414 9a2 2 0 0 1 .543 1H13.5a1 1 0 1 1 0 2H5v5a2 2 0 0 0 2 2h10a2 2 0 0 0 2-2v-5h-.5a1 1 0 1 1 0-2h.543a2 2 0 0 1 .543-1l.707-.707a1 1 0 1 1 1.414 1.414l-.707.707V17a4 4 0 0 1-4 4H7a4 4 0 0 1-4-4v-6.586l-.707-.707a1 1 0 0 1 1.414-1.414m15.74-4.187a1 1 0 0 1 .447 1.341l-5 10a.993.993 0 0 1-.05.09A3.502 3.502 0 0 1 8 14.5V14a1 1 0 0 1 1-1h4.882l4.224-8.447a1 1 0 0 1 1.341-.447M12.915 15h-2.83a1.5 1.5 0 0 0 2.83 0m.64-12.832a1 1 0 0 1 .277 1.387l-.216.323a.725.725 0 0 0 .091.915 2.725 2.725 0 0 1 .34 3.439l-.215.323a1 1 0 0 1-1.664-1.11l.216-.323a.725.725 0 0 0-.091-.915 2.725 2.725 0 0 1-.34-3.438l.215-.324a1 1 0 0 1 1.387-.277m-5.387.277A1 1 0 0 1 9.89 3.454l-.059.1-.215.324a.725.725 0 0 0 .09.915 2.725 2.725 0 0 1 .442 3.274l-.101.165-.216.323A1 1 0 0 1 8.11 7.546l.059-.1.215-.324a.725.725 0 0 0-.09-.915 2.725 2.725 0 0 1-.442-3.274l.101-.164z"/></g></svg>