<svg xmlns="http://www.w3.org/2000/svg" width="24" height="24"><g fill="none" fill-rule="evenodd"><path d="M24 0v24H0V0zM12.594 23.258l-.012.002-.071.035-.02.004-.014-.004-.071-.036c-.01-.003-.019 0-.024.006l-.004.01-.017.428.005.02.01.013.104.074.015.004.012-.004.104-.074.012-.016.004-.017-.017-.427c-.002-.01-.009-.017-.016-.018m.264-.113-.014.002-.184.093-.01.01-.003.011.018.43.005.012.008.008.201.092c.012.004.023 0 .029-.008l.004-.014-.034-.614c-.003-.012-.01-.02-.02-.022m-.715.002a.023.023 0 0 0-.027.006l-.006.014-.034.614c0 .012.007.02.017.024l.015-.002.201-.093.01-.008.003-.011.018-.43-.003-.012-.01-.01z"/><path fill="currentColor" d="M12 9c1.753 0 3.341.62 4.548 1.499.853.621 1.569 1.412 2.003 2.266l.11.235H21a1 1 0 0 1 .944 1.328l-.05.12-3 6a1 1 0 0 1-.77.544L18 21H6a1 1 0 0 1-.832-.445l-.062-.108-3-6a1 1 0 0 1 .765-1.439L3 13h2.338c.416-.944 1.183-1.823 2.114-2.501C8.659 9.62 10.247 9 12 9m7.382 6H4.618l2 4h10.764zM12 11a5.782 5.782 0 0 0-3.371 1.116c-.384.28-.701.582-.95.884h8.642a5.176 5.176 0 0 0-.95-.884A5.782 5.782 0 0 0 12 11m0-8a3 3 0 1 1 0 6 3 3 0 0 1 0-6m0 2a1 1 0 1 0 0 2 1 1 0 0 0 0-2"/></g></svg>