<svg xmlns="http://www.w3.org/2000/svg" width="24" height="24"><g fill="none" fill-rule="evenodd"><path d="M24 0v24H0V0zM12.593 23.258l-.011.002-.071.035-.02.004-.014-.004-.071-.035c-.01-.004-.019-.001-.024.005l-.004.01-.017.428.005.02.01.013.104.074.015.004.012-.004.104-.074.012-.016.004-.017-.017-.427c-.002-.01-.009-.017-.017-.018m.265-.113-.013.002-.185.093-.01.01-.003.011.018.43.005.012.008.007.201.093c.012.004.023 0 .029-.008l.004-.014-.034-.614c-.003-.012-.01-.02-.02-.022m-.715.002a.023.023 0 0 0-.027.006l-.006.014-.034.614c0 .012.007.02.017.024l.015-.002.201-.093.01-.008.004-.011.017-.43-.003-.012-.01-.01z"/><path fill="currentColor" d="M10.92 2.868a1.25 1.25 0 0 1 2.16 0l2.795 4.798 5.428 1.176a1.25 1.25 0 0 1 .667 2.054l-3.7 4.141.56 5.525a1.25 1.25 0 0 1-1.748 1.27L12 19.592l-5.082 2.24a1.25 1.25 0 0 1-1.748-1.27l.56-5.525-3.7-4.14a1.25 1.25 0 0 1 .667-2.055l5.428-1.176zM12 4.987 9.687 8.959a1.25 1.25 0 0 1-.816.592l-4.492.973 3.062 3.427c.234.262.347.61.312.959l-.463 4.573 4.206-1.854a1.25 1.25 0 0 1 1.008 0l4.206 1.854-.463-4.573a1.25 1.25 0 0 1 .311-.959l3.063-3.427-4.492-.973a1.25 1.25 0 0 1-.816-.592z"/></g></svg>