<svg xmlns="http://www.w3.org/2000/svg" width="24" height="24"><g fill="none" fill-rule="evenodd"><path d="M24 0v24H0V0zM12.593 23.258l-.011.002-.071.035-.02.004-.014-.004-.071-.035c-.01-.004-.019-.001-.024.005l-.004.01-.017.428.005.02.01.013.104.074.015.004.012-.004.104-.074.012-.016.004-.017-.017-.427c-.002-.01-.009-.017-.017-.018m.265-.113-.013.002-.185.093-.01.01-.003.011.018.43.005.012.008.007.201.093c.012.004.023 0 .029-.008l.004-.014-.034-.614c-.003-.012-.01-.02-.02-.022m-.715.002a.023.023 0 0 0-.027.006l-.006.014-.034.614c0 .012.007.02.017.024l.015-.002.201-.093.01-.008.004-.011.017-.43-.003-.012-.01-.01z"/><path fill="currentColor" d="M12 2c5.523 0 10 4.477 10 10s-4.477 10-10 10S2 17.523 2 12 6.477 2 12 2M8.313 14.781c-1.044-.835-2.46-1.158-4.108-.972a8.01 8.01 0 0 0 6.254 6.043c-.193-2.625-1.056-4.2-2.146-5.07Zm7.374 0c-1.09.872-1.953 2.446-2.146 5.07a8.01 8.01 0 0 0 6.253-6.042c-1.647-.186-3.063.137-4.107.972M12 10c-.95 0-1.732.37-2.306.778l-.498.347c-.524.355-1.126.72-1.801.96a6.435 6.435 0 0 1 2.167 1.134c1.124.9 1.953 2.187 2.438 3.859.485-1.672 1.314-2.96 2.438-3.859a6.434 6.434 0 0 1 2.167-1.133c-.675-.241-1.277-.606-1.801-.961l-.498-.347C13.732 10.37 12.95 10 12 10m0-6a8.003 8.003 0 0 0-7.862 6.513l-.043.248 2.21-.442c.582-.116 1.135-.423 1.753-.84l.477-.332C9.332 8.581 10.513 8 12 8c1.388 0 2.509.506 3.3 1.034l.642.445c.54.365 1.032.645 1.536.788l.217.052 2.21.442A8.002 8.002 0 0 0 12 4"/></g></svg>