<svg xmlns="http://www.w3.org/2000/svg" width="24" height="24"><g fill="none"><path d="M24 0v24H0V0zM12.593 23.258l-.011.002-.071.035-.02.004-.014-.004-.071-.035c-.01-.004-.019-.001-.024.005l-.004.01-.017.428.005.02.01.013.104.074.015.004.012-.004.104-.074.012-.016.004-.017-.017-.427c-.002-.01-.009-.017-.017-.018m.265-.113-.013.002-.185.093-.01.01-.003.011.018.43.005.012.008.007.201.093c.012.004.023 0 .029-.008l.004-.014-.034-.614c-.003-.012-.01-.02-.02-.022m-.715.002a.023.023 0 0 0-.027.006l-.006.014-.034.614c0 .012.007.02.017.024l.015-.002.201-.093.01-.008.004-.011.017-.43-.003-.012-.01-.01z"/><path fill="currentColor" d="M12 2c.937 0 1.85.108 2.726.311a1 1 0 1 1-.452 1.948 9.982 9.982 0 0 0-1.499-.23l-.074-.002a8.95 8.95 0 0 1 4.341 1.517l.606-.606a1 1 0 1 1 1.415 1.414l-.495.495a9 9 0 1 1-7.16-2.827l-.136.006a9.948 9.948 0 0 0-1.546.233 1 1 0 0 1-.452-1.948C10.15 2.108 11.064 2 12 2m0 4a7 7 0 1 0 0 14 7 7 0 0 0 0-14m0 2a1 1 0 0 1 .993.883L13 9v4a1 1 0 0 1-1.993.117L11 13V9a1 1 0 0 1 1-1"/></g></svg>