<svg xmlns="http://www.w3.org/2000/svg" width="24" height="24"><g fill="none"><path d="M24 0v24H0V0zM12.593 23.258l-.011.002-.071.035-.02.004-.014-.004-.071-.035c-.01-.004-.019-.001-.024.005l-.004.01-.017.428.005.02.01.013.104.074.015.004.012-.004.104-.074.012-.016.004-.017-.017-.427c-.002-.01-.009-.017-.017-.018m.265-.113-.013.002-.185.093-.01.01-.003.011.018.43.005.012.008.007.201.093c.012.004.023 0 .029-.008l.004-.014-.034-.614c-.003-.012-.01-.02-.02-.022m-.715.002a.023.023 0 0 0-.027.006l-.006.014-.034.614c0 .012.007.02.017.024l.015-.002.201-.093.01-.008.004-.011.017-.43-.003-.012-.01-.01z"/><path fill="currentColor" d="M19 12a1 1 0 0 1 .117 1.993L19 14h-2.11c.217.327.392.684.518 1.063.953 2.859-1.109 5.809-4.083 5.933L13.13 21h-1.702a5.737 5.737 0 0 1-5.02-2.958l-.112-.213-.182-.365a.992.992 0 0 1-.105-.6 1 1 0 0 1 1.817-.427l.042.066.217.431a3.737 3.737 0 0 0 3.131 2.06l.212.006h1.701a2.51 2.51 0 0 0 1.297-4.66l-.174-.096-.488-.244H5a1 1 0 0 1-.117-1.993L5 12zm-6.428-9a5.737 5.737 0 0 1 5.132 3.171l.18.363a1.002 1.002 0 0 1-1.405 1.32.995.995 0 0 1-.316-.306l-.035-.058-.213-.424A3.737 3.737 0 0 0 12.572 5h-1.701a2.51 2.51 0 0 0-1.123 4.756L12.236 11H8.013A4.51 4.51 0 0 1 6.59 8.937C5.618 6.017 7.791 3 10.871 3z"/></g></svg>