<svg xmlns="http://www.w3.org/2000/svg" width="24" height="24"><g fill="none" fill-rule="evenodd"><path d="M24 0v24H0V0zM12.594 23.258l-.012.002-.071.035-.02.004-.014-.004-.071-.036c-.01-.003-.019 0-.024.006l-.004.01-.017.428.005.02.01.013.104.074.015.004.012-.004.104-.074.012-.016.004-.017-.017-.427c-.002-.01-.009-.017-.016-.018m.264-.113-.014.002-.184.093-.01.01-.003.011.018.43.005.012.008.008.201.092c.012.004.023 0 .029-.008l.004-.014-.034-.614c-.003-.012-.01-.02-.02-.022m-.715.002a.023.023 0 0 0-.027.006l-.006.014-.034.614c0 .012.007.02.017.024l.015-.002.201-.093.01-.008.003-.011.018-.43-.003-.012-.01-.01z"/><path fill="currentColor" d="M4.23 19.786 5.543 21.1a1.95 1.95 0 0 0 1.832.529c2.468-.592 5.578-2.096 8.16-4.678 2.305-2.305 3.583-5.16 4.212-7.494.315-1.17.474-2.235.513-3.07.032-.701.055-1.628-.482-2.164-.537-.537-1.463-.514-2.165-.482-.834.038-1.899.198-3.069.513-2.335.629-5.189 1.907-7.494 4.211-2.582 2.583-4.086 5.693-4.678 8.16a1.95 1.95 0 0 0 .529 1.833l1.313 1.313a.429.429 0 0 0 .016.016ZM8.464 9.88c1.991-1.991 4.5-3.13 6.6-3.695.616-.166 1.187-.28 1.69-.352L4.929 17.657l-.603-.603c.518-2.128 1.847-4.884 4.138-7.175Zm-2.12 9.192L18.167 7.246a14.461 14.461 0 0 1-.352 1.69c-.566 2.1-1.704 4.608-3.695 6.6-2.29 2.29-5.047 3.62-7.175 4.138l-.603-.603Z"/></g></svg>