<svg xmlns="http://www.w3.org/2000/svg" width="24" height="24"><g fill="none" fill-rule="evenodd"><path d="M24 0v24H0V0zM12.593 23.258l-.011.002-.071.035-.02.004-.014-.004-.071-.035c-.01-.004-.019-.001-.024.005l-.004.01-.017.428.005.02.01.013.104.074.015.004.012-.004.104-.074.012-.016.004-.017-.017-.427c-.002-.01-.009-.017-.017-.018m.265-.113-.013.002-.185.093-.01.01-.003.011.018.43.005.012.008.007.201.093c.012.004.023 0 .029-.008l.004-.014-.034-.614c-.003-.012-.01-.02-.02-.022m-.715.002a.023.023 0 0 0-.027.006l-.006.014-.034.614c0 .012.007.02.017.024l.015-.002.201-.093.01-.008.004-.011.017-.43-.003-.012-.01-.01z"/><path fill="currentColor" d="M10.537 2.164a3 3 0 0 1 2.244.727l.15.14 7.822 7.823a3 3 0 0 1 .135 4.098l-.135.144-5.657 5.657a3 3 0 0 1-4.098.135l-.144-.135L3.03 12.93a3 3 0 0 1-.878-2.188l.011-.205.472-5.185a3 3 0 0 1 2.537-2.695l.179-.021zm.308 1.989-.127.003-5.185.472a1 1 0 0 0-.888.787l-.017.118-.472 5.185a1 1 0 0 0 .206.703l.083.095 7.823 7.823a1 1 0 0 0 1.32.083l.094-.083 5.657-5.657a1 1 0 0 0 .083-1.32l-.083-.094-7.823-7.823a1 1 0 0 0-.671-.292M7.317 7.318a3 3 0 1 1 4.243 4.243 3 3 0 0 1-4.243-4.243m2.829 1.414a1 1 0 1 0-1.415 1.414 1 1 0 0 0 1.415-1.414"/></g></svg>