<svg xmlns="http://www.w3.org/2000/svg" width="24" height="24"><g fill="none"><path d="M24 0v24H0V0zM12.593 23.258l-.011.002-.071.035-.02.004-.014-.004-.071-.035c-.01-.004-.019-.001-.024.005l-.004.01-.017.428.005.02.01.013.104.074.015.004.012-.004.104-.074.012-.016.004-.017-.017-.427c-.002-.01-.009-.017-.017-.018m.265-.113-.013.002-.185.093-.01.01-.003.011.018.43.005.012.008.007.201.093c.012.004.023 0 .029-.008l.004-.014-.034-.614c-.003-.012-.01-.02-.02-.022m-.715.002a.023.023 0 0 0-.027.006l-.006.014-.034.614c0 .012.007.02.017.024l.015-.002.201-.093.01-.008.004-.011.017-.43-.003-.012-.01-.01z"/><path fill="currentColor" d="M10.238 4.827a3 3 0 0 1 2.122.878l6.485 6.486a3 3 0 0 1 0 4.242l-4.243 4.243a3 3 0 0 1-4.242 0l-6.486-6.485a3 3 0 0 1-.878-2.122V7.327a2.5 2.5 0 0 1 2.5-2.5zm0 2H5.496a.5.5 0 0 0-.5.5v4.742a1 1 0 0 0 .292.707l6.486 6.486a1 1 0 0 0 1.414 0l4.243-4.243a1 1 0 0 0 0-1.414L10.945 7.12a1 1 0 0 0-.707-.293M7.531 9.362a1.5 1.5 0 1 1 2.121 2.122 1.5 1.5 0 0 1-2.121-2.122M11.652 2a3 3 0 0 1 2.122.878l7.192 7.193a1 1 0 0 1-1.414 1.414L12.36 4.29a1 1 0 0 0-.708-.29H7a1 1 0 0 1 0-2z"/></g></svg>