<svg xmlns="http://www.w3.org/2000/svg" width="24" height="24"><g fill="none" fill-rule="evenodd"><path d="M24 0v24H0V0zM12.593 23.258l-.011.002-.071.035-.02.004-.014-.004-.071-.035c-.01-.004-.019-.001-.024.005l-.004.01-.017.428.005.02.01.013.104.074.015.004.012-.004.104-.074.012-.016.004-.017-.017-.427c-.002-.01-.009-.017-.017-.018m.265-.113-.013.002-.185.093-.01.01-.003.011.018.43.005.012.008.007.201.093c.012.004.023 0 .029-.008l.004-.014-.034-.614c-.003-.012-.01-.02-.02-.022m-.715.002a.023.023 0 0 0-.027.006l-.006.014-.034.614c0 .012.007.02.017.024l.015-.002.201-.093.01-.008.004-.011.017-.43-.003-.012-.01-.01z"/><path fill="currentColor" d="M12 1a1 1 0 0 1 1 1v1h1.5c.609 0 1.086.564.986 1.164l-.308 1.852c.56.101.93.673.792 1.227L15.28 10h.22c.64 0 1.125.621.97 1.242L15.53 15H16c.64 0 1.125.621.97 1.242L15.78 21H16a1 1 0 1 1 0 2H8a1 1 0 1 1 0-2h.22l-1.19-4.757A1.01 1.01 0 0 1 8 15h.47l-.94-3.758A1.01 1.01 0 0 1 8.5 10h.22l-.69-2.757a1.01 1.01 0 0 1 .792-1.227l-.308-1.852C8.414 3.564 8.89 3 9.5 3H11V2a1 1 0 0 1 1-1m2.72 16H9.28l1 4h3.44zm-.5-5H9.78c.053.208.117.423.186.644l.21.673c.174.568.324 1.146.324 1.683h3c0-.537.15-1.115.323-1.683l.211-.673c.069-.22.133-.436.185-.644Zm-.5-4h-3.44l.5 2h2.44zm-.4-3h-2.64l.167 1h2.306l.166-1Z"/></g></svg>