<svg xmlns="http://www.w3.org/2000/svg" width="24" height="24"><g fill="none" fill-rule="evenodd"><path d="M24 0v24H0V0zM12.594 23.258l-.012.002-.071.035-.02.004-.014-.004-.071-.036c-.01-.003-.019 0-.024.006l-.004.01-.017.428.005.02.01.013.104.074.015.004.012-.004.104-.074.012-.016.004-.017-.017-.427c-.002-.01-.009-.017-.016-.018m.264-.113-.014.002-.184.093-.01.01-.003.011.018.43.005.012.008.008.201.092c.012.004.023 0 .029-.008l.004-.014-.034-.614c-.003-.012-.01-.02-.02-.022m-.715.002a.023.023 0 0 0-.027.006l-.006.014-.034.614c0 .012.007.02.017.024l.015-.002.201-.093.01-.008.003-.011.018-.43-.003-.012-.01-.01z"/><path fill="currentColor" d="M8.5 3A2.5 2.5 0 0 1 11 5.5V7h2V5.5a2.5 2.5 0 0 1 2.336-2.495L15.559 3a3 3 0 0 1 2.845 2.051l3.202 9.605A4.5 4.5 0 1 1 13 16.5V9h-2v7.5a4.5 4.5 0 1 1-8.606-1.844l3.201-9.605a3 3 0 0 1 2.663-2.045zm-2 11a2.5 2.5 0 0 0-2.247 1.402C4.131 15.768 4 16.109 4 16.5A2.5 2.5 0 1 0 6.5 14m11 0a2.5 2.5 0 1 0 2.5 2.5c0-.39-.131-.732-.253-1.098A2.5 2.5 0 0 0 17.5 14m-9-9c-.45 0-.86.243-1.007.684l-2.156 6.468A4.506 4.506 0 0 1 9 12.758V5.5a.5.5 0 0 0-.5-.5m7.059 0c-.292 0-.559.183-.559.5v7.258a4.507 4.507 0 0 1 3.663-.606l-2.156-6.468A1 1 0 0 0 15.558 5Z"/></g></svg>