<svg xmlns="http://www.w3.org/2000/svg" width="24" height="24"><g fill="none"><path d="M24 0v24H0V0zM12.594 23.258l-.012.002-.071.035-.02.004-.014-.004-.071-.036c-.01-.003-.019 0-.024.006l-.004.01-.017.428.005.02.01.013.104.074.015.004.012-.004.104-.074.012-.016.004-.017-.017-.427c-.002-.01-.009-.017-.016-.018m.264-.113-.014.002-.184.093-.01.01-.003.011.018.43.005.012.008.008.201.092c.012.004.023 0 .029-.008l.004-.014-.034-.614c-.003-.012-.01-.02-.02-.022m-.715.002a.023.023 0 0 0-.027.006l-.006.014-.034.614c0 .012.007.02.017.024l.015-.002.201-.093.01-.008.003-.011.018-.43-.003-.012-.01-.01z"/><path fill="currentColor" d="M12 3c.768 0 1.47.289 2 .764a2.988 2.988 0 0 1 1.772-.755L16 3h1a1 1 0 0 1 .117 1.993L17 5h-1a1 1 0 0 0-.993.883L15 6v12a1 1 0 0 0 .883.993L16 19h1a1 1 0 0 1 .117 1.993L17 21h-1c-.768 0-1.47-.289-2-.764a2.988 2.988 0 0 1-1.772.755L12 21h-1a1 1 0 0 1-.117-1.993L11 19h1a1 1 0 0 0 .993-.883L13 18V6a1 1 0 0 0-.883-.993L12 5h-1a1 1 0 0 1-.117-1.993L11 3zm7 4a2 2 0 0 1 1.995 1.85L21 9v6a2 2 0 0 1-1.85 1.995L19 17h-3v-2h3V9h-3V7zM5 13v2h7v2H5a2 2 0 0 1-1.995-1.85L3 15v-2zm1-9a1 1 0 0 1 .898.56l.048.117.13.378a3 3 0 0 0 1.684 1.8l.185.07.378.129a1 1 0 0 1 .117 1.844l-.117.048-.378.13a3 3 0 0 0-1.8 1.684l-.07.185-.129.378a1 1 0 0 1-1.844.118l-.048-.118-.13-.378a3 3 0 0 0-1.684-1.8l-.185-.07-.378-.129a1 1 0 0 1-.117-1.844l.117-.048.378-.13a3 3 0 0 0 1.8-1.684l.07-.185.129-.378A1 1 0 0 1 6 4m0 3.196A5.004 5.004 0 0 1 5.196 8c.298.236.568.506.804.804.236-.298.506-.568.804-.804A5.004 5.004 0 0 1 6 7.196"/></g></svg>