<svg xmlns="http://www.w3.org/2000/svg" width="24" height="24"><g fill="none"><path d="M24 0v24H0V0zM12.593 23.258l-.011.002-.071.035-.02.004-.014-.004-.071-.035c-.01-.004-.019-.001-.024.005l-.004.01-.017.428.005.02.01.013.104.074.015.004.012-.004.104-.074.012-.016.004-.017-.017-.427c-.002-.01-.009-.017-.017-.018m.265-.113-.013.002-.185.093-.01.01-.003.011.018.43.005.012.008.007.201.093c.012.004.023 0 .029-.008l.004-.014-.034-.614c-.003-.012-.01-.02-.02-.022m-.715.002a.023.023 0 0 0-.027.006l-.006.014-.034.614c0 .012.007.02.017.024l.015-.002.201-.093.01-.008.004-.011.017-.43-.003-.012-.01-.01z"/><path fill="currentColor" d="M12 2a3 3 0 0 1 2.995 2.824L15 5v7.956l.01.021a.34.34 0 0 0 .087.097 5 5 0 1 1-6.193 0 .385.385 0 0 0 .068-.069l.028-.05V5a3 3 0 0 1 3-3m0 2a1 1 0 0 0-.993.883L11 5v7.958c0 .675-.337 1.226-.744 1.59l-.113.096a3 3 0 1 0 3.86.123l-.146-.123c-.418-.33-.79-.853-.849-1.505L13 12.96V5a1 1 0 0 0-1-1m2 13a2 2 0 0 1-3.99.196L10 17z"/></g></svg>