<svg xmlns="http://www.w3.org/2000/svg" width="24" height="24"><g fill="none" fill-rule="evenodd"><path d="M24 0v24H0V0zM12.593 23.258l-.011.002-.071.035-.02.004-.014-.004-.071-.035c-.01-.004-.019-.001-.024.005l-.004.01-.017.428.005.02.01.013.104.074.015.004.012-.004.104-.074.012-.016.004-.017-.017-.427c-.002-.01-.009-.017-.017-.018m.265-.113-.013.002-.185.093-.01.01-.003.011.018.43.005.012.008.007.201.093c.012.004.023 0 .029-.008l.004-.014-.034-.614c-.003-.012-.01-.02-.02-.022m-.715.002a.023.023 0 0 0-.027.006l-.006.014-.034.614c0 .012.007.02.017.024l.015-.002.201-.093.01-.008.004-.011.017-.43-.003-.012-.01-.01z"/><path fill="currentColor" d="M8.993 5.163c.169 1.423-.062 2.907-.576 4.239-.569 1.474-1.325 3.07-1.419 4.657-.079 1.337.224 2.919 1.032 4.002C8.915 19.247 10.368 20 11.967 20h1.512a5 5 0 0 0 4.983-4.585l.361-4.332A1 1 0 0 0 17.826 10H12.5a1.503 1.503 0 0 1-1.501-1.492c-.008-.97.053-2.167-.393-3.06-.4-.8-.774-.948-1.106-.948-.3 0-.54.393-.507.663M9.5 2.5c1.356 0 2.294.852 2.895 2.053.522 1.045.571 2.3.597 3.447h4.834a3 3 0 0 1 2.99 3.25l-.361 4.331A7 7 0 0 1 13.479 22h-1.512A6.937 6.937 0 0 1 6.9 19.822 5.54 5.54 0 0 1 5.5 20c-1.108 0-2.028-.62-2.624-1.608C2.296 17.432 2 16.107 2 14.5c0-1.606.297-2.931.876-3.891C3.472 9.62 4.392 9 5.5 9c.281 0 .579.05.877.134.458-1.2.784-2.437.63-3.735C6.835 3.954 8.016 2.5 9.5 2.5m-3.804 8.524c-.485-.1-.865.216-1.107.618C4.263 12.182 4 13.106 4 14.5c0 1.394.263 2.319.588 2.859.31.512.64.641.912.641.064 0 .127-.002.19-.005-.536-1.208-.766-2.74-.688-4.054.047-.805.361-1.918.694-2.917"/></g></svg>