<svg xmlns="http://www.w3.org/2000/svg" width="24" height="24"><g fill="none" fill-rule="evenodd"><path d="M24 0v24H0V0zM12.593 23.258l-.011.002-.071.035-.02.004-.014-.004-.071-.035c-.01-.004-.019-.001-.024.005l-.004.01-.017.428.005.02.01.013.104.074.015.004.012-.004.104-.074.012-.016.004-.017-.017-.427c-.002-.01-.009-.017-.017-.018m.265-.113-.013.002-.185.093-.01.01-.003.011.018.43.005.012.008.007.201.093c.012.004.023 0 .029-.008l.004-.014-.034-.614c-.003-.012-.01-.02-.02-.022m-.715.002a.023.023 0 0 0-.027.006l-.006.014-.034.614c0 .012.007.02.017.024l.015-.002.201-.093.01-.008.004-.011.017-.43-.003-.012-.01-.01z"/><path fill="currentColor" d="M12 2a1 1 0 0 1 .993.883L13 3v.723l.166.277H14a1 1 0 0 1 .445 1.896l-.113.047L15.566 8H17a1 1 0 0 1 .117 1.993L17 10h-1c.628.836 1 1.874 1 3a4.992 4.992 0 0 1-2 4 5.005 5.005 0 0 1 1.845 2.758L16.9 20H19a1 1 0 0 1 .117 1.993L19 22H5a1 1 0 0 1-.117-1.993L5 20h2.1A5 5 0 0 1 9 17a4.992 4.992 0 0 1-2-4c0-1.032.313-1.99.848-2.787L8 10H7a1 1 0 0 1-.117-1.993L7 8h1.434l1.234-2.057a1 1 0 0 1 .215-1.936L10 4h.834L11 3.723V3a1 1 0 0 1 1-1m0 16a3 3 0 0 0-2.762 1.828L9.17 20h5.658A3.001 3.001 0 0 0 12 18m0-8a3 3 0 1 0 0 6 3 3 0 0 0 0-6m.034-4h-.068l-1.2 2h2.468z"/></g></svg>