<svg xmlns="http://www.w3.org/2000/svg" width="24" height="24"><g fill="none" fill-rule="evenodd"><path d="M24 0v24H0V0zM12.594 23.258l-.012.002-.071.035-.02.004-.014-.004-.071-.036c-.01-.003-.019 0-.024.006l-.004.01-.017.428.005.02.01.013.104.074.015.004.012-.004.104-.074.012-.016.004-.017-.017-.427c-.002-.01-.009-.017-.016-.018m.264-.113-.014.002-.184.093-.01.01-.003.011.018.43.005.012.008.008.201.092c.012.004.023 0 .029-.008l.004-.014-.034-.614c-.003-.012-.01-.02-.02-.022m-.715.002a.023.023 0 0 0-.027.006l-.006.014-.034.614c0 .012.007.02.017.024l.015-.002.201-.093.01-.008.003-.011.018-.43-.003-.012-.01-.01z"/><path fill="currentColor" d="M14.72 2a5 5 0 0 1 4.855 3.802l.049.217 1.4 7c.496 2.482-.929 4.83-3.14 5.663l-.21.073L19.6 20.2a1 1 0 0 1-1.095 1.669L18.4 21.8 14.667 19H9.333L5.6 21.8a1 1 0 0 1-1.296-1.518L4.4 20.2l1.926-1.445c-2.26-.735-3.768-3.031-3.39-5.503l.04-.233 1.4-7a5 5 0 0 1 4.68-4.014L9.28 2h5.442Zm0 2H9.28a3 3 0 0 0-2.943 2.412l-1.4 7A3 3 0 0 0 7.88 17h8.242a3 3 0 0 0 2.942-3.588l-1.4-7A3 3 0 0 0 14.72 4m-6.47 9.25a1.25 1.25 0 1 1 0 2.5 1.25 1.25 0 0 1 0-2.5m7.5 0a1.25 1.25 0 1 1 0 2.5 1.25 1.25 0 0 1 0-2.5M14.61 6a1.5 1.5 0 0 1 1.416 1.005l.039.131.75 3a1.5 1.5 0 0 1-1.324 1.858L15.36 12H8.64a1.5 1.5 0 0 1-1.481-1.735l.026-.129.75-3a1.5 1.5 0 0 1 1.319-1.13L9.39 6zm-.39 2H9.78l-.5 2h5.44z"/></g></svg>