<svg xmlns="http://www.w3.org/2000/svg" width="24" height="24"><g fill="none" fill-rule="evenodd"><path d="M24 0v24H0V0h24ZM12.594 23.258l-.012.002-.071.035-.02.004-.014-.004-.071-.036c-.01-.003-.019 0-.024.006l-.004.01-.017.428.005.02.01.013.104.074.015.004.012-.004.104-.074.012-.016.004-.017-.017-.427c-.002-.01-.009-.017-.016-.018Zm.264-.113-.014.002-.184.093-.01.01-.003.011.018.43.005.012.008.008.201.092c.012.004.023 0 .029-.008l.004-.014-.034-.614c-.003-.012-.01-.02-.02-.022Zm-.715.002a.023.023 0 0 0-.027.006l-.006.014-.034.614c0 .012.007.02.017.024l.015-.002.201-.093.01-.008.003-.011.018-.43-.003-.012-.01-.01-.184-.092Z"/><path fill="currentColor" d="M15 11.5a1 1 0 1 0 2 0V9h1.793c1.336 0 2.005-1.616 1.06-2.56L15.06 1.644a1.5 1.5 0 0 0-2.122 0L8.147 6.44C7.2 7.384 7.87 9 9.206 9H11V16a1 1 0 0 0 1 1h1.587L10 20.586 6.414 17H8a1 1 0 0 0 1-1v-3.5a1 1 0 1 0-2 0V15H5.207c-1.336 0-2.006 1.615-1.06 2.56l4.792 4.794a1.5 1.5 0 0 0 2.122 0l4.793-4.794c.945-.945.275-2.56-1.061-2.56H13v-3a.76.76 0 0 0 0-.027V8a1 1 0 0 0-1-1h-1.587L14 3.413 17.586 7H16a1 1 0 0 0-1 1v3.5Z"/></g></svg>