<svg xmlns="http://www.w3.org/2000/svg" width="24" height="24"><g fill="none" fill-rule="evenodd"><path d="M24 0v24H0V0zM12.594 23.258l-.012.002-.071.035-.02.004-.014-.004-.071-.036c-.01-.003-.019 0-.024.006l-.004.01-.017.428.005.02.01.013.104.074.015.004.012-.004.104-.074.012-.016.004-.017-.017-.427c-.002-.01-.009-.017-.016-.018m.264-.113-.014.002-.184.093-.01.01-.003.011.018.43.005.012.008.008.201.092c.012.004.023 0 .029-.008l.004-.014-.034-.614c-.003-.012-.01-.02-.02-.022m-.715.002a.023.023 0 0 0-.027.006l-.006.014-.034.614c0 .012.007.02.017.024l.015-.002.201-.093.01-.008.003-.011.018-.43-.003-.012-.01-.01z"/><path fill="currentColor" d="M12 4c-3.25 0-6 2.844-6 6.5 0 3.274 2.205 5.897 5 6.41v-2.496l-1.707-1.707a1 1 0 1 1 1.414-1.414l1.165 1.165 1.814-2.54a1 1 0 1 1 1.628 1.163L13 14.321v2.588c2.795-.512 5-3.135 5-6.409C18 6.844 15.25 4 12 4m-8 6.5c0 4.278 3.006 7.91 7 8.435V21a1 1 0 1 0 2 0v-2.065c3.994-.525 7-4.157 7-8.435C20 5.872 16.482 2 12 2s-8 3.872-8 8.5"/></g></svg>