<svg xmlns="http://www.w3.org/2000/svg" width="24" height="24"><g fill="none" fill-rule="evenodd"><path d="M24 0v24H0V0zM12.593 23.258l-.011.002-.071.035-.02.004-.014-.004-.071-.035c-.01-.004-.019-.001-.024.005l-.004.01-.017.428.005.02.01.013.104.074.015.004.012-.004.104-.074.012-.016.004-.017-.017-.427c-.002-.01-.009-.017-.017-.018m.265-.113-.013.002-.185.093-.01.01-.003.011.018.43.005.012.008.007.201.093c.012.004.023 0 .029-.008l.004-.014-.034-.614c-.003-.012-.01-.02-.02-.022m-.715.002a.023.023 0 0 0-.027.006l-.006.014-.034.614c0 .012.007.02.017.024l.015-.002.201-.093.01-.008.004-.011.017-.43-.003-.012-.01-.01z"/><path fill="currentColor" d="M9.586 15a2 2 0 0 1 1.414.586l1 1 1-1A2 2 0 0 1 14.414 15h4.024a3 3 0 0 1 2.91 2.272l.622 2.486a1 1 0 1 1-1.94.485l-.621-2.485a1 1 0 0 0-.97-.758h-4.025l-1 1a2 2 0 0 1-2.828 0l-1-1H5.562a1 1 0 0 0-.97.758l-.622 2.485a1 1 0 1 1-1.94-.485l.621-2.486A3 3 0 0 1 5.561 15ZM12 2c.784 0 1.661.19 2.38.391C16.043 2.854 17 4.41 17 5.997v4.006c0 1.588-.957 3.143-2.62 3.606-.719.2-1.596.391-2.38.391-.784 0-1.661-.19-2.38-.391C7.957 13.146 7 11.591 7 10.003V5.997c0-1.587.957-3.143 2.62-3.606C10.339 2.191 11.216 2 12 2m0 2c-.509 0-1.177.132-1.843.318C9.489 4.504 9 5.165 9 5.997v4.006c0 .832.489 1.493 1.157 1.68.666.185 1.334.317 1.843.317.509 0 1.177-.132 1.843-.318.668-.186 1.157-.847 1.157-1.679V5.997c0-.832-.489-1.493-1.157-1.68C13.177 4.133 12.51 4 12 4"/></g></svg>