<svg xmlns="http://www.w3.org/2000/svg" width="24" height="24"><g fill="none" fill-rule="evenodd"><path d="M24 0v24H0V0zM12.593 23.258l-.011.002-.071.035-.02.004-.014-.004-.071-.035c-.01-.004-.019-.001-.024.005l-.004.01-.017.428.005.02.01.013.104.074.015.004.012-.004.104-.074.012-.016.004-.017-.017-.427c-.002-.01-.009-.017-.017-.018m.265-.113-.013.002-.185.093-.01.01-.003.011.018.43.005.012.008.007.201.093c.012.004.023 0 .029-.008l.004-.014-.034-.614c-.003-.012-.01-.02-.02-.022m-.715.002a.023.023 0 0 0-.027.006l-.006.014-.034.614c0 .012.007.02.017.024l.015-.002.201-.093.01-.008.004-.011.017-.43-.003-.012-.01-.01z"/><path fill="currentColor" fill-rule="nonzero" d="m12.935 2.878 7.181 3.796c1.066.563 1.066 2.09 0 2.652L18.842 10l1.274.674c1.066.563 1.066 2.09 0 2.652L18.842 14l1.274.674c1.066.563 1.066 2.09 0 2.652l-7.181 3.796a2 2 0 0 1-1.87 0l-7.181-3.796c-1.066-.563-1.066-2.089 0-2.652L5.159 14l-1.275-.674c-1.066-.563-1.066-2.089 0-2.652L5.159 10l-1.275-.674c-1.066-.563-1.066-2.089 0-2.652l7.181-3.796a2 2 0 0 1 1.87 0m3.767 12.253-3.767 1.991a2 2 0 0 1-1.87 0l-3.767-1.99L5.655 16 12 19.354 18.346 16zm0-4-3.767 1.992a2 2 0 0 1-1.707.076l-.163-.076-3.767-1.992-1.643.87L12 15.353 18.346 12zM12 4.646 5.655 8 12 11.354 18.346 8z"/></g></svg>