<svg xmlns="http://www.w3.org/2000/svg" width="24" height="24"><g fill="none" fill-rule="evenodd"><path d="M24 0v24H0V0zM12.594 23.258l-.012.002-.071.035-.02.004-.014-.004-.071-.036c-.01-.003-.019 0-.024.006l-.004.01-.017.428.005.02.01.013.104.074.015.004.012-.004.104-.074.012-.016.004-.017-.017-.427c-.002-.01-.009-.017-.016-.018m.264-.113-.014.002-.184.093-.01.01-.003.011.018.43.005.012.008.008.201.092c.012.004.023 0 .029-.008l.004-.014-.034-.614c-.003-.012-.01-.02-.02-.022m-.715.002a.023.023 0 0 0-.027.006l-.006.014-.034.614c0 .012.007.02.017.024l.015-.002.201-.093.01-.008.003-.011.018-.43-.003-.012-.01-.01z"/><path fill="currentColor" d="M12 3a4 4 0 0 1 3.446 6.033 3.001 3.001 0 0 1 2.549 2.788L18 12v.21l1.713-1.056a1.5 1.5 0 0 1 2.282 1.148l.005.129v5.138a1.5 1.5 0 0 1-2.175 1.34l-.112-.063L18 17.79V18a3 3 0 0 1-2.824 2.995L15 21H5a3 3 0 0 1-2.995-2.824L2 18v-6a3 3 0 0 1 1.545-2.624 3.5 3.5 0 0 1 5.138-4.612A3.996 3.996 0 0 1 12 3m3 8H5a1 1 0 0 0-1 1v6a1 1 0 0 0 1 1h10a1 1 0 0 0 1-1v-6a1 1 0 0 0-1-1m5 2.326-2 1.232v.883l2 1.232zM12 5a2 2 0 1 0 0 4 2 2 0 0 0 0-4M6.5 6a1.5 1.5 0 1 0 0 3 1.5 1.5 0 0 0 0-3"/></g></svg>