<svg xmlns="http://www.w3.org/2000/svg" width="24" height="24"><g fill="none" fill-rule="evenodd"><path d="M24 0v24H0V0zM12.593 23.258l-.011.002-.071.035-.02.004-.014-.004-.071-.035c-.01-.004-.019-.001-.024.005l-.004.01-.017.428.005.02.01.013.104.074.015.004.012-.004.104-.074.012-.016.004-.017-.017-.427c-.002-.01-.009-.017-.017-.018m.265-.113-.013.002-.185.093-.01.01-.003.011.018.43.005.012.008.007.201.093c.012.004.023 0 .029-.008l.004-.014-.034-.614c-.003-.012-.01-.02-.02-.022m-.715.002a.023.023 0 0 0-.027.006l-.006.014-.034.614c0 .012.007.02.017.024l.015-.002.201-.093.01-.008.004-.011.017-.43-.003-.012-.01-.01z"/><path fill="currentColor" d="M12.987 5.74a2 2 0 1 0-1.97.002l-.01.018c-.655 1.367-1.565 3.325-2.97 4.06-1.154.603-2.81.3-4.04.074a1.5 1.5 0 1 0-1.772 1.58l2.948 7.61A3 3 0 0 0 7.97 21h8.06a3 3 0 0 0 2.797-1.916l2.947-7.61a1.5 1.5 0 1 0-1.767-1.624c-1.259.163-2.882.371-4.044-.236-1.377-.72-2.3-2.543-2.976-3.874m-.962 2.367c.768 1.246 1.689 2.587 3.012 3.28 1.327.693 2.96.658 4.42.533l-2.495 6.441a1 1 0 0 1-.932.639H7.97a1 1 0 0 1-.932-.639l-2.461-6.353c1.439.184 3.067.274 4.386-.416 1.378-.72 2.3-2.172 3.062-3.485"/></g></svg>