<svg xmlns="http://www.w3.org/2000/svg" width="24" height="24"><g fill="none" fill-rule="evenodd"><path d="M24 0v24H0V0zM12.594 23.258l-.012.002-.071.035-.02.004-.014-.004-.071-.036c-.01-.003-.019 0-.024.006l-.004.01-.017.428.005.02.01.013.104.074.015.004.012-.004.104-.074.012-.016.004-.017-.017-.427c-.002-.01-.009-.017-.016-.018m.264-.113-.014.002-.184.093-.01.01-.003.011.018.43.005.012.008.008.201.092c.012.004.023 0 .029-.008l.004-.014-.034-.614c-.003-.012-.01-.02-.02-.022m-.715.002a.023.023 0 0 0-.027.006l-.006.014-.034.614c0 .012.007.02.017.024l.015-.002.201-.093.01-.008.003-.011.018-.43-.003-.012-.01-.01z"/><path fill="currentColor" d="M10 3a1 1 0 0 1 1-1h2a1 1 0 1 1 0 2v2.083a5.967 5.967 0 0 1 2.476 1.026l1.474-1.473a1 1 0 0 1 1.414-1.414l1.414 1.414a1 1 0 0 1-1.414 1.414l-1.473 1.473A5.966 5.966 0 0 1 17.917 11H20a1 1 0 1 1 2 0v2a1 1 0 1 1-2 0h-2.083a5.966 5.966 0 0 1-1.026 2.476l1.473 1.474a1 1 0 0 1 1.414 1.414l-1.414 1.414a1 1 0 0 1-1.414-1.414l-1.473-1.473A5.966 5.966 0 0 1 13 17.917V20a1 1 0 1 1 0 2h-2a1 1 0 1 1 0-2v-2.083a5.966 5.966 0 0 1-2.477-1.026L7.05 18.364a1 1 0 1 1-1.414 1.414l-1.414-1.414a1 1 0 0 1 1.414-1.414l1.473-1.473A5.967 5.967 0 0 1 6.083 13H4a1 1 0 1 1-2 0v-2a1 1 0 1 1 2 0h2.083a5.968 5.968 0 0 1 1.026-2.477L5.636 7.05a1 1 0 1 1-1.414-1.414l1.414-1.414A1 1 0 1 1 7.05 5.636l1.473 1.473A5.968 5.968 0 0 1 11 6.083V4a1 1 0 0 1-1-1m-2 9a4 4 0 1 0 8 0 4 4 0 0 0-8 0"/></g></svg>