<svg xmlns="http://www.w3.org/2000/svg" width="24" height="24"><g fill="none"><path d="M24 0v24H0V0zM12.593 23.258l-.011.002-.071.035-.02.004-.014-.004-.071-.035c-.01-.004-.019-.001-.024.005l-.004.01-.017.428.005.02.01.013.104.074.015.004.012-.004.104-.074.012-.016.004-.017-.017-.427c-.002-.01-.009-.017-.017-.018m.265-.113-.013.002-.185.093-.01.01-.003.011.018.43.005.012.008.007.201.093c.012.004.023 0 .029-.008l.004-.014-.034-.614c-.003-.012-.01-.02-.02-.022m-.715.002a.023.023 0 0 0-.027.006l-.006.014-.034.614c0 .012.007.02.017.024l.015-.002.201-.093.01-.008.004-.011.017-.43-.003-.012-.01-.01z"/><path fill="currentColor" d="M17 3a4 4 0 0 1 3.995 3.8L21 7v10a4 4 0 0 1-3.8 3.995L17 21H7a4 4 0 0 1-3.995-3.8L3 17V7a4 4 0 0 1 3.8-3.995L7 3zm0 2H7a2 2 0 0 0-1.995 1.85L5 7v10a2 2 0 0 0 1.85 1.995L7 19h10a2 2 0 0 0 1.995-1.85L19 17V7a2 2 0 0 0-1.85-1.995zm-1.547 4.225.215-.28a1 1 0 0 1 1.664 1.11 9.803 9.803 0 0 1-1.466 1.68 9.429 9.429 0 0 1-.44.382c1.098.584 1.99 1.48 2.468 2.436a1 1 0 1 1-1.788.894c-.457-.912-1.64-1.804-2.896-1.987l-.21-.023V15a1 1 0 0 1-1 1c-3.49 0-6-2.868-6-6.5a1 1 0 1 1 2 0c0 1.874.978 3.699 2.795 4.31l.205.063V9.5c0-.569.458-.969 1-1a1 1 0 0 1 .974.77l.02.113.007 1.9c.496-.206 1.005-.553 1.508-1.018.348-.32.654-.672.944-1.04"/></g></svg>