<svg xmlns="http://www.w3.org/2000/svg" width="24" height="24"><g fill="none"><path d="M24 0v24H0V0zM12.593 23.258l-.011.002-.071.035-.02.004-.014-.004-.071-.035c-.01-.004-.019-.001-.024.005l-.004.01-.017.428.005.02.01.013.104.074.015.004.012-.004.104-.074.012-.016.004-.017-.017-.427c-.002-.01-.009-.017-.017-.018m.265-.113-.013.002-.185.093-.01.01-.003.011.018.43.005.012.008.007.201.093c.012.004.023 0 .029-.008l.004-.014-.034-.614c-.003-.012-.01-.02-.02-.022m-.715.002a.023.023 0 0 0-.027.006l-.006.014-.034.614c0 .012.007.02.017.024l.015-.002.201-.093.01-.008.004-.011.017-.43-.003-.012-.01-.01z"/><path fill="currentColor" d="M12 2c.892 0 2.01.113 2.941.428.464.156.95.385 1.336.733.406.365.723.887.723 1.553 0 .642-.294 1.172-.647 1.566a3.86 3.86 0 0 1-.663.581C18.675 8.284 21 11.335 21 15c0 2.556-1.02 4.386-2.766 5.525C16.559 21.617 14.33 22 12 22s-4.56-.383-6.234-1.475C4.02 19.386 3 17.555 3 15c0-3.665 2.325-6.716 5.31-8.139a3.857 3.857 0 0 1-.663-.58C7.294 5.885 7 5.355 7 4.713c0-.666.317-1.188.723-1.553.386-.348.872-.577 1.336-.733C9.99 2.113 11.108 2 12 2m0 6c-3.488 0-7 3.092-7 7 0 1.944.73 3.114 1.859 3.85C8.059 19.633 9.83 20 12 20s3.94-.367 5.141-1.15C18.27 18.114 19 16.944 19 15c0-3.908-3.512-7-7-7m1.947 2.606a1 1 0 0 1 .447 1.341L13.868 13H14a1 1 0 1 1 0 2h-1v.5h1a1 1 0 1 1 0 2h-1v.5a1 1 0 1 1-2 0v-.5h-1a1 1 0 1 1 0-2h1V15h-1a1 1 0 1 1 0-2h.132l-.526-1.053a1 1 0 1 1 1.788-.894l.606 1.21.606-1.21a1 1 0 0 1 1.341-.447M12 4c-.765 0-1.647.101-2.301.322-.33.112-.533.23-.638.325l-.052.055A.14.14 0 0 0 9 4.716l.007.032a.597.597 0 0 0 .13.2c.14.156.375.334.702.503.66.342 1.503.549 2.161.549.658 0 1.502-.207 2.161-.549.327-.169.561-.347.702-.504a.597.597 0 0 0 .13-.199L15 4.716l-.028-.036a.498.498 0 0 0-.033-.033c-.105-.094-.308-.213-.638-.325C13.647 4.102 12.765 4 12 4"/></g></svg>