<svg xmlns="http://www.w3.org/2000/svg" width="24" height="24"><g fill="none" fill-rule="evenodd"><path d="M24 0v24H0V0zM12.594 23.258l-.012.002-.071.035-.02.004-.014-.004-.071-.036c-.01-.003-.019 0-.024.006l-.004.01-.017.428.005.02.01.013.104.074.015.004.012-.004.104-.074.012-.016.004-.017-.017-.427c-.002-.01-.009-.017-.016-.018m.264-.113-.014.002-.184.093-.01.01-.003.011.018.43.005.012.008.008.201.092c.012.004.023 0 .029-.008l.004-.014-.034-.614c-.003-.012-.01-.02-.02-.022m-.715.002a.023.023 0 0 0-.027.006l-.006.014-.034.614c0 .012.007.02.017.024l.015-.002.201-.093.01-.008.003-.011.018-.43-.003-.012-.01-.01z"/><path fill="currentColor" d="M12 3a4 4 0 0 1 3.153 6.461l2.085 3.612A4 4 0 1 1 14.535 19h-5.07a4 4 0 1 1-2.703-5.927L8.847 9.46A4 4 0 0 1 12 3M6 15a2 2 0 1 0 0 4 2 2 0 0 0 0-4m12 0a2 2 0 1 0 .001 4A2 2 0 0 0 18 15m-4.448-4.312A3.989 3.989 0 0 1 12 11c-.55 0-1.074-.111-1.552-.312l-1.876 3.249A3.991 3.991 0 0 1 10 17h4c0-1.23.556-2.33 1.428-3.063zM12 5a2 2 0 1 0 0 4 2 2 0 0 0 0-4"/></g></svg>