<svg xmlns="http://www.w3.org/2000/svg" width="24" height="24"><g fill="none"><path d="M24 0v24H0V0zM12.593 23.258l-.011.002-.071.035-.02.004-.014-.004-.071-.035c-.01-.004-.019-.001-.024.005l-.004.01-.017.428.005.02.01.013.104.074.015.004.012-.004.104-.074.012-.016.004-.017-.017-.427c-.002-.01-.009-.017-.017-.018m.265-.113-.013.002-.185.093-.01.01-.003.011.018.43.005.012.008.007.201.093c.012.004.023 0 .029-.008l.004-.014-.034-.614c-.003-.012-.01-.02-.02-.022m-.715.002a.023.023 0 0 0-.027.006l-.006.014-.034.614c0 .012.007.02.017.024l.015-.002.201-.093.01-.008.004-.011.017-.43-.003-.012-.01-.01z"/><path fill="currentColor" d="M10 3c4.071 0 7.7 2.67 7.982 6.368 2.304.862 4.018 2.81 4.018 5.26 0 1.867-1.026 3.472-2.52 4.493a2.28 2.28 0 0 0-.022.439l.014.44a1 1 0 0 1-1 1c-.758 0-1.46-.247-2.054-.71a7.84 7.84 0 0 1-1.105.078c-2.767 0-5.322-1.491-6.284-3.751a9.231 9.231 0 0 1-.454-.058c-.716.567-1.54.885-2.464.885a1 1 0 0 1-1-1l.005-.203.018-.41a2.1 2.1 0 0 0-.058-.608C3.248 14.004 2 12.073 2 9.833 2 5.896 5.76 3 10 3m5.313 7.889c-2.768 0-4.688 1.837-4.688 3.74 0 1.902 1.92 3.74 4.688 3.74a5.8 5.8 0 0 0 1.078-.101c.434-.082.819.1 1.15.36.099-.433.324-.842.706-1.088C19.363 16.82 20 15.753 20 14.629c0-1.903-1.92-3.74-4.687-3.74M10 5C6.508 5 4 7.327 4 9.833c0 1.477.837 2.858 2.264 3.777.531.343.76.957.83 1.559l.482-.342c.308-.208.63-.366 1.05-.288.056-3.286 3.203-5.65 6.687-5.65.192 0 .383.007.573.021C15.362 6.784 13.059 5 10 5m3.62 8a1 1 0 1 1 0 2 1 1 0 0 1 0-2M17 13a1 1 0 1 1 0 2 1 1 0 0 1 0-2M8 7a1 1 0 1 1 0 2 1 1 0 0 1 0-2m4 0a1 1 0 1 1 0 2 1 1 0 0 1 0-2"/></g></svg>