<svg xmlns="http://www.w3.org/2000/svg" width="24" height="24"><g fill="none"><path d="M24 0v24H0V0zM12.593 23.258l-.011.002-.071.035-.02.004-.014-.004-.071-.035c-.01-.004-.019-.001-.024.005l-.004.01-.017.428.005.02.01.013.104.074.015.004.012-.004.104-.074.012-.016.004-.017-.017-.427c-.002-.01-.009-.017-.017-.018m.265-.113-.013.002-.185.093-.01.01-.003.011.018.43.005.012.008.007.201.093c.012.004.023 0 .029-.008l.004-.014-.034-.614c-.003-.012-.01-.02-.02-.022m-.715.002a.023.023 0 0 0-.027.006l-.006.014-.034.614c0 .012.007.02.017.024l.015-.002.201-.093.01-.008.004-.011.017-.43-.003-.012-.01-.01z"/><path fill="currentColor" d="M13.12 5.815c.55.537.826 1.24.863 1.992 1.675-.502 3.045-.362 3.937.5.848.82.937 1.967.617 2.964C19.9 11.961 21 13.058 21 14.715c0 1.93-1.256 3.526-2.962 4.586C16.318 20.371 14.004 21 11.5 21c-2.504 0-4.818-.63-6.538-1.699C3.256 18.241 2 16.646 2 14.715c0-1.762.842-3.589 2.05-5.156a14.557 14.557 0 0 1 4.723-3.954c1.635-.847 3.286-.828 4.347.21m-1.399 1.43c-.213-.21-.829-.485-2.028.136a12.558 12.558 0 0 0-4.06 3.4C4.576 12.154 4 13.558 4 14.715c0 .988.647 2.035 2.018 2.888C7.374 18.446 9.309 19 11.5 19c2.19 0 4.127-.554 5.482-1.397 1.371-.853 2.018-1.9 2.018-2.888 0-.711-.56-1.439-2.16-1.991a1 1 0 0 1-.473-1.546c.495-.66.355-1.248.163-1.433l-.048-.04-.067-.042c-.337-.186-1.274-.368-3.335.661a1 1 0 0 1-1.347-1.33c.444-.92.225-1.517-.012-1.75ZM17 3c1.576 0 3.128.643 4.243 1.757A6.054 6.054 0 0 1 23 9a1 1 0 1 1-2 0c0-1.05-.429-2.086-1.172-2.828A4.036 4.036 0 0 0 17 5a1 1 0 1 1 0-2"/></g></svg>