<svg xmlns="http://www.w3.org/2000/svg" width="24" height="24"><g fill="none" fill-rule="evenodd"><path d="M24 0v24H0V0zM12.593 23.258l-.011.002-.071.035-.02.004-.014-.004-.071-.035c-.01-.004-.019-.001-.024.005l-.004.01-.017.428.005.02.01.013.104.074.015.004.012-.004.104-.074.012-.016.004-.017-.017-.427c-.002-.01-.009-.017-.017-.018m.265-.113-.013.002-.185.093-.01.01-.003.011.018.43.005.012.008.007.201.093c.012.004.023 0 .029-.008l.004-.014-.034-.614c-.003-.012-.01-.02-.02-.022m-.715.002a.023.023 0 0 0-.027.006l-.006.014-.034.614c0 .012.007.02.017.024l.015-.002.201-.093.01-.008.004-.011.017-.43-.003-.012-.01-.01z"/><path fill="currentColor" d="M12 2c5.523 0 10 4.477 10 10s-4.477 10-10 10S2 17.523 2 12 6.477 2 12 2m0 2a8 8 0 1 0 0 16 8 8 0 0 0 0-16m1.569 10.562.095.131.846 1.27c.359.537.569 1.543-.222 2.233-.47.412-1.217.804-2.288.804-1.071 0-1.818-.392-2.288-.804-.747-.652-.601-1.585-.28-2.14l.058-.094.846-1.269a2 2 0 0 1 3.13-.253zM12 15.802l-.706 1.06c.164.076.393.138.706.138.26 0 .463-.043.618-.102l.088-.036zm6.6-4.064c.246.575.388 1.406.057 2.425-.33 1.019-.934 1.608-1.471 1.928-.9.538-1.792.028-2.193-.48l-.946-1.196a2 2 0 0 1 1.029-3.165l1.468-.413c.623-.175 1.644-.063 2.056.901m-11.25-.927.107.026 1.468.412a2 2 0 0 1 1.118 3.044l-.09.122-.945 1.197c-.4.507-1.292 1.017-2.193.479-.536-.32-1.14-.91-1.471-1.928-.331-1.019-.189-1.85.057-2.425.367-.857 1.214-1.04 1.835-.948l.114.02Zm9.493 2.02-1.225.344.789.999a1.66 1.66 0 0 0 .35-.629c.096-.298.108-.534.086-.714m-9.684 0c-.022.18-.01.416.087.714.08.248.184.427.287.557l.062.072.79-.999zm6.633-7.189c.622-.056 1.457.065 2.323.695.867.63 1.24 1.386 1.38 1.995.22.966-.447 1.636-1.032 1.896l-.102.042-1.43.53a2 2 0 0 1-2.694-1.811v-.146l.062-1.524c.026-.646.448-1.583 1.493-1.677m-3.582 0c1.045.094 1.467 1.031 1.493 1.677l.061 1.524a2 2 0 0 1-2.692 1.956l-1.43-.53c-.607-.223-1.368-.914-1.134-1.937.139-.609.512-1.365 1.378-1.995.867-.63 1.702-.75 2.324-.695m4.077 2.01-.05 1.272 1.193-.442a1.657 1.657 0 0 0-.49-.527 1.742 1.742 0 0 0-.56-.281zm-4.573 0a1.66 1.66 0 0 0-.652.303 1.658 1.658 0 0 0-.49.527l1.194.442z"/></g></svg>