<svg xmlns="http://www.w3.org/2000/svg" width="24" height="24"><g fill="none"><path d="M24 0v24H0V0zM12.593 23.258l-.011.002-.071.035-.02.004-.014-.004-.071-.035c-.01-.004-.019-.001-.024.005l-.004.01-.017.428.005.02.01.013.104.074.015.004.012-.004.104-.074.012-.016.004-.017-.017-.427c-.002-.01-.009-.017-.017-.018m.265-.113-.013.002-.185.093-.01.01-.003.011.018.43.005.012.008.007.201.093c.012.004.023 0 .029-.008l.004-.014-.034-.614c-.003-.012-.01-.02-.02-.022m-.715.002a.023.023 0 0 0-.027.006l-.006.014-.034.614c0 .012.007.02.017.024l.015-.002.201-.093.01-.008.004-.011.017-.43-.003-.012-.01-.01z"/><path fill="currentColor" d="M4.222 3.222a1 1 0 0 1 1.32-.083l.094.083 2.395 2.395A12.99 12.99 0 0 1 12 5c3.59 0 6.84 1.456 9.192 3.808a1 1 0 0 1-1.414 1.414A10.962 10.962 0 0 0 12 7c-.642 0-1.27.055-1.882.16l-.455.089 1.769 1.769a8.975 8.975 0 0 1 6.932 2.618 1 1 0 0 1-1.414 1.414 6.991 6.991 0 0 0-3.057-1.791l-.296-.076 6.181 6.181a1 1 0 0 1-1.32 1.497l-.094-.083L4.222 4.636a1 1 0 0 1 0-1.414M12 17l.117.007a1 1 0 1 1-.234 0zm-1.247-3.843 1.918 1.918a2.987 2.987 0 0 0-2.792.803 1 1 0 0 1-1.415-1.414 5.002 5.002 0 0 1 2.028-1.232l.26-.075Zm-3.06-3.06 1.492 1.492A7.01 7.01 0 0 0 7.05 13.05a1 1 0 0 1-1.414-1.414 9.028 9.028 0 0 1 2.056-1.54Zm-2.91-2.91 1.446 1.446a11.06 11.06 0 0 0-2.007 1.589 1 1 0 0 1-1.414-1.414 13.059 13.059 0 0 1 1.974-1.622Z"/></g></svg>