<svg xmlns="http://www.w3.org/2000/svg" width="24" height="24"><g fill="none"><path d="M24 0v24H0V0zM12.593 23.258l-.011.002-.071.035-.02.004-.014-.004-.071-.035c-.01-.004-.019-.001-.024.005l-.004.01-.017.428.005.02.01.013.104.074.015.004.012-.004.104-.074.012-.016.004-.017-.017-.427c-.002-.01-.009-.017-.017-.018m.265-.113-.013.002-.185.093-.01.01-.003.011.018.43.005.012.008.007.201.093c.012.004.023 0 .029-.008l.004-.014-.034-.614c-.003-.012-.01-.02-.02-.022m-.715.002a.023.023 0 0 0-.027.006l-.006.014-.034.614c0 .012.007.02.017.024l.015-.002.201-.093.01-.008.004-.011.017-.43-.003-.012-.01-.01z"/><path fill="currentColor" d="M12 17a1 1 0 1 1 0 2 1 1 0 0 1 0-2m0-4c1.38 0 2.632.56 3.536 1.464a1 1 0 0 1-1.415 1.415A2.988 2.988 0 0 0 12 15c-.829 0-1.577.335-2.121.879a1 1 0 0 1-1.415-1.415A4.987 4.987 0 0 1 12 13m0-4a8.975 8.975 0 0 1 6.364 2.636 1 1 0 0 1-1.414 1.414A6.975 6.975 0 0 0 12 11a6.975 6.975 0 0 0-4.95 2.05 1 1 0 0 1-1.414-1.414A8.975 8.975 0 0 1 12 9m0-4c3.59 0 6.84 1.456 9.192 3.808a1 1 0 0 1-1.414 1.414A10.962 10.962 0 0 0 12 7a10.96 10.96 0 0 0-7.778 3.222 1 1 0 0 1-1.414-1.414A12.962 12.962 0 0 1 12 5"/></g></svg>