<svg xmlns="http://www.w3.org/2000/svg" width="24" height="24"><g fill="none" fill-rule="evenodd"><path d="M24 0v24H0V0zM12.594 23.258l-.012.002-.071.035-.02.004-.014-.004-.071-.036c-.01-.003-.019 0-.024.006l-.004.01-.017.428.005.02.01.013.104.074.015.004.012-.004.104-.074.012-.016.004-.017-.017-.427c-.002-.01-.009-.017-.016-.018m.264-.113-.014.002-.184.093-.01.01-.003.011.018.43.005.012.008.008.201.092c.012.004.023 0 .029-.008l.004-.014-.034-.614c-.003-.012-.01-.02-.02-.022m-.715.002a.023.023 0 0 0-.027.006l-.006.014-.034.614c0 .012.007.02.017.024l.015-.002.201-.093.01-.008.003-.011.018-.43-.003-.012-.01-.01z"/><path fill="currentColor" d="M11.42 2a2 2 0 0 0-1.993 1.834l-.383 4.602-1.708 1.138A3 3 0 0 0 6 12.07V19a3 3 0 0 0 3 3h6a3 3 0 0 0 3-3v-6.93a3 3 0 0 0-1.336-2.496l-1.708-1.138-.383-4.602A2 2 0 0 0 12.58 2zM16 14h-4a1 1 0 1 0 0 2h4v3a1 1 0 0 1-1 1H9a1 1 0 0 1-1-1v-6.93a1 1 0 0 1 .445-.832l1.708-1.138a2 2 0 0 0 .884-1.498L11.42 4h1.16l.383 4.602a2 2 0 0 0 .884 1.498l1.708 1.138a1 1 0 0 1 .445.832z"/></g></svg>