<svg xmlns="http://www.w3.org/2000/svg" width="24" height="24"><g fill="none" fill-rule="evenodd"><path d="M24 0v24H0V0zM12.593 23.258l-.011.002-.071.035-.02.004-.014-.004-.071-.035c-.01-.004-.019-.001-.024.005l-.004.01-.017.428.005.02.01.013.104.074.015.004.012-.004.104-.074.012-.016.004-.017-.017-.427c-.002-.01-.009-.017-.017-.018m.265-.113-.013.002-.185.093-.01.01-.003.011.018.43.005.012.008.007.201.093c.012.004.023 0 .029-.008l.004-.014-.034-.614c-.003-.012-.01-.02-.02-.022m-.715.002a.023.023 0 0 0-.027.006l-.006.014-.034.614c0 .012.007.02.017.024l.015-.002.201-.093.01-.008.004-.011.017-.43-.003-.012-.01-.01z"/><path fill="currentColor" d="M4.734 5.056C6.284 4.516 8.646 4 12 4s5.716.516 7.266 1.056c.808.28 1.679.622 2.358 1.162.334.268.463.732.312 1.133l-3 8a1 1 0 0 1-1.252.598 18.495 18.495 0 0 0-1.776-.473c-1.027-.228-2.353-.45-3.676-.474l.445 1.659a1.5 1.5 0 1 1-1.932.518l-.553-2.065c-.764.091-1.485.226-2.1.362-.596.133-1.19.282-1.772.471l-.004.002a1 1 0 0 1-1.252-.598l-3-8a1 1 0 0 1 .311-1.132h.001c.679-.541 1.55-.883 2.358-1.163M12 13c-.101 0-.203.001-.303.003l-1.06-3.955a1 1 0 1 0-1.932.517l.964 3.6a24.996 24.996 0 0 0-3.058.615L4.229 7.429a9.659 9.659 0 0 1 1.162-.485C6.716 6.485 8.854 6 12.001 6c3.145 0 5.283.484 6.608.944.497.173.88.343 1.162.485L17.39 13.78a25.522 25.522 0 0 0-1.048-.256C15.179 13.266 13.601 13 12 13"/></g></svg>