<svg xmlns="http://www.w3.org/2000/svg" width="24" height="24"><g fill="none"><path d="M24 0v24H0V0zM12.594 23.258l-.012.002-.071.035-.02.004-.014-.004-.071-.036c-.01-.003-.019 0-.024.006l-.004.01-.017.428.005.02.01.013.104.074.015.004.012-.004.104-.074.012-.016.004-.017-.017-.427c-.002-.01-.009-.017-.016-.018m.264-.113-.014.002-.184.093-.01.01-.003.011.018.43.005.012.008.008.201.092c.012.004.023 0 .029-.008l.004-.014-.034-.614c-.003-.012-.01-.02-.02-.022m-.715.002a.023.023 0 0 0-.027.006l-.006.014-.034.614c0 .012.007.02.017.024l.015-.002.201-.093.01-.008.003-.011.018-.43-.003-.012-.01-.01z"/><path fill="currentColor" d="M12 2c5.523 0 10 4.477 10 10s-4.477 10-10 10S2 17.523 2 12 6.477 2 12 2M8.441 4.833A8.003 8.003 0 0 0 9.93 19.73v-.002a3.5 3.5 0 0 0 1.996-6.706l-.184-.055a5.5 5.5 0 0 1-3.3-8.133Zm1.343 1.914a3.5 3.5 0 0 0 2.29 4.232l.185.055a5.5 5.5 0 0 1 3.3 8.133A8.003 8.003 0 0 0 14.071 4.27v.002a3.5 3.5 0 0 0-4.287 2.474Zm.957 8.021a1.5 1.5 0 1 1-.777 2.898 1.5 1.5 0 0 1 .777-2.898m3.295-8.434a1.5 1.5 0 1 1-.777 2.898 1.5 1.5 0 0 1 .777-2.898"/></g></svg>