<svg id="图层_1" data-name="图层 1" xmlns="http://www.w3.org/2000/svg" xmlns:xlink="http://www.w3.org/1999/xlink" viewBox="0 0 500 300"><defs><style>.cls-1{fill:url(#未命名的渐变_50);}.cls-2{fill:url(#未命名的渐变_35);}.cls-3{fill:url(#未命名的渐变_35-2);}.cls-4{fill:url(#未命名的渐变_35-3);}.cls-5{fill:#c7cce0;}.cls-6{fill:#e2e4ed;}</style><linearGradient id="未命名的渐变_50" x1="250" y1="284.22" x2="250" y2="191.22" gradientUnits="userSpaceOnUse"><stop offset="0" stop-color="#fff9ef" stop-opacity="0"/><stop offset="0.17" stop-color="#fef8ef" stop-opacity="0.02"/><stop offset="0.32" stop-color="#fbf5ee" stop-opacity="0.06"/><stop offset="0.46" stop-color="#f5f1ec" stop-opacity="0.14"/><stop offset="0.6" stop-color="#edebea" stop-opacity="0.26"/><stop offset="0.74" stop-color="#e3e2e7" stop-opacity="0.4"/><stop offset="0.87" stop-color="#d6d8e4" stop-opacity="0.58"/><stop offset="0.99" stop-color="#c8cde0" stop-opacity="0.79"/><stop offset="1" stop-color="#c7cce0" stop-opacity="0.8"/></linearGradient><linearGradient id="未命名的渐变_35" x1="59.52" y1="150.25" x2="115.3" y2="94.47" gradientTransform="translate(-13.91 2.86)" xlink:href="#未命名的渐变_50"/><linearGradient id="未命名的渐变_35-2" x1="338.12" y1="-44.92" x2="393.9" y2="-100.69" gradientTransform="translate(42.49 257.02)" xlink:href="#未命名的渐变_50"/><linearGradient id="未命名的渐变_35-3" x1="259.63" y1="-148.86" x2="315.41" y2="-204.64" gradientTransform="translate(138.98 231.97)" xlink:href="#未命名的渐变_50"/></defs><title>地址缺省页</title><ellipse class="cls-1" cx="250" cy="237.72" rx="146" ry="46.5"/><rect class="cls-2" x="59.5" y="75.22" width="28" height="100" rx="14" ry="14" transform="translate(110.07 -15.3) rotate(45)"/><rect class="cls-3" x="394.5" y="134.22" width="28" height="100" rx="14" ry="14" transform="translate(249.91 -234.9) rotate(45)"/><rect class="cls-4" x="412.5" y="5.22" width="28" height="100" rx="14" ry="14" transform="translate(163.97 -285.41) rotate(45)"/><path class="cls-5" d="M253.3,72.05a56.74,56.74,0,0,0-56.7,56.77c0,52.81,53.21,99.13,53.21,99.13S310,181.63,310,128.82A56.74,56.74,0,0,0,253.3,72.05Zm0,80.54a22.44,22.44,0,1,1,22.42-22.44A22.43,22.43,0,0,1,253.3,152.59Z"/><path class="cls-6" d="M246.7,72.05A56.74,56.74,0,0,0,190,128.82c0,52.81,56.7,96.38,56.7,96.38s56.7-43.57,56.7-96.38A56.74,56.74,0,0,0,246.7,72.05Zm0,80.54a22.44,22.44,0,1,1,22.42-22.44A22.43,22.43,0,0,1,246.7,152.59Z"/></svg>