<svg id="图层_1" data-name="图层 1" xmlns="http://www.w3.org/2000/svg" xmlns:xlink="http://www.w3.org/1999/xlink" viewBox="0 0 500 300"><defs><style>.cls-1{opacity:0.8;}.cls-2{fill:#c7cce0;}.cls-3{fill:#e2e4ed;}.cls-4{fill:url(#未命名的渐变_50);}</style><linearGradient id="未命名的渐变_50" x1="250" y1="284.22" x2="250" y2="191.22" gradientUnits="userSpaceOnUse"><stop offset="0" stop-color="#fff9ef" stop-opacity="0"/><stop offset="0.17" stop-color="#fef8ef" stop-opacity="0.02"/><stop offset="0.32" stop-color="#fbf5ee" stop-opacity="0.06"/><stop offset="0.46" stop-color="#f5f1ec" stop-opacity="0.14"/><stop offset="0.6" stop-color="#edebea" stop-opacity="0.26"/><stop offset="0.74" stop-color="#e3e2e7" stop-opacity="0.4"/><stop offset="0.87" stop-color="#d6d8e4" stop-opacity="0.58"/><stop offset="0.99" stop-color="#c8cde0" stop-opacity="0.79"/><stop offset="1" stop-color="#c7cce0" stop-opacity="0.8"/></linearGradient></defs><title>搜索缺省页</title><g class="cls-1"><path class="cls-2" d="M84.43,162.78c-3.49-2.29-11.08-9.25-11.55-11.23l.36-.09s0-1.77-.37-1.77-12.32,2.8-12.32,2.8l.5,2,.24-.06c-1.5,2.81-6.1,11.66-6.34,15.17l-.28,4.2a6.11,6.11,0,0,1,3.55-.47c1.87.37,3.92,4,12,.47a9.46,9.46,0,0,1,4-.37c2.71.19,3.73-2.61,6.16-2.61s3.55-.37,4.38-1.21,2.15-.84,2.89-1.77S88,165.11,84.43,162.78Z"/><path class="cls-3" d="M83.82,162.78c-3.49-2.29-11.08-9.25-11.55-11.23l.36-.09s0-1.77-.37-1.77-12.32,2.8-12.32,2.8l.5,2,.24-.06c-1.5,2.81-6.1,11.66-6.34,15.17l-.28,4.2a6.11,6.11,0,0,1,3.55-.47c1.87.37,3.92,4,12,.47a9.46,9.46,0,0,1,4-.37c2.71.19,3.73-2.61,6.16-2.61s3.55-.37,4.38-1.21,2.15-.84,2.89-1.77S87.37,165.11,83.82,162.78Z"/></g><g class="cls-1"><path class="cls-2" d="M362.56,64.21,365,65.4s-4.27,5.54-1.25,7.76,6.22,2.63,9.39-3.61l2.25,1s-8.23,18.4-8.29,20.66a33.62,33.62,0,0,1-9.91-3.14,56.85,56.85,0,0,1-6.72-3.93Z"/><path class="cls-3" d="M362.13,63.59l2.42,1.19s-4.27,5.54-1.25,7.76,6.22,2.63,9.39-3.61l2.25,1s-8.23,18.4-8.29,20.66a33.62,33.62,0,0,1-9.91-3.14A56.85,56.85,0,0,1,350,83.5Z"/></g><g class="cls-1"><path class="cls-2" d="M103.74,87.82l8.47-9.53,2.8-1.57s1.75,3.47,6.54.72,3-6.1,3-6.1l4.51-.14,11,1.59s.48,7.29,0,7.44-7-.27-7-.27,7.79,18.36,7.54,18.37S121,106,120.92,105.88s-5-17.49-5-17.49l-5.34,5.45Z"/><path class="cls-3" d="M102.79,87.55,111.25,78l2.8-1.57s1.75,3.47,6.54.72,3-6.1,3-6.1l4.51-.14,11,1.59s.48,7.29,0,7.44-7-.27-7-.27,7.79,18.36,7.54,18.37S120,105.75,120,105.61s-5-17.49-5-17.49l-5.34,5.45Z"/></g><g class="cls-1"><path class="cls-2" d="M400.93,141.92c.16-.14,15-8,15.71-8,0,0,4.27,5.51,5,6.64s1.74,2.4,1.74,2.4l-6.58,5.58-3.73-2.68.56,4.7-8.42,3.28Z"/><path class="cls-3" d="M400.52,141.94c.16-.14,15-8,15.71-8,0,0,4.27,5.51,5,6.64s1.74,2.4,1.74,2.4l-6.58,5.58-3.73-2.68.56,4.7-8.42,3.28Z"/></g><ellipse class="cls-4" cx="250" cy="237.72" rx="146" ry="46.5"/><path class="cls-2" d="M290.7,79.27a54.26,54.26,0,1,0-26.39,77.16l33.38,63.46c2,3.44,8.67,4.89,12.95,2.14a7.36,7.36,0,0,0,2.65-9.86l-36.44-63A54.07,54.07,0,0,0,290.7,79.27Zm-27.11,61.47a39.74,39.74,0,1,1,14.57-54.25A39.87,39.87,0,0,1,263.59,140.74Z"/><path class="cls-3" d="M287.08,79.27a54.26,54.26,0,1,0-26.39,77.16l36.44,63a7.23,7.23,0,0,0,12.54-7.22l-36.44-63A54.07,54.07,0,0,0,287.08,79.27ZM260,140.74a39.74,39.74,0,1,1,14.57-54.25A39.87,39.87,0,0,1,260,140.74Z"/></svg>