<svg id="图层_1" data-name="图层 1" xmlns="http://www.w3.org/2000/svg" xmlns:xlink="http://www.w3.org/1999/xlink" viewBox="0 0 500 300"><defs><style>.cls-1{fill:url(#未命名的渐变_50);}.cls-2{fill:url(#未命名的渐变_35);}.cls-3{fill:url(#未命名的渐变_35-2);}.cls-4{fill:#c7cce0;}.cls-5{fill:#e2e4ed;}.cls-6{opacity:0.8;}</style><linearGradient id="未命名的渐变_50" x1="250" y1="284.22" x2="250" y2="191.22" gradientUnits="userSpaceOnUse"><stop offset="0" stop-color="#fff9ef" stop-opacity="0"/><stop offset="0.17" stop-color="#fef8ef" stop-opacity="0.02"/><stop offset="0.32" stop-color="#fbf5ee" stop-opacity="0.06"/><stop offset="0.46" stop-color="#f5f1ec" stop-opacity="0.14"/><stop offset="0.6" stop-color="#edebea" stop-opacity="0.26"/><stop offset="0.74" stop-color="#e3e2e7" stop-opacity="0.4"/><stop offset="0.87" stop-color="#d6d8e4" stop-opacity="0.58"/><stop offset="0.99" stop-color="#c8cde0" stop-opacity="0.79"/><stop offset="1" stop-color="#c7cce0" stop-opacity="0.8"/></linearGradient><linearGradient id="未命名的渐变_35" x1="554.5" y1="-54.78" x2="610.27" y2="-110.55" gradientTransform="translate(-508.88 207.89)" xlink:href="#未命名的渐变_50"/><linearGradient id="未命名的渐变_35-2" x1="833.1" y1="-249.94" x2="888.87" y2="-305.72" gradientTransform="translate(-452.48 462.05)" xlink:href="#未命名的渐变_50"/></defs><title>购物车缺省页</title><ellipse class="cls-1" cx="250" cy="237.72" rx="146" ry="46.5"/><rect class="cls-2" x="59.5" y="75.22" width="28" height="100" rx="14" ry="14" transform="translate(110.07 -15.3) rotate(45)"/><rect class="cls-3" x="394.5" y="134.22" width="28" height="100" rx="14" ry="14" transform="translate(249.91 -234.9) rotate(45)"/><path class="cls-4" d="M297.46,76.79C294,72.24,287.31,59.85,287.6,57l.5,0s.8-2.29.32-2.46-17.21-2-17.21-2l-.26,2.8.34,0c-3.22,3-13.19,12.33-15.09,16.77l-2.27,5.31a8.38,8.38,0,0,1,4.8,1c2.25,1.33,3.25,7,15.37,6.06a13,13,0,0,1,5.36,1.34c3.42,1.47,6-1.69,9.16-.59s4.76,1.12,6.23.42,3.16-.11,4.55-1S301,81.42,297.46,76.79Z"/><path class="cls-5" d="M296.55,76.14c-3.48-4.55-10.15-17-9.86-19.78l.5,0s.8-2.29.32-2.46-17.21-2-17.21-2l-.26,2.8.34,0c-3.22,3-13.19,12.33-15.09,16.77L253,76.9a8.38,8.38,0,0,1,4.8,1c2.25,1.33,3.25,7,15.37,6.06a13,13,0,0,1,5.36,1.34c3.42,1.47,6-1.69,9.16-.59s4.76,1.12,6.23.42,3.16-.11,4.55-1S300.08,80.77,296.55,76.14Z"/><path class="cls-4" d="M323,88.26,339.5,88l3.94,1.29s-1.77,4.7,5,6.84,8.44-2.44,8.44-2.44L361,97.83,369,109.65s-6.51,6.82-7.09,6.48-5.86-6.88-5.86-6.88-10.64,23.44-10.87,23.21-24.41-11.88-24.34-12.09,12.27-20,12.27-20l-9.84-.31Z"/><path class="cls-5" d="M322.59,87.25,339,87,343,88.25s-1.77,4.7,5,6.84,8.44-2.44,8.44-2.44l4.07,4.16,8.07,11.81s-6.51,6.82-7.09,6.48-5.86-6.88-5.86-6.88S345,131.66,344.78,131.43s-24.41-11.88-24.34-12.09,12.27-20,12.27-20L322.87,99Z"/><g class="cls-6"><path class="cls-4" d="M425.56,19.21,428,20.4s-4.27,5.54-1.25,7.76,6.22,2.63,9.39-3.61l2.25,1s-8.23,18.4-8.29,20.66a33.62,33.62,0,0,1-9.91-3.14,56.85,56.85,0,0,1-6.72-3.93Z"/><path class="cls-5" d="M425.13,18.59l2.42,1.19s-4.27,5.54-1.25,7.76,6.22,2.63,9.39-3.61l2.25,1s-8.23,18.4-8.29,20.66a33.62,33.62,0,0,1-9.91-3.14A56.85,56.85,0,0,1,413,38.5Z"/></g><g class="cls-6"><path class="cls-4" d="M361.93,59.92c.16-.14,15-8,15.71-8,0,0,4.27,5.51,5,6.64s1.74,2.4,1.74,2.4l-6.58,5.58-3.73-2.68.56,4.7-8.42,3.28Z"/><path class="cls-5" d="M361.52,59.94c.16-.14,15-8,15.71-8,0,0,4.27,5.51,5,6.64s1.74,2.4,1.74,2.4l-6.58,5.58-3.73-2.68.56,4.7-8.42,3.28Z"/></g><ellipse class="cls-4" cx="182.08" cy="199.58" rx="9.06" ry="9.11"/><ellipse class="cls-4" cx="249.72" cy="199.58" rx="9.06" ry="9.11"/><path class="cls-4" d="M267.53,183l-89.12,2-.64,0a6.37,6.37,0,0,1-4.61-2.56,7.46,7.46,0,0,1-1.34-5.85,7,7,0,0,1,1.58-3.08l7.6-9.17,77.62-6.46a5.43,5.43,0,0,0,5.26-5.14l7.22-45.17c0-.16,0-.32,0-.47.79-5-4-7.41-7-7.41l-17.13,2a2,2,0,0,0-2.1,0h-13.6a2,2,0,0,0-2.1,0H215.64a2,2,0,0,0-2.1,0H199.93a2,2,0,0,0-2.1,0h-13.6a2,2,0,0,0-2.1,0H166.27a5.4,5.4,0,0,0-1,.09l-9.63-32.27a5.17,5.17,0,0,0-3.78-3.93l-26.11-5.4c-1.61-.42-5.3-1.2-5.72.4s.15,4.33,4.2,5.4l26.15,6.86,10.38,34.82,15.52,53-7.52,9.07a12.92,12.92,0,0,0-2.85,5.75A13.54,13.54,0,0,0,168.38,186c3.12,4.25,13.9,4.08,13.9,4.08h67.64l18.25.3a3.07,3.07,0,0,0,3-3A4,4,0,0,0,267.53,183ZM248,107.61h17l-3.46,21.64H248Zm0,25.64H260.9l-3,18.61-9.94.83Zm-15.7-25.64H244v21.64h-11.7Zm0,25.64H244V153l-11.7,1Zm-15.7-25.64h11.7v21.64h-11.7Zm0,25.64h11.7v21.08l-11.7,1Zm-15.7-25.64h11.7v21.64h-11.7Zm0,25.64h11.7v22.3s0,.06,0,.08l-11.71,1Zm-15.7-25.64h11.7v21.64h-11.7Zm0,25.64h11.7v23.69l-11.7,1ZM167,107.61h14.15v21.64h-7.81Zm7.51,25.64h6.64v22.66Z"/><ellipse class="cls-5" cx="180.58" cy="198.08" rx="9.06" ry="9.11"/><ellipse class="cls-5" cx="248.22" cy="198.08" rx="9.06" ry="9.11"/><path class="cls-5" d="M267,183H176.41l-.64,0a6.37,6.37,0,0,1-4.61-2.56,7.46,7.46,0,0,1-1.34-5.85,7,7,0,0,1,1.58-3.08l7.6-9.17,77.62-6.46a5.43,5.43,0,0,0,5.26-5.14l7.22-45.17a3.09,3.09,0,0,0,0-.47,5.43,5.43,0,0,0-5.42-5.43H245a2,2,0,0,0-2.1,0h-13.6a2,2,0,0,0-2.1,0H213.64a2,2,0,0,0-2.1,0H197.93a2,2,0,0,0-2.1,0h-13.6a2,2,0,0,0-2.1,0H164.27a5.4,5.4,0,0,0-1,.09l-9.63-32.27a3,3,0,0,0-2.11-2L123.76,58.1a3,3,0,1,0-1.52,5.8l26.15,6.86,10.38,34.82,15.52,53-7.52,9.07a12.92,12.92,0,0,0-2.85,5.75A13.36,13.36,0,0,0,166.38,184a12.3,12.3,0,0,0,8.91,4.92q.56,0,1.13,0H267a3,3,0,0,0,0-6Zm-21-77.36h17l-3.46,21.64H246Zm0,25.64H258.9l-3,18.61-9.94.83Zm-15.7-25.64H242v21.64h-11.7Zm0,25.64H242V151l-11.7,1Zm-15.7-25.64h11.7v21.64h-11.7Zm0,25.64h11.7v21.08l-11.7,1Zm-15.7-25.64h11.7v21.64h-11.7Zm0,25.64h11.7v22.3s0,.06,0,.08l-11.71,1Zm-15.7-25.64h11.7v21.64h-11.7Zm0,25.64h11.7v23.69l-11.7,1ZM165,105.61h14.15v21.64h-7.81Zm7.51,25.64h6.64v22.66Z"/></svg>