<svg id="图层_1" data-name="图层 1" xmlns="http://www.w3.org/2000/svg" xmlns:xlink="http://www.w3.org/1999/xlink" viewBox="0 0 500 300"><defs><style>.cls-1{fill:url(#未命名的渐变_50);}.cls-2{fill:url(#未命名的渐变_35);}.cls-3{fill:url(#未命名的渐变_35-2);}.cls-4{fill:url(#未命名的渐变_35-3);}.cls-5{fill:none;stroke:#afb7ce;stroke-miterlimit:10;}.cls-6{fill:#c7cce0;}.cls-7{fill:url(#未命名的渐变_25);}.cls-8{fill:#e2e4ed;}.cls-9{fill:#afb7ce;}</style><linearGradient id="未命名的渐变_50" x1="250" y1="284.22" x2="250" y2="191.22" gradientUnits="userSpaceOnUse"><stop offset="0" stop-color="#fff9ef" stop-opacity="0"/><stop offset="0.17" stop-color="#fef8ef" stop-opacity="0.02"/><stop offset="0.32" stop-color="#fbf5ee" stop-opacity="0.06"/><stop offset="0.46" stop-color="#f5f1ec" stop-opacity="0.14"/><stop offset="0.6" stop-color="#edebea" stop-opacity="0.26"/><stop offset="0.74" stop-color="#e3e2e7" stop-opacity="0.4"/><stop offset="0.87" stop-color="#d6d8e4" stop-opacity="0.58"/><stop offset="0.99" stop-color="#c8cde0" stop-opacity="0.79"/><stop offset="1" stop-color="#c7cce0" stop-opacity="0.8"/></linearGradient><linearGradient id="未命名的渐变_35" x1="399.26" y1="-429.55" x2="455.04" y2="-485.32" gradientTransform="translate(-353.65 582.65)" xlink:href="#未命名的渐变_50"/><linearGradient id="未命名的渐变_35-2" x1="677.86" y1="-624.71" x2="733.64" y2="-680.48" gradientTransform="translate(-297.25 836.81)" xlink:href="#未命名的渐变_50"/><linearGradient id="未命名的渐变_35-3" x1="599.37" y1="-728.65" x2="655.15" y2="-784.43" gradientTransform="translate(-200.76 811.76)" xlink:href="#未命名的渐变_50"/><linearGradient id="未命名的渐变_25" x1="300" y1="82.68" x2="300" y2="214.51" gradientUnits="userSpaceOnUse"><stop offset="0" stop-color="#fff"/><stop offset="0" stop-color="#e2e4ed"/><stop offset="0.25" stop-color="#dadde9"/><stop offset="1" stop-color="#c7cce0"/></linearGradient></defs><title>单品缺省页</title><ellipse class="cls-1" cx="250" cy="237.72" rx="146" ry="46.5"/><rect class="cls-2" x="59.5" y="75.22" width="28" height="100" rx="14" ry="14" transform="translate(110.07 -15.3) rotate(45)"/><rect class="cls-3" x="394.5" y="134.22" width="28" height="100" rx="14" ry="14" transform="translate(249.91 -234.9) rotate(45)"/><rect class="cls-4" x="412.5" y="5.22" width="28" height="100" rx="14" ry="14" transform="translate(163.97 -285.41) rotate(45)"/><path class="cls-5" d="M240.67,95.21S255,59.84,269.44,65s0,30.23,0,30.23"/><polygon class="cls-6" points="194.71 82.68 300.59 82.68 290 86.68 294.71 93.26 194.71 93.26 199.41 86.84 194.71 82.68"/><polygon class="cls-7" points="290 86.68 294.71 93.26 294.71 93.26 299.41 214.51 310 200.38 300.59 82.68 290 86.68"/><polygon class="cls-8" points="299.41 214.51 190 214.51 194.71 93.26 294.71 93.26 299.41 214.51"/><polygon class="cls-9" points="194.71 82.68 196.36 91.01 199.41 86.84 194.71 82.68"/><circle class="cls-6" cx="227.65" cy="101.5" r="2.35"/><circle class="cls-6" cx="260.59" cy="101.5" r="2.35"/><path class="cls-5" d="M227.65,101.5s11.18-45.32,27.65-39.43,5.29,39.43,5.29,39.43"/></svg>